<svg width="30" height="30" viewBox="0 0 30 30" fill="none" xmlns="http://www.w3.org/2000/svg">
<g id="About us">
<path id="Vector" d="M24.8438 10.4687C24.8438 12.8822 23.87 16.1849 22.2742 19.0095C21.3134 20.7099 19.2188 22.8938 19.2188 24.8438H15V1.40625C20.4366 1.40625 24.8438 5.33192 24.8438 10.4687Z" fill="#EAF5FA"/>
<path id="Vector_2" d="M15 9.375H19.2188V15H15V9.375Z" fill="#43AADC"/>
<path id="Vector_3" d="M5.15625 10.4687C5.15625 12.8822 6.13003 16.1849 7.72582 19.0095C8.68655 20.7099 10.7812 22.8938 10.7812 24.8438H15V1.40625C9.56344 1.40625 5.15625 5.33192 5.15625 10.4687Z" fill="#EAF5FA"/>
<path id="Vector_4" d="M18.8643 26.7188H11.1356C10.887 26.7188 10.6485 26.62 10.4727 26.4442C10.2969 26.2684 10.1981 26.0299 10.1981 25.7813V25.7484C10.1995 25.6287 10.2252 25.5105 10.2737 25.401C10.3221 25.2915 10.3923 25.193 10.48 25.1115C10.5677 25.03 10.671 24.9671 10.7837 24.9268C10.8964 24.8864 11.0161 24.8693 11.1356 24.8766H18.8643C18.9838 24.8693 19.1035 24.8864 19.2162 24.9268C19.3289 24.9671 19.4322 25.03 19.5199 25.1115C19.6076 25.193 19.6778 25.2915 19.7262 25.401C19.7747 25.5105 19.8004 25.6287 19.8018 25.7484V25.7813C19.8018 26.0299 19.703 26.2684 19.5272 26.4442C19.3514 26.62 19.1129 26.7188 18.8643 26.7188Z" fill="#43AADC"/>
<path id="Vector_5" d="M18.9844 26.7188H11.0156C10.4979 26.7188 10.0781 27.1385 10.0781 27.6562V27.6891C10.0781 28.2069 10.4979 28.6266 11.0156 28.6266H18.9844C19.5021 28.6266 19.9219 28.2069 19.9219 27.6891V27.6562C19.9219 27.1385 19.5021 26.7188 18.9844 26.7188Z" fill="#43AADC"/>
<path id="Vector_6" d="M14.2006 5.67847L13.9949 6.65714C13.6914 6.71243 13.393 6.79284 13.1029 6.89752L12.4311 6.14768C11.9412 6.3588 11.479 6.62899 11.0547 6.95226L11.3654 7.89834C11.1298 8.09825 10.9109 8.31714 10.711 8.55281L9.7649 8.24203C9.4416 8.66632 9.17139 9.12854 8.96026 9.61841L9.71008 10.2902C9.60537 10.5804 9.52495 10.8788 9.46967 11.1824L8.49097 11.3881C8.41968 11.9186 8.41968 12.4563 8.49097 12.9869L9.46964 13.1925C9.52491 13.4961 9.60532 13.7944 9.71002 14.0846L8.96018 14.7564C9.1713 15.2463 9.44149 15.7085 9.76475 16.1328L10.7108 15.8221C10.9107 16.0577 11.1296 16.2766 11.3653 16.4765L11.0545 17.4226C11.4788 17.7459 11.9411 18.0161 12.4309 18.2273L13.1028 17.4774C13.393 17.5821 13.6914 17.6625 13.9949 17.7179L14.2006 18.6965C14.4657 18.7305 14.7327 18.7484 15 18.75V5.625C14.7327 5.62661 14.4658 5.64447 14.2006 5.67847Z" fill="#E64C49"/>
<path id="Vector_7" d="M15 15.9375C14.0054 15.9375 13.0516 15.5424 12.3483 14.8392C11.6451 14.1359 11.25 13.1821 11.25 12.1875C11.25 11.1929 11.6451 10.2391 12.3483 9.53585C13.0516 8.83259 14.0054 8.4375 15 8.4375" fill="#EAF5FA"/>
<path id="Vector_8" d="M17.8125 6.09375C18.3303 6.09375 18.75 5.67402 18.75 5.15625C18.75 4.63848 18.3303 4.21875 17.8125 4.21875C17.2947 4.21875 16.875 4.63848 16.875 5.15625C16.875 5.67402 17.2947 6.09375 17.8125 6.09375Z" fill="#1EDEB7"/>
<path id="Vector_9" d="M21.5625 8.4375C22.0803 8.4375 22.5 8.01777 22.5 7.5C22.5 6.98223 22.0803 6.5625 21.5625 6.5625C21.0447 6.5625 20.625 6.98223 20.625 7.5C20.625 8.01777 21.0447 8.4375 21.5625 8.4375Z" fill="#1EDEB7"/>
<path id="Vector_10" d="M23.9062 14.5312C24.424 14.5312 24.8438 14.1115 24.8438 13.5938C24.8438 13.076 24.424 12.6562 23.9062 12.6562C23.3885 12.6562 22.9688 13.076 22.9688 13.5938C22.9688 14.1115 23.3885 14.5312 23.9062 14.5312Z" fill="#1EDEB7"/>
<path id="Vector_11" d="M18.75 20.1562C19.2678 20.1562 19.6875 19.7365 19.6875 19.2188C19.6875 18.701 19.2678 18.2812 18.75 18.2812C18.2322 18.2812 17.8125 18.701 17.8125 19.2188C17.8125 19.7365 18.2322 20.1562 18.75 20.1562Z" fill="#1EDEB7"/>
<path id="Vector_12" d="M19.9545 23.6417L19.0829 23.2965C19.2092 22.9823 19.3554 22.6765 19.5207 22.381L20.3415 22.8342C20.1954 23.0948 20.0661 23.3645 19.9545 23.6417Z" fill="black"/>
<path id="Vector_13" d="M20.8181 22.0444L20.0312 21.5354C20.207 21.2635 20.3908 20.9943 20.5751 20.7297L21.3446 21.2653C21.1663 21.5217 20.9884 21.7817 20.8181 22.0444Z" fill="black"/>
<path id="Vector_14" d="M21.8923 20.4817L21.1223 19.947C21.307 19.6806 21.4833 19.421 21.6414 19.1702L22.4347 19.6691C22.2697 19.9319 22.0857 20.2033 21.8923 20.4817Z" fill="black"/>
<path id="Vector_15" d="M22.9265 18.8122L22.0997 18.37C22.2462 18.0958 22.3867 17.8179 22.5211 17.5364L23.367 17.9401C23.2267 18.234 23.0799 18.5247 22.9265 18.8122Z" fill="black"/>
<path id="Vector_16" d="M23.7684 17.0513L22.9055 16.6842C23.0282 16.3963 23.1442 16.1061 23.2532 15.8163L24.1307 16.1459C24.0172 16.4484 23.8964 16.7503 23.7684 17.0513Z" fill="black"/>
<path id="Vector_17" d="M25.2729 11.3887L24.3386 11.31C24.3629 11.0243 24.375 10.7465 24.375 10.4851L24.3745 10.399L25.312 10.3917L25.3125 10.4851C25.3125 10.773 25.2992 11.077 25.2729 11.3887Z" fill="black"/>
<path id="Vector_18" d="M24.3167 9.49808C24.2812 9.19924 24.2291 8.9026 24.1606 8.60956L25.0734 8.39624C25.1498 8.72312 25.2081 9.05398 25.2478 9.3873L24.3167 9.49808Z" fill="black"/>
<path id="Vector_19" d="M23.9065 7.74445C23.8053 7.46082 23.6886 7.18299 23.5568 6.91223L24.3995 6.50208C24.5467 6.80403 24.6769 7.11396 24.7895 7.43042L23.9065 7.74445Z" fill="black"/>
<path id="Vector_20" d="M23.117 6.12488C22.9555 5.87012 22.7805 5.62411 22.5929 5.38788L23.3272 4.80469C23.5356 5.06731 23.73 5.34082 23.9094 5.62406L23.117 6.12488Z" fill="black"/>
<path id="Vector_21" d="M21.9931 4.70944C21.781 4.49386 21.558 4.28927 21.325 4.09649L21.9223 3.37415C22.1801 3.58739 22.4268 3.81367 22.6614 4.0521L21.9931 4.70944Z" fill="black"/>
<path id="Vector_22" d="M20.5969 3.55219C20.3479 3.38464 20.0858 3.22626 19.818 3.08161L20.2639 2.25671C20.5582 2.41602 20.8461 2.58997 21.1201 2.77399L20.5969 3.55219Z" fill="black"/>
<path id="Vector_23" d="M18.9968 2.68796C18.7219 2.57124 18.4346 2.46503 18.1426 2.37256L18.4264 1.479C18.7461 1.58063 19.0615 1.6969 19.3634 1.82553L18.9968 2.68796Z" fill="black"/>
<path id="Vector_24" d="M17.261 2.13592C16.9666 2.07046 16.664 2.01782 16.3617 1.97889L16.4816 1.04871C16.8117 1.09174 17.1422 1.14942 17.4638 1.22037L17.261 2.13592Z" fill="black"/>
<path id="Vector_25" d="M23.9062 12.1875C23.6164 12.1884 23.3339 12.279 23.0976 12.4468C22.8612 12.6147 22.6827 12.8516 22.5864 13.125H19.6875V11.25H21.5625C21.6241 11.25 21.685 11.2379 21.7419 11.2143C21.7988 11.1908 21.8505 11.1563 21.894 11.1127C21.9375 11.0692 21.972 11.0175 21.9956 10.9607C22.0192 10.9038 22.0313 10.8428 22.0312 10.7812V8.81987C22.344 8.7093 22.6076 8.49172 22.7755 8.20559C22.9434 7.91945 23.0047 7.58319 22.9486 7.25622C22.8925 6.92925 22.7226 6.63264 22.469 6.41881C22.2154 6.20497 21.8943 6.08769 21.5626 6.08768C21.2308 6.08767 20.9098 6.20493 20.6561 6.41875C20.4025 6.63257 20.2326 6.92917 20.1765 7.25614C20.1204 7.5831 20.1817 7.91937 20.3495 8.20552C20.5174 8.49166 20.781 8.70926 21.0938 8.81984V10.3125H19.6875V9.375C19.6875 9.31344 19.6754 9.25247 19.6519 9.1956C19.6283 9.13872 19.5938 9.08704 19.5502 9.04351C19.5067 8.99998 19.455 8.96545 19.3982 8.9419C19.3413 8.91835 19.2803 8.90623 19.2188 8.90625H18.2812V6.47612C18.594 6.36555 18.8576 6.14797 19.0255 5.86184C19.1934 5.5757 19.2547 5.23944 19.1986 4.91247C19.1425 4.5855 18.9726 4.28889 18.719 4.07506C18.4654 3.86122 18.1443 3.74394 17.8126 3.74393C17.4808 3.74392 17.1598 3.86118 16.9061 4.075C16.6525 4.28882 16.4826 4.58542 16.4265 4.91239C16.3704 5.23935 16.4317 5.57562 16.5995 5.86177C16.7674 6.14791 17.031 6.36551 17.3438 6.47609V8.90625H15.4688V1.42273C15.4688 1.36117 15.4567 1.30021 15.4331 1.24333C15.4096 1.18645 15.375 1.13477 15.3315 1.09124C15.288 1.04771 15.2363 1.01318 15.1794 0.989627C15.1225 0.966076 15.0616 0.953963 15 0.95398C9.2173 0.95398 4.6875 5.14069 4.6875 10.4851C4.6875 13.0238 5.69527 16.3852 7.31781 19.2567C7.60918 19.7722 7.98935 20.3142 8.39172 20.8882C9.24253 22.1011 10.1894 23.4649 10.2924 24.6522C10.1149 24.7776 9.9708 24.9446 9.87265 25.1385C9.77451 25.3325 9.72529 25.5475 9.7293 25.7648C9.73064 26.0817 9.84009 26.3887 10.0396 26.635C9.90221 26.7705 9.7934 26.9322 9.71952 27.1104C9.64563 27.2886 9.60818 27.4798 9.60938 27.6727C9.60978 28.0456 9.75807 28.403 10.0217 28.6666C10.2853 28.9303 10.6428 29.0786 11.0156 29.079H18.9844C19.1715 29.0778 19.3565 29.0396 19.5288 28.9664C19.701 28.8933 19.8571 28.7867 19.9878 28.6528C20.1186 28.519 20.2216 28.3605 20.2907 28.1866C20.3598 28.0128 20.3938 27.8269 20.3906 27.6398C20.3905 27.4511 20.3522 27.2644 20.278 27.0909C20.2039 26.9174 20.0955 26.7606 19.9592 26.6301C20.1612 26.3743 20.271 26.0578 20.2707 25.7318C20.2703 25.5503 20.2332 25.3707 20.1616 25.2039C20.09 25.0371 19.9853 24.8865 19.8539 24.7612C19.7225 24.636 19.567 24.5387 19.397 24.4751C19.2269 24.4116 19.0458 24.3831 18.8644 24.3915H15.4688V15.4687H16.4062V16.875C16.4062 16.9366 16.4183 16.9975 16.4419 17.0544C16.4654 17.1113 16.5 17.163 16.5435 17.2065C16.587 17.25 16.6387 17.2845 16.6956 17.3081C16.7525 17.3317 16.8134 17.3438 16.875 17.3437H18.2812V17.8989C17.9685 18.0095 17.7049 18.227 17.537 18.5132C17.3692 18.7993 17.3079 19.1355 17.364 19.4625C17.4201 19.7894 17.59 20.086 17.8436 20.2999C18.0972 20.5137 18.4183 20.6309 18.75 20.6309C19.0817 20.6309 19.4028 20.5137 19.6564 20.2999C19.91 20.086 20.0799 19.7894 20.136 19.4625C20.1921 19.1355 20.1308 18.7993 19.963 18.5132C19.7951 18.227 19.5315 18.0095 19.2188 17.8989V16.875C19.2188 16.8134 19.2067 16.7525 19.1831 16.6956C19.1596 16.6387 19.125 16.587 19.0815 16.5435C19.038 16.5 18.9863 16.4654 18.9294 16.4419C18.8725 16.4183 18.8116 16.4062 18.75 16.4062H17.3438V15.4687H19.2188C19.2803 15.4688 19.3413 15.4567 19.3982 15.4331C19.455 15.4095 19.5067 15.375 19.5502 15.3315C19.5938 15.288 19.6283 15.2363 19.6519 15.1794C19.6754 15.1225 19.6875 15.0616 19.6875 15V14.0625H22.5864C22.6728 14.3049 22.8241 14.5189 23.0239 14.6811C23.2236 14.8432 23.4641 14.9474 23.7191 14.9822C23.974 15.0169 24.2336 14.981 24.4695 14.8782C24.7054 14.7754 24.9085 14.6097 25.0566 14.3993C25.2047 14.1889 25.2922 13.9418 25.3094 13.6851C25.3266 13.4283 25.2729 13.1718 25.1541 12.9435C25.0354 12.7152 24.8562 12.524 24.6361 12.3907C24.416 12.2573 24.1636 12.187 23.9062 12.1875ZM21.5625 7.03125C21.6552 7.03125 21.7458 7.05874 21.8229 7.11025C21.9 7.16175 21.9601 7.23496 21.9956 7.32062C22.031 7.40627 22.0403 7.50052 22.0222 7.59145C22.0042 7.68238 21.9595 7.7659 21.894 7.83145C21.8284 7.89701 21.7449 7.94165 21.6539 7.95974C21.563 7.97783 21.4688 7.96855 21.3831 7.93307C21.2975 7.89759 21.2243 7.83751 21.1727 7.76042C21.1212 7.68334 21.0938 7.59271 21.0938 7.5C21.0939 7.37572 21.1433 7.25656 21.2312 7.16868C21.3191 7.0808 21.4382 7.03137 21.5625 7.03125ZM9.15938 20.3499C8.77028 19.7951 8.40292 19.2714 8.13398 18.7953C6.60988 16.0977 5.625 12.8357 5.625 10.4851C5.625 5.81039 9.5002 2.11807 14.5312 1.90155V5.17624C14.4068 5.18556 14.2799 5.19686 14.144 5.21349C14.0469 5.2253 13.956 5.26718 13.8839 5.33326C13.8118 5.39934 13.7622 5.48631 13.7421 5.58199L13.5992 6.26131C13.4816 6.28923 13.3643 6.32082 13.2472 6.35607L12.7801 5.83513C12.7148 5.76212 12.6283 5.71141 12.5327 5.69014C12.4371 5.66887 12.3373 5.67811 12.2472 5.71657C11.7226 5.9428 11.2274 6.23193 10.7725 6.57762C10.6944 6.63651 10.6367 6.71835 10.6075 6.81169C10.5782 6.90502 10.5789 7.00516 10.6093 7.0981L10.8245 7.75362C10.7359 7.83693 10.6497 7.92345 10.5661 8.0118L9.91125 7.79664C9.8183 7.76654 9.7183 7.76605 9.62506 7.79525C9.53183 7.82444 9.44996 7.88187 9.39077 7.95961C9.04465 8.41456 8.75527 8.91 8.52903 9.43498C8.49064 9.52505 8.48143 9.62488 8.50269 9.72045C8.52396 9.81602 8.57463 9.90253 8.64759 9.96782L9.16876 10.4347C9.13374 10.5505 9.10238 10.6667 9.07469 10.7831L8.3457 10.9287C8.23942 10.9499 8.14378 11.0073 8.07505 11.091C8.00632 11.1748 7.96876 11.2799 7.96875 11.3882V12.9868C7.96875 13.0951 8.00632 13.2002 8.07505 13.284C8.14378 13.3678 8.23943 13.4251 8.34572 13.4464L9.07471 13.5919C9.1024 13.7082 9.13376 13.8243 9.16878 13.9403L8.64738 14.4072C8.57451 14.4725 8.5239 14.5591 8.50264 14.6546C8.48138 14.7501 8.49054 14.8499 8.52882 14.94C8.75509 15.465 9.04447 15.9604 9.39056 16.4154C9.44969 16.4932 9.53155 16.5507 9.62481 16.5799C9.71807 16.6091 9.8181 16.6086 9.91104 16.5784L10.5659 16.3632C10.6497 16.4516 10.7357 16.5381 10.8243 16.6214L10.6091 17.276C10.5787 17.3689 10.578 17.469 10.6072 17.5624C10.6364 17.6557 10.6941 17.7375 10.7721 17.7965C11.227 18.1426 11.7224 18.4321 12.2473 18.6584C12.3373 18.6967 12.4371 18.7058 12.5327 18.6845C12.6282 18.6633 12.7147 18.6127 12.7801 18.5399L13.2472 18.0189C13.3642 18.0542 13.4815 18.0858 13.5993 18.1137L13.7419 18.7926C13.7619 18.8883 13.8115 18.9754 13.8836 19.0416C13.9557 19.1077 14.0467 19.1497 14.1438 19.1615C14.2798 19.1782 14.4068 19.1894 14.5313 19.1988V24.3915H11.2096C11.018 23.0101 10.0395 21.6048 9.15938 20.3499ZM10.7812 12.1875C10.7827 13.2246 11.1657 14.225 11.8573 14.9979C12.5489 15.7708 13.5006 16.2623 14.5312 16.3786V17.9906L14.4537 17.6216C14.4345 17.5303 14.3885 17.4467 14.3216 17.3816C14.2547 17.3165 14.1699 17.2729 14.0781 17.2563C13.8002 17.2057 13.527 17.1321 13.2614 17.0361C13.2105 17.018 13.1568 17.0088 13.1028 17.0087C13.0369 17.0087 12.9718 17.0226 12.9116 17.0495C12.8515 17.0764 12.7977 17.1157 12.7538 17.1648L12.3129 17.6564C12.0687 17.5343 11.8329 17.3959 11.6073 17.2421L11.8108 16.6228C11.8399 16.534 11.8419 16.4386 11.8165 16.3488C11.7911 16.2589 11.7394 16.1787 11.6682 16.1183C11.452 15.9353 11.2514 15.7347 11.0683 15.5187C11.0077 15.4478 10.9276 15.3966 10.8379 15.3713C10.7482 15.346 10.6531 15.3479 10.5645 15.3767L9.94538 15.5804C9.79154 15.3547 9.65305 15.1189 9.53087 14.8746L10.023 14.4337C10.0923 14.3714 10.1416 14.2899 10.1645 14.1995C10.1873 14.1091 10.1828 14.0139 10.1514 13.9261C10.0555 13.6604 9.98183 13.3873 9.93118 13.1094C9.91446 13.0169 9.87026 12.9315 9.80434 12.8644C9.73841 12.7972 9.65381 12.7515 9.56154 12.7332L8.90625 12.6022V11.7728L9.56156 11.6418C9.65383 11.6235 9.73843 11.5778 9.80436 11.5107C9.87029 11.4435 9.91448 11.3581 9.9312 11.2656C9.9819 10.9876 10.0555 10.7143 10.1514 10.4484C10.1828 10.3606 10.1874 10.2654 10.1645 10.175C10.1416 10.0846 10.0922 10.003 10.0227 9.94078L9.53109 9.50043C9.65337 9.2562 9.79177 9.02039 9.94537 8.79455L10.5647 8.99826C10.6533 9.02704 10.7485 9.02891 10.8381 9.00366C10.9278 8.9784 11.0079 8.92714 11.0685 8.85635C11.252 8.64009 11.4528 8.43909 11.6688 8.25531C11.7398 8.19506 11.7913 8.11502 11.8165 8.02541C11.8418 7.9358 11.8398 7.84069 11.8108 7.75223L11.6075 7.13287C11.8331 6.97918 12.0688 6.84077 12.3129 6.7186L12.7538 7.21024C12.8161 7.27956 12.8977 7.32879 12.988 7.35169C13.0784 7.3746 13.1736 7.37013 13.2614 7.33887C13.527 7.24285 13.8002 7.1692 14.0781 7.11868C14.1699 7.10218 14.2547 7.05865 14.3216 6.99365C14.3885 6.92865 14.4345 6.84514 14.4537 6.75384L14.5312 6.38488V7.9964C13.5006 8.11271 12.5489 8.60415 11.8573 9.37707C11.1657 10.15 10.7827 11.1503 10.7812 12.1875ZM14.5312 8.94367V15.4313C13.7506 15.3195 13.0364 14.93 12.5198 14.3341C12.0032 13.7383 11.7188 12.9761 11.7188 12.1875C11.7188 11.3989 12.0032 10.6367 12.5198 10.0408C13.0364 9.44498 13.7506 9.05543 14.5312 8.94367ZM18.9844 28.1415H11.0156C10.9516 28.1404 10.8884 28.1264 10.8298 28.1004C10.7713 28.0744 10.7186 28.0369 10.6748 27.9901C10.6311 27.9432 10.5972 27.8881 10.5752 27.8279C10.5532 27.7677 10.5436 27.7038 10.5469 27.6398C10.547 27.5155 10.5964 27.3963 10.6843 27.3084C10.7722 27.2206 10.8913 27.1711 11.0156 27.171H18.9844C19.0484 27.1721 19.1116 27.1861 19.1702 27.2121C19.2287 27.2381 19.2814 27.2756 19.3252 27.3224C19.3689 27.3693 19.4028 27.4244 19.4248 27.4846C19.4468 27.5448 19.4564 27.6087 19.4531 27.6727C19.453 27.797 19.4036 27.9162 19.3157 28.004C19.2278 28.0919 19.1087 28.1414 18.9844 28.1415ZM18.8644 25.329C18.9246 25.3234 18.9852 25.3306 19.0424 25.3501C19.0996 25.3696 19.152 25.401 19.1962 25.4421C19.2405 25.4832 19.2755 25.5332 19.2991 25.5888C19.3227 25.6444 19.3343 25.7044 19.3332 25.7648C19.3331 25.889 19.2836 26.0082 19.1958 26.0961C19.1079 26.184 18.9887 26.2334 18.8644 26.2335H11.1356C11.0715 26.2324 11.0083 26.2185 10.9498 26.1925C10.8912 26.1665 10.8385 26.1289 10.7948 26.0821C10.751 26.0353 10.7171 25.9801 10.6952 25.92C10.6732 25.8598 10.6635 25.7958 10.6668 25.7318C10.6693 25.6739 10.6836 25.6172 10.7089 25.5651C10.7342 25.5129 10.77 25.4666 10.8139 25.4288C10.8578 25.3911 10.909 25.3627 10.9644 25.3455C11.0197 25.3284 11.078 25.3227 11.1356 25.329H18.8644ZM18.75 18.75C18.8427 18.75 18.9333 18.7775 19.0104 18.829C19.0875 18.8805 19.1476 18.9537 19.1831 19.0394C19.2185 19.125 19.2278 19.2193 19.2097 19.3102C19.1917 19.4011 19.147 19.4846 19.0815 19.5502C19.0159 19.6158 18.9324 19.6604 18.8414 19.6785C18.7505 19.6966 18.6563 19.6873 18.5706 19.6518C18.485 19.6163 18.4118 19.5563 18.3602 19.4792C18.3087 19.4021 18.2812 19.3115 18.2812 19.2187C18.2814 19.0945 18.3308 18.9753 18.4187 18.8874C18.5066 18.7995 18.6257 18.7501 18.75 18.75ZM17.8125 4.6875C17.9052 4.6875 17.9958 4.71499 18.0729 4.7665C18.15 4.818 18.2101 4.89121 18.2456 4.97687C18.281 5.06252 18.2903 5.15677 18.2722 5.2477C18.2542 5.33863 18.2095 5.42215 18.144 5.4877C18.0784 5.55326 17.9949 5.5979 17.9039 5.61599C17.813 5.63408 17.7188 5.6248 17.6331 5.58932C17.5475 5.55384 17.4743 5.49376 17.4227 5.41667C17.3712 5.33959 17.3438 5.24896 17.3438 5.15625C17.3439 5.03197 17.3933 4.91281 17.4812 4.82493C17.5691 4.73705 17.6882 4.68762 17.8125 4.6875ZM18.75 14.5312H15.4688V9.84375H18.75V14.5312ZM23.9062 14.0625C23.8135 14.0625 23.7229 14.035 23.6458 13.9835C23.5687 13.932 23.5087 13.8588 23.4732 13.7731C23.4377 13.6875 23.4284 13.5932 23.4465 13.5023C23.4646 13.4114 23.5092 13.3278 23.5748 13.2623C23.6403 13.1967 23.7239 13.1521 23.8148 13.134C23.9057 13.1159 24 13.1252 24.0856 13.1607C24.1713 13.1962 24.2445 13.2562 24.296 13.3333C24.3475 13.4104 24.375 13.501 24.375 13.5937C24.3749 13.718 24.3255 13.8372 24.2376 13.9251C24.1497 14.0129 24.0305 14.0624 23.9062 14.0625Z" fill="black"/>
</g>
</svg>
