<svg width="41" height="40" viewBox="0 0 41 40" fill="none" xmlns="http://www.w3.org/2000/svg">
<g clip-path="url(#clip0_2004_2738)">
<path d="M9.41669 22.5V33.125C9.41669 33.4565 9.28499 33.7745 9.05057 34.0089C8.81615 34.2433 8.49821 34.375 8.16669 34.375C7.83517 34.375 7.51722 34.2433 7.2828 34.0089C7.04838 33.7745 6.91669 33.4565 6.91669 33.125V22.5C6.91768 22.1688 7.04969 21.8514 7.2839 21.6172C7.5181 21.383 7.83547 21.251 8.16669 21.25C8.49745 21.2525 8.81397 21.3849 9.04786 21.6188C9.28175 21.8527 9.41423 22.1692 9.41669 22.5Z" fill="#202B46"/>
<path d="M31.9167 22.5V33.125V34.375H25.0417V26.875V19.375H31.9167V22.5Z" fill="#2FDAB7"/>
<path d="M31.9167 34.375V36.875H25.0417V35.625V34.375H31.9167Z" fill="#78D2FA"/>
<path d="M31.9167 16.875V19.375H25.0417V18.125V16.875H31.9167Z" fill="#78D2FA"/>
<path d="M31.9167 15V16.875H25.0417V15C25.0417 14.8342 25.1075 14.6753 25.2247 14.5581C25.342 14.4408 25.5009 14.375 25.6667 14.375H31.2917C31.4574 14.375 31.6164 14.4408 31.7336 14.5581C31.8508 14.6753 31.9167 14.8342 31.9167 15Z" fill="#2FDAB7"/>
<path d="M14.8229 34.375C14.5662 35.1064 14.0884 35.7399 13.4558 36.1878C12.8231 36.6357 12.0668 36.8759 11.2917 36.875H9.41669V34.375H14.8229Z" fill="#78D2FA"/>
<path d="M16.2917 26.875V34.375H9.41669V33.125V22.5V19.375H16.2917V26.875Z" fill="#2FDAB7"/>
<path d="M16.2917 18.125V19.375H9.41669V16.875H16.2917V18.125Z" fill="#78D2FA"/>
<path d="M16.2917 15V16.875H9.41669V15C9.41669 14.8342 9.48254 14.6753 9.59975 14.5581C9.71696 14.4408 9.87593 14.375 10.0417 14.375H15.6667C15.8324 14.375 15.9914 14.4408 16.1086 14.5581C16.2258 14.6753 16.2917 14.8342 16.2917 15Z" fill="#2FDAB7"/>
<path d="M16.2917 15V16.875H15.0417V14.375H15.6667C15.8324 14.375 15.9914 14.4408 16.1086 14.5581C16.2258 14.6753 16.2917 14.8342 16.2917 15Z" fill="#2FDAB7"/>
<path d="M15.0417 16.875H16.2917V19.375H15.0417V16.875Z" fill="#78D2FA"/>
<path d="M16.2917 19.375V34.375H14.8229C14.9688 33.9744 15.0428 33.5513 15.0417 33.125V19.375H16.2917Z" fill="#2FDAB7"/>
<path d="M16.2917 34.375V36.875H11.2917C12.0668 36.8759 12.8231 36.6357 13.4558 36.1878C14.0884 35.7399 14.5662 35.1064 14.8229 34.375H16.2917Z" fill="#78D2FA"/>
<path d="M16.2917 36.875V38.75C16.2917 38.9158 16.2258 39.0747 16.1086 39.1919C15.9914 39.3092 15.8324 39.375 15.6667 39.375H10.0417C9.87593 39.375 9.71696 39.3092 9.59975 39.1919C9.48254 39.0747 9.41669 38.9158 9.41669 38.75V36.875H16.2917Z" fill="#2FDAB7"/>
<path d="M31.9167 15V16.875H30.6667V14.375H31.2917C31.4574 14.375 31.6164 14.4408 31.7336 14.5581C31.8508 14.6753 31.9167 14.8342 31.9167 15Z" fill="#2FDAB7"/>
<path d="M30.6667 16.875H31.9167V19.375H30.6667V16.875Z" fill="#78D2FA"/>
<path d="M31.9167 19.375V34.375H30.4479C30.5938 33.9744 30.6678 33.5513 30.6667 33.125V19.375H31.9167Z" fill="#2FDAB7"/>
<path d="M31.9167 34.375V36.875H26.9167C27.6918 36.8759 28.4481 36.6357 29.0808 36.1878C29.7134 35.7399 30.1912 35.1064 30.4479 34.375H31.9167Z" fill="#78D2FA"/>
<path d="M31.9167 36.875V38.75C31.9167 38.9158 31.8508 39.0747 31.7336 39.1919C31.6164 39.3092 31.4574 39.375 31.2917 39.375H25.6667C25.5009 39.375 25.342 39.3092 25.2247 39.1919C25.1075 39.0747 25.0417 38.9158 25.0417 38.75V36.875H31.9167Z" fill="#2FDAB7"/>
<path d="M40.0417 24.75V30.875C40.0404 31.1593 39.9427 31.4347 39.7644 31.6561C39.5861 31.8776 39.3379 32.0319 39.0604 32.0937L34.4167 33.125V22.5L38.7917 23.4687V23.475L39.0604 23.5313C39.3379 23.5931 39.5861 23.7474 39.7644 23.9689C39.9427 24.1903 40.0404 24.4657 40.0417 24.75Z" fill="#EAEAEA"/>
<path d="M40.0417 24.75V30.875C40.0404 31.1592 39.9427 31.4346 39.7644 31.6561C39.5861 31.8775 39.3379 32.0318 39.0604 32.0937L34.4167 33.125V31.4562L37.1854 30.8437C37.4629 30.7818 37.7111 30.6275 37.8894 30.4061C38.0677 30.1846 38.1654 29.9092 38.1667 29.625V23.5C38.1659 23.4414 38.1617 23.383 38.1542 23.325L38.7917 23.4687V23.475L39.0604 23.5312C39.3379 23.5931 39.5861 23.7474 39.7644 23.9688C39.9427 24.1903 40.0404 24.4657 40.0417 24.75Z" fill="#DAD4D4"/>
<path d="M38.7916 20.625H38.7479C38.4317 20.6255 38.1271 20.5056 37.8961 20.2897C37.6651 20.0738 37.5249 19.778 37.5041 19.4625C36.9291 10.3562 29.5979 3.125 20.6666 3.125C11.7354 3.125 4.40414 10.3562 3.82914 19.4625C3.80833 19.778 3.66819 20.0738 3.43717 20.2897C3.20615 20.5056 2.9016 20.6255 2.58539 20.625H2.54164C2.21884 20.6137 1.91294 20.4779 1.68807 20.246C1.4632 20.0142 1.33681 19.7042 1.33539 19.3813V19.2938C1.99789 8.88125 10.4166 0.625 20.6666 0.625C30.9166 0.625 39.3354 8.88125 39.9979 19.2938C40.0089 19.461 39.9861 19.6287 39.931 19.787C39.8758 19.9452 39.7894 20.0908 39.6769 20.215C39.5643 20.3392 39.428 20.4395 39.2759 20.5099C39.1238 20.5804 38.9591 20.6195 38.7916 20.625Z" fill="#202B46"/>
<path d="M39.9979 19.2938C40.0089 19.461 39.9862 19.6287 39.931 19.787C39.8759 19.9452 39.7895 20.0908 39.6769 20.215C39.5644 20.3392 39.428 20.4395 39.276 20.5099C39.1239 20.5804 38.9592 20.6195 38.7917 20.625H38.7479C38.53 20.6278 38.3156 20.5693 38.1292 20.4562C38.33 20.3389 38.4942 20.1681 38.6035 19.9628C38.7128 19.7575 38.7628 19.5258 38.7479 19.2938C38.0979 9.09375 30.0104 0.9625 20.0417 0.64375C20.2479 0.63125 20.4604 0.625 20.6667 0.625C30.9167 0.625 39.3354 8.88125 39.9979 19.2938Z" fill="#202B46"/>
<path d="M34.4167 22.5V33.125C34.4167 33.4565 34.285 33.7745 34.0506 34.0089C33.8162 34.2433 33.4982 34.375 33.1667 34.375C32.8352 34.375 32.5172 34.2433 32.2828 34.0089C32.0484 33.7745 31.9167 33.4565 31.9167 33.125V22.5C31.9191 22.1692 32.0516 21.8527 32.2855 21.6188C32.5194 21.3849 32.8359 21.2525 33.1667 21.25C33.4979 21.251 33.8153 21.383 34.0495 21.6172C34.2837 21.8514 34.4157 22.1688 34.4167 22.5Z" fill="#202B46"/>
<path d="M34.4167 22.4999V33.1249C34.4165 33.3443 34.3585 33.5596 34.2487 33.7495C34.1389 33.9393 33.9811 34.097 33.7911 34.2065C33.6011 34.3161 33.3857 34.3737 33.1664 34.3737C32.9471 34.3736 32.7316 34.3158 32.5417 34.2062C32.7315 34.0966 32.8892 33.939 32.9989 33.7492C33.1086 33.5594 33.1665 33.3441 33.1667 33.1249V22.4999C33.1665 22.2807 33.1086 22.0654 32.9989 21.8757C32.8892 21.6859 32.7315 21.5283 32.5417 21.4187C32.7316 21.309 32.9471 21.2513 33.1664 21.2512C33.3857 21.2512 33.6011 21.3088 33.7911 21.4184C33.9811 21.5279 34.1389 21.6855 34.2487 21.8754C34.3585 22.0652 34.4165 22.2806 34.4167 22.4999Z" fill="#202B46"/>
<path d="M9.41669 22.4999V33.1249C9.41646 33.3443 9.35854 33.5596 9.24874 33.7495C9.13894 33.9393 8.98112 34.097 8.79113 34.2065C8.60115 34.3161 8.38568 34.3737 8.16637 34.3737C7.94705 34.3736 7.73162 34.3158 7.54169 34.2062C7.73152 34.0966 7.8892 33.939 7.9989 33.7492C8.1086 33.5594 8.16646 33.3441 8.16669 33.1249V22.4999C8.16646 22.2807 8.1086 22.0654 7.9989 21.8757C7.8892 21.6859 7.73152 21.5283 7.54169 21.4187C7.73162 21.309 7.94705 21.2513 8.16637 21.2512C8.38568 21.2512 8.60115 21.3088 8.79113 21.4184C8.98112 21.5279 9.13894 21.6855 9.24874 21.8754C9.35854 22.0652 9.41646 22.2806 9.41669 22.4999Z" fill="#202B46"/>
<path d="M25.0417 36.875V38.75C25.0417 38.9158 24.9758 39.0747 24.8586 39.1919C24.7414 39.3092 24.5824 39.375 24.4167 39.375H16.9167C16.7509 39.375 16.592 39.3092 16.4747 39.1919C16.3575 39.0747 16.2917 38.9158 16.2917 38.75V26.875H25.0417V36.875Z" fill="#FFD980"/>
<path d="M25.0417 19.375V26.875H16.2917V19.375V18.125H25.0417V19.375Z" fill="#FFD980"/>
<path d="M25.0417 16.875V18.125H16.2917V15C16.2917 14.8342 16.3575 14.6753 16.4747 14.5581C16.592 14.4408 16.7509 14.375 16.9167 14.375H24.4167C24.5824 14.375 24.7414 14.4408 24.8586 14.5581C24.9758 14.6753 25.0417 14.8342 25.0417 15V16.875Z" fill="#FFD980"/>
<path d="M25.0417 26.875V38.75C25.0417 38.9158 24.9758 39.0747 24.8586 39.1919C24.7414 39.3092 24.5824 39.375 24.4167 39.375H16.9167C16.7509 39.375 16.592 39.3092 16.4747 39.1919C16.3575 39.0747 16.2917 38.9158 16.2917 38.75V36.875H19.4167C20.4112 36.875 21.3651 36.4799 22.0683 35.7767C22.7716 35.0734 23.1667 34.1196 23.1667 33.125V26.875H25.0417Z" fill="#FFD980"/>
<path d="M23.1667 18.125H25.0417V26.875H23.1667V18.125Z" fill="#FFD980"/>
<path d="M25.0417 15V18.125H23.1667V14.375H24.4167C24.5824 14.375 24.7414 14.4408 24.8586 14.5581C24.9758 14.6753 25.0417 14.8342 25.0417 15Z" fill="#FFD980"/>
<path d="M6.91669 22.5V33.125L2.27294 32.0937C1.99548 32.0319 1.74727 31.8776 1.569 31.6561C1.39072 31.4347 1.29294 31.1593 1.29169 30.875V24.75C1.29294 24.4657 1.39072 24.1903 1.569 23.9689C1.74727 23.7474 1.99548 23.5931 2.27294 23.5313L2.54169 23.475V23.4687L6.91669 22.5Z" fill="#EAEAEA"/>
<path d="M6.91669 22.5V33.125L2.27294 32.0937C1.99548 32.0319 1.74727 31.8776 1.569 31.6561C1.39072 31.4347 1.29294 31.1593 1.29169 30.875V29.7937L2.56231 30.0756C2.86022 30.1417 3.16916 30.14 3.46633 30.0707C3.76351 30.0014 4.04133 29.8663 4.27931 29.6753C4.51728 29.4843 4.70933 29.2423 4.84128 28.9672C4.97323 28.692 5.04172 28.3908 5.04169 28.0856V22.9125L6.91669 22.5Z" fill="#DAD4D4"/>
<path d="M3.16677 24.375C2.36239 24.375 1.73614 26.25 2.54177 26.25C3.34739 26.25 3.97239 24.375 3.16677 24.375Z" fill="white"/>
<path d="M39.4167 22.9919V21.1169C39.6957 21.013 39.9461 20.8444 40.1473 20.625C40.3149 20.4403 40.4434 20.2236 40.5249 19.9879C40.6064 19.7523 40.6394 19.5025 40.6217 19.2537C39.9348 8.4575 31.1698 0 20.6667 0C10.1636 0 1.39856 8.4575 0.710437 19.2938V19.3813C0.710569 19.7595 0.826129 20.1287 1.04168 20.4395C1.25722 20.7503 1.56249 20.9879 1.91669 21.1206V22.9912C1.55161 23.1185 1.23515 23.3561 1.01118 23.6713C0.787204 23.9864 0.666812 24.3634 0.666687 24.75L0.666687 30.875C0.667202 31.3017 0.813276 31.7156 1.08078 32.0481C1.34828 32.3806 1.7212 32.6119 2.13794 32.7038L6.37419 33.6444C6.44164 33.8909 6.55966 34.1207 6.72074 34.3191C6.88181 34.5175 7.08242 34.6802 7.3098 34.7969C7.53718 34.9136 7.78635 34.9817 8.04148 34.9969C8.2966 35.012 8.55209 34.9739 8.79169 34.885V38.75C8.79169 39.0815 8.92338 39.3995 9.1578 39.6339C9.39222 39.8683 9.71017 40 10.0417 40H15.6667C15.8868 39.9987 16.1025 39.9388 16.2917 39.8262C16.4808 39.9388 16.6966 39.9987 16.9167 40H24.4167C24.6368 39.9987 24.8525 39.9388 25.0417 39.8262C25.2308 39.9388 25.4466 39.9987 25.6667 40H31.2917C31.6232 40 31.9412 39.8683 32.1756 39.6339C32.41 39.3995 32.5417 39.0815 32.5417 38.75V34.885C32.7813 34.9739 33.0368 35.012 33.2919 34.9969C33.547 34.9817 33.7962 34.9136 34.0236 34.7969C34.251 34.6802 34.4516 34.5175 34.6126 34.3191C34.7737 34.1207 34.8917 33.8909 34.9592 33.6444L39.1992 32.7031C39.6154 32.6111 39.9878 32.3798 40.2547 32.0473C40.5216 31.7149 40.6669 31.3013 40.6667 30.875V24.75C40.6663 24.3635 40.5458 23.9867 40.3219 23.6717C40.0979 23.3567 39.7816 23.1191 39.4167 22.9919ZM34.9592 21.98C34.8911 21.7338 34.7728 21.5045 34.6116 21.3064C34.4504 21.1083 34.2499 20.9457 34.0227 20.8291C33.7955 20.7124 33.5466 20.644 33.2917 20.6284C33.0368 20.6127 32.7814 20.6501 32.5417 20.7381V15C32.5417 14.6685 32.41 14.3505 32.1756 14.1161C31.9412 13.8817 31.6232 13.75 31.2917 13.75H25.6667C25.4466 13.7513 25.2308 13.8112 25.0417 13.9237C24.8525 13.8112 24.6368 13.7513 24.4167 13.75H16.9167C16.6966 13.7513 16.4808 13.8112 16.2917 13.9237C16.1025 13.8112 15.8868 13.7513 15.6667 13.75H10.0417C9.71017 13.75 9.39222 13.8817 9.1578 14.1161C8.92338 14.3505 8.79169 14.6685 8.79169 15V20.7388C8.55201 20.6504 8.2966 20.6128 8.04163 20.6283C7.78666 20.6437 7.53768 20.712 7.31044 20.8286C7.0832 20.9453 6.88266 21.1079 6.7215 21.3061C6.56034 21.5043 6.44207 21.7337 6.37419 21.98L3.16669 22.6875V21.1494C3.52103 21.0339 3.8328 20.8152 4.06198 20.5213C4.29116 20.2275 4.4273 19.8718 4.45294 19.5C5.01106 10.6694 12.1329 3.75 20.6667 3.75C29.2004 3.75 36.3223 10.6694 36.8804 19.5037C36.9068 19.8749 37.0433 20.2297 37.2724 20.5229C37.5015 20.816 37.8129 21.0342 38.1667 21.1494V22.6875L34.9592 21.98ZM10.0417 17.5H15.6667V18.75H10.0417V17.5ZM15.6667 16.25H10.0417V15H15.6667V16.25ZM10.0417 35H14.4167C14.5824 35 14.7414 34.9342 14.8586 34.8169C14.9758 34.6997 15.0417 34.5408 15.0417 34.375C15.0417 34.2092 14.9758 34.0503 14.8586 33.9331C14.7414 33.8158 14.5824 33.75 14.4167 33.75H10.0417V20H15.6667V36.25H10.0417V35ZM16.9167 15H24.4167V17.5H18.7917C18.6259 17.5 18.467 17.5658 18.3497 17.6831C18.2325 17.8003 18.1667 17.9592 18.1667 18.125C18.1667 18.2908 18.2325 18.4497 18.3497 18.5669C18.467 18.6842 18.6259 18.75 18.7917 18.75H24.4167V26.25H16.9167V15ZM31.2917 33.75H25.6667V20H31.2917V33.75ZM31.2917 18.75H25.6667V17.5H31.2917V18.75ZM31.2917 16.25H25.6667V15H31.2917V16.25ZM25.6667 35H31.2917V36.25H25.6667V35ZM20.6667 1.25C30.5117 1.25 38.7292 9.19312 39.3748 19.3381C39.3805 19.4201 39.3695 19.5024 39.3425 19.5801C39.3156 19.6577 39.2732 19.7291 39.2179 19.79C39.1116 19.906 38.9654 19.9777 38.8086 19.9906C38.8029 19.9906 38.7979 19.9906 38.7917 19.9906C38.7729 19.9906 38.7579 20 38.7398 20.0012C38.5843 19.9995 38.4352 19.9394 38.3219 19.8329C38.2086 19.7264 38.1394 19.5813 38.1279 19.4263C37.5286 9.93375 29.8586 2.5 20.6667 2.5C11.4748 2.5 3.80481 9.93375 3.20544 19.4212C3.18735 19.5769 3.11143 19.7201 2.99273 19.8225C2.87402 19.9248 2.72119 19.9788 2.56454 19.9738C2.40789 19.9688 2.25884 19.9051 2.14695 19.7953C2.03506 19.6856 1.96849 19.5378 1.96044 19.3813V19.3337C2.60419 9.19312 10.8217 1.25 20.6667 1.25ZM1.91669 30.875V24.75C1.91716 24.609 1.96527 24.4724 2.0532 24.3622C2.14113 24.2521 2.26372 24.1748 2.40106 24.1431L2.66981 24.0869C2.70077 24.0801 2.73125 24.0713 2.76106 24.0606L6.29169 23.2787V32.3463L2.41231 31.4844C2.27247 31.4548 2.147 31.3782 2.05681 31.2673C1.96662 31.1564 1.91716 31.0179 1.91669 30.875ZM8.16669 33.75C8.00093 33.75 7.84196 33.6842 7.72475 33.5669C7.60753 33.4497 7.54169 33.2908 7.54169 33.125V22.5C7.54169 22.3342 7.60753 22.1753 7.72475 22.0581C7.84196 21.9408 8.00093 21.875 8.16669 21.875C8.25008 21.8748 8.33264 21.8917 8.40928 21.9245C8.48591 21.9574 8.55501 22.0057 8.61231 22.0662C8.66968 22.1229 8.71512 22.1905 8.74593 22.265C8.77674 22.3395 8.7923 22.4194 8.79169 22.5V33.125C8.79169 33.2908 8.72584 33.4497 8.60863 33.5669C8.49142 33.6842 8.33245 33.75 8.16669 33.75ZM10.0417 38.75V37.5H15.6667V38.75H10.0417ZM16.9167 38.75V27.5H24.4167V38.75H16.9167ZM25.6667 38.75V37.5H31.2917V38.75H25.6667ZM33.7917 33.125C33.7917 33.2908 33.7258 33.4497 33.6086 33.5669C33.4914 33.6842 33.3324 33.75 33.1667 33.75C33.0009 33.75 32.842 33.6842 32.7247 33.5669C32.6075 33.4497 32.5417 33.2908 32.5417 33.125V22.5C32.5416 22.4167 32.5585 22.3343 32.5914 22.2577C32.6242 22.1812 32.6724 22.1122 32.7329 22.055C32.7894 21.9973 32.8569 21.9516 32.9314 21.9207C33.006 21.8897 33.086 21.8742 33.1667 21.875C33.3324 21.875 33.4914 21.9408 33.6086 22.0581C33.7258 22.1753 33.7917 22.3342 33.7917 22.5V33.125ZM39.4167 30.875C39.4163 31.0173 39.3673 31.1552 39.2778 31.2659C39.1884 31.3766 39.0639 31.4534 38.9248 31.4837L35.0417 32.3463V23.2787L38.5711 24.06C38.6012 24.0712 38.6321 24.0802 38.6636 24.0869L38.9211 24.1406C39.0609 24.1702 39.1864 24.2468 39.2766 24.3577C39.3668 24.4686 39.4162 24.6071 39.4167 24.75V30.875Z" fill="#202B46"/>
</g>
<defs>
<clipPath id="clip0_2004_2738">
<rect width="40" height="40" fill="white" transform="translate(0.666687)"/>
</clipPath>
</defs>
</svg>
