<svg width="40" height="40" viewBox="0 0 40 40" fill="none" xmlns="http://www.w3.org/2000/svg">
<g clip-path="url(#clip0_2004_2540)">
<path d="M20.6382 8.49521C22.8224 8.49521 24.593 6.72458 24.593 4.54039C24.593 2.3562 22.8224 0.585571 20.6382 0.585571C18.454 0.585571 16.6833 2.3562 16.6833 4.54039C16.6833 6.72458 18.454 8.49521 20.6382 8.49521Z" fill="#FFE0D1"/>
<path opacity="0.1" d="M20.6382 8.49521C22.8224 8.49521 24.593 6.72458 24.593 4.54039C24.593 2.3562 22.8224 0.585571 20.6382 0.585571C18.454 0.585571 16.6833 2.3562 16.6833 4.54039C16.6833 6.72458 18.454 8.49521 20.6382 8.49521Z" fill="#202B46"/>
<path d="M35.4597 23.3165C37.6439 23.3165 39.4145 21.5459 39.4145 19.3617C39.4145 17.1775 37.6439 15.4069 35.4597 15.4069C33.2755 15.4069 31.5049 17.1775 31.5049 19.3617C31.5049 21.5459 33.2755 23.3165 35.4597 23.3165Z" fill="#FFE0D1"/>
<path opacity="0.1" d="M35.4597 23.3165C37.6439 23.3165 39.4145 21.5459 39.4145 19.3617C39.4145 17.1775 37.6439 15.4069 35.4597 15.4069C33.2755 15.4069 31.5049 17.1775 31.5049 19.3617C31.5049 21.5459 33.2755 23.3165 35.4597 23.3165Z" fill="#202B46"/>
<path d="M8.20817 39.4099C12.4155 39.4099 15.8262 35.9991 15.8262 31.7918C15.8262 27.5844 12.4155 24.1737 8.20817 24.1737C4.00082 24.1737 0.590088 27.5844 0.590088 31.7918C0.590088 35.9991 4.00082 39.4099 8.20817 39.4099Z" fill="#5AC5F4"/>
<path opacity="0.1" d="M13.5951 37.179C16.5704 34.2037 16.5704 29.38 13.5951 26.4049C10.6199 23.4297 5.7962 23.4297 2.82106 26.4049C1.64412 27.5818 0.934745 29.0482 0.688965 30.5749C1.30904 31.0159 2.17568 31.4433 3.34997 31.8976C4.34183 32.2812 5.55394 32.6795 6.92541 33.0747C7.32057 34.4462 7.71885 35.6582 8.10252 36.6501C8.55673 37.8245 8.98415 38.6911 9.42516 39.3111C10.9518 39.0653 12.4183 38.3559 13.5951 37.179Z" fill="#202B46"/>
<path d="M35.8556 20.2945C40.4154 15.7347 40.4963 8.42267 36.0362 3.96261C31.5762 -0.497442 24.2641 -0.416567 19.7043 4.14325C15.1445 8.70307 15.0636 16.0151 19.5236 20.4752C23.9837 24.9352 31.2957 24.8544 35.8556 20.2945Z" fill="#FFE0D1"/>
<path d="M24.5214 9.85747C25.2441 9.13476 25.0943 7.81323 24.1868 6.90573C23.2793 5.99823 21.9578 5.84843 21.2351 6.57113C20.5124 7.29383 20.6622 8.61537 21.5697 9.52287C22.4772 10.4304 23.7987 10.5802 24.5214 9.85747Z" fill="#FFD1C2"/>
<path d="M30.1431 15.4782C29.4204 16.2009 29.5702 17.5225 30.4777 18.43C31.3852 19.3375 32.7068 19.4873 33.4295 18.7646C34.1522 18.0419 34.0024 16.7203 33.0949 15.8128C32.1874 14.9053 30.8658 14.7555 30.1431 15.4782Z" fill="#FFD1C2"/>
<path opacity="0.05" d="M24.679 1.16418C22.8641 1.7084 21.1471 2.70175 19.7053 4.14354C15.1456 8.70328 15.0647 16.0154 19.5248 20.4755C22.1107 23.0614 25.6554 24.1205 29.0664 23.6656C21.7877 21.2483 19.5585 9.09453 24.679 1.16418Z" fill="#202B46"/>
<path d="M10.4617 17.3338C15.1113 17.3895 25.6195 18.4965 31.6693 21.6545C32.6134 22.1474 33.0404 23.2638 32.6661 24.2609C31.7173 26.7889 29.2132 30.5243 26.9212 32.7715C25.7625 33.9077 24.1719 34.4997 22.5516 34.4076C16.1578 34.0441 2.05035 30.7967 1.02254 28.6921C-0.0215169 26.5544 3.25815 21.0538 7.17829 18.3289C8.13984 17.6604 9.29054 17.3197 10.4617 17.3338Z" fill="#78D2FA"/>
<path opacity="0.1" d="M10.4617 17.3338C15.1113 17.3895 25.6195 18.4965 31.6693 21.6545C32.6134 22.1474 33.0404 23.2638 32.6661 24.2609C31.7173 26.7889 29.2132 30.5243 26.9212 32.7715C25.7625 33.9077 24.1719 34.4997 22.5516 34.4076C16.1578 34.0441 2.05035 30.7967 1.02254 28.6921C-0.0215169 26.5544 3.25815 21.0538 7.17829 18.3289C8.13984 17.6604 9.29054 17.3197 10.4617 17.3338Z" fill="#202B46"/>
<path opacity="0.1" d="M7.17798 18.3288C6.17322 19.0272 5.21088 19.9082 4.35229 20.8679C4.74893 23.7906 5.43182 27.3063 6.26299 30.6111C6.31971 30.8368 6.37681 31.0587 6.43408 31.2786C11.3555 32.7858 18.4156 34.1592 22.4703 34.4025C22.6442 34.1791 22.8114 33.9531 22.97 33.7249C23.8243 32.4957 24.2662 31.0415 24.248 29.5194C24.2237 27.4967 23.9562 23.3239 23.17 18.8366C18.315 17.7931 13.2979 17.3678 10.4614 17.3338C9.29039 17.3197 8.13969 17.6603 7.17798 18.3288Z" fill="#202B46"/>
<path d="M22.6662 29.5385C22.6105 24.8889 21.5035 14.3807 18.3454 8.33089C17.8526 7.38675 16.7361 6.9598 15.7391 7.3341C13.2111 8.28292 9.47561 10.787 7.22844 13.079C6.09227 14.2377 5.50024 15.8283 5.59235 17.4486C5.95587 23.8424 9.20327 37.9499 11.3079 38.9777C13.4456 40.0217 18.9461 36.7421 21.6711 32.8219C22.3396 31.8603 22.6803 30.7096 22.6662 29.5385Z" fill="#78D2FA"/>
<g opacity="0.1">
<path d="M9.33384 25.0742C9.06025 25.0743 8.81564 24.8817 8.75994 24.6032C8.71142 24.3607 8.48486 22.8771 8.48486 22.5899C8.48486 22.2662 8.74721 22.004 9.07072 22.004C9.39322 22.004 9.6547 22.2645 9.65657 22.5864C9.66306 22.7754 9.85204 24.0889 9.90884 24.3734C9.97228 24.6907 9.7665 24.9993 9.44915 25.0628C9.41056 25.0706 9.37189 25.0742 9.33384 25.0742ZM9.65665 22.5899H9.65743H9.65665Z" fill="#202B46"/>
<path d="M15.5238 14.74C15.4621 14.74 15.3993 14.7302 15.3374 14.7096C15.0305 14.6072 14.8651 14.2736 14.9675 13.9666C15.0095 13.8408 15.1227 13.6024 15.3774 13.0811C15.4473 12.9378 15.5135 12.8026 15.5375 12.7495C15.6711 12.4549 16.0182 12.3244 16.3129 12.4576C16.6076 12.5911 16.7384 12.9382 16.6049 13.2331C16.5739 13.3016 16.5105 13.4313 16.4303 13.5955C16.3192 13.8228 16.1125 14.246 16.0779 14.3409C15.9962 14.5859 15.7686 14.74 15.5238 14.74Z" fill="#202B46"/>
<path d="M18.1696 25.8202C18.0697 25.8202 17.9685 25.7947 17.876 25.7409C17.5981 25.5796 16.8219 25.1358 16.5708 25.0214C16.2763 24.8873 16.1463 24.5398 16.2805 24.2453C16.4146 23.951 16.7621 23.8211 17.0565 23.955C17.4054 24.1139 18.357 24.6652 18.4643 24.7275C18.7442 24.89 18.8393 25.2485 18.6768 25.5284C18.5681 25.7158 18.3717 25.8202 18.1696 25.8202Z" fill="#202B46"/>
<path d="M14.2729 35.3572C13.9493 35.3572 13.687 35.095 13.687 34.7714C13.687 34.4587 13.6053 33.2782 13.566 32.7107C13.5532 32.5276 13.5437 32.3894 13.5401 32.3291C13.5208 32.0061 13.7671 31.7287 14.09 31.7094C14.4132 31.689 14.6904 31.9362 14.7098 32.2592C14.7132 32.3177 14.7226 32.452 14.7349 32.6297C14.7948 33.495 14.8587 34.4454 14.8587 34.7713C14.8587 35.095 14.5964 35.3572 14.2729 35.3572Z" fill="#202B46"/>
<path d="M25.5056 25.4474C25.264 25.4474 25.0378 25.2968 24.953 25.056C24.8455 24.7508 25.0057 24.4162 25.3109 24.3088C25.5272 24.2325 26.0378 23.9265 26.3756 23.7242C26.8724 23.4265 27.0375 23.3307 27.2027 23.2976C27.5202 23.234 27.8287 23.4397 27.8923 23.757C27.9518 24.054 27.7753 24.3435 27.4923 24.4315C27.4069 24.4722 27.1603 24.62 26.978 24.7294C26.5328 24.9962 26.0281 25.2986 25.7003 25.414C25.6359 25.4366 25.5702 25.4474 25.5056 25.4474ZM27.4336 24.4464C27.4334 24.4465 27.4331 24.4465 27.4329 24.4465C27.4331 24.4465 27.4334 24.4464 27.4336 24.4464Z" fill="#202B46"/>
</g>
<path d="M32.2518 13.0477C31.7998 13.0477 31.3749 13.2237 31.0553 13.5433C30.8265 13.7722 30.8265 14.1431 31.0553 14.3718C31.2842 14.6006 31.6551 14.6007 31.8839 14.3718C31.9822 14.2735 32.1128 14.2194 32.2518 14.2194C32.3908 14.2194 32.5214 14.2735 32.6197 14.3718C32.7179 14.4701 32.7721 14.6007 32.7721 14.7396C32.7721 14.8786 32.7179 15.0093 32.6197 15.1076C32.3908 15.3364 32.3909 15.7074 32.6197 15.9361C32.7341 16.0505 32.884 16.1077 33.034 16.1077C33.1839 16.1077 33.3339 16.0505 33.4483 15.936C33.7679 15.6164 33.9439 15.1916 33.9439 14.7396C33.9439 14.2877 33.7679 13.8628 33.4483 13.5433C33.1286 13.2236 32.7038 13.0477 32.2518 13.0477ZM26.4568 6.55165C25.797 5.89212 24.7236 5.89212 24.0639 6.55165C23.8351 6.78055 23.8351 7.15141 24.0639 7.38024C24.2928 7.60898 24.6637 7.60898 24.8924 7.38024C25.0953 7.17727 25.4252 7.17735 25.6281 7.38016C25.831 7.58305 25.831 7.91304 25.6281 8.11586C25.3993 8.34476 25.3993 8.71562 25.6281 8.94444C25.7425 9.05882 25.8925 9.11601 26.0424 9.11601C26.1924 9.11601 26.3424 9.05882 26.4567 8.94444C27.1165 8.285 27.1165 7.21149 26.4568 6.55165ZM39.0272 16.5552C39.5929 15.1515 39.8981 13.6455 39.9152 12.098C39.9488 9.05327 38.8669 6.19141 36.857 3.97479C37.4531 3.41002 38.1806 2.99198 38.9699 2.76268C39.2806 2.67245 39.4594 2.34737 39.3691 2.03667C39.2788 1.72589 38.9537 1.54722 38.6431 1.63746C37.6649 1.9216 36.764 2.4423 36.0285 3.14604C33.8113 1.13449 30.9472 0.0526999 27.902 0.0848091C26.3545 0.101918 24.8485 0.407073 23.445 0.972695C22.6463 0.342386 21.6655 0.00012207 20.6382 0.00012207C20.6154 0.00012207 20.5924 0.000278319 20.5695 0.000590818C19.3829 0.018247 18.2671 0.490119 17.4277 1.32957C16.0009 2.75628 15.7064 4.89431 16.5989 6.61719C16.2448 6.60102 15.883 6.6543 15.5332 6.78571C12.9114 7.76976 9.0798 10.3539 6.81004 12.669C5.56279 13.941 4.90576 15.6953 5.00732 17.482C5.03716 18.0064 5.08693 18.5887 5.15451 19.2162C3.61858 20.6387 2.22812 22.4344 1.31344 24.1859C0.70672 25.3478 -0.206321 27.5117 0.495784 28.9492C0.498519 28.9549 0.501409 28.9607 0.5043 28.9667C-0.596241 31.9657 0.133989 35.3205 2.40671 37.5933C3.97936 39.1661 6.07005 40.0003 8.20277 40.0001C9.15183 40.0001 10.1093 39.8342 11.0329 39.4954C11.0388 39.4984 11.0448 39.5016 11.0506 39.5044C11.3945 39.6723 11.8049 39.7549 12.2703 39.7549C13.4273 39.7549 14.9226 39.2443 16.5687 38.2653C18.0919 37.3593 19.5742 36.148 20.7815 34.8462C21.4114 34.9139 21.9945 34.9633 22.5181 34.9931C22.6387 35 22.759 35.0034 22.8792 35.0034C24.5392 35.0034 26.1449 34.3535 27.3311 33.1905C28.6579 31.8895 30.1111 30.0444 31.3183 28.128C31.4908 27.8543 31.4086 27.4925 31.1348 27.32C30.861 27.1475 30.4993 27.2297 30.3269 27.5036C29.1662 29.346 27.7753 31.1138 26.5108 32.3538C25.4736 33.3706 24.0425 33.9069 22.5846 33.8232C22.3095 33.8076 22.0163 33.7861 21.7079 33.7593C21.8638 33.5589 22.0125 33.3579 22.1522 33.157C22.8875 32.0992 23.2678 30.8456 23.2521 29.5321C23.2254 27.2989 22.9472 23.4544 22.2468 19.3615C22.24 19.3215 22.2327 19.2805 22.2257 19.2401C26.0004 19.9965 29.1591 21.0058 31.3981 22.1745C32.0776 22.5293 32.3868 23.338 32.1175 24.0556C31.9874 24.4021 31.823 24.7812 31.629 25.1826C31.4881 25.474 31.6101 25.8242 31.9014 25.9651C31.9836 26.0049 32.0704 26.0237 32.1561 26.0237C32.3737 26.0237 32.5829 25.9018 32.6839 25.6928C32.8935 25.2594 33.072 24.8472 33.2145 24.4674C33.3457 24.1177 33.399 23.756 33.3829 23.4021C34.0358 23.7404 34.7482 23.9087 35.4593 23.9087C36.6242 23.9087 37.7847 23.4587 38.6706 22.5729C39.5099 21.7334 39.982 20.6177 39.9995 19.4309C40.0149 18.3784 39.6716 17.3717 39.0272 16.5552ZM18.2563 2.15816C19.3292 1.08519 20.9277 0.880429 22.2029 1.55566C21.1464 2.12597 20.1654 2.85456 19.2909 3.72908C18.6286 4.39142 18.0478 5.11861 17.5541 5.90056C17.001 4.65642 17.2469 3.16753 18.2563 2.15816ZM3.23538 36.7645C1.4164 34.9455 0.750314 32.3177 1.43789 29.8845C2.33054 30.4589 4.10561 31.2579 7.7323 32.2681C8.1634 33.8133 8.59996 35.1694 9.01792 36.2549C9.44222 37.3566 9.80784 38.0794 10.1197 38.561C7.68527 39.2505 5.05545 38.5846 3.23538 36.7645ZM21.1901 32.4875C19.9543 34.2654 18.0028 36.0487 15.9698 37.2578C14.0652 38.3906 12.3775 38.8477 11.5651 38.4511C11.547 38.4423 11.5276 38.4304 11.5072 38.4159C11.4856 38.3953 11.4625 38.3765 11.4381 38.3596C10.9576 37.9194 9.99862 36.1237 8.77995 31.6647C8.77597 31.6469 8.77113 31.6294 8.76558 31.6121C8.62722 31.1044 8.4855 30.5624 8.34082 29.9842C8.26222 29.6703 7.94426 29.4794 7.6302 29.5581C7.31629 29.6366 7.12551 29.9548 7.20403 30.2686C7.2616 30.4988 7.31957 30.7251 7.3777 30.9492C2.9303 29.6598 1.86351 28.8125 1.61648 28.5295C1.61273 28.5248 1.60867 28.5203 1.60476 28.5158C1.57109 28.4755 1.55547 28.4483 1.54883 28.4348C0.924688 27.1568 2.46866 23.5926 5.33279 20.6752C5.61247 22.7439 6.04216 25.1483 6.57403 27.5778C6.64325 27.8939 6.95575 28.0938 7.27168 28.0249C7.58777 27.9557 7.78785 27.6433 7.71879 27.3273C6.89169 23.5491 6.31544 19.8437 6.17747 17.4152C6.09458 15.957 6.6302 14.5261 7.64699 13.489C9.81479 11.2779 13.4598 8.8153 15.9451 7.88242C16.6628 7.61289 17.4715 7.92226 17.8262 8.60179C18.7507 10.3727 20.0059 13.961 20.9139 18.5376C20.9172 18.5911 20.9274 18.6431 20.9445 18.6925C21.5766 21.9226 22.0338 25.6355 22.0806 29.5453C22.0932 30.6139 21.7853 31.6313 21.1901 32.4875ZM32.8021 21.8478C32.574 21.5598 32.284 21.3147 31.9404 21.1352C29.4783 19.8501 26.1352 18.7961 21.9991 18.0006C21.3988 14.89 20.4104 11.0202 18.865 8.05976C18.6855 7.71609 18.4404 7.42617 18.1524 7.19797C18.6731 6.23071 19.3331 5.34423 20.1196 4.55775C24.4438 0.233558 31.3984 0.152699 35.6229 4.37721C37.6676 6.42188 38.7759 9.15921 38.7435 12.085C38.727 13.5798 38.4131 15.0323 37.8321 16.3752C37.8143 16.4074 37.7996 16.4408 37.7884 16.4752C37.2323 17.7263 36.4428 18.8802 35.4424 19.8806C34.6558 20.667 33.7693 21.327 32.8021 21.8478ZM37.8419 21.7437C36.8325 22.7532 35.3435 22.9991 34.0994 22.4459C34.8814 21.9522 35.6085 21.3715 36.2709 20.7091C37.1454 19.8346 37.874 18.8537 38.4444 17.7971C39.1195 19.0722 38.9147 20.6709 37.8419 21.7437ZM28.6315 12.4032C28.3509 12.4219 28.0765 12.3199 27.8783 12.1217C27.6801 11.9236 27.5775 11.649 27.5968 11.3685C27.619 11.0457 27.3752 10.7661 27.0525 10.7439C26.7291 10.7227 26.4501 10.9654 26.4278 11.2883C26.3853 11.9068 26.612 12.5126 27.0498 12.9503C27.4527 13.3531 27.9979 13.5771 28.5644 13.5771C28.6134 13.5771 28.6625 13.5754 28.7117 13.5721C29.0346 13.5499 29.2782 13.2702 29.2561 12.9475C29.2339 12.6247 28.9544 12.3815 28.6315 12.4032Z" fill="#202B46"/>
</g>
<defs>
<clipPath id="clip0_2004_2540">
<rect width="40" height="40" fill="white"/>
</clipPath>
</defs>
</svg>
