<svg width="30" height="25" viewBox="0 0 30 25" fill="none" xmlns="http://www.w3.org/2000/svg">
<path d="M29.5605 5.75684V22.8662C29.5605 23.6752 28.9047 24.3311 28.0957 24.3311H1.9043C1.09529 24.3311 0.439453 23.6752 0.439453 22.8662V5.75684H29.5605Z" fill="#F8F7F7"/>
<path d="M29.5605 5.75684V6.63574H1.66992C1.47598 6.63574 1.31836 6.79336 1.31836 6.9873V24.2086C0.800977 23.983 0.439453 23.4668 0.439453 22.8662V5.75684H29.5605Z" fill="#E8E8E8"/>
<path d="M29.5605 1.83105V5.78613H0.439453V1.83105C0.439453 1.02205 1.09529 0.366211 1.9043 0.366211H28.0957C28.9047 0.366211 29.5605 1.02205 29.5605 1.83105Z" fill="#CBE6F3"/>
<path d="M14.663 4.81934C14.1793 4.81934 13.7872 4.42582 13.7872 3.94043C13.7872 3.45504 14.1793 3.06152 14.663 3.06152H25.5799C26.0636 3.06152 26.4557 3.45504 26.4557 3.94043C26.4557 4.42582 26.0636 4.81934 25.5799 4.81934H14.663Z" fill="#EAF5FA"/>
<path d="M10.1 4.76074C10.5837 4.76074 10.9758 4.36724 10.9758 3.88184C10.9758 3.39643 10.5837 3.00293 10.1 3.00293C9.61635 3.00293 9.22424 3.39643 9.22424 3.88184C9.22424 4.36724 9.61635 4.76074 10.1 4.76074Z" fill="#EAF5FA"/>
<path d="M10.7144 4.50783L11.4687 3.75378L10.6989 3.82287L10.7144 4.50783Z" fill="#724D44"/>
<path d="M9.49768 3.24361L10.2337 2.51025L10.0759 3.1201L9.49768 3.24361Z" fill="#724D44"/>
<path d="M6.53559 4.76074C7.01928 4.76074 7.41139 4.36724 7.41139 3.88184C7.41139 3.39643 7.01928 3.00293 6.53559 3.00293C6.0519 3.00293 5.65979 3.39643 5.65979 3.88184C5.65979 4.36724 6.0519 4.76074 6.53559 4.76074Z" fill="#EAF5FA"/>
<path d="M7.15151 4.50617L7.87702 3.7738L7.1344 3.82279L7.15151 4.50617Z" fill="#724D44"/>
<path d="M5.93262 3.24357L6.65748 2.51355L6.51088 3.12005L5.93262 3.24357Z" fill="#724D44"/>
<path d="M3.07307 4.76074C3.55676 4.76074 3.94887 4.36724 3.94887 3.88184C3.94887 3.39643 3.55676 3.00293 3.07307 3.00293C2.58937 3.00293 2.19727 3.39643 2.19727 3.88184C2.19727 4.36724 2.58937 4.76074 3.07307 4.76074Z" fill="#EAF5FA"/>
<path d="M3.70735 4.48807L4.45276 3.71545L3.68286 3.79637L3.70735 4.48807Z" fill="#724D44"/>
<path d="M2.47131 3.24356L3.15229 2.53821L3.04958 3.12004L2.47131 3.24356Z" fill="#724D44"/>
<path d="M10.8605 3.99902C11.3442 3.99902 11.7363 3.60552 11.7363 3.12012C11.7363 2.63471 11.3442 2.24121 10.8605 2.24121C10.3769 2.24121 9.98474 2.63471 9.98474 3.12012C9.98474 3.60552 10.3769 3.99902 10.8605 3.99902Z" fill="#1EDEB7"/>
<path d="M14.0869 3.27897L14.8508 2.52551L14.6736 3.362L14.0869 3.27897Z" fill="#724D44"/>
<path d="M26.2109 4.55077L26.9814 3.77856L26.3846 3.97667L26.2109 4.55077Z" fill="#724D44"/>
<path d="M7.29178 3.99902C7.77545 3.99902 8.16754 3.60552 8.16754 3.12012C8.16754 2.63471 7.77545 2.24121 7.29178 2.24121C6.80811 2.24121 6.41602 2.63471 6.41602 3.12012C6.41602 3.60552 6.80811 3.99902 7.29178 3.99902Z" fill="#FFD163"/>
<path d="M3.80856 3.99902C4.29226 3.99902 4.68438 3.60552 4.68438 3.12012C4.68438 2.63471 4.29226 2.24121 3.80856 2.24121C3.32486 2.24121 2.93274 2.63471 2.93274 3.12012C2.93274 3.60552 3.32486 3.99902 3.80856 3.99902Z" fill="#E64C49"/>
<path d="M15.4242 4.05762C14.9405 4.05762 14.5483 3.6641 14.5483 3.17871C14.5483 2.69332 14.9405 2.2998 15.4242 2.2998H26.3412C26.8249 2.2998 27.217 2.69332 27.217 3.17871C27.217 3.6641 26.8249 4.05762 26.3412 4.05762H15.4242Z" fill="#F8F7F7"/>
<path d="M10.3418 15.0586H3.42773C3.10412 15.0586 2.8418 14.7963 2.8418 14.4727V10.4883C2.8418 10.1647 3.04553 9.90234 3.36914 9.90234L5.5166 9.84375H10.4004C10.724 9.84375 10.9863 10.1061 10.9863 10.4297V14.5312C10.9863 14.8549 10.6654 15.0586 10.3418 15.0586Z" fill="#1EDEB7"/>
<path d="M20.5371 21.9141H13.623C13.2994 21.9141 13.0371 21.6517 13.0371 21.3281V17.3438C13.0371 17.0201 13.2994 16.7578 13.623 16.7578L13.6816 16.6992H20.5957C20.9193 16.6992 21.1816 16.9615 21.1816 17.2852V21.3867C21.1816 21.7103 20.8607 21.9141 20.5371 21.9141Z" fill="#CBE6F3"/>
<path d="M5.71289 10.7227C5.71289 11.8553 4.79473 12.7734 3.66211 12.7734C3.60287 12.7734 3.54428 12.7709 3.48639 12.7661C3.26232 12.7471 3.10723 12.6336 2.90977 12.5484C2.90801 12.5479 2.88223 12.5355 2.8418 12.5168V10.4883C2.8418 10.1648 3.0457 9.90234 3.36914 9.90234L3.48633 9.84375H5.5166C5.53652 9.88887 5.55 9.92051 5.55117 9.92344C5.65547 10.1689 5.71289 10.4391 5.71289 10.7227V10.7227Z" fill="#FFD163"/>
<path d="M10.9151 14.5826C10.9151 14.906 10.716 15.0439 10.3926 15.0439L4.94982 15.0615L4.01367 15.1172C4.39746 15.048 5.08477 14.8693 5.77148 14.3555C6.52852 13.7889 6.91992 13.0869 7.11504 12.6275C7.19824 12.4313 7.39219 12.3047 7.60547 12.3047H8.07246C8.28457 12.3047 8.47852 12.4289 8.56172 12.6246C8.66367 12.8643 8.84648 13.1742 9.11133 13.4766C9.47971 13.8976 10.1835 14.2421 10.6203 14.4137C10.806 14.4866 10.8722 14.5796 10.9151 14.5826Z" fill="#9E959E"/>
<path d="M5.69063 14.4141C5.50143 14.5488 5.45027 14.7106 5.26916 14.8004C4.81916 15.0233 4.27646 15.0701 4.01367 15.1172H3.36914C3.0457 15.1172 2.7832 14.8547 2.7832 14.5313V12.5754C2.82363 12.5942 3.10652 12.5754 3.10652 12.5754L3.48633 12.7665V14.1797C3.48633 14.3092 3.59121 14.4141 3.7207 14.4141H5.69063Z" fill="#18B192"/>
<path d="M3.48633 9.84375V12.7664C3.26191 12.7471 3.04863 12.692 2.85117 12.607C2.84941 12.6064 2.82363 12.5941 2.7832 12.5754V10.4297C2.7832 10.1063 3.0457 9.84375 3.36914 9.84375H3.48633Z" fill="#FFB65F"/>
<path d="M10.9863 14.5312C10.9863 14.8547 10.7238 15.1172 10.4004 15.1172H4.01367C4.38223 15.051 5.03145 14.8834 5.69063 14.4141H10.6201C10.8064 14.4867 10.9436 14.5283 10.9863 14.5312Z" fill="#8E868E"/>
<path d="M18.1336 20.9672V21.9726L13.623 21.914C13.2996 21.914 13.0371 21.6515 13.0371 21.3281L13.039 20.7075L13.6818 20.1119L15.1436 18.9515C15.2484 18.8677 15.3973 18.866 15.5045 18.948L16.7778 19.9259L16.8949 20.1117L18.1336 20.9672Z" fill="#FFD163"/>
<path d="M18.1337 20.9671V21.9726H15.2234L16.7779 19.9259L18.1337 20.9671Z" fill="#FFB65F"/>
<path d="M21.1486 21.4144C21.1486 21.7378 20.8516 21.9387 20.5281 21.9387L16.1908 21.929L16.6246 21.2694L18.5541 18.7499C18.669 18.6005 18.894 18.5964 19.0135 18.7429L21.089 21.2694L21.1486 21.4144Z" fill="#FFD163"/>
<path d="M13.6816 16.6992V20.1117L13.3301 20.4898L12.9785 20.6701V17.2852C12.9785 16.9617 13.241 16.6992 13.5645 16.6992H13.6816Z" fill="#94D8E6"/>
<path d="M16.6248 21.2695L16.0863 21.914L15.2232 21.9726H13.5645C13.241 21.9726 12.9785 21.7101 12.9785 21.3867V20.6701L13.6816 20.1117V21.0351C13.6816 21.1646 13.7865 21.2695 13.916 21.2695H16.6248Z" fill="#FFB65F"/>
<path d="M16.8515 21.2695L16.7886 21.8977L16.0865 21.9727H15.2234L15.7572 21.2695H16.8515Z" fill="#FF9350"/>
<path d="M21.1811 21.382V21.3867C21.1811 21.7102 20.9186 21.9727 20.5952 21.9727H16.0858L16.6243 21.2695H21.0886L21.1811 21.382Z" fill="#FFB65F"/>
<path d="M29.5605 19.4543C29.3178 19.4543 29.1211 19.6511 29.1211 19.8938V22.8808C29.1211 23.4462 28.6611 23.9062 28.0957 23.9062H1.9043C1.33893 23.9062 0.878906 23.4462 0.878906 22.8808V13.7415C0.878906 13.4988 0.682207 13.302 0.439453 13.302C0.196699 13.302 0 13.4988 0 13.7415V22.8808C0 23.9308 0.854238 24.7851 1.9043 24.7851H28.0957C29.1458 24.7851 30 23.9308 30 22.8808V19.8938C30 19.6511 29.8033 19.4543 29.5605 19.4543Z" fill="black"/>
<path d="M28.0957 0H8.3315C8.08875 0 7.89205 0.196758 7.89205 0.439453C7.89205 0.682148 8.08875 0.878906 8.3315 0.878906H28.0957C28.6611 0.878906 29.1211 1.33893 29.1211 1.9043V5.29963H0.878906V1.9043C0.878906 1.33893 1.33893 0.878906 1.9043 0.878906H6.28201C6.52477 0.878906 6.72146 0.682148 6.72146 0.439453C6.72146 0.196758 6.52477 0 6.28201 0H1.9043C0.854238 0 0 0.854297 0 1.9043V11.6882C0 11.9309 0.196699 12.1277 0.439453 12.1277C0.682207 12.1277 0.878906 11.9309 0.878906 11.6882V6.17854H29.1211V17.8493C29.1211 18.092 29.3178 18.2887 29.5605 18.2887C29.8033 18.2887 30 18.092 30 17.8493V1.9043C30 0.854297 29.1458 0 28.0957 0V0Z" fill="black"/>
<path d="M2.56348 3.10229C2.56348 3.82927 3.15493 4.42065 3.88186 4.42065C4.60878 4.42065 5.20023 3.82927 5.20023 3.10229C5.20023 2.37532 4.60878 1.78394 3.88186 1.78394C3.15493 1.78394 2.56348 2.37532 2.56348 3.10229V3.10229ZM4.32131 3.10229C4.32131 3.34464 4.1242 3.54175 3.88186 3.54175C3.63951 3.54175 3.4424 3.34464 3.4424 3.10229C3.4424 2.85995 3.63951 2.66284 3.88186 2.66284C4.1242 2.66284 4.32131 2.85995 4.32131 3.10229Z" fill="black"/>
<path d="M6.0791 3.10229C6.0791 3.82927 6.67053 4.42065 7.39742 4.42065C8.12432 4.42065 8.71574 3.82927 8.71574 3.10229C8.71574 2.37532 8.12432 1.78394 7.39742 1.78394C6.67053 1.78394 6.0791 2.37532 6.0791 3.10229ZM7.39742 2.66284C7.63976 2.66284 7.83686 2.85995 7.83686 3.10229C7.83686 3.34464 7.63976 3.54175 7.39742 3.54175C7.15509 3.54175 6.95798 3.34464 6.95798 3.10229C6.95798 2.85995 7.15509 2.66284 7.39742 2.66284Z" fill="black"/>
<path d="M12.2314 3.10229C12.2314 2.37532 11.64 1.78394 10.9131 1.78394C10.1862 1.78394 9.59473 2.37532 9.59473 3.10229C9.59473 3.82927 10.1862 4.42065 10.9131 4.42065C11.64 4.42065 12.2314 3.82927 12.2314 3.10229ZM10.4736 3.10229C10.4736 2.85995 10.6707 2.66284 10.9131 2.66284C11.1554 2.66284 11.3525 2.85995 11.3525 3.10229C11.3525 3.34464 11.1554 3.54175 10.9131 3.54175C10.6707 3.54175 10.4736 3.34464 10.4736 3.10229Z" fill="black"/>
<path d="M26.3672 3.54175H23.4936C23.2508 3.54175 23.0541 3.73851 23.0541 3.9812C23.0541 4.2239 23.2508 4.42065 23.4936 4.42065H26.3672C27.0941 4.42065 27.6855 3.82927 27.6855 3.10229C27.6855 2.37532 27.0941 1.78394 26.3672 1.78394H15.5273C14.8004 1.78394 14.209 2.37532 14.209 3.10229C14.209 3.82927 14.8004 4.42065 15.5273 4.42065H21.4441C21.6868 4.42065 21.8835 4.2239 21.8835 3.9812C21.8835 3.73851 21.6868 3.54175 21.4441 3.54175H15.5273C15.285 3.54175 15.0879 3.34464 15.0879 3.10229C15.0879 2.85995 15.285 2.66284 15.5273 2.66284H26.3672C26.6095 2.66284 26.8066 2.85995 26.8066 3.10229C26.8066 3.34464 26.6095 3.54175 26.3672 3.54175Z" fill="black"/>
<path d="M8.05664 8.52539C8.29939 8.52539 8.49609 8.32863 8.49609 8.08594C8.49609 7.84324 8.29939 7.64648 8.05664 7.64648H2.7832C2.54045 7.64648 2.34375 7.84324 2.34375 8.08594C2.34375 8.32863 2.54045 8.52539 2.7832 8.52539H8.05664Z" fill="black"/>
<path d="M2.34375 14.5312C2.34375 15.0966 2.80377 15.5566 3.36914 15.5566H10.4004C10.9532 15.5566 11.4041 15.1165 11.4239 14.5684C11.4295 14.5143 11.4238 10.4782 11.4258 10.4297C11.4258 9.86432 10.9658 9.4043 10.4004 9.4043H3.36914C2.80377 9.4043 2.34375 9.86432 2.34375 10.4297V14.5312ZM6.07266 14.6777C6.86619 14.0702 7.29744 13.323 7.51945 12.799C7.53352 12.7657 7.56732 12.7441 7.60564 12.7441H8.07223C8.10984 12.7441 8.144 12.7651 8.15725 12.7965C8.29441 13.119 8.51578 13.4633 8.78063 13.766C9.11414 14.1471 9.65543 14.4645 10.1196 14.6777H6.07266ZM10.5469 10.4297V13.9062C10.1715 13.7368 9.69293 13.4739 9.44209 13.1872C9.23982 12.956 9.06633 12.6882 8.96613 12.4526C8.81443 12.0958 8.46357 11.8652 8.07223 11.8652H7.60564C7.21377 11.8652 6.86221 12.0971 6.71022 12.456C6.52682 12.8888 6.16945 13.5086 5.50811 14.0037C5.0598 14.3393 4.52813 14.5714 3.96885 14.6777H3.36914C3.28834 14.6777 3.22266 14.612 3.22266 14.5312V13.1736C3.36668 13.1992 3.51328 13.2129 3.66211 13.2129C5.03525 13.2129 6.15234 12.0958 6.15234 10.7227C6.15234 10.5738 6.13869 10.4272 6.11303 10.2832H10.4004C10.4812 10.2832 10.5469 10.3489 10.5469 10.4297V10.4297ZM3.36914 10.2832H5.21256C5.25275 10.4251 5.27344 10.5721 5.27344 10.7227C5.27344 11.6112 4.55057 12.334 3.66211 12.334C3.51158 12.334 3.36457 12.3133 3.22266 12.2731V10.4297C3.22266 10.3489 3.28834 10.2832 3.36914 10.2832Z" fill="black"/>
<path d="M12.5391 17.2852V21.3867C12.5391 21.9521 12.9991 22.4121 13.5644 22.4121H20.5956C21.1461 22.4121 21.5955 21.9756 21.6187 21.4307C21.6253 21.3683 21.6187 17.3419 21.6209 17.2852C21.6209 16.7198 21.1609 16.2598 20.5956 16.2598H13.5644C12.9991 16.2598 12.5391 16.7198 12.5391 17.2852ZM13.418 21.3867V20.8948L15.3283 19.3665L16.7151 20.427L15.8671 21.5332H13.5644C13.4836 21.5332 13.418 21.4675 13.418 21.3867V21.3867ZM16.9746 21.5332L18.7908 19.1642L20.6985 21.4907C20.672 21.5169 20.6357 21.5332 20.5956 21.5332H16.9746ZM13.5644 17.1387H20.5956C20.6764 17.1387 20.7421 17.2044 20.7421 17.2852V20.1578L19.3532 18.4641C19.2132 18.2933 19.0075 18.1961 18.7872 18.1961C18.7832 18.1961 18.779 18.1961 18.7749 18.1962C18.55 18.1999 18.3426 18.3043 18.2057 18.4829L17.2499 19.7296L15.7712 18.5988C15.5032 18.3938 15.1321 18.3979 14.8688 18.6087L13.418 19.7692V17.2852C13.418 17.2044 13.4836 17.1387 13.5644 17.1387V17.1387Z" fill="black"/>
<path d="M22.9395 8.52539H24.8145C25.0572 8.52539 25.2539 8.32863 25.2539 8.08594C25.2539 7.84324 25.0572 7.64648 24.8145 7.64648H22.9395C22.6967 7.64648 22.5 7.84324 22.5 8.08594C22.5 8.32863 22.6967 8.52539 22.9395 8.52539Z" fill="black"/>
<path d="M22.9395 10.2832H27.1582C27.401 10.2832 27.5977 10.0864 27.5977 9.84375C27.5977 9.60105 27.401 9.4043 27.1582 9.4043H22.9395C22.6967 9.4043 22.5 9.60105 22.5 9.84375C22.5 10.0864 22.6967 10.2832 22.9395 10.2832Z" fill="black"/>
<path d="M27.1582 11.1621H26.5723C26.3295 11.1621 26.1328 11.3589 26.1328 11.6016C26.1328 11.8443 26.3295 12.041 26.5723 12.041H27.1582C27.401 12.041 27.5977 11.8443 27.5977 11.6016C27.5977 11.3589 27.401 11.1621 27.1582 11.1621Z" fill="black"/>
<path d="M22.9395 12.041H24.8145C25.0572 12.041 25.2539 11.8443 25.2539 11.6016C25.2539 11.3589 25.0572 11.1621 24.8145 11.1621H22.9395C22.6967 11.1621 22.5 11.3589 22.5 11.6016C22.5 11.8443 22.6967 12.041 22.9395 12.041Z" fill="black"/>
<path d="M22.9395 17.1387H24.8145C25.0572 17.1387 25.2539 16.9419 25.2539 16.6992C25.2539 16.4565 25.0572 16.2598 24.8145 16.2598H22.9395C22.6967 16.2598 22.5 16.4565 22.5 16.6992C22.5 16.9419 22.6967 17.1387 22.9395 17.1387Z" fill="black"/>
<path d="M22.9395 13.7988H24.8145C25.0572 13.7988 25.2539 13.6021 25.2539 13.3594C25.2539 13.1167 25.0572 12.9199 24.8145 12.9199H22.9395C22.6967 12.9199 22.5 13.1167 22.5 13.3594C22.5 13.6021 22.6967 13.7988 22.9395 13.7988Z" fill="black"/>
<path d="M27.1582 18.0176H25.9021C25.6593 18.0176 25.4626 18.2143 25.4626 18.457C25.4626 18.6997 25.6593 18.8965 25.9021 18.8965H27.1582C27.4009 18.8965 27.5976 18.6997 27.5976 18.457C27.5976 18.2143 27.4009 18.0176 27.1582 18.0176Z" fill="black"/>
<path d="M22.9395 18.8965H24.1443C24.3871 18.8965 24.5838 18.6997 24.5838 18.457C24.5838 18.2143 24.3871 18.0176 24.1443 18.0176H22.9395C22.6967 18.0176 22.5 18.2143 22.5 18.457C22.5 18.6997 22.6967 18.8965 22.9395 18.8965Z" fill="black"/>
<path d="M22.9395 20.6543H27.1582C27.401 20.6543 27.5977 20.4575 27.5977 20.2148C27.5977 19.9721 27.401 19.7754 27.1582 19.7754H22.9395C22.6967 19.7754 22.5 19.9721 22.5 20.2148C22.5 20.4575 22.6967 20.6543 22.9395 20.6543Z" fill="black"/>
<path d="M22.9395 22.4121H25.9277C26.1705 22.4121 26.3672 22.2154 26.3672 21.9727C26.3672 21.73 26.1705 21.5332 25.9277 21.5332H22.9395C22.6967 21.5332 22.5 21.73 22.5 21.9727C22.5 22.2154 22.6967 22.4121 22.9395 22.4121Z" fill="black"/>
<path d="M20.3027 11.1621C20.5455 11.1621 20.7422 10.9654 20.7422 10.7227C20.7422 10.48 20.5455 10.2832 20.3027 10.2832H16.2927C16.05 10.2832 15.8533 10.48 15.8533 10.7227C15.8533 10.9654 16.05 11.1621 16.2927 11.1621H20.3027Z" fill="black"/>
<path d="M13.8574 11.1621H14.5349C14.7777 11.1621 14.9744 10.9654 14.9744 10.7227C14.9744 10.48 14.7777 10.2832 14.5349 10.2832H13.8574C13.6147 10.2832 13.418 10.48 13.418 10.7227C13.418 10.9654 13.6147 11.1621 13.8574 11.1621Z" fill="black"/>
<path d="M13.8574 12.9199H20.3027C20.5455 12.9199 20.7422 12.7232 20.7422 12.4805C20.7422 12.2378 20.5455 12.041 20.3027 12.041H13.8574C13.6147 12.041 13.418 12.2378 13.418 12.4805C13.418 12.7232 13.6147 12.9199 13.8574 12.9199Z" fill="black"/>
<path d="M20.3027 13.7988H18.9258C18.683 13.7988 18.4863 13.9956 18.4863 14.2383C18.4863 14.481 18.683 14.6777 18.9258 14.6777H20.3027C20.5455 14.6777 20.7422 14.481 20.7422 14.2383C20.7422 13.9956 20.5455 13.7988 20.3027 13.7988Z" fill="black"/>
<path d="M13.8574 14.6777H17.168C17.4107 14.6777 17.6074 14.481 17.6074 14.2383C17.6074 13.9956 17.4107 13.7988 17.168 13.7988H13.8574C13.6147 13.7988 13.418 13.9956 13.418 14.2383C13.418 14.481 13.6147 14.6777 13.8574 14.6777Z" fill="black"/>
<path d="M10.1074 17.1387H3.66211C3.41936 17.1387 3.22266 17.3354 3.22266 17.5781C3.22266 17.8208 3.41936 18.0176 3.66211 18.0176H10.1074C10.3502 18.0176 10.5469 17.8208 10.5469 17.5781C10.5469 17.3354 10.3502 17.1387 10.1074 17.1387Z" fill="black"/>
<path d="M10.5472 19.3359C10.5472 19.0932 10.3505 18.8965 10.1077 18.8965H8.27637C8.03361 18.8965 7.83691 19.0932 7.83691 19.3359C7.83691 19.5786 8.03361 19.7754 8.27637 19.7754H10.1077C10.3505 19.7754 10.5472 19.5786 10.5472 19.3359Z" fill="black"/>
<path d="M3.66211 19.7754H6.51826C6.76102 19.7754 6.95772 19.5786 6.95772 19.3359C6.95772 19.0932 6.76102 18.8965 6.51826 18.8965H3.66211C3.41936 18.8965 3.22266 19.0932 3.22266 19.3359C3.22266 19.5786 3.41936 19.7754 3.66211 19.7754V19.7754Z" fill="black"/>
<path d="M3.66211 21.5332H8.34961C8.59236 21.5332 8.78906 21.3364 8.78906 21.0938C8.78906 20.8511 8.59236 20.6543 8.34961 20.6543H3.66211C3.41936 20.6543 3.22266 20.8511 3.22266 21.0938C3.22266 21.3364 3.41936 21.5332 3.66211 21.5332Z" fill="black"/>
</svg>
