<svg width="30" height="26" viewBox="0 0 30 26" fill="none" xmlns="http://www.w3.org/2000/svg">
<path d="M26.8042 0.903304C18.9348 0.283046 11.0654 0.283046 3.19598 0.903304C2.02104 0.995897 1.08233 1.91462 0.95528 3.08634C0.264581 9.45588 0.264581 15.8254 0.95528 22.1949C1.08233 23.3666 2.02104 24.2853 3.19592 24.3779C11.0653 24.9982 18.9347 24.9982 26.8041 24.3779C27.979 24.2853 28.9177 23.3666 29.0447 22.1949C29.7354 15.8254 29.7354 9.45588 29.0447 3.08634C28.9178 1.91462 27.979 0.995897 26.8042 0.903304V0.903304Z" fill="#E4F6FF"/>
<path d="M29.3685 6.78813L29.3568 6.78696C19.7858 5.94307 10.2148 5.94307 0.643801 6.78696L0.63208 6.78872C0.713539 5.55453 0.821369 4.32094 0.955571 3.08681C1.08274 1.91474 2.02157 0.995843 3.19598 0.90325C11.0657 0.283227 18.9349 0.283227 26.8047 0.90325C27.9791 0.995843 28.9179 1.91474 29.0451 3.08681C29.1792 4.32035 29.2871 5.55453 29.3685 6.78813V6.78813Z" fill="#617881"/>
<path d="M4.14572 4.92473C4.90492 4.92473 5.52037 4.30928 5.52037 3.55007C5.52037 2.79087 4.90492 2.17542 4.14572 2.17542C3.38651 2.17542 2.77106 2.79087 2.77106 3.55007C2.77106 4.30928 3.38651 4.92473 4.14572 4.92473Z" fill="#E64C49"/>
<path d="M12.3935 4.92473C13.1527 4.92473 13.7682 4.30928 13.7682 3.55007C13.7682 2.79087 13.1527 2.17542 12.3935 2.17542C11.6343 2.17542 11.0189 2.79087 11.0189 3.55007C11.0189 4.30928 11.6343 4.92473 12.3935 4.92473Z" fill="#1EDEB7"/>
<path d="M8.26956 4.92473C9.02876 4.92473 9.64422 4.30928 9.64422 3.55007C9.64422 2.79087 9.02876 2.17542 8.26956 2.17542C7.51035 2.17542 6.8949 2.79087 6.8949 3.55007C6.8949 4.30928 7.51035 4.92473 8.26956 4.92473Z" fill="#F4DD45"/>
<path d="M24.5369 5.28369L25.3226 3.82915C25.5212 3.46154 25.3839 3.00173 25.0163 2.80313L23.8881 2.19377C23.52 1.99493 23.0607 2.13247 22.8621 2.50009L22.0764 3.95462" fill="#E4F6FF"/>
<path d="M24.8131 2.69333C24.445 2.49449 23.9857 2.63203 23.7871 2.99965L23.0014 4.45418L22.0764 3.95453L22.8621 2.5C23.0607 2.13238 23.52 1.99478 23.8881 2.19368L24.8131 2.69333Z" fill="#B9E4EF"/>
<path d="M21.7695 12.7671C19.0835 17.7397 15.9133 21.2352 14.6887 20.5737C13.4641 19.9123 14.6492 15.3446 17.3352 10.372C18.6971 7.85061 20.1838 5.70877 21.4776 4.29666C21.8292 3.91287 22.3973 3.81881 22.8553 4.06618L24.0164 4.69335C24.4745 4.94077 24.7072 5.46738 24.5791 5.97196C24.1075 7.82816 23.1313 10.2458 21.7695 12.7671Z" fill="#6BBEF6"/>
<path d="M14.6887 20.5739C13.4641 19.9124 14.6492 15.3447 17.3352 10.3721C18.6971 7.85072 20.1836 5.709 21.4774 4.29648C21.8291 3.91298 22.3974 3.81898 22.8553 4.06629L23.276 4.29355C23.1502 4.22557 22.8727 4.47669 22.6025 4.9042C21.6062 6.47741 20.3048 8.7191 18.9428 11.2405C16.2569 16.2131 14.352 20.392 14.6887 20.5739V20.5739Z" fill="#528ECB"/>
<path d="M29.4817 3.03919C29.3317 1.65644 28.2202 0.573804 26.8389 0.464919C20.045 -0.0704811 13.1569 -0.143852 6.36602 0.246856C6.1237 0.260804 5.93851 0.468553 5.95246 0.710878C5.96641 0.953202 6.17427 1.13833 6.41648 1.12444C13.1678 0.736077 20.0156 0.80898 26.7698 1.34122C27.7303 1.41693 28.5033 2.17092 28.6078 3.13401C28.7222 4.18928 28.8171 5.24713 28.8933 6.30656C28.1325 6.2418 27.3684 6.18191 26.6038 6.12747C26.4092 5.52473 25.986 5.03059 25.3589 4.68653L25.7093 4.03791C26.0229 3.45732 25.8056 2.72988 25.2251 2.41629L24.0969 1.80694C23.5164 1.49341 22.7889 1.71053 22.4753 2.29112L21.7768 3.58438C21.5444 3.66865 21.3293 3.80771 21.1534 3.99976C20.6787 4.51787 20.19 5.11779 19.6987 5.78282C13.5261 5.60537 7.27555 5.78177 1.10672 6.30656C1.18291 5.24713 1.27773 4.18928 1.39224 3.13401C1.49673 2.17092 2.26971 1.41693 3.23033 1.34122C3.72436 1.30213 4.20913 1.26638 4.67127 1.23491C4.91342 1.21844 5.09638 1.0087 5.07992 0.766551C5.06345 0.524402 4.85418 0.3415 4.61156 0.357909C4.14631 0.389614 3.65826 0.425596 3.16118 0.464919C1.77978 0.573804 0.668313 1.6565 0.518288 3.03925C-0.172763 9.41025 -0.172763 15.871 0.518288 22.2421C0.668313 23.6248 1.77978 24.7075 3.16112 24.8164C7.09218 25.1259 11.0532 25.2809 15.0104 25.2809C18.0015 25.2809 20.9907 25.1923 23.9607 25.015C24.2031 25.0006 24.3878 24.7924 24.3733 24.5501C24.3588 24.3078 24.1513 24.1232 23.9084 24.1376C17.0494 24.5469 10.0923 24.4805 3.23016 23.9401C2.26965 23.8644 1.49667 23.1104 1.39218 22.1473C0.854378 17.1889 0.739516 12.1757 1.04718 7.19382C7.03041 6.67981 13.0922 6.49579 19.0848 6.64599C18.4266 7.60515 17.7722 8.66874 17.1485 9.79727H8.60913C8.36639 9.79727 8.1696 9.99406 8.1696 10.2368C8.1696 10.4795 8.36639 10.6763 8.60913 10.6763H16.676C16.3924 11.2189 16.1254 11.759 15.8761 12.292H8.60913C8.36639 12.292 8.1696 12.4888 8.1696 12.7315C8.1696 12.9743 8.36639 13.1711 8.60913 13.1711H15.4786C15.2378 13.7228 15.0188 14.263 14.8233 14.7867H3.74358C3.50085 14.7867 3.30406 14.9835 3.30406 15.2262C3.30406 15.469 3.50085 15.6658 3.74358 15.6658H14.5124C14.3607 16.1213 14.2284 16.5613 14.12 16.9793C14.0933 17.0821 14.0686 17.1824 14.0449 17.2814H3.74358C3.50085 17.2814 3.30406 17.4782 3.30406 17.721C3.30406 17.9637 3.50085 18.1605 3.74358 18.1605H13.8663C13.6734 19.3461 13.7595 20.1804 14.1234 20.6543L14.0219 20.8196C13.8949 21.0265 13.9596 21.2971 14.1664 21.4242C14.2382 21.4682 14.3176 21.4892 14.396 21.4892C14.5437 21.4892 14.688 21.4147 14.771 21.2795L14.8889 21.0874C14.9334 21.0922 14.9785 21.0949 15.0246 21.0949C15.7905 21.0949 16.7901 20.4198 18.0066 19.0786C18.2634 18.7955 18.5242 18.4885 18.7873 18.1605H26.2565C26.4992 18.1605 26.696 17.9637 26.696 17.721C26.696 17.4782 26.4992 17.2814 26.2565 17.2814H19.4605C19.8306 16.777 20.2019 16.236 20.5695 15.6658H21.1059C21.0326 15.9042 21.0029 16.1125 21.0226 16.2928C21.0471 16.518 21.2376 16.6847 21.4589 16.6847C21.4748 16.6847 21.4909 16.6839 21.5071 16.6821C21.7485 16.6558 21.9227 16.4388 21.8964 16.1975C21.8901 16.1391 21.9008 15.9929 22.0397 15.6658H26.2564C26.4991 15.6658 26.6959 15.469 26.6959 15.2263C26.6959 14.9836 26.4991 14.7868 26.2564 14.7868H22.4958C22.7793 14.3011 23.1354 13.7529 23.5218 13.1711H26.2564C26.4991 13.1711 26.6959 12.9743 26.6959 12.7316C26.6959 12.4889 26.4991 12.2921 26.2564 12.2921H24.1087C24.4704 11.7505 24.8309 11.2064 25.1635 10.6764H26.2564C26.4991 10.6764 26.6959 10.4796 26.6959 10.2369C26.6959 9.99412 26.4991 9.79733 26.2564 9.79733H25.6939C26.2013 8.91435 26.5783 8.10176 26.684 7.44593C26.7075 7.29954 26.7206 7.15666 26.7245 7.01718C27.469 7.07098 28.2126 7.13029 28.9528 7.19393C29.2604 12.1758 29.1456 17.189 28.6078 22.1474C28.5033 23.1105 27.7303 23.8645 26.7698 23.9402C26.3571 23.9727 25.9931 23.9998 25.657 24.0231C25.4148 24.0399 25.2321 24.2498 25.2489 24.4919C25.265 24.7238 25.458 24.9011 25.6869 24.9011C25.6971 24.9011 25.7074 24.9008 25.7177 24.9001C26.0567 24.8766 26.4234 24.8492 26.8388 24.8165C28.2202 24.7077 29.3316 23.625 29.4817 22.2423C30.1728 15.871 30.1728 9.41025 29.4817 3.03919V3.03919ZM25.6104 6.05925C25.4123 6.04636 25.2149 6.03464 25.0171 6.02251C25.0533 5.85362 25.0614 5.68396 25.043 5.51881C25.2879 5.66901 25.4773 5.84928 25.6104 6.05925ZM23.6792 2.58038L24.8073 3.18974C24.9614 3.27296 25.0191 3.46606 24.9358 3.62012L24.4743 4.47456C24.3977 4.41197 24.315 4.35513 24.2252 4.30666L23.0641 3.67949C22.9745 3.63102 22.8816 3.59305 22.7873 3.56328L23.2488 2.7089C23.332 2.55483 23.5251 2.49717 23.6792 2.58038V2.58038ZM21.8015 4.59364C21.9365 4.44626 22.1234 4.36855 22.3135 4.36855C22.4267 4.36855 22.5411 4.39615 22.6463 4.45299L23.8074 5.08017C24.0894 5.23248 24.2315 5.55468 24.153 5.86381C23.6687 7.76994 22.6848 10.1474 21.3827 12.5583C20.8566 13.5321 20.3058 14.4606 19.7484 15.3172L16.3112 13.4606C16.7221 12.5245 17.1957 11.555 17.7218 10.5809C19.024 8.17003 20.4729 6.04372 21.8015 4.59364V4.59364ZM17.3554 18.488C15.898 20.0949 15.1103 20.302 14.8976 20.1871C14.6847 20.0721 14.4262 19.2998 14.9709 17.1999C15.2016 16.3106 15.5406 15.3198 15.967 14.2737L19.2573 16.051C18.6159 16.9815 17.9729 17.8072 17.3554 18.488V18.488ZM21.4901 14.7866H21.1194C21.4354 14.2659 21.7467 13.7258 22.0501 13.171H22.4703C22.0661 13.7911 21.7343 14.3264 21.4901 14.7866ZM23.1929 12.0802C23.1451 12.1518 23.098 12.2222 23.0515 12.292H22.5168C22.7977 11.7486 23.063 11.2084 23.3087 10.6763H24.1207C23.8167 11.1473 23.4994 11.6219 23.1929 12.0802ZM25.8162 7.30598C25.7142 7.93866 25.257 8.83166 24.6724 9.79721H23.7008C24.141 8.77423 24.5051 7.7928 24.7788 6.88849C25.1346 6.90994 25.4906 6.93227 25.8476 6.95618C25.8461 7.06823 25.8357 7.18479 25.8162 7.30598V7.30598Z" fill="black"/>
<path d="M2.33142 3.55009C2.33142 4.55045 3.14525 5.36427 4.14561 5.36427C5.14591 5.36427 5.95979 4.55045 5.95979 3.55009C5.95979 2.54973 5.14597 1.73596 4.14561 1.73596C3.1453 1.73596 2.33142 2.54979 2.33142 3.55009V3.55009ZM5.08074 3.55009C5.08074 4.06574 4.66126 4.48522 4.14561 4.48522C3.62996 4.48522 3.21047 4.06574 3.21047 3.55009C3.21047 3.03444 3.62996 2.61495 4.14561 2.61495C4.66126 2.61501 5.08074 3.0345 5.08074 3.55009V3.55009Z" fill="black"/>
<path d="M14.2076 3.55003C14.2076 2.54967 13.3938 1.73584 12.3934 1.73584C11.393 1.73584 10.5792 2.54967 10.5792 3.55003C10.5792 4.55039 11.393 5.36421 12.3934 5.36421C13.3938 5.36421 14.2076 4.55039 14.2076 3.55003V3.55003ZM11.4583 3.55003C11.4583 3.03438 11.8778 2.61489 12.3935 2.61489C12.9091 2.61489 13.3286 3.03438 13.3286 3.55003C13.3286 4.06568 12.9091 4.48516 12.3935 4.48516C11.8778 4.48516 11.4583 4.06568 11.4583 3.55003V3.55003Z" fill="black"/>
<path d="M10.0837 3.55003C10.0837 2.54967 9.26992 1.73584 8.26956 1.73584C7.26921 1.73584 6.45538 2.54967 6.45538 3.55003C6.45538 4.55039 7.26921 5.36421 8.26956 5.36421C9.26992 5.36421 10.0837 4.55039 10.0837 3.55003V3.55003ZM7.33449 3.55003C7.33449 3.03438 7.75397 2.61489 8.26962 2.61489C8.78527 2.61489 9.20475 3.03438 9.20475 3.55003C9.20475 4.06568 8.78527 4.48516 8.26962 4.48516C7.75397 4.48516 7.33449 4.06568 7.33449 3.55003V3.55003Z" fill="black"/>
<path d="M3.74379 19.7764C3.50105 19.7764 3.30426 19.9732 3.30426 20.2159C3.30426 20.4586 3.50105 20.6554 3.74379 20.6554H11.6103C11.853 20.6554 12.0498 20.4586 12.0498 20.2159C12.0498 19.9732 11.853 19.7764 11.6103 19.7764H3.74379Z" fill="black"/>
<path d="M5.00299 7.96399H3.74354C3.50081 7.96399 3.30402 8.16078 3.30402 8.40351V10.4001V10.4033V12.7394C3.30402 12.8563 3.35061 12.9684 3.43341 13.0509C3.51581 13.1329 3.62733 13.1789 3.74354 13.1789H3.74548C3.74548 13.1789 4.90371 13.1738 5.22292 13.1738C6.10883 13.1738 6.82954 12.4531 6.82954 11.5672C6.82954 11.0285 6.56283 10.5514 6.15489 10.2597C6.33399 10.02 6.44017 9.72279 6.44017 9.40124C6.44023 8.60869 5.79548 7.96399 5.00299 7.96399V7.96399ZM5.00299 8.84304C5.31077 8.84304 5.56112 9.09339 5.56112 9.40118C5.56112 9.70896 5.31077 9.95932 5.00299 9.95932C4.91039 9.95932 4.73599 9.95984 4.54588 9.96049H4.18307V8.84298H5.00299V8.84304ZM5.22298 12.2947C5.03305 12.2947 4.54699 12.2965 4.18307 12.2979V10.8409C4.29969 10.8404 4.42668 10.8399 4.54746 10.8395H5.22298C5.62418 10.8395 5.95054 11.1658 5.95054 11.567C5.95054 11.9683 5.62412 12.2947 5.22298 12.2947Z" fill="black"/>
</svg>
