<svg width="30" height="30" viewBox="0 0 30 30" fill="none" xmlns="http://www.w3.org/2000/svg">
<path d="M23.9062 29.4141H6.09375C4.79936 29.4141 3.75 28.3647 3.75 27.0703V2.92969C3.75 1.63529 4.79936 0.585938 6.09375 0.585938H23.9062C25.2006 0.585938 26.25 1.63529 26.25 2.92969V27.0703C26.25 28.3647 25.2006 29.4141 23.9062 29.4141Z" fill="#EAF5FA"/>
<path d="M7.03125 13.2422H22.9688V26.1328H7.03125V13.2422Z" fill="#CBE6F3"/>
<path d="M17.6564 17.6564H22.9688V26.1329H17.6564V17.6564Z" fill="#43AADC"/>
<path d="M7.03125 3.86719H22.9688V9.96094H7.03125V3.86719Z" fill="#1EDEB7"/>
<path d="M23.9062 0H6.09375C4.47832 0 3.16406 1.31426 3.16406 2.92969V12.3707C3.16406 12.6943 3.42639 12.9567 3.75 12.9567C4.07361 12.9567 4.33594 12.6943 4.33594 12.3707V2.92969C4.33594 1.96043 5.12449 1.17188 6.09375 1.17188H23.9062C24.8755 1.17188 25.6641 1.96043 25.6641 2.92969V27.0703C25.6641 28.0396 24.8755 28.8281 23.9062 28.8281H6.09375C5.12449 28.8281 4.33594 28.0396 4.33594 27.0703V17.6442C4.33594 17.3205 4.07361 17.0582 3.75 17.0582C3.42639 17.0582 3.16406 17.3205 3.16406 17.6442V27.0703C3.16406 28.6857 4.47832 30 6.09375 30H23.9062C25.5217 30 26.8359 28.6857 26.8359 27.0703V2.92969C26.8359 1.31426 25.5217 0 23.9062 0Z" fill="black"/>
<path d="M7.03125 10.5469H22.9688C23.2924 10.5469 23.5547 10.2846 23.5547 9.96094V3.86719C23.5547 3.54357 23.2924 3.28125 22.9688 3.28125H7.03125C6.70764 3.28125 6.44531 3.54357 6.44531 3.86719V9.96094C6.44531 10.2846 6.70764 10.5469 7.03125 10.5469ZM7.61719 4.45312H22.3828V9.375H7.61719V4.45312Z" fill="black"/>
<path d="M6.44531 26.1328C6.44531 26.4564 6.70764 26.7188 7.03125 26.7188H22.9688C23.2924 26.7188 23.5547 26.4564 23.5547 26.1328V13.2422C23.5547 12.9186 23.2924 12.6562 22.9688 12.6562H7.03125C6.70764 12.6562 6.44531 12.9186 6.44531 13.2422V26.1328ZM17.0704 18.125V21.25H12.9297V18.125H17.0704ZM12.9297 16.9531V13.8281H17.0704V16.9531H12.9297ZM17.0704 25.5469H12.9297V22.4219H17.0704V25.5469ZM11.7578 21.25H7.61719V18.125H11.7578V21.25ZM7.61719 22.4219H11.7578V25.5469H7.61719V22.4219ZM18.2422 25.5469V18.125H22.3828V25.5469H18.2422ZM22.3828 16.9531H18.2422V13.8281H22.3828V16.9531ZM11.7578 13.8281V16.9531H7.61719V13.8281H11.7578Z" fill="black"/>
<path d="M20.3906 5.625C20.067 5.625 19.8047 5.88732 19.8047 6.21094V7.61719C19.8047 7.9408 20.067 8.20312 20.3906 8.20312C20.7142 8.20312 20.9766 7.9408 20.9766 7.61719V6.21094C20.9766 5.88732 20.7142 5.625 20.3906 5.625Z" fill="black"/>
<path d="M3.75 15.5935C3.9041 15.5935 4.05527 15.5308 4.16426 15.4218C4.27324 15.3128 4.33594 15.1617 4.33594 15.0076C4.33594 14.8529 4.27324 14.7023 4.16426 14.5933C4.05527 14.4837 3.9041 14.4216 3.75 14.4216C3.5959 14.4216 3.44473 14.4837 3.33574 14.5933C3.22676 14.7023 3.16406 14.8535 3.16406 15.0076C3.16406 15.1617 3.22676 15.3128 3.33574 15.4218C3.44473 15.5308 3.5959 15.5935 3.75 15.5935Z" fill="black"/>
</svg>
