<svg width="27" height="30" viewBox="0 0 27 30" fill="none" xmlns="http://www.w3.org/2000/svg">
<path d="M5.07247 26.0417C10.8366 26.0417 14.795 29.0275 17.5725 29.0275C20.35 29.0275 26.1833 27.4308 26.1833 14.6533C26.1833 1.87583 18.3358 0 15.2808 0C0.974967 0 -5.13587 26.0417 5.07247 26.0417Z" fill="#EAF5FA"/>
<path d="M22.4666 7.63908V10.9724H3.71664V7.63908C3.71664 6.72241 4.46664 5.97241 5.38331 5.97241H20.8C21.7166 5.97241 22.4666 6.72241 22.4666 7.63908Z" fill="#1EDEB7"/>
<path d="M7.25831 5.97241H5.38331C4.46664 5.97241 3.71664 6.72241 3.71664 7.63908V10.9724H5.59165V7.63908C5.59165 6.72241 6.34165 5.97241 7.25831 5.97241Z" fill="#1EDEB7"/>
<path d="M22.4666 10.9724V21.3891C22.4666 22.3057 21.7166 23.0557 20.8 23.0557H5.38331C4.46664 23.0557 3.71664 22.3057 3.71664 21.3891V10.9724H22.4666Z" fill="#EAF5FA"/>
<path d="M5.59165 21.3891V10.9724H3.71664V21.3891C3.71664 22.3057 4.46664 23.0557 5.38331 23.0557H7.25831C6.34165 23.0557 5.59165 22.3057 5.59165 21.3891Z" fill="#EAF5FA"/>
<path d="M19.959 3.36145L20.5482 2.77219L21.7267 3.95071L21.1375 4.53996L19.959 3.36145Z" fill="#EAF5FA"/>
<path d="M23.3467 6.74976L23.936 6.1605L25.1145 7.33901L24.5253 7.92826L23.3467 6.74976Z" fill="#EAF5FA"/>
<path d="M23.2003 3.95093L24.3788 2.77242L24.968 3.36167L23.7895 4.54018L23.2003 3.95093Z" fill="#EAF5FA"/>
<path d="M3.36914 4.69507C2.67997 4.69507 2.11914 4.13423 2.11914 3.44507C2.11914 2.7559 2.67997 2.19507 3.36914 2.19507C4.05831 2.19507 4.61914 2.7559 4.61914 3.44507C4.61914 4.13423 4.05914 4.69507 3.36914 4.69507ZM3.36914 3.0284C3.13914 3.0284 2.95247 3.21507 2.95247 3.44507C2.95247 3.67507 3.13914 3.86173 3.36914 3.86173C3.59914 3.86173 3.78581 3.67507 3.78581 3.44507C3.78581 3.21507 3.59914 3.0284 3.36914 3.0284Z" fill="#EAF5FA"/>
<path d="M20.8 23.6807H5.38331C4.11914 23.6807 3.09164 22.6532 3.09164 21.3891V7.63908C3.09164 6.37491 4.11914 5.34741 5.38331 5.34741H20.8C22.0641 5.34741 23.0916 6.37491 23.0916 7.63908V21.3891C23.0916 22.6532 22.0641 23.6807 20.8 23.6807ZM5.38331 6.59741C4.80914 6.59741 4.34164 7.06491 4.34164 7.63908V21.3891C4.34164 21.9632 4.80914 22.4307 5.38331 22.4307H20.8C21.3741 22.4307 21.8416 21.9632 21.8416 21.3891V7.63908C21.8416 7.06491 21.3741 6.59741 20.8 6.59741H5.38331Z" fill="#1E2B46"/>
<path d="M3.71664 10.3474H20.5916V11.5974H3.71664V10.3474Z" fill="#1E2B46"/>
<path d="M3.71664 14.5142H22.4666V15.7642H3.71664V14.5142Z" fill="#1E2B46"/>
<path d="M3.71664 18.6809H22.4666V19.9309H3.71664V18.6809Z" fill="#1E2B46"/>
<path d="M7.67496 10.9724H8.92496V23.0557H7.67496V10.9724Z" fill="#1E2B46"/>
<path d="M12.4666 10.9724H13.7166V23.0557H12.4666V10.9724Z" fill="#1E2B46"/>
<path d="M17.2583 10.9724H18.5083V23.0557H17.2583V10.9724Z" fill="#1E2B46"/>
</svg>
