<svg width="30" height="30" viewBox="0 0 30 30" fill="none" xmlns="http://www.w3.org/2000/svg">
<g clip-path="url(#clip0_2260:9236)">
<path d="M25.8029 8.89392H4.1969C3.41872 8.89392 2.78784 9.5248 2.78784 10.303V27.6817H27.212V10.303C27.2119 9.5248 26.5811 8.89392 25.8029 8.89392Z" fill="#CBE6F3"/>
<path d="M24.8636 25.3333H5.1364C4.61761 25.3333 4.19702 24.9127 4.19702 24.394V11.2425C4.19702 10.7237 4.61761 10.3031 5.1364 10.3031H24.8636C25.3824 10.3031 25.8029 10.7237 25.8029 11.2425V24.394C25.803 24.9127 25.3824 25.3333 24.8636 25.3333Z" fill="#EAF5FA"/>
<path d="M12.1818 11.2424L9.70285 14.1345C9.48394 14.3899 9.36365 14.7152 9.36365 15.0515V16.409L13.5909 14.0605L12.1818 11.2424Z" fill="#1EDEB7"/>
<path d="M11.6742 15.1254L13.5909 14.0606L12.1818 11.2424L10.7888 12.8676C11.0093 13.6478 11.3083 14.402 11.6742 15.1254Z" fill="#1EDEB7"/>
<path d="M17.8182 11.2424L20.2971 14.1345C20.516 14.3899 20.6363 14.7152 20.6363 15.0515V16.409L16.4091 14.0605L17.8182 11.2424Z" fill="#1EDEB7"/>
<path d="M0.439453 26.7423V27.6817C0.439453 28.2005 0.860039 28.6211 1.37883 28.6211H28.6211C29.1399 28.6211 29.5605 28.2005 29.5605 27.6817V26.7423H0.439453Z" fill="#DAD8DB"/>
<path d="M15.3385 1.72766C15.1578 1.53284 14.8422 1.53284 14.6615 1.72766C12.8421 3.68979 11.7122 6.38258 11.7122 9.36371C11.7122 11.6315 12.3687 13.7304 13.4826 15.4698H16.5175C17.6314 13.7304 18.2879 11.6315 18.2879 9.36371C18.2879 6.38252 17.1579 3.68979 15.3385 1.72766Z" fill="white"/>
<path d="M14.7191 14.0607C14.5324 14.0607 14.3603 13.9442 14.2807 13.764C13.6672 12.3748 13.3561 10.8943 13.3561 9.36373C13.3561 7.89167 13.6599 6.45782 14.2177 5.13647H12.5168C11.9999 6.43503 11.7122 7.86244 11.7122 9.36373C11.7122 11.6315 12.3687 13.7304 13.4826 15.4698H16.5175C16.8036 15.023 17.0583 14.5517 17.2807 14.0607H17.0489H14.7191V14.0607Z" fill="white"/>
<path d="M16.8787 17.3485H13.1211L13.4824 15.4697H16.5174L16.8787 17.3485Z" fill="#1EDEB7"/>
<path d="M15 10.3031C15.7782 10.3031 16.4091 9.67225 16.4091 8.89404C16.4091 8.11584 15.7782 7.48499 15 7.48499C14.2218 7.48499 13.5909 8.11584 13.5909 8.89404C13.5909 9.67225 14.2218 10.3031 15 10.3031Z" fill="#43AADC"/>
<path d="M12.5167 5.13639H17.4832C16.9737 3.85641 16.2415 2.70164 15.3384 1.72758C15.1578 1.5327 14.8422 1.5327 14.6615 1.72758C13.7584 2.70164 13.0263 3.85641 12.5167 5.13639Z" fill="#1EDEB7"/>
<path d="M14.2185 5.13639C14.645 4.1236 15.2068 3.19922 15.8961 2.38817C15.7173 2.16118 15.5339 1.93829 15.3385 1.72758C15.1579 1.5327 14.8423 1.5327 14.6616 1.72758C13.7584 2.70159 13.0263 3.85635 12.5168 5.13639H14.2185Z" fill="#1EDEB7"/>
<path d="M21.5757 22.5151C21.1988 22.5151 20.8381 22.5817 20.5008 22.6984C20.1848 21.7745 19.3187 21.106 18.2878 21.106C17.7129 21.106 17.1932 21.3207 16.785 21.6637C16.8405 21.4864 16.8788 21.3016 16.8788 21.106C16.8788 20.0683 16.0377 19.2272 15 19.2272C13.9623 19.2272 13.1212 20.0683 13.1212 21.106C13.1212 21.3015 13.1595 21.4864 13.2149 21.6637C12.8067 21.3207 12.287 21.106 11.7121 21.106C10.6812 21.106 9.81506 21.7745 9.49913 22.6984C9.16186 22.5817 8.80116 22.5151 8.42422 22.5151C6.6084 22.5151 5.13635 23.9871 5.13635 25.803C5.13635 26.1296 5.18563 26.4445 5.27428 26.7423H24.7256C24.8143 26.4445 24.8635 26.1296 24.8635 25.803C24.8636 23.9871 23.3915 22.5151 21.5757 22.5151Z" fill="white"/>
<path d="M15 7.48499C14.3631 7.48499 13.8313 7.91026 13.6567 8.49022C13.7855 8.45149 13.9192 8.42436 14.0606 8.42436C14.8389 8.42436 15.4697 9.05524 15.4697 9.83342C15.4697 9.9748 15.4426 10.1085 15.4039 10.2372C15.9839 10.0628 16.4091 9.5309 16.4091 8.89399C16.4091 8.11586 15.7783 7.48499 15 7.48499Z" fill="#43AADC"/>
<path d="M29.5605 26.3029H27.6515V10.3031C27.6515 9.28381 26.8223 8.45459 25.803 8.45459H20.1669C19.9242 8.45459 19.7274 8.65135 19.7274 8.89404C19.7274 9.13674 19.9242 9.3335 20.1669 9.3335H25.803C26.3377 9.3335 26.7726 9.7685 26.7726 10.3031V26.303H25.2684C25.2911 26.1371 25.303 25.9701 25.303 25.8031C25.303 23.7479 23.6309 22.0758 21.5757 22.0758C21.2994 22.0758 21.0234 22.1073 20.7514 22.1699C20.2773 21.2563 19.3328 20.6666 18.2879 20.6666C17.947 20.6666 17.6159 20.7288 17.3041 20.8496C17.1761 19.6915 16.1916 18.7878 15 18.7878C13.8084 18.7878 12.8239 19.6915 12.6959 20.8496C12.3841 20.7288 12.053 20.6666 11.7121 20.6666C10.6672 20.6666 9.72264 21.2563 9.24855 22.1699C8.9765 22.1073 8.70064 22.0758 8.42432 22.0758C6.36902 22.0758 4.69699 23.7479 4.69699 25.8031C4.69699 25.9701 4.70889 26.1371 4.73156 26.303H3.2274V10.3031C3.2274 9.76844 3.66234 9.3335 4.19701 9.3335H9.83332C10.076 9.3335 10.2728 9.13674 10.2728 8.89404C10.2728 8.65135 10.076 8.45459 9.83332 8.45459H4.19701C3.17771 8.45459 2.3485 9.28387 2.3485 10.3031V26.303H0.439453C0.196758 26.303 0 26.4998 0 26.7425V27.6818C0 28.4422 0.618574 29.0607 1.37883 29.0607H28.6212C29.3815 29.0607 30 28.4421 30 27.6818V26.7425C30 26.4997 29.8032 26.3029 29.5605 26.3029ZM29.1211 27.6818C29.1211 27.9575 28.8968 28.1818 28.6212 28.1818H1.37883C1.10314 28.1818 0.878906 27.9575 0.878906 27.6818V27.1819H6.54533C6.78803 27.1819 6.98479 26.9852 6.98479 26.7425C6.98479 26.4998 6.78803 26.303 6.54533 26.303H5.62084C5.59102 26.1374 5.57584 25.9701 5.57584 25.8031C5.57584 24.2325 6.85365 22.9547 8.42426 22.9547C8.73709 22.9547 9.05033 23.0082 9.35531 23.1138C9.46576 23.1521 9.58682 23.1447 9.69188 23.0935C9.79688 23.0423 9.87715 22.9513 9.915 22.8408C10.1799 22.0661 10.9021 21.5456 11.7122 21.5456C12.1564 21.5456 12.5783 21.7028 12.9323 22.0003C13.0818 22.1259 13.2961 22.1378 13.4586 22.0296C13.6211 21.9214 13.6927 21.719 13.6344 21.5327C13.5841 21.3718 13.5607 21.2363 13.5607 21.1062C13.5607 20.3125 14.2064 19.6669 15 19.6669C15.7936 19.6669 16.4393 20.3126 16.4393 21.1062C16.4393 21.2363 16.4159 21.3718 16.3656 21.5327C16.3073 21.719 16.379 21.9214 16.5414 22.0296C16.7039 22.1378 16.9182 22.1259 17.0677 22.0003C17.4217 21.7029 17.8437 21.5456 18.2878 21.5456C19.0979 21.5456 19.8201 22.0661 20.085 22.8408C20.1229 22.9513 20.2031 23.0423 20.3081 23.0935C20.4132 23.1448 20.5343 23.1521 20.6447 23.1138C20.9497 23.0082 21.2629 22.9547 21.5757 22.9547C23.1464 22.9547 24.4242 24.2325 24.4242 25.8031C24.4242 25.9701 24.4089 26.1374 24.3792 26.303H8.42443C8.18174 26.303 7.98498 26.4998 7.98498 26.7425C7.98498 26.9852 8.18174 27.1819 8.42443 27.1819H29.1211V27.6818Z" fill="black"/>
<path d="M9.35263 13.8571C9.07636 14.1886 8.92419 14.6089 8.92419 15.0405V16.4092C8.92419 16.5654 9.00716 16.7099 9.14205 16.7887C9.21048 16.8286 9.28707 16.8486 9.36365 16.8486C9.43812 16.8486 9.51259 16.8298 9.57962 16.7919L12.7091 15.0261C12.8284 15.2438 12.9548 15.458 13.0883 15.6683L12.6949 17.242C12.6621 17.3733 12.6916 17.5123 12.7749 17.619C12.8581 17.7257 12.9859 17.7881 13.1213 17.7881H16.8788C17.0142 17.7881 17.1419 17.7257 17.2252 17.619C17.3085 17.5124 17.338 17.3733 17.3052 17.242L16.9118 15.6683C17.0453 15.458 17.1717 15.2439 17.291 15.0261L20.4205 16.7919C20.4876 16.8298 20.562 16.8486 20.6364 16.8486C20.713 16.8486 20.7896 16.8286 20.858 16.7887C20.9929 16.7099 21.0759 16.5654 21.0759 16.4092V15.0405C21.0759 14.6089 20.9237 14.1886 20.6475 13.8571L18.5613 11.3545C18.6711 10.7017 18.7274 10.0362 18.7274 9.36374C18.7274 7.76114 18.4171 6.21204 17.8053 4.75956C17.2151 3.3587 16.375 2.11593 15.3084 1.06575C15.1374 0.897354 14.8628 0.897354 14.6918 1.06575C13.6252 2.11587 12.7851 3.35864 12.195 4.75956C11.5831 6.2121 11.2728 7.76114 11.2728 9.36374C11.2728 10.0351 11.3289 10.6997 11.4384 11.3515L9.35263 13.8571ZM9.8031 15.6566V15.0405C9.8031 14.8141 9.8829 14.5937 10.0278 14.4198L11.675 12.4432C11.8396 13.0589 12.0535 13.6594 12.3158 14.2389L9.8031 15.6566ZM13.6841 16.9091L13.934 15.9092H16.066L16.3159 16.9091H13.6841ZM19.9721 14.4198C20.117 14.5937 20.1968 14.8141 20.1968 15.0405V15.6566L17.6841 14.2388C17.9463 13.6593 18.1603 13.0589 18.3249 12.4431L19.9721 14.4198ZM15 2.00923C15.7379 2.80253 16.3466 3.71214 16.8092 4.69704H13.1907C13.6533 3.71214 14.262 2.80253 15 2.00923ZM12.8245 5.57589H17.1754C17.6148 6.77384 17.8483 8.05815 17.8483 9.36368C17.8483 11.3845 17.3047 13.3383 16.2738 15.0303H13.7261C12.6952 13.3383 12.1515 11.3845 12.1515 9.36368C12.1515 8.05815 12.3852 6.7739 12.8245 5.57589Z" fill="black"/>
<path d="M16.8485 8.89404C16.8485 7.87475 16.0193 7.04553 15 7.04553C13.9807 7.04553 13.1515 7.87481 13.1515 8.89404C13.1515 9.91328 13.9807 10.7426 15 10.7426C16.0193 10.7426 16.8485 9.91334 16.8485 8.89404ZM14.0304 8.89404C14.0304 8.35938 14.4653 7.92444 15 7.92444C15.5347 7.92444 15.9696 8.35944 15.9696 8.89404C15.9696 9.42865 15.5347 9.86365 15 9.86365C14.4653 9.86365 14.0304 9.42871 14.0304 8.89404Z" fill="black"/>
</g>
<defs>
<clipPath id="clip0_2260:9236">
<rect width="30" height="30" fill="white"/>
</clipPath>
</defs>
</svg>
