<svg width="30" height="27" viewBox="0 0 30 27" fill="none" xmlns="http://www.w3.org/2000/svg">
<path d="M29.5001 26.9938H0.506062C0.229994 26.9938 0.00616455 26.77 0.00616455 26.4939C0.00616455 26.2178 0.229994 25.994 0.506062 25.994H29.0002V2.99868C29.0002 2.72261 29.2241 2.49878 29.5001 2.49878C29.7762 2.49878 30 2.72261 30 2.99868V26.4939C30 26.77 29.7763 26.9938 29.5001 26.9938Z" fill="#1E2B46"/>
<path d="M3.00555 13.4966H9.00433V24.4943H3.00555V13.4966Z" fill="#43AADC"/>
<path d="M12.0037 7.4978H18.0025V24.4943H12.0037V7.4978Z" fill="#E64C49"/>
<path d="M21.0019 2.49878H27.0006V24.4943H21.0019V2.49878Z" fill="#1EDEB7"/>
<path d="M10.504 0.999166L12.1502 2.64533L8.00451 6.79098L6.85825 5.64472C6.66304 5.44957 6.3466 5.44957 6.15139 5.64472L0.152615 11.6435C-0.0459691 11.8353 -0.051468 12.1518 0.140305 12.3503C0.332079 12.5489 0.648577 12.5544 0.847161 12.3627C0.851348 12.3587 0.855409 12.3545 0.859471 12.3503L6.50482 6.705L7.65108 7.85127C7.84629 8.04641 8.16273 8.04641 8.35794 7.85127L12.857 3.35219L14.5032 4.99835L15.0031 0.499268L10.504 0.999166Z" fill="#E64C49"/>
<path d="M5.00515 22.9947C4.72908 22.9947 4.50525 22.7709 4.50525 22.4948V21.495C4.50525 21.2189 4.72908 20.9951 5.00515 20.9951C5.28122 20.9951 5.50504 21.2189 5.50504 21.495V22.4948C5.50504 22.7709 5.28128 22.9947 5.00515 22.9947Z" fill="white"/>
<path d="M5.00515 19.9952C4.72908 19.9952 4.50525 19.7714 4.50525 19.4953V17.4957C4.50525 17.2197 4.72908 16.9958 5.00515 16.9958C5.28122 16.9958 5.50504 17.2197 5.50504 17.4957V19.4953C5.50504 19.7714 5.28128 19.9952 5.00515 19.9952Z" fill="white"/>
<path d="M14.0033 22.9947C13.7272 22.9947 13.5034 22.7709 13.5034 22.4948V21.495C13.5034 21.2189 13.7272 20.9951 14.0033 20.9951C14.2794 20.9951 14.5032 21.2189 14.5032 21.495V22.4948C14.5032 22.7709 14.2794 22.9947 14.0033 22.9947Z" fill="white"/>
<path d="M14.0033 19.9952C13.7272 19.9952 13.5034 19.7714 13.5034 19.4953V14.4964C13.5034 14.2203 13.7272 13.9965 14.0033 13.9965C14.2794 13.9965 14.5032 14.2203 14.5032 14.4964V19.4953C14.5032 19.7714 14.2794 19.9952 14.0033 19.9952Z" fill="white"/>
<path d="M23.0015 22.9947C22.7254 22.9947 22.5016 22.7709 22.5016 22.4948V21.495C22.5016 21.2189 22.7254 20.9951 23.0015 20.9951C23.2775 20.9951 23.5014 21.2189 23.5014 21.495V22.4948C23.5014 22.7709 23.2776 22.9947 23.0015 22.9947Z" fill="white"/>
<path d="M23.0015 19.9953C22.7254 19.9953 22.5016 19.7715 22.5016 19.4954V9.49746C22.5016 9.22139 22.7254 8.99756 23.0015 8.99756C23.2775 8.99756 23.5014 9.22139 23.5014 9.49746V19.4954C23.5014 19.7715 23.2776 19.9953 23.0015 19.9953Z" fill="white"/>
<path d="M29.5001 2.49878C29.2241 2.49878 29.0002 2.72261 29.0002 2.99868V25.994H0.506062C0.229994 25.994 0.00616455 26.2178 0.00616455 26.4939C0.00616455 26.77 0.229994 26.9938 0.506062 26.9938H29.5001C29.7762 26.9938 30 26.77 30 26.4939V2.99868C30 2.72255 29.7763 2.49878 29.5001 2.49878Z" fill="#1E2B46"/>
<path d="M3.00554 12.9968C2.72948 12.9968 2.50565 13.2207 2.50565 13.4967V24.4945C2.50565 24.7706 2.72948 24.9944 3.00554 24.9944H9.00432C9.28039 24.9944 9.50422 24.7706 9.50422 24.4945V13.4967C9.50422 13.2207 9.28039 12.9968 9.00432 12.9968H3.00554ZM8.50442 23.9946H3.50544V13.9966H8.50442V23.9946Z" fill="#1E2B46"/>
<path d="M12.0037 6.9978C11.7276 6.9978 11.5038 7.22163 11.5038 7.4977V24.4942C11.5038 24.7703 11.7276 24.9941 12.0037 24.9941H18.0025C18.2785 24.9941 18.5024 24.7703 18.5024 24.4942V7.4977C18.5024 7.22163 18.2785 6.9978 18.0025 6.9978H12.0037ZM17.5026 23.9943H12.5036V7.9976H17.5026V23.9943Z" fill="#1E2B46"/>
<path d="M21.0019 24.9943H27.0006C27.2767 24.9943 27.5005 24.7705 27.5005 24.4944V2.49892C27.5005 2.22285 27.2767 1.99902 27.0006 1.99902H21.0019C20.7258 1.99902 20.502 2.22285 20.502 2.49892V24.4944C20.502 24.7705 20.7258 24.9943 21.0019 24.9943ZM21.5017 2.99882H26.5007V23.9945H21.5017V2.99882Z" fill="#1E2B46"/>
<path d="M0.152617 12.3503C0.347827 12.5454 0.664262 12.5454 0.859472 12.3503L6.50482 6.70494L7.65108 7.85121C7.8463 8.04636 8.16273 8.04636 8.35794 7.85121L12.5036 3.70556L14.1498 5.35172C14.3453 5.54662 14.6618 5.54606 14.8567 5.35047C14.9369 5.27005 14.9873 5.16463 14.9996 5.05178L15.4995 0.5527C15.5287 0.278131 15.3297 0.0319935 15.0551 0.00281193C15.02 -0.000937309 14.9846 -0.000937309 14.9496 0.00281193L10.4505 0.50271C10.1761 0.532641 9.9778 0.779341 10.0077 1.05385C10.02 1.16676 10.0704 1.27212 10.1506 1.35254L11.7967 2.9987L8.00451 6.79093L6.85825 5.64466C6.66304 5.44951 6.3466 5.44951 6.15139 5.64466L0.152617 11.6434C-0.0425308 11.8386 -0.0425308 12.1551 0.152617 12.3503ZM14.4372 1.0651L14.1213 3.90901L11.5933 1.38103L14.4372 1.0651Z" fill="#1E2B46"/>
<path d="M5.00515 22.9947C5.28122 22.9947 5.50504 22.7709 5.50504 22.4948V21.495C5.50504 21.2189 5.28122 20.9951 5.00515 20.9951C4.72908 20.9951 4.50525 21.2189 4.50525 21.495V22.4948C4.50525 22.7709 4.72908 22.9947 5.00515 22.9947Z" fill="#1E2B46"/>
<path d="M5.00515 19.9952C5.28122 19.9952 5.50504 19.7714 5.50504 19.4953V17.4957C5.50504 17.2197 5.28122 16.9958 5.00515 16.9958C4.72908 16.9958 4.50525 17.2197 4.50525 17.4957V19.4953C4.50525 19.7714 4.72908 19.9952 5.00515 19.9952Z" fill="#1E2B46"/>
<path d="M14.0033 22.9947C14.2794 22.9947 14.5032 22.7709 14.5032 22.4948V21.495C14.5032 21.2189 14.2794 20.9951 14.0033 20.9951C13.7272 20.9951 13.5034 21.2189 13.5034 21.495V22.4948C13.5034 22.7709 13.7272 22.9947 14.0033 22.9947Z" fill="#1E2B46"/>
<path d="M14.0033 19.9951C14.2794 19.9951 14.5032 19.7713 14.5032 19.4952V14.4962C14.5032 14.2202 14.2794 13.9963 14.0033 13.9963C13.7272 13.9963 13.5034 14.2202 13.5034 14.4962V19.4952C13.5034 19.7713 13.7272 19.9951 14.0033 19.9951Z" fill="#1E2B46"/>
<path d="M23.0015 20.9951C22.7254 20.9951 22.5016 21.2189 22.5016 21.495V22.4948C22.5016 22.7709 22.7254 22.9947 23.0015 22.9947C23.2775 22.9947 23.5014 22.7709 23.5014 22.4948V21.495C23.5014 21.2189 23.2776 20.9951 23.0015 20.9951Z" fill="#1E2B46"/>
<path d="M23.0015 8.99756C22.7254 8.99756 22.5016 9.22139 22.5016 9.49746V19.4954C22.5016 19.7715 22.7254 19.9953 23.0015 19.9953C23.2775 19.9953 23.5014 19.7715 23.5014 19.4954V9.49746C23.5014 9.22133 23.2776 8.99756 23.0015 8.99756Z" fill="#1E2B46"/>
</svg>
