<svg width="30" height="30" viewBox="0 0 30 30" fill="none" xmlns="http://www.w3.org/2000/svg">
<path d="M21.5 8V20.3892C22.1134 20.9326 22.1703 21.8703 21.627 22.4837C21.5873 22.5286 21.5449 22.571 21.5 22.6107V23.211C22.4106 23.6079 22.9995 24.5066 23 25.4999V25.9999H23.2111C23.7614 24.7358 25.2322 24.1571 26.4964 24.7074C27.0752 24.9594 27.537 25.4212 27.7889 25.9999H29.5V8H21.5Z" fill="#EAF5FA"/>
<path d="M8 21.5C8.00088 21.0754 8.18275 20.6714 8.5 20.3892V8H0.5V26H2.21106C2.76137 24.7359 4.23225 24.1572 5.49644 24.7075C6.07519 24.9594 6.537 25.4212 6.78894 26H7V25.5C7.0005 24.5067 7.58944 23.608 8.5 23.2111V22.6108C8.18275 22.3286 8.00088 21.9246 8 21.5Z" fill="#EAF5FA"/>
<path d="M8.5 0.5V20.3892C8.85638 20.0633 9.34887 19.9308 9.82069 20.0341C10.6302 20.2108 11.1431 21.0103 10.9663 21.8198C10.8157 22.5091 10.2054 23.0003 9.5 23C10.8807 23 12 24.1193 12 25.5C12 23.8431 13.3431 22.5 15 22.5C16.6569 22.5 18 23.8431 18 25.5C18 24.1193 19.1193 23 20.5 23C19.6714 23.0003 18.9995 22.3289 18.9992 21.5004C18.9989 20.7949 19.4901 20.1846 20.1793 20.0341C20.6511 19.9309 21.1436 20.0633 21.5 20.3893V0.5H8.5Z" fill="#CBE6F3"/>
<path d="M15 22.5C16.1046 22.5 17 21.6046 17 20.5C17 19.3954 16.1046 18.5 15 18.5C13.8954 18.5 13 19.3954 13 20.5C13 21.6046 13.8954 22.5 15 22.5Z" fill="#43AADC"/>
<path d="M4.5 24.5C5.32843 24.5 6 23.8284 6 23C6 22.1716 5.32843 21.5 4.5 21.5C3.67157 21.5 3 22.1716 3 23C3 23.8284 3.67157 24.5 4.5 24.5Z" fill="#18B192"/>
<path d="M25.5 24.5C26.3284 24.5 27 23.8284 27 23C27 22.1716 26.3284 21.5 25.5 21.5C24.6716 21.5 24 22.1716 24 23C24 23.8284 24.6716 24.5 25.5 24.5Z" fill="#18B192"/>
<path d="M15 22.5C16.6569 22.5 18 23.8431 18 25.5V29.5H12V25.5C12 23.8431 13.3431 22.5 15 22.5Z" fill="#43AADC"/>
<path d="M4.5 24.5C5.88069 24.5 7 25.6193 7 27V29.5H2V27C2 25.6193 3.11931 24.5 4.5 24.5Z" fill="#18B192"/>
<path d="M9.5 23C10.8807 23 12 24.1193 12 25.5V29.5H7V25.5C7 24.1193 8.11931 23 9.5 23Z" fill="#18B192"/>
<path d="M9.5 23C10.3284 23 11 22.3284 11 21.5C11 20.6716 10.3284 20 9.5 20C8.67157 20 8 20.6716 8 21.5C8 22.3284 8.67157 23 9.5 23Z" fill="#18B192"/>
<path d="M25.5 24.5C26.8807 24.5 28 25.6193 28 27V29.5H23V27C23 25.6193 24.1193 24.5 25.5 24.5Z" fill="#18B192"/>
<path d="M20.5 23C21.8807 23 23 24.1193 23 25.5V29.5H18V25.5C18 24.1193 19.1193 23 20.5 23Z" fill="#18B192"/>
<path d="M20.5 23C21.3284 23 22 22.3284 22 21.5C22 20.6716 21.3284 20 20.5 20C19.6716 20 19 20.6716 19 21.5C19 22.3284 19.6716 23 20.5 23Z" fill="#18B192"/>
<path d="M12 2.5H18V6.5H12V2.5Z" fill="#FED966"/>
<path d="M10.5 10H11.5V11H10.5V10Z" fill="black"/>
<path d="M10.5 12H11.5V13H10.5V12Z" fill="black"/>
<path d="M10.5 14H11.5V15H10.5V14Z" fill="black"/>
<path d="M10.5 16H11.5V17H10.5V16Z" fill="black"/>
<path d="M12.5 10H13.5V11H12.5V10Z" fill="black"/>
<path d="M12.5 12H13.5V13H12.5V12Z" fill="black"/>
<path d="M12.5 14H13.5V15H12.5V14Z" fill="black"/>
<path d="M12.5 16H13.5V17H12.5V16Z" fill="black"/>
<path d="M14.5 10H15.5V11H14.5V10Z" fill="black"/>
<path d="M14.5 12H15.5V13H14.5V12Z" fill="black"/>
<path d="M14.5 14H15.5V15H14.5V14Z" fill="black"/>
<path d="M14.5 16H15.5V17H14.5V16Z" fill="black"/>
<path d="M16.5 10H17.5V11H16.5V10Z" fill="black"/>
<path d="M12.5 8H13.5V9H12.5V8Z" fill="black"/>
<path d="M14.5 8H15.5V9H14.5V8Z" fill="black"/>
<path d="M16.5 8H17.5V9H16.5V8Z" fill="black"/>
<path d="M16.5 12H17.5V13H16.5V12Z" fill="black"/>
<path d="M16.5 14H17.5V15H16.5V14Z" fill="black"/>
<path d="M16.5 16H17.5V17H16.5V16Z" fill="black"/>
<path d="M18.5 10H19.5V11H18.5V10Z" fill="black"/>
<path d="M18.5 12H19.5V13H18.5V12Z" fill="black"/>
<path d="M18.5 14H19.5V15H18.5V14Z" fill="black"/>
<path d="M18.5 16H19.5V17H18.5V16Z" fill="black"/>
<path d="M29.5 7.5H22V0.5C22.0002 0.224 21.7766 0.000187618 21.5006 1.17822e-07C21.5004 1.17822e-07 21.5002 1.17822e-07 21.5 1.17822e-07H8.5C8.224 -0.000187382 8.00019 0.223438 8 0.499438C8 0.499625 8 0.499813 8 0.5V7.5H0.5C0.224 7.49981 0.000187618 7.72344 1.17822e-07 7.99944C1.17822e-07 7.99962 1.17822e-07 7.99981 1.17822e-07 8V26C-0.000187382 26.276 0.223438 26.4998 0.499438 26.5C0.499625 26.5 0.499813 26.5 0.5 26.5H1.54519C1.51619 26.6651 1.50106 26.8324 1.5 27V29.5C1.49981 29.776 1.72344 29.9998 1.99944 30C1.99963 30 1.99981 30 2 30H28C28.276 30.0002 28.4998 29.7766 28.5 29.5006C28.5 29.5004 28.5 29.5002 28.5 29.5V27C28.4989 26.8324 28.4839 26.6651 28.4548 26.5H29.5C29.776 26.5002 29.9998 26.2766 30 26.0006C30 26.0004 30 26.0002 30 26V8C30.0002 7.724 29.7766 7.50019 29.5006 7.5C29.5004 7.5 29.5002 7.5 29.5 7.5ZM21.5 21.5C21.5 22.0523 21.0523 22.5 20.5 22.5C19.9477 22.5 19.5 22.0523 19.5 21.5C19.5 20.9477 19.9477 20.5 20.5 20.5C21.052 20.5007 21.4993 20.948 21.5 21.5ZM9.5 20.5C10.0523 20.5 10.5 20.9477 10.5 21.5C10.5 22.0523 10.0523 22.5 9.5 22.5C8.94769 22.5 8.5 22.0523 8.5 21.5C8.50069 20.948 8.948 20.5007 9.5 20.5ZM6.5 29H2.5V27C2.5 25.8954 3.39544 25 4.5 25C5.60456 25 6.5 25.8954 6.5 27V29ZM3.5 23C3.5 22.4477 3.94769 22 4.5 22C5.05231 22 5.5 22.4477 5.5 23C5.5 23.5523 5.05231 24 4.5 24C3.948 23.9993 3.50069 23.552 3.5 23ZM6.57575 24.8391C6.38719 24.6572 6.17575 24.5007 5.94675 24.3735C6.70938 23.5745 6.67994 22.3085 5.88094 21.5458C5.08194 20.7832 3.81594 20.8126 3.05325 21.6116C2.31556 22.3844 2.31556 23.6006 3.05325 24.3734C2.576 24.6383 2.1795 25.0276 1.90588 25.4999H1V8.5H8V20.191C7.31337 20.9614 7.33656 22.1309 8.05325 22.8735C7.30325 23.2883 6.76581 24.0033 6.57575 24.8391ZM11.5 29H7.5V25.5C7.5 24.3954 8.39544 23.5 9.5 23.5C10.6046 23.5 11.5 24.3954 11.5 25.5V29ZM17.5 29H12.5V25.5C12.5 24.1193 13.6193 23 15 23C16.3807 23 17.5 24.1193 17.5 25.5V29ZM13.5 20.5C13.5 19.6716 14.1716 19 15 19C15.8284 19 16.5 19.6716 16.5 20.5C16.5 21.3284 15.8284 22 15 22C14.1719 21.9991 13.5009 21.3281 13.5 20.5ZM18.0451 23.7809C17.7103 23.1907 17.2122 22.7097 16.6106 22.3959C17.6666 21.5064 17.8016 19.9293 16.9122 18.8732C16.0227 17.8171 14.4455 17.6821 13.3894 18.5716C12.3334 19.461 12.1984 21.0383 13.0878 22.0943C13.1796 22.2033 13.2804 22.3041 13.3894 22.3959C12.7878 22.7097 12.2896 23.1907 11.9549 23.7809C11.692 23.4059 11.3472 23.0956 10.9467 22.8735C11.7133 22.0893 11.6991 20.8321 10.9148 20.0656C10.4099 19.572 9.68081 19.3837 9 19.571V1H21V19.571C20.8371 19.5261 20.669 19.5022 20.5 19.5C19.3984 19.4971 18.5029 20.3877 18.5 21.4894C18.4986 22.0049 18.6969 22.501 19.0532 22.8735C18.6527 23.0956 18.308 23.4059 18.0451 23.7809ZM22.5 27V29H18.5V25.5C18.5 24.3954 19.3954 23.5 20.5 23.5C21.6046 23.5 22.5 24.3954 22.5 25.5V27ZM27.5 29H23.5V27C23.5 25.8954 24.3954 25 25.5 25C26.6046 25 27.5 25.8954 27.5 27V29ZM24.5 23C24.5 22.4477 24.9477 22 25.5 22C26.0523 22 26.5 22.4477 26.5 23C26.5 23.5523 26.0523 24 25.5 24C24.948 23.9993 24.5007 23.552 24.5 23ZM29 25.5H28.0941C27.8206 25.0277 27.424 24.6384 26.9468 24.3735C27.7094 23.5745 27.6799 22.3085 26.8809 21.5458C26.0819 20.7832 24.8159 20.8126 24.0532 21.6116C23.3156 22.3844 23.3156 23.6006 24.0532 24.3734C23.8242 24.5006 23.6127 24.6571 23.4242 24.839C23.2342 24.0033 22.6968 23.2883 21.9468 22.8734C22.6634 22.1309 22.6867 20.9614 22.0001 20.1909V8.5H29.0001L29 25.5Z" fill="black"/>
<path d="M23.5 11.5H24.5V19.5H23.5V11.5Z" fill="black"/>
<path d="M26.5 11.5H27.5V19.5H26.5V11.5Z" fill="black"/>
<path d="M2.5 11.5H3.5V19.5H2.5V11.5Z" fill="black"/>
<path d="M5.5 11.5H6.5V19.5H5.5V11.5Z" fill="black"/>
<path d="M12 7H18C18.276 7.00019 18.4998 6.77656 18.5 6.50056C18.5 6.50038 18.5 6.50019 18.5 6.5V2.5C18.5002 2.224 18.2766 2.00019 18.0006 2C18.0004 2 18.0002 2 18 2H12C11.724 1.99981 11.5002 2.22344 11.5 2.49944C11.5 2.49963 11.5 2.49981 11.5 2.5V6.5C11.4998 6.776 11.7234 6.99981 11.9994 7C11.9996 7 11.9998 7 12 7ZM12.5 3H17.5V6H12.5V3Z" fill="black"/>
</svg>
