<svg width="30" height="28" viewBox="0 0 30 28" fill="none" xmlns="http://www.w3.org/2000/svg">
<path d="M25.7967 13.2139H28.9254V8.14844H3.00232V13.2139H24.0089C24.2558 13.2139 24.4559 13.4139 24.4559 13.6608H25.3498C25.3498 13.4139 25.5498 13.2139 25.7967 13.2139Z" fill="#E64C49"/>
<path d="M25.7967 14.1077C25.5498 14.1077 25.3497 13.9076 25.3497 13.6608H24.4558C24.4558 13.9076 24.2558 14.1077 24.0089 14.1077H3.00232V19.1731H28.9253V14.1077H25.7967Z" fill="#FFE000"/>
<path d="M29.106 2.18909H3.18311V7.25475H29.106V2.18909Z" fill="#333333"/>
<path d="M29.553 1.29517H2.73614C2.48934 1.29517 2.28918 1.49526 2.28918 1.74212V19.6201C2.28918 19.8669 2.48928 20.067 2.73614 20.067H29.5531C29.8 20.067 30.0001 19.8669 30.0001 19.6201V1.74206C30 1.49526 29.8 1.29517 29.553 1.29517ZM29.1061 2.18907V7.2545H3.18309V2.18907H29.1061V2.18907ZM3.00239 19.1731V14.1077H24.009C24.2559 14.1077 24.456 13.9076 24.456 13.6607C24.456 13.4139 24.2559 13.2138 24.009 13.2138H3.00239V8.14835H28.9254V13.2138H25.7967C25.5498 13.2138 25.3498 13.4138 25.3498 13.6607C25.3498 13.9076 25.5498 14.1077 25.7967 14.1077H28.9254V19.1731H3.00239Z" fill="black"/>
<path d="M1.22128 26.8675C0.846802 26.8675 0.542114 26.5628 0.542114 26.1883V1.215C0.542114 0.843989 0.84399 0.542114 1.21501 0.542114H1.30372C1.67825 0.542114 1.98288 0.846802 1.98288 1.22127V26.1882C1.98288 26.5627 1.67819 26.8673 1.30372 26.8673H1.22128V26.8675V26.8675Z" fill="white"/>
<path d="M1.30377 0H1.21506C0.545039 0 0 0.545098 0 1.21506V26.1883C0 26.8618 0.54791 27.4096 1.22133 27.4096H1.30371C1.97719 27.4096 2.52504 26.8617 2.52504 26.1883V1.22133C2.5251 0.54791 1.97725 0 1.30377 0ZM1.62152 26.1884C1.62152 26.3636 1.47896 26.5061 1.30383 26.5061H1.22145C1.04625 26.5061 0.90375 26.3636 0.90375 26.1884V1.21506C0.90375 1.04332 1.04344 0.903633 1.21518 0.903633H1.30389C1.47908 0.903633 1.62158 1.04619 1.62158 1.22133V26.1883H1.62152V26.1884Z" fill="black"/>
</svg>
