<svg width="26" height="30" viewBox="0 0 26 30" fill="none" xmlns="http://www.w3.org/2000/svg">
<path d="M17.4268 4.80766V2.38083C17.4268 1.30875 16.5576 0.439453 15.4855 0.439453H9.66135C8.58904 0.439453 7.71997 1.30875 7.71997 2.38083V4.80766H17.4268Z" fill="#1EDEB7"/>
<path d="M17.4268 2.38083C17.4268 1.30875 16.5575 0.439453 15.4855 0.439453H14.079C15.1511 0.439453 16.0204 1.30875 16.0204 2.38083V4.80766H17.4268V2.38083Z" fill="#18B192"/>
<path d="M7.71973 2.86633H17.4266V5.1563H7.71973V2.86633Z" fill="#FDBF00"/>
<path d="M16.0204 2.86633H17.4269V5.1563H16.0204V2.86633Z" fill="#FDA400"/>
<path d="M19.8537 19.8536C21.9979 19.8536 23.7362 21.5918 23.7362 23.7362V27.6191L19.3682 29.5605H5.77838L1.4104 27.6189V23.7364C1.4104 21.592 3.14853 19.8536 5.29292 19.8536H19.8537Z" fill="#EAF5FA"/>
<path d="M23.7361 23.7362C23.7361 21.5918 21.9978 19.8536 19.8536 19.8536H18.4476C20.5915 19.8539 22.3297 21.592 22.3297 23.7362V27.6191L18.1963 29.5605H19.3682L23.7361 27.6191V23.7362Z" fill="#AAD4EC"/>
<path d="M24.7071 27.9705V29.2089C24.7071 29.403 24.5496 29.5605 24.3555 29.5605H0.791016C0.596924 29.5605 0.439453 29.403 0.439453 29.2089V27.9705C0.439453 27.7764 0.596924 27.6189 0.791016 27.6189H24.3555C24.5496 27.6189 24.7071 27.7764 24.7071 27.9705Z" fill="#CBE6F3"/>
<path d="M24.3556 27.6189H22.9491C23.1432 27.6189 23.3007 27.7764 23.3007 27.9705V29.2089C23.3007 29.403 23.1432 29.5605 22.9491 29.5605H24.3556C24.5497 29.5605 24.7071 29.403 24.7071 29.2089V27.9705C24.7071 27.7764 24.5497 27.6189 24.3556 27.6189V27.6189Z" fill="#87C5E8"/>
<path d="M6.88367 26.6482H18.2628V29.5605H6.88367V26.6482Z" fill="#1EDEB7"/>
<path d="M9.66199 16.875H15.5019V22.8717H9.66199V16.875Z" fill="#F7BD8A"/>
<path d="M17.4266 8.33972V14.0293C17.4266 16.7097 15.2538 18.8827 12.5734 18.8827C9.89275 18.8827 7.71997 16.7097 7.71997 14.0293V8.33972H17.4266Z" fill="#C95B2A"/>
<path d="M16.0203 8.33972V14.0293C16.0203 16.5113 14.3914 18.5568 11.9874 18.8463C12.1795 18.8694 12.3747 18.8827 12.5731 18.8827C15.2536 18.8827 17.4266 16.7097 17.4266 14.0293V8.33972H16.0203Z" fill="#B34C1E"/>
<path d="M17.4266 8.2052H18.3975C18.9335 8.2052 19.3682 8.63985 19.3682 9.17589V11.1175C19.3682 11.6535 18.9335 12.0882 18.3975 12.0882H6.74901C6.21297 12.0882 5.77832 11.6535 5.77832 11.1173V9.17589C5.77832 8.63985 6.21297 8.2052 6.74901 8.2052H17.4266Z" fill="#F7BD8A"/>
<path d="M15.502 26.6485V18.8828V19.3671C15.502 20.9753 14.1909 22.2787 12.5736 22.2787C10.9566 22.2787 9.64555 20.9753 9.64555 19.3671L9.64441 18.8828L9.64555 26.6483L15.502 26.6485Z" fill="#F2F7FB"/>
<path d="M15.502 22.7951C15.4038 22.7909 15.3038 22.8198 15.2193 22.8839C14.4505 23.4664 13.5327 23.7744 12.5652 23.7744C11.6043 23.7744 10.6918 23.4703 9.92595 22.8951C9.84653 22.8353 9.7536 22.8072 9.66113 22.8074V23.782C10.5233 24.3524 11.5203 24.6534 12.5652 24.6534C13.6238 24.6534 14.6327 24.3448 15.502 23.7603V22.7951Z" fill="#AAD4EC"/>
<path d="M6.50638 8.20514C5.56819 8.20514 4.80762 7.44456 4.80762 6.50638C4.80762 5.56819 5.56819 4.80762 6.50638 4.80762H18.6401C19.5783 4.80762 20.3389 5.56796 20.3389 6.50638C20.3389 7.44456 19.5783 8.20514 18.6401 8.20514H6.50638Z" fill="#1EDEB7"/>
<path d="M18.6401 4.80762H17.2336C18.1718 4.80762 18.9324 5.56796 18.9324 6.50638C18.9324 7.44456 18.1718 8.20514 17.2336 8.20514H18.6401C19.5783 8.20514 20.3389 7.44456 20.3389 6.50638C20.3389 5.56819 19.5783 4.80762 18.6401 4.80762Z" fill="#18B192"/>
<path d="M17.4268 11.1172C17.4268 13.7977 15.2538 15.9707 12.5734 15.9707C9.89297 15.9707 7.71997 13.7977 7.71997 11.1172V6.74902H17.4268V11.1172Z" fill="#F7D4B5"/>
<path d="M16.0203 6.74902V11.1172C16.0203 13.5992 14.3914 15.6447 11.9874 15.9343C12.1795 15.9574 12.3747 15.9707 12.5734 15.9707C15.2538 15.9707 17.4268 13.7977 17.4268 11.1172V6.74902H16.0203Z" fill="#F7BD8A"/>
<path d="M10.1464 13.6777V13.0586C10.1464 12.5225 10.5812 12.0879 11.1173 12.0879H14.0293C14.5656 12.0879 15.0003 12.5225 15.0003 13.0586V13.6777C15.0003 13.8718 14.8428 14.0293 14.6487 14.0293H10.4982C10.3038 14.0293 10.1464 13.8718 10.1464 13.6777V13.6777Z" fill="#C95B2A"/>
<path d="M14.0293 12.0879H12.8574C13.3937 12.0879 13.8283 12.5225 13.8283 13.0586V13.6777C13.8283 13.8718 13.6709 14.0293 13.4768 14.0293H14.6487C14.8427 14.0293 15.0002 13.8718 15.0002 13.6777V13.0586C15.0002 12.5225 14.5656 12.0879 14.0293 12.0879V12.0879Z" fill="#B34C1E"/>
<path d="M5.77832 19.8536H7.71947V29.5605H5.77832V19.8536Z" fill="#1EDEB7"/>
<path d="M17.4269 19.8536H19.3683V29.5605H17.4269V19.8536Z" fill="#18B192"/>
<path d="M9.6612 18.8828L7.87363 19.7768C7.77659 19.8253 7.70724 19.916 7.68618 20.0224L6.89013 24.0022C6.83268 24.2892 7.13045 24.5165 7.39206 24.3856L9.66098 23.2513L9.6612 18.8828Z" fill="#F2F7FB"/>
<path d="M15.502 18.8828L17.274 19.7766C17.3706 19.8253 17.4392 19.9155 17.4603 20.0215L18.2556 23.9972C18.3131 24.2849 18.0135 24.5124 17.7519 24.3796L15.5022 23.2387L15.502 18.8828Z" fill="#F2F7FB"/>
<path d="M14.5148 10.1006C14.7574 10.1006 14.9542 9.90373 14.9542 9.66112V8.69043C14.9542 8.44781 14.7574 8.25098 14.5148 8.25098C14.2719 8.25098 14.0753 8.44781 14.0753 8.69043V9.66112C14.0753 9.90373 14.2719 10.1006 14.5148 10.1006Z" fill="#0C0A0B"/>
<path d="M10.6318 10.1006C10.8747 10.1006 11.0713 9.90373 11.0713 9.66112V8.69043C11.0713 8.44781 10.8747 8.25098 10.6318 8.25098C10.3892 8.25098 10.1924 8.44781 10.1924 8.69043V9.66112C10.1924 9.90373 10.3892 10.1006 10.6318 10.1006Z" fill="#0C0A0B"/>
<path d="M10.1464 14.4687H15C15.2429 14.4687 15.4395 14.2719 15.4395 14.0293V13.0586C15.4395 12.2811 14.8069 11.6484 14.0294 11.6484H11.1173C10.3398 11.6484 9.70715 12.2811 9.70715 13.0586V14.0293C9.70692 14.2719 9.90376 14.4687 10.1464 14.4687ZM10.5858 13.0586C10.5858 12.7656 10.8243 12.5273 11.1173 12.5273H14.0294C14.3223 12.5273 14.5606 12.7656 14.5606 13.0586V13.5898H10.5858V13.0586Z" fill="#0C0A0B"/>
<path d="M24.7071 27.1795H24.1756V23.7362C24.1756 21.3528 22.2368 19.414 19.8537 19.414H19.3694C19.3689 19.414 19.3687 19.414 19.3682 19.414C19.3675 19.414 19.3673 19.414 19.3668 19.414L17.5312 19.4142L15.9247 18.6037V18.1229C17.1091 17.1513 17.8661 15.677 17.8661 14.0293V12.5274H18.3975C19.175 12.5274 19.8077 11.895 19.8077 11.1172V9.17587C19.8077 8.8987 19.7269 8.64029 19.5882 8.42216C20.2927 8.07198 20.7784 7.34505 20.7784 6.50642C20.7784 5.32745 19.8191 4.36821 18.6399 4.36821H17.8663L17.8661 2.38083C17.8661 1.06819 16.7981 0 15.4852 0H9.66133C8.34846 0 7.2805 1.06819 7.2805 2.38083L7.28027 4.36821H6.50642C5.32745 4.36821 4.36821 5.32745 4.36821 6.50642C4.36821 7.34505 4.85367 8.07198 5.55817 8.42216C5.41969 8.64029 5.3389 8.8987 5.3389 9.17587V11.1172C5.3389 11.895 5.97153 12.5274 6.74904 12.5274H7.28027V14.0293C7.28027 15.6773 8.03741 17.1513 9.22165 18.1229V18.6111L7.61581 19.4142H5.78247C5.7811 19.4142 5.77972 19.4142 5.77835 19.4142C5.77698 19.4142 5.7756 19.4142 5.77423 19.4142H5.29289C2.90955 19.4142 0.970688 21.3531 0.970688 23.7364V27.1795H0.439453C0.196838 27.1795 0 27.3763 0 27.6189V29.5605C0 29.8034 0.196838 30 0.439453 30H11.6929C11.9355 30 12.1323 29.8034 12.1323 29.5605C12.1323 29.3177 11.9355 29.1211 11.6929 29.1211H8.15895V27.0877H9.6611H9.66202H9.66316H15.4807C15.4823 27.0877 15.4836 27.0879 15.4852 27.0879C15.4868 27.0879 15.4882 27.0877 15.4898 27.0877H16.9872V29.1211H13.4534C13.2108 29.1211 13.014 29.3177 13.014 29.5605C13.014 29.8034 13.2108 30 13.4534 30H24.7069C24.9495 30 25.1463 29.8034 25.1463 29.5605V27.6189C25.1466 27.3763 24.9497 27.1795 24.7071 27.1795V27.1795ZM23.2967 23.7362V27.1795H19.8077V20.2931H19.8537C21.752 20.2931 23.2967 21.8376 23.2967 23.7362V23.7362ZM15.0458 19.3682C15.0453 20.7307 13.9366 21.8392 12.5739 21.8392C11.2106 21.8392 10.1017 20.7301 10.1017 19.3671C10.1017 19.3611 10.101 19.3556 10.1008 19.3497V18.7079C10.8392 19.0997 11.6808 19.3222 12.5734 19.3222C13.466 19.3222 14.3074 19.0997 15.046 18.7079V19.3682H15.0458ZM12.5739 22.7181C13.5516 22.7181 14.4328 22.297 15.0458 21.6268V23.0081C14.314 23.5098 13.461 23.7744 12.5652 23.7744C11.6764 23.7744 10.8293 23.5137 10.1012 23.0196L10.101 21.6261C10.7142 22.2968 11.5956 22.7181 12.5739 22.7181ZM12.5652 24.6533C13.4434 24.6533 14.2873 24.4414 15.0458 24.0356V26.2088H10.1015L10.1012 24.0445C10.8556 24.4444 11.6938 24.6533 12.5652 24.6533ZM15.9247 19.5882L17.0377 20.1496L17.7892 23.9058L15.9249 22.9603V19.5882H15.9247ZM8.15918 11.1168V8.20564C8.15918 8.20541 8.15941 8.20541 8.15941 8.20518C8.15941 8.20496 8.15918 8.20473 8.15918 8.2045V7.18849H16.9872V11.1205C16.9855 13.553 15.0062 15.5312 12.5734 15.5312C10.1395 15.5312 8.15941 13.5512 8.15941 11.1172C8.15941 11.117 8.15918 11.1168 8.15918 11.1168V11.1168ZM18.9288 11.1172C18.9288 11.4102 18.6905 11.6485 18.3975 11.6485H17.8663V11.1239C17.8663 11.1216 17.8663 11.1195 17.8663 11.1172C17.8663 11.1166 17.8663 11.1161 17.8663 11.1154V8.64464H18.3975C18.6905 8.64464 18.9288 8.8829 18.9288 9.17587V11.1172ZM9.66133 0.878906H15.4852C16.3136 0.878906 16.9872 1.55273 16.9872 2.38083V2.42683H8.15918V2.38083C8.15918 1.55273 8.83301 0.878906 9.66133 0.878906V0.878906ZM8.15918 3.30574H16.9874V4.36821H8.15918V3.30574ZM6.50642 5.24712H7.71744H7.71973H17.4268H17.4291H18.6401C19.3346 5.24712 19.8994 5.812 19.8994 6.50642C19.8994 7.20062 19.3346 7.76573 18.6401 7.76573C18.6102 7.76573 18.5809 7.76871 18.5525 7.77443C18.5017 7.76894 18.4499 7.76573 18.3975 7.76573H17.8661V7.18849H17.9121C18.1549 7.18849 18.3515 6.99165 18.3515 6.74904C18.3515 6.5062 18.1549 6.30959 17.9121 6.30959H7.2345C6.99165 6.30959 6.79504 6.5062 6.79504 6.74904C6.79504 6.99165 6.99165 7.18849 7.2345 7.18849H7.28027V7.76573H6.74904C6.69662 7.76573 6.6449 7.76871 6.59386 7.77443C6.56548 7.76871 6.53641 7.76573 6.50642 7.76573C5.812 7.76573 5.24712 7.20062 5.24712 6.50642C5.24712 5.812 5.812 5.24712 6.50642 5.24712ZM6.74904 11.6485C6.4563 11.6485 6.2178 11.4102 6.2178 11.1172V9.17587C6.2178 8.8829 6.45607 8.64464 6.74904 8.64464H7.28027V11.6487H6.74904V11.6485ZM8.15941 14.0348C9.10789 15.4651 10.7323 16.4101 12.5734 16.4101C14.4143 16.4101 16.0387 15.4651 16.9872 14.035C16.9853 15.4454 16.3179 16.702 15.2836 17.5095C15.2394 17.5323 15.1996 17.5626 15.1655 17.5987C14.4372 18.1293 13.5413 18.4433 12.5732 18.4433C10.1411 18.4433 8.16238 16.4662 8.15941 14.0348V14.0348ZM9.22234 22.979L7.35626 23.9122L8.10837 20.1505L9.22188 19.5937L9.22234 22.979ZM1.84982 23.7364C1.84982 21.8378 3.39432 20.2931 5.29289 20.2931H5.3389V27.1795H1.84982V23.7364ZM0.878906 28.0584H1.41014L5.3389 28.0586V29.1211H0.878906V28.0584ZM6.2178 29.1211V27.6224C6.2178 27.6212 6.21803 27.6201 6.21803 27.6189C6.21803 27.6173 6.2178 27.616 6.2178 27.6144V20.2931H7.18369L6.31828 24.6208C6.28532 24.7854 6.34895 24.9543 6.48239 25.0562C6.56044 25.1159 6.65451 25.1463 6.74927 25.1463C6.8161 25.1463 6.88339 25.1312 6.94565 25.1001L7.28027 24.9328V29.1211H6.2178ZM8.15918 24.4933L9.22234 23.9616L9.22256 26.2088H8.15895V24.4933H8.15918ZM15.9247 26.2088V23.9458L16.9874 24.4846V26.2088H15.9247ZM17.8663 24.9303L18.1989 25.099C18.2616 25.1308 18.3295 25.1463 18.3975 25.1463C18.4916 25.1463 18.5852 25.1161 18.6633 25.0571C18.7974 24.9552 18.8615 24.7858 18.8285 24.6208L17.9629 20.2931H18.9288V29.1211H17.8663V24.9303ZM24.2677 29.1211H19.8077V28.0586H23.7362C23.7385 28.0586 23.7408 28.0584 23.7431 28.0584H24.2674V29.1211H24.2677Z" fill="#0C0A0B"/>
</svg>
