<svg width="41" height="36" viewBox="0 0 41 36" fill="none" xmlns="http://www.w3.org/2000/svg">
<path d="M10.9461 16.72C13.2127 16.72 15.05 14.8826 15.05 12.6161C15.05 10.3496 13.2127 8.51221 10.9461 8.51221C8.67961 8.51221 6.84222 10.3496 6.84222 12.6161C6.84222 14.8826 8.67961 16.72 10.9461 16.72Z" fill="#FFD980"/>
<path d="M15.05 12.6159C15.05 14.8823 13.2125 16.7198 10.946 16.7198C10.5953 16.7198 10.2554 16.6761 9.93042 16.5933C11.7054 16.1409 13.0187 14.5316 13.0187 12.6159C13.0187 10.7003 11.7054 9.09093 9.93042 8.63859C10.2554 8.55577 10.5953 8.51202 10.946 8.51202C13.2125 8.51202 15.05 10.3495 15.05 12.6159Z" fill="#FFD980"/>
<path d="M29.5369 17.3689V1.82576C29.5369 1.63998 29.3864 1.48975 29.2009 1.48975H25.8468C25.6613 1.48975 25.5108 1.64022 25.5108 1.82576V17.369H29.5369V17.3689Z" fill="#CDBFBB"/>
<path d="M29.2012 1.48938H27.3512C27.5363 1.48938 27.6871 1.64016 27.6871 1.8261V11.2666H25.5109V13.6449H26.5488C27.1775 13.6449 27.6871 14.1545 27.6871 14.7833V17.3691H29.5371V1.8261C29.5371 1.64016 29.3863 1.48938 29.2012 1.48938Z" fill="#B9ACAC"/>
<path d="M35.0089 12.2947H20.0389C19.8534 12.2947 19.7029 12.1442 19.7029 11.9587V3.56319C19.7029 3.37764 19.8534 3.22717 20.0389 3.22717H35.0089C35.1944 3.22717 35.3449 3.37764 35.3449 3.56319V11.9587C35.3449 12.1442 35.1945 12.2947 35.0089 12.2947Z" fill="white"/>
<path d="M35.3449 3.56281V11.9589C35.3449 12.1441 35.1949 12.2948 35.0089 12.2948H32.9957C33.1816 12.2948 33.3316 12.1441 33.3316 11.9589V3.56281C33.3316 3.37765 33.1816 3.22687 32.9957 3.22687H35.0089C35.1949 3.22687 35.3449 3.37765 35.3449 3.56281Z" fill="white"/>
<path d="M35.3449 10.212V11.9589C35.3449 12.1441 35.1949 12.2948 35.0089 12.2948H20.0386C19.8535 12.2948 19.7027 12.1441 19.7027 11.9581V10.212H35.3449Z" fill="#756F6F"/>
<path d="M35.3449 10.212V11.9589C35.3449 12.1441 35.1949 12.2948 35.0089 12.2948H32.9957C33.1816 12.2948 33.3316 12.1441 33.3316 11.9589V10.212H35.3449Z" fill="#5B5555"/>
<path d="M13.4937 34.4215H3.51569C3.29998 34.4215 3.12506 34.2466 3.12506 34.0309V19.0714H13.8843V34.0309C13.8843 34.2466 13.7094 34.4215 13.4937 34.4215Z" fill="#E89A5E"/>
<path d="M3.12506 19.0714V21.2452H10.7488C11.2609 21.2452 11.6761 21.6603 11.6761 22.1724V34.0309C11.6761 34.2465 11.5011 34.4215 11.2855 34.4215H13.494C13.7097 34.4215 13.8847 34.2466 13.8847 34.0309V19.0715L3.12506 19.0714Z" fill="#D68A5A"/>
<path d="M38.6081 19.0714V34.0308C38.6081 34.2464 38.4331 34.4214 38.2175 34.4214H36.4847C36.2683 34.4214 36.0941 34.2464 36.0941 34.0308V19.0714H38.6081Z" fill="#E89A5E"/>
<path d="M36.0941 19.0714H38.6081V21.2448H36.0941V19.0714Z" fill="#D68A5A"/>
<path d="M39.2995 19.5723H2.03387C1.60239 19.5723 1.25262 19.2225 1.25262 18.791V17.3987C1.25262 16.9672 1.60239 16.6174 2.03387 16.6174H39.2995C39.731 16.6174 40.0807 16.9672 40.0807 17.3987V18.791C40.0807 19.2225 39.731 19.5723 39.2995 19.5723Z" fill="#5B5555"/>
<path d="M40.0808 17.3987V18.7909C40.0808 19.2222 39.7308 19.5722 39.2995 19.5722H37.1354C37.5667 19.5722 37.9167 19.2222 37.9167 18.7909V17.3987C37.9167 16.9675 37.5667 16.6175 37.1354 16.6175H39.2995C39.7308 16.6175 40.0808 16.9675 40.0808 17.3987Z" fill="#433F43"/>
<path d="M10.3545 23.938H6.65479L7.04541 22.2769H9.96385L10.3545 23.938Z" fill="#5B5555"/>
<path d="M10.3545 28.8835H6.65479L7.04541 27.2222H9.96385L10.3545 28.8835Z" fill="#5B5555"/>
<path d="M20.4093 34.4795C19.9512 34.3555 19.6804 33.8836 19.8044 33.4255L21.7669 26.1764L24.1061 26.8097L21.4388 33.9507C21.2837 34.3663 20.8376 34.5955 20.4093 34.4795Z" fill="#E89A5E"/>
<path d="M23.3926 28.7199L24.1061 26.8097L21.7668 26.1765L21.0782 28.7199H23.3926Z" fill="#D68A5A"/>
<path d="M30.6534 34.4795C31.1115 34.3555 31.3823 33.8836 31.2583 33.4255L29.2958 26.1764L26.9566 26.8097L29.6239 33.9507C29.7791 34.3663 30.2252 34.5955 30.6534 34.4795Z" fill="#E89A5E"/>
<path d="M29.9844 28.7199L29.2958 26.1765L26.9566 26.8097L27.67 28.7199H29.9844Z" fill="#D68A5A"/>
<path d="M28.8935 27.392H22.1692C20.742 27.392 19.6126 26.1843 19.7083 24.7602L20.0738 19.3201C20.2668 16.4481 22.6528 14.217 25.5313 14.217C28.4098 14.217 30.7957 16.4481 30.9887 19.3201L31.3542 24.7602C31.45 26.1843 30.3207 27.392 28.8935 27.392Z" fill="#47A4D6"/>
<path d="M28.8931 27.3917H27.0564C28.4837 27.3917 29.6126 26.1839 29.5173 24.7604L29.1517 19.3198C29.0548 17.8839 28.4103 16.6081 27.4298 15.6917C26.6626 14.9737 25.6892 14.4761 24.6126 14.294C24.911 14.2432 25.2189 14.2167 25.5314 14.2167C26.9704 14.2167 28.2868 14.7745 29.2673 15.6917C30.2478 16.6081 30.8923 17.8839 30.9892 19.3198L31.354 24.7604C31.4501 26.1839 30.3204 27.3917 28.8931 27.3917Z" fill="#47A4D6"/>
<path d="M39.2995 16.0315H30.3516C30.2782 15.9351 30.2018 15.841 30.1229 15.7492V12.8806H35.009C35.5174 12.8806 35.931 12.467 35.931 11.9587L35.9309 3.56318C35.9309 3.05482 35.5173 2.64123 35.009 2.64123H30.1229V1.82576C30.1229 1.3174 29.7093 0.903809 29.201 0.903809H25.8469C25.3386 0.903809 24.925 1.3174 24.925 1.82576V2.64123H20.0389C19.5305 2.64123 19.1169 3.05482 19.1169 3.56318V5.30295C19.1169 5.62662 19.3792 5.88889 19.7029 5.88889C20.0265 5.88889 20.2888 5.62662 20.2888 5.30295V3.81311H34.759V9.62646H20.2888V8.06818C20.2888 7.74451 20.0265 7.48225 19.7029 7.48225C19.3792 7.48225 19.1169 7.74451 19.1169 8.06818V11.9587C19.1169 12.467 19.5305 12.8806 20.0389 12.8806H24.925V13.6619C23.2175 13.8339 21.7067 14.724 20.7112 16.0315H14.1675C15.086 15.1679 15.6362 13.9483 15.6362 12.6158C15.6362 10.0298 13.5323 7.92607 10.9464 7.92607C8.36044 7.92607 6.25653 10.0299 6.25653 12.6158C6.25653 13.9483 6.80677 15.1679 7.72528 16.0315H2.03387C1.28005 16.0315 0.666687 16.6449 0.666687 17.3987V18.791C0.666687 19.5448 1.28005 20.1582 2.03387 20.1582H2.53911V34.0308C2.53911 34.5693 2.97716 35.0073 3.51567 35.0073H13.4936C14.0322 35.0073 14.4702 34.5693 14.4702 34.0308V20.1582H19.4304L19.1238 24.7208C19.0674 25.5609 19.3648 26.3954 19.9398 27.0103C20.1787 27.2658 20.459 27.4752 20.765 27.6337L19.2386 33.272C19.1376 33.6451 19.188 34.0351 19.3804 34.37C19.5729 34.7047 19.8843 34.9445 20.2559 35.0445C20.3845 35.0794 20.5135 35.0962 20.6404 35.0962C21.2298 35.0962 21.7721 34.7348 21.9875 34.156L24.2948 27.978H26.7674L29.0748 34.1562C29.2913 34.7352 29.8341 35.0964 30.4227 35.0963C30.5492 35.0963 30.678 35.0796 30.8059 35.0448C31.1785 34.9444 31.4896 34.7047 31.6818 34.37C31.8743 34.035 31.9246 33.6451 31.8236 33.2721L30.2973 27.6338C30.6035 27.4753 30.8839 27.2658 31.1229 27.0102C31.6979 26.3953 31.9953 25.5608 31.9389 24.7208L31.6322 20.1581H35.5076V26.8779C35.5076 27.2015 35.7699 27.4638 36.0936 27.4638C36.4172 27.4638 36.6795 27.2015 36.6795 26.8779V20.1581H38.022V33.8354H36.6795V29.6431C36.6795 29.3194 36.4172 29.0572 36.0936 29.0572C35.7699 29.0572 35.5076 29.3194 35.5076 29.6431V34.0307C35.5076 34.5692 35.9457 35.0072 36.4842 35.0072H38.2173C38.7558 35.0072 39.1939 34.5692 39.1939 34.0307V20.1582H39.2993C40.0532 20.1582 40.6665 19.5448 40.6665 18.791V17.3987C40.6667 16.6448 40.0533 16.0315 39.2995 16.0315ZM26.0968 2.07568H28.951V2.64123H26.0968V2.07568ZM20.2888 10.7983H34.759V11.7087H20.2888V10.7983ZM28.951 12.8806V14.6968C28.1213 14.1261 27.1457 13.7565 26.0968 13.658V12.8806H28.951ZM9.91153 16.0315C8.4263 15.5749 7.42841 14.1711 7.42841 12.6158C7.42841 10.6761 9.00653 9.09795 10.9464 9.09795C12.8862 9.09795 14.4643 10.6761 14.4643 12.6158C14.4643 14.171 13.4665 15.5749 11.9812 16.0315H9.91153ZM13.2983 24.524V28.2976H10.8186L10.5343 27.0882C10.472 26.8234 10.2358 26.6364 9.96387 26.6364H7.04544C6.77356 26.6364 6.53731 26.8235 6.47505 27.0882L6.19067 28.2976H3.71098V24.524H13.2983ZM7.3945 23.3521L7.50966 22.8627H9.49973L9.61489 23.3521H7.3945ZM9.61481 28.2976H7.3945L7.50966 27.8082H9.49973L9.61481 28.2976ZM3.71098 33.8354V29.4694H13.2983V33.8354H3.71098ZM13.2983 23.3521H10.8186L10.5343 22.1427C10.472 21.878 10.2358 21.6909 9.96387 21.6909H7.04544C6.77356 21.6909 6.53731 21.878 6.47505 22.1427L6.19067 23.3521H3.71098V20.1582H8.54927C8.87294 20.1582 9.1352 19.8959 9.1352 19.5722C9.1352 19.2486 8.87294 18.9863 8.54927 18.9863H2.03387C1.92614 18.9863 1.83856 18.8987 1.83856 18.791V17.3987C1.83856 17.291 1.92614 17.2034 2.03387 17.2034H20.012C19.761 17.758 19.5895 18.3567 19.5163 18.9863H11.3145C10.9908 18.9863 10.7286 19.2486 10.7286 19.5722C10.7286 19.8959 10.9908 20.1582 11.3145 20.1582H13.2983V23.3521ZM20.8894 33.7467C20.8401 33.8791 20.6999 33.9508 20.562 33.9133C20.4669 33.8878 20.4175 33.8226 20.3965 33.7861C20.3754 33.7494 20.344 33.6737 20.3698 33.5784L21.8895 27.9643C21.9822 27.9729 22.0756 27.978 22.1693 27.978H23.044L20.8894 33.7467ZM30.6925 33.5784C30.7183 33.6737 30.6869 33.7494 30.6658 33.7862C30.6447 33.8227 30.5955 33.8878 30.4997 33.9137C30.3628 33.9508 30.2222 33.8787 30.1726 33.746L28.0184 27.978H28.8934C28.987 27.978 29.0802 27.9729 29.1728 27.9643L30.6925 33.5784ZM30.2671 26.2099C29.9076 26.5944 29.4198 26.8061 28.8935 26.8061H22.1693C21.643 26.8061 21.1552 26.5944 20.7957 26.2099C20.4362 25.8255 20.2577 25.3246 20.293 24.7994L20.6586 19.3593C20.8302 16.8044 22.9707 14.8029 25.5314 14.8029C28.0922 14.8029 30.2325 16.8044 30.4042 19.3593L30.7698 24.7994C30.805 25.3246 30.6265 25.8255 30.2671 26.2099ZM39.4948 18.791C39.4948 18.8987 39.4072 18.9863 39.2995 18.9863H31.5465C31.4732 18.3567 31.3018 17.758 31.0507 17.2034H39.2995C39.4072 17.2034 39.4948 17.291 39.4948 17.3987V18.791Z" fill="#202B46"/>
</svg>
