<svg width="30" height="30" viewBox="0 0 30 30" fill="none" xmlns="http://www.w3.org/2000/svg">
<path d="M2.78194 26.4842L20.0929 27.642C20.4158 27.6636 20.6951 27.4193 20.7167 27.0965L22.3803 2.22245C22.4019 1.89954 22.1576 1.62034 21.8348 1.59872L4.52381 0.440907C4.2009 0.419286 3.9217 0.663563 3.90008 0.986414L2.23637 25.8605C2.21481 26.1834 2.45903 26.4626 2.78194 26.4842Z" fill="#1EDEB7"/>
<path d="M1.02539 29.5231H14.2758L18.9609 24.8587V4.00757C18.9609 3.68395 18.6986 3.42163 18.375 3.42163H1.02539C0.701777 3.42163 0.439453 3.68395 0.439453 4.00757V28.9372C0.439453 29.2608 0.701777 29.5231 1.02539 29.5231Z" fill="#EAF5FA"/>
<path d="M18.3751 3.42126H16.0313C16.3549 3.42126 16.6172 3.68359 16.6172 4.0072V24.8584L16.6021 27.2068L18.961 24.8584V4.0072C18.961 3.68359 18.6987 3.42126 18.3751 3.42126Z" fill="#EAF5FA"/>
<path d="M14.2758 29.5229V25.4065C14.2758 25.0829 14.5381 24.8206 14.8617 24.8206H18.9609L14.2758 29.5229Z" fill="#EAF5FA"/>
<path d="M27.4592 14.5467L25.5038 14.5563V11.5782C25.5038 11.0402 25.9411 10.602 26.4807 10.5993H26.4811C27.0212 10.5966 27.4592 11.0312 27.4592 11.5697V14.5467H27.4592Z" fill="#E64C49"/>
<path d="M26.4821 29.5232C25.8749 28.921 25.5331 28.1015 25.5324 27.2464L25.5287 22.9121C25.5287 22.8743 25.5594 22.8436 25.5974 22.8433L27.3574 22.8346C27.3953 22.8344 27.426 22.8649 27.426 22.9026L27.4296 27.2432C27.4303 28.0946 27.0928 28.9115 26.4913 29.514L26.4821 29.5232Z" fill="#E64C49"/>
<path d="M26.482 27.4815H26.4814C25.6357 27.4857 24.9498 26.8052 24.9498 25.9619V13.4505C24.9498 13.0534 25.2707 12.7308 25.6678 12.7289L27.2865 12.7208C27.6865 12.7188 28.0118 13.0425 28.0118 13.4425V25.9485C28.0118 26.7911 27.327 27.4773 26.482 27.4815Z" fill="#EAF5FA"/>
<path d="M27.2866 12.7208L25.8939 12.7277C26.2476 12.774 26.5213 13.0758 26.5213 13.4425V25.9486C26.5213 26.5241 26.2017 27.0265 25.7299 27.2886C25.9519 27.4125 26.2082 27.4829 26.4814 27.4815H26.482C27.327 27.4773 28.0118 26.7911 28.0118 25.9486V13.4425C28.0118 13.0426 27.6865 12.7188 27.2866 12.7208Z" fill="#EAF5FA"/>
<path d="M28.7856 14.5082L24.5894 14.529C24.1614 14.5311 23.8145 14.8787 23.8145 15.3052C23.8145 15.7319 24.1614 16.0759 24.5894 16.0738L28.0106 16.0568V20.5972C28.0106 21.0238 28.3576 21.3679 28.7856 21.3658C29.2136 21.3637 29.5606 21.0161 29.5606 20.5895V15.2767C29.5606 14.8501 29.2136 14.5061 28.7856 14.5082Z" fill="#E64C49"/>
<path d="M28.7856 14.5082L26.5332 14.5192L26.5234 16.0609L28.0106 16.0569V20.5973C28.0106 21.0239 28.3575 21.368 28.7856 21.3659C29.2136 21.3638 29.5605 21.0162 29.5605 20.5896V15.2768C29.5606 14.8501 29.2136 14.5061 28.7856 14.5082Z" fill="#E64C49"/>
<path d="M21.8641 1.16015L4.55314 0.00227437C3.98883 -0.0351084 3.49939 0.392802 3.4616 0.956942L3.32619 2.98177H1.02539C0.46002 2.98177 0 3.44179 0 4.00716V28.9368C0 29.5022 0.46002 29.9622 1.02539 29.9622H14.2758C14.3907 29.9622 14.5045 29.9153 14.5859 29.8342L16.5862 27.8427C16.6065 27.8471 16.6273 27.8505 16.6486 27.8519L20.0636 28.0803C20.6086 28.1163 21.1185 27.673 21.1551 27.1257L22.8188 2.25175C22.8562 1.69347 22.4223 1.19747 21.8641 1.16015ZM14.7153 28.4591V25.4064C14.7153 25.3256 14.781 25.2599 14.8618 25.2599H17.9028L14.7153 28.4591ZM20.2781 27.0671C20.2638 27.1556 20.2119 27.201 20.1223 27.2034L17.4105 27.022L19.271 25.1698C19.3539 25.0874 19.4004 24.9753 19.4004 24.8584V4.00722C19.4004 3.44184 18.9404 2.98183 18.3751 2.98183H13.8052C13.237 2.98183 13.237 3.86073 13.8052 3.86073H18.3751C18.4559 3.86073 18.5215 3.92647 18.5215 4.00722V24.381H14.8618C14.2964 24.381 13.8364 24.841 13.8364 25.4064V29.0833H1.02539C0.944648 29.0833 0.878906 29.0175 0.878906 28.9368V4.00722C0.878906 3.92647 0.944648 3.86073 1.02539 3.86073H11.4649C12.0331 3.86073 12.0331 2.98183 11.4649 2.98183H4.20703L4.33852 1.01565C4.35281 0.927118 4.40479 0.881708 4.49443 0.879306L21.8054 2.03712C21.8939 2.05141 21.9394 2.10339 21.9418 2.19304L20.2781 27.0671Z" fill="#1E2B46"/>
<path d="M15.693 13.8705H3.70746C3.46476 13.8705 3.26801 14.0672 3.26801 14.3099C3.26801 14.5526 3.46476 14.7494 3.70746 14.7494H15.693C15.9357 14.7494 16.1324 14.5526 16.1324 14.3099C16.1324 14.0672 15.9357 13.8705 15.693 13.8705Z" fill="#1E2B46"/>
<path d="M15.693 16.9341H3.70746C3.46476 16.9341 3.26801 17.1308 3.26801 17.3735C3.26801 17.6162 3.46476 17.813 3.70746 17.813H15.693C15.9357 17.813 16.1324 17.6162 16.1324 17.3735C16.1324 17.1308 15.9357 16.9341 15.693 16.9341Z" fill="#1E2B46"/>
<path d="M3.26801 11.2463C3.26801 11.489 3.46476 11.6858 3.70746 11.6858H15.693C15.9357 11.6858 16.1324 11.489 16.1324 11.2463C16.1324 11.0036 15.9357 10.8069 15.693 10.8069H3.70746C3.46476 10.8069 3.26801 11.0036 3.26801 11.2463Z" fill="#1E2B46"/>
<path d="M5.37933 8.18286C5.37933 8.42556 5.57609 8.62231 5.81879 8.62231H13.5817C13.8244 8.62231 14.0211 8.42556 14.0211 8.18286C14.0211 7.94017 13.8244 7.74341 13.5817 7.74341H5.81879C5.57609 7.74341 5.37933 7.94017 5.37933 8.18286Z" fill="#1E2B46"/>
<path d="M11.4115 25.6913C10.6211 25.6934 9.83072 25.6951 9.04034 25.6963C8.77468 25.6967 8.50907 25.6971 8.24347 25.6972C7.76212 25.6976 7.4378 25.601 7.32999 25.0715C7.23882 24.6239 6.60554 24.684 6.48249 25.0715C6.17839 26.0288 5.67542 25.6537 5.3937 25.0098C5.11263 24.3675 5.04056 23.6485 4.9178 22.9649C4.82757 22.4626 4.06784 22.6034 4.0546 23.0817C4.03714 23.7117 3.97831 24.3316 3.81841 24.9425C3.65347 25.5729 3.40626 26.1787 3.16087 26.781C2.94694 27.306 3.79761 27.5319 4.00837 27.0147C4.22581 26.481 4.44354 25.9444 4.60561 25.3908C4.90679 26.115 5.52987 26.9341 6.41774 26.4514C6.58292 26.3616 6.7372 26.2339 6.87261 26.085C7.33433 26.6186 8.02157 26.5765 8.66464 26.5757C9.58029 26.5746 10.4959 26.5726 11.4116 26.5702C11.9769 26.5687 11.978 25.6898 11.4115 25.6913Z" fill="#1E2B46"/>
<path d="M29.6445 14.4209C29.4161 14.1937 29.1022 14.0771 28.7834 14.0685L28.4513 14.0702V13.4421C28.4513 13.0595 28.2241 12.6554 27.8986 12.4541V11.5694C27.8986 9.74899 25.0643 9.7569 25.0643 11.578V12.4628C24.7327 12.6677 24.5103 13.0335 24.5103 13.4502V14.0937C23.0474 14.1933 23.0433 16.4225 24.5119 16.5096C24.5213 18.4769 24.5208 20.4119 24.5103 22.4122C24.5074 22.9638 25.3862 22.9961 25.3892 22.4168C25.3998 20.4149 25.4002 18.4781 25.3909 16.5092L27.5712 16.4983C27.5712 16.4983 27.5684 22.9933 27.5684 25.9193C27.5684 27.3453 25.3876 27.3548 25.3876 25.9045L25.3884 25.1031C25.4227 24.5359 24.5454 24.483 24.5111 25.0501V25.8021C24.5111 26.4466 24.7104 26.9925 25.0963 27.3765C25.1306 28.296 25.5181 29.1857 26.1726 29.8348C26.3604 30.0211 26.6204 29.9642 26.8021 29.8242C27.4681 29.1571 27.8433 28.2776 27.8667 27.339C28.1568 27.05 28.4473 26.7591 28.4473 25.763L28.4476 21.7581C29.2076 21.9742 30 21.3861 30 20.5894V15.2765C30 14.9529 29.8737 14.6491 29.6445 14.4209ZM25.3892 14.0853V13.4501C25.3892 13.3201 25.4784 13.2111 25.5986 13.1787L27.3578 13.1699C27.4071 13.1821 27.4525 13.2054 27.4893 13.2421C27.5429 13.2954 27.5724 13.3665 27.5724 13.4421V14.0746L25.3892 14.0853ZM26.4832 11.0385C26.753 11.0385 27.0196 11.303 27.0196 11.5694V12.2823L25.9431 12.2876V11.578C25.9432 11.2819 26.1853 11.0399 26.4832 11.0385ZM26.4826 28.8452C26.2782 28.5556 26.1305 28.2281 26.048 27.8839C26.184 27.9133 26.3218 27.9287 26.4597 27.9287C26.6136 27.9287 26.7675 27.9096 26.919 27.8726C26.8385 28.2221 26.691 28.5515 26.4826 28.8452ZM29.1211 20.5894C29.1211 21.0054 28.4501 21.0382 28.4501 20.597C28.4501 20.597 28.4508 16.4384 28.4513 16.0572C28.4516 15.8113 28.2472 15.6172 28.0085 15.6172L24.5872 15.6342C24.1629 15.6342 24.1728 14.9703 24.5916 14.9682L28.7878 14.9474C28.9907 14.9647 29.1018 15.0745 29.121 15.2765L29.1211 20.5894Z" fill="#1E2B46"/>
</svg>
