<svg width="41" height="33" viewBox="0 0 41 33" fill="none" xmlns="http://www.w3.org/2000/svg">
<g clip-path="url(#clip0)">
<path d="M14.2464 5.56185C12.5131 1.12658 9.27153 2.34308 9.27153 2.34308C9.27153 2.34308 6.02993 1.12658 4.29667 5.56185C3.25128 8.23664 3.79056 10.4785 4.32358 12.8674C4.4293 13.3413 4.85003 13.6782 5.3355 13.6782H13.2076C13.6933 13.6782 14.1138 13.3413 14.2195 12.8674C14.7525 10.4785 15.2918 8.23664 14.2464 5.56185Z" fill="#495766"/>
<path d="M6.63083 12.8674C6.09781 10.4785 5.55853 8.23664 6.60393 5.56185C7.67529 2.8198 9.32283 2.23829 10.4252 2.19356C9.74449 2.16603 9.27153 2.34308 9.27153 2.34308C9.27153 2.34308 6.02993 1.12658 4.29668 5.56185C3.25128 8.23664 3.79056 10.4785 4.32358 12.8674C4.4293 13.3413 4.85003 13.6782 5.3355 13.6782H7.64275C7.15697 13.6782 6.73656 13.3413 6.63083 12.8674Z" fill="#3C4957"/>
<path d="M16.2746 16.8284L13.8091 15.8734C13.2877 16.448 12.7396 17.0467 12.2116 17.6214C10.6532 19.3158 7.97905 19.3158 6.42097 17.6214C5.90108 17.0558 5.36212 16.4668 4.84787 15.9006L2.45522 16.8281C2.45522 16.8281 0.599976 17.591 0.599976 19.7059V27.6599C0.599976 28.2761 1.09984 28.776 1.71638 28.776H17.0138C17.6303 28.776 18.1302 28.2761 18.1302 27.6599V19.7059C18.1299 17.591 16.2746 16.8284 16.2746 16.8284V16.8284Z" fill="#1EDEB7"/>
<path d="M2.8944 27.66V18.5849C2.8944 17.4522 3.42648 16.7078 3.92072 16.2601L2.45522 16.8285C2.45522 16.8285 0.599976 17.5911 0.599976 19.706V27.66C0.599976 28.2765 1.09984 28.7764 1.71638 28.7764H4.01049C3.39395 28.7764 2.8944 28.2765 2.8944 27.66Z" fill="#1EDEB7"/>
<path d="M12.4027 15.3289C12.0055 15.7687 11.5704 16.2444 11.155 16.6961C10.1687 17.7687 8.47579 17.7687 7.48952 16.6961C7.08162 16.2526 6.65433 15.7856 6.2627 15.3523L4.81128 15.9147C5.33617 16.4931 5.88889 17.0971 6.42097 17.6755C7.97906 19.37 10.6532 19.37 12.2113 17.6755C12.7518 17.0878 13.3133 16.474 13.8457 15.8875L12.4027 15.3289Z" fill="#1EDEB7"/>
<path d="M11.2585 14.6165V13.2931C10.7308 13.6484 10.0955 13.8561 9.41267 13.8561C8.65881 13.8561 7.99942 13.6422 7.46609 13.2865V14.6165C7.46609 14.7789 7.36662 14.9243 7.21522 14.9828L6.22644 15.3663C6.62777 15.8105 7.06914 16.2932 7.48955 16.7505C8.47582 17.8231 10.1687 17.8231 11.1553 16.7502C11.5829 16.285 12.0324 15.7936 12.4394 15.3429L11.5097 14.9828C11.3583 14.9243 11.2585 14.7789 11.2585 14.6165Z" fill="#F7C1B3"/>
<path d="M8.77924 15.7233C8.93033 15.6648 9.03011 15.5193 9.03011 15.357V13.8367C8.43453 13.7773 7.90714 13.5805 7.46609 13.2865V14.6165C7.46609 14.7789 7.36662 14.9243 7.21522 14.9828L6.22644 15.3663C6.51672 15.6876 6.82765 16.0285 7.13639 16.3658L8.77924 15.7233Z" fill="#EFB5A8"/>
<path d="M37.3173 10.8382C37.2276 10.765 37.2038 10.639 37.2532 10.5345C37.5782 9.84256 37.267 9.00768 36.5497 8.7052C36.4568 8.6661 36.3977 8.57351 36.3977 8.47247V7.10551C36.3977 4.44949 34.2731 2.24828 31.6174 2.22888C28.9617 2.24828 26.8371 4.44949 26.8371 7.10551V8.47247C26.8371 8.57351 26.7783 8.6661 26.6851 8.7052C25.9684 9.00737 25.6563 9.84193 25.9819 10.5345C26.031 10.639 26.0072 10.765 25.9178 10.8382C24.4379 12.0453 25.279 14.4768 27.2128 14.4768H36.022C37.9545 14.4768 38.7985 12.0466 37.3173 10.8382V10.8382Z" fill="#495766"/>
<path d="M28.3201 10.8382C28.4099 10.765 28.4337 10.639 28.3842 10.5345C28.0589 9.84193 28.3708 9.00737 29.0877 8.7052C29.1806 8.6661 29.2398 8.57351 29.2398 8.47247V7.10551C29.2398 4.8652 30.7515 2.94802 32.8186 2.39154C32.4354 2.28831 32.0328 2.23201 31.6174 2.22888C28.9617 2.24828 26.8371 4.44949 26.8371 7.10551V8.47247C26.8371 8.57351 26.778 8.6661 26.6851 8.7052C25.9684 9.00737 25.6563 9.84193 25.9819 10.5345C26.031 10.639 26.0072 10.765 25.9178 10.8382C24.4379 12.0453 25.279 14.4768 27.2128 14.4768H29.6154C27.6814 14.4768 26.8405 12.0456 28.3201 10.8382Z" fill="#3C4957"/>
<path d="M38.5273 16.8284L36.0618 15.8734C35.5404 16.448 34.9923 17.0467 34.4643 17.6214C32.9059 19.3158 30.2317 19.3158 28.6737 17.6214C28.1538 17.0558 27.6148 16.4668 27.1006 15.9006L24.7079 16.8281C24.7079 16.8281 22.8527 17.591 22.8527 19.7059V27.6599C22.8527 28.2761 23.3525 28.776 23.9691 28.776H39.2665C39.883 28.776 40.3829 28.2761 40.3829 27.6599V19.7059C40.3826 17.591 38.5273 16.8284 38.5273 16.8284V16.8284Z" fill="#18B192"/>
<path d="M33.0736 21.5965C33.0736 20.4961 32.7924 19.5702 32.3729 18.8094C31.0679 19.0803 29.6512 18.6846 28.6737 17.6214C28.1538 17.0561 27.6148 16.4668 27.1006 15.9006L24.7079 16.8284C24.7079 16.8284 22.8527 17.591 22.8527 19.7059V27.6599C22.8527 28.2765 23.3525 28.7763 23.9691 28.7763H33.0736V21.5965Z" fill="#18B192"/>
<path d="M34.6554 15.3289C34.2582 15.7687 33.8231 16.2444 33.4077 16.6961C32.4214 17.7687 30.7285 17.7687 29.7422 16.6961C29.3343 16.2526 28.907 15.7856 28.5154 15.3523L27.064 15.9147C27.5889 16.4931 28.1416 17.0971 28.6737 17.6755C30.2317 19.37 32.9059 19.37 34.464 17.6755C35.0045 17.0878 35.566 16.474 36.0984 15.8875L34.6554 15.3289Z" fill="#18B192"/>
<path d="M32.3994 18.8572C32.1116 18.3227 31.755 17.8682 31.3772 17.4922C30.775 17.4446 30.1869 17.1797 29.7421 16.6964C29.5707 16.51 29.3959 16.3191 29.2216 16.1286L27.8669 15.6038L27.0642 15.9147C27.5891 16.4931 28.1415 17.0971 28.6736 17.6755C29.6577 18.7459 31.0872 19.1394 32.3994 18.8572V18.8572Z" fill="#18B192"/>
<path d="M33.5111 14.6165V13.2931C32.9834 13.6484 32.3481 13.8561 31.6652 13.8561C30.9114 13.8561 30.252 13.6422 29.7187 13.2865V14.6165C29.7187 14.7789 29.6192 14.9243 29.4678 14.9828L28.479 15.3663C28.8803 15.8105 29.3217 16.2932 29.7421 16.7505C30.7284 17.8231 32.4213 17.8231 33.4076 16.7502C33.8355 16.285 34.285 15.7936 34.6916 15.3429L33.7623 14.9828C33.6109 14.9243 33.5111 14.7789 33.5111 14.6165V14.6165Z" fill="#D88460"/>
<path d="M31.0318 15.7233C31.1829 15.6648 31.2827 15.5193 31.2827 15.357V13.8367C30.6871 13.7773 30.1597 13.5805 29.7187 13.2865V14.6165C29.7187 14.7789 29.6192 14.9243 29.4681 14.9828L28.479 15.3663C28.7693 15.6876 29.0802 16.0285 29.389 16.3658L31.0318 15.7233Z" fill="#CC785A"/>
<path d="M34.7461 7.31293C34.4686 7.27102 33.9103 7.1046 33.5336 6.44584C33.4661 6.32791 33.3025 6.31008 33.213 6.41268C32.9152 6.75395 32.2439 7.30042 31.1122 7.08114C31.0168 7.06269 30.922 7.11305 30.887 7.20376C30.7168 7.64107 30.099 8.82503 28.3824 8.89322C28.2754 8.89729 28.1903 8.98425 28.1903 9.09123V10.7041C28.1903 12.4473 29.5651 14.0395 31.6415 14.0182C33.4601 13.9998 34.915 12.4977 34.915 10.679V7.50718C34.915 7.40928 34.8427 7.32732 34.7461 7.31293V7.31293Z" fill="#E5966E"/>
<path d="M12.5841 8.28419C12.0011 8.32141 9.97439 7.48153 9.4617 5.72012C9.45044 5.68102 9.41509 5.65381 9.37443 5.65381C9.33376 5.65381 9.29842 5.68102 9.28716 5.72012C8.77447 7.48153 6.7478 8.32141 6.16473 8.28419C6.07996 8.27887 6.00708 8.34268 6.00708 8.42777V10.6781C6.00708 11.7598 6.53603 12.783 7.43316 13.4004C7.43973 13.4048 7.4463 13.4095 7.45287 13.4142C7.45662 13.417 7.46037 13.4192 7.46444 13.422C7.98401 13.7783 8.60962 13.9901 9.28528 13.9973C9.31531 13.9976 9.34471 13.9963 9.37443 13.996C9.40414 13.9963 9.43355 13.9973 9.46326 13.9973C10.1392 13.9904 10.7648 13.7783 11.2847 13.4217C11.2885 13.4192 11.2922 13.417 11.296 13.4145C11.3026 13.4098 11.3091 13.4048 11.3157 13.4001C12.2125 12.783 12.7415 11.7598 12.7415 10.6781V8.42808C12.7418 8.34268 12.6692 8.27887 12.5841 8.28419Z" fill="#FFCDBE"/>
<path d="M9.77169 13.4216C9.76762 13.4191 9.76387 13.4166 9.76012 13.4141C9.75355 13.4094 9.74698 13.4048 9.74041 13.4001C8.8436 12.7829 8.31433 11.7597 8.31433 10.6777V8.42771C8.31433 8.34263 8.38721 8.27882 8.47198 8.28413C8.83546 8.30728 9.75918 7.98979 10.5281 7.32069C10.0632 6.91655 9.65501 6.38353 9.46201 5.72007C9.45044 5.68066 9.41541 5.65344 9.37443 5.65344C9.33376 5.65344 9.29873 5.68097 9.28716 5.72007C8.77447 7.48148 6.7478 8.32136 6.16473 8.28413C6.07996 8.2785 6.00708 8.34263 6.00708 8.42771V10.6777C6.00708 11.7597 6.53635 12.7829 7.43316 13.4001L7.45287 13.4141C7.45662 13.4166 7.46069 13.4191 7.46444 13.4216C7.98401 13.7782 8.60962 13.99 9.28559 13.9969C9.31531 13.9972 9.34471 13.996 9.37443 13.9956C9.40414 13.996 9.43355 13.9972 9.46358 13.9969C9.83675 13.9931 10.1946 13.9265 10.5281 13.8077C10.2581 13.7116 10.0041 13.5812 9.77169 13.4216Z" fill="#F7C1B3"/>
<path d="M20.496 0.51001C17.4067 0.51001 14.9027 3.01433 14.9027 6.10359V13.9929C14.9027 14.4023 15.2346 14.7345 15.6441 14.7345H25.3479C25.7577 14.7345 26.0896 14.4023 26.0896 13.9929C26.0896 12.3441 26.0896 7.66699 26.0896 6.10359C26.0896 3.01433 23.5856 0.51001 20.496 0.51001V0.51001Z" fill="#495766"/>
<path d="M16.8249 13.9929C16.8249 13.911 16.8249 6.18591 16.8249 6.10365C16.8249 3.3422 18.8259 1.0484 21.4572 0.592644C21.1447 0.538841 20.8238 0.510376 20.496 0.510376C17.4067 0.510376 14.9027 3.01438 14.9027 6.10365V13.9929C14.9027 14.4027 15.2346 14.7346 15.6441 14.7346H17.5666C17.1571 14.7346 16.8249 14.4027 16.8249 13.9929Z" fill="#3C4957"/>
<path d="M28.8328 18.1244L25.858 16.9727C25.229 17.6655 24.5677 18.3884 23.9305 19.0813C22.0505 21.1258 18.824 21.1258 16.944 19.0816C16.3168 18.3994 15.6665 17.6887 15.0462 17.0055L12.1593 18.1247C12.1593 18.1247 9.9209 19.045 9.9209 21.5965V31.1931C9.9209 31.9369 10.524 32.5397 11.2675 32.5397H29.7246C30.4681 32.5397 31.0712 31.9369 31.0712 31.1931V21.5965C31.0712 19.045 28.8328 18.1244 28.8328 18.1244V18.1244Z" fill="#43AADC"/>
<path d="M12.2153 31.193V20.5555C12.2153 18.9614 13.0887 18.0042 13.7443 17.51L12.1593 18.1247C12.1593 18.1247 9.9209 19.0449 9.9209 21.5965V31.193C9.9209 31.9369 10.524 32.5397 11.2678 32.5397H13.5623C12.8184 32.5397 12.2153 31.9369 12.2153 31.193Z" fill="#43AADC"/>
<path d="M24.1614 16.3154C23.6822 16.8459 23.157 17.4203 22.6559 17.9652C21.466 19.2592 19.4234 19.2592 18.2335 17.9652C17.7411 17.43 17.2259 16.8663 16.7533 16.3436L15.0022 17.0224C15.6356 17.7202 16.3022 18.4488 16.9444 19.1469C18.8241 21.1911 22.0506 21.1911 23.9306 19.1466C24.5825 18.4378 25.2603 17.6974 25.9022 16.9895L24.1614 16.3154Z" fill="#43AADC"/>
<path d="M22.7807 15.4561V13.8596C22.1438 14.2881 21.3775 14.5387 20.5538 14.5387C19.6442 14.5387 18.8487 14.2806 18.2053 13.8514V15.4561C18.2053 15.6519 18.0849 15.8274 17.9025 15.8981L16.7095 16.3605C17.1937 16.8966 17.7261 17.479 18.2335 18.0305C19.4237 19.3246 21.466 19.3246 22.6559 18.0305C23.172 17.469 23.7144 16.8763 24.2052 16.3323L23.0835 15.8981C22.9011 15.8274 22.7807 15.6516 22.7807 15.4561Z" fill="#F0A479"/>
<path d="M19.7894 16.7915C19.9717 16.7205 20.0918 16.545 20.0918 16.3495V14.5152C19.3736 14.4436 18.7374 14.2062 18.2053 13.8514V15.4561C18.2053 15.6516 18.0849 15.8274 17.9025 15.8981L16.7095 16.3605C17.0595 16.748 17.4346 17.1597 17.8074 17.5663L19.7894 16.7915Z" fill="#E5966E"/>
<path d="M24.4885 7.76407V10.7357C24.4885 10.7648 24.487 10.7933 24.4863 10.8221C25.5467 11.0254 26.4298 10.2634 26.4298 9.29306C26.4298 8.32368 25.548 7.56231 24.4885 7.76407Z" fill="#F0A479"/>
<path d="M26.0916 8.32649C25.7397 7.88669 25.1488 7.63832 24.4885 7.76407V10.7357C24.4885 10.7648 24.487 10.7933 24.4863 10.8221C25.1476 10.9487 25.7394 10.7001 26.0916 10.2599V8.32649Z" fill="#E5966E"/>
<path d="M24.2897 7.00763C23.792 6.85623 22.8164 6.45772 21.8767 5.48834C21.7231 5.33037 21.4719 5.34194 21.3315 5.5021C20.673 6.25314 18.9016 8.08837 16.6816 8.90792C16.5362 8.96173 16.4392 9.10061 16.4392 9.25576V10.7356C16.4392 12.8249 18.0761 14.7345 20.5538 14.7345C22.7588 14.7345 24.5527 12.9406 24.5527 10.7356V7.36235C24.5527 7.19907 24.4461 7.05486 24.2897 7.00763Z" fill="#F7B594"/>
<path d="M18.3614 10.7357V8.06714C17.8425 8.39371 17.2785 8.68774 16.6816 8.90796C16.5362 8.96176 16.4392 9.10065 16.4392 9.2558V10.7357C16.4392 12.8252 18.0761 14.7346 20.5538 14.7346C20.8735 14.7346 21.1842 14.6958 21.4823 14.6248C19.5707 14.1922 18.3614 12.5309 18.3614 10.7357Z" fill="#F0A479"/>
<path d="M30.593 10.704V7.75146C30.2446 8.2532 29.582 8.84534 28.3824 8.8932C28.2754 8.89758 28.1907 8.98454 28.1907 9.09121V10.7043C28.1907 12.4473 29.5651 14.0395 31.6419 14.0185C32.0376 14.0144 32.4164 13.94 32.7664 13.8074C31.4229 13.321 30.593 12.0582 30.593 10.704V10.704Z" fill="#D88460"/>
<path d="M1.63879 29.3904H9.3241V31.3035C9.3241 32.3242 10.1546 33.1547 11.1753 33.1547H19.0545C19.3864 33.1547 19.6551 32.8857 19.6551 32.5541C19.6551 32.2225 19.3864 31.9535 19.0545 31.9535H14.7522V24.3886C14.7522 24.0567 14.4832 23.788 14.1516 23.788C13.8197 23.788 13.551 24.0567 13.551 24.3886V31.9535H11.1753C10.8171 31.9535 10.5256 31.662 10.5256 31.3035C10.5256 31.1796 10.5256 21.8696 10.5256 21.6109C10.5256 20.7188 10.8506 19.9102 11.5444 19.2715C12.1838 18.6821 12.4378 18.6765 14.8395 17.7465C15.3515 18.3093 15.9102 18.9199 16.5058 19.5677C18.6216 21.8684 22.2608 21.868 24.3763 19.5674C24.9859 18.9045 25.5549 18.2827 26.0736 17.7127L28.4503 18.6333C29.6971 19.1157 30.4744 20.329 30.4744 21.6109V31.3035C30.4744 31.662 30.1829 31.9535 29.8247 31.9535H27.449V24.3886C27.449 24.0567 27.1803 23.788 26.8484 23.788C26.5168 23.788 26.2478 24.0567 26.2478 24.3886V31.9535H21.8576C21.5257 31.9535 21.257 32.2222 21.257 32.5541C21.257 32.8857 21.5257 33.1547 21.8576 33.1547H29.8247C30.8454 33.1547 31.6759 32.3242 31.6759 31.3035V29.3904H39.3612C40.2649 29.3904 41 28.6553 41 27.7516V24.7093C41 24.3777 40.7313 24.1087 40.3994 24.1087C40.0675 24.1087 39.7988 24.3777 39.7988 24.7093V27.7516C39.7988 27.9928 39.6027 28.1889 39.3612 28.1889H37.4916V22.0119C37.4916 21.6804 37.2229 21.4114 36.891 21.4114C36.5591 21.4114 36.2904 21.6804 36.2904 22.0119V28.1889H31.6759V21.6109C31.6759 20.9049 31.5289 20.3084 31.3052 19.8076C32.7532 19.883 34.1621 19.3121 35.1405 18.2483C35.6426 17.7024 36.1174 17.1835 36.5572 16.7002L38.3149 17.3809C38.4262 17.4297 39.7988 18.0656 39.7988 19.7066V21.9065C39.7988 22.2381 40.0675 22.5071 40.3994 22.5071C40.7313 22.5071 41 22.2381 41 21.9065V19.7066C41 17.2148 38.8607 16.3064 38.7697 16.2691C38.7659 16.2676 38.7622 16.266 38.7581 16.2645L35.6745 15.0702H36.0971C37.2313 15.0702 38.2101 14.3792 38.5911 13.31C38.9442 12.3187 38.6987 11.2564 37.9683 10.5348C38.1 10.115 38.0881 9.65582 37.9289 9.24136C37.765 8.81344 37.4656 8.4656 37.074 8.24226V7.08769C37.074 4.0416 34.5963 1.60328 31.6818 1.60328C29.3643 1.62048 27.3839 3.12383 26.6272 5.21117C26.1871 2.2242 23.6074 -0.0761719 20.5 -0.0761719C17.5984 -0.0761719 15.1579 1.92953 14.4885 4.62685C13.2223 2.06029 11.1406 1.2448 9.27561 1.73028C7.27491 1.20914 4.98924 2.1632 3.74115 5.35663C2.6529 8.14185 3.1878 10.5348 3.70518 12.8493L3.74146 13.0116C3.90975 13.7658 4.56696 14.2925 5.33958 14.2925H6.8814V14.4677C6.88109 14.4677 4.34299 15.4509 4.34299 15.4509L2.24187 16.2645C2.23781 16.266 2.23405 16.2676 2.2303 16.2691C2.13927 16.3064 0 17.2144 0 19.7063V27.7516C0 28.6553 0.735092 29.3904 1.63879 29.3904ZM23.4923 18.7544C21.8466 20.5439 19.0336 20.5414 17.3901 18.7544C16.9153 18.2379 16.4636 17.745 16.0406 17.2811C16.0466 17.2789 16.2064 17.2154 16.5455 17.084C16.9131 17.4894 17.3316 17.947 17.7952 18.4513C19.2219 20.0028 21.6755 20.0025 23.1019 18.4513C23.5733 17.9386 24.0003 17.4713 24.3772 17.0559L24.8724 17.2476C24.4417 17.7196 23.98 18.2239 23.4923 18.7544ZM23.9559 10.7497C23.9559 12.5996 22.4513 14.1446 20.5635 14.148C20.5616 14.148 20.5597 14.148 20.5576 14.148C20.556 14.148 20.5541 14.148 20.5526 14.148C18.5018 14.1455 17.0438 12.5646 17.0438 10.7497V9.42841C18.7664 8.75401 20.399 7.4421 21.6239 6.09485C22.3318 6.77489 23.1592 7.271 23.9559 7.54376V10.7497ZM25.1051 11.4429C25.1057 11.4429 25.1067 11.4426 25.1076 11.4426C25.2359 11.4235 25.3622 11.3944 25.4855 11.3559C25.488 11.355 25.4905 11.3547 25.493 11.354V14.0069C25.493 14.0079 25.4927 14.0091 25.4927 14.0101C25.4911 14.0864 25.4286 14.148 25.3519 14.148H23.654C24.3925 13.4745 24.94 12.5299 25.1051 11.4429ZM18.1236 16.4722C18.534 16.3133 18.8096 15.9107 18.8096 15.4702V15.0433C19.372 15.2538 19.9898 15.3495 20.5576 15.3495C21.1184 15.3495 21.6858 15.2416 22.1838 15.0527V15.4702C22.1838 15.9107 22.4597 16.3133 22.8704 16.4722L23.1764 16.5907C22.8823 16.9138 22.5617 17.2642 22.2176 17.638C21.2636 18.6756 19.6323 18.6746 18.6792 17.6383C18.3438 17.2733 18.0317 16.9323 17.7458 16.6186L18.1236 16.4722ZM34.2562 17.435C33.2434 18.5367 31.649 18.9064 30.257 18.3731C29.9136 18.0609 29.429 17.7237 28.9958 17.5563C28.8775 17.4406 27.9201 16.3902 27.8059 16.2654L28.3107 16.0696C28.6048 16.3936 28.9367 16.7565 29.3014 17.1531C30.5251 18.4838 32.6296 18.4873 33.8565 17.1531C34.2284 16.7487 34.5672 16.378 34.8684 16.0461L35.3561 16.2351C35.0076 16.6167 34.6397 17.018 34.2562 17.435ZM32.9277 14.7511C32.9284 14.7542 32.9284 14.757 32.929 14.7602C32.9406 14.8346 32.9606 14.9066 32.9881 14.9754C33.0888 15.2278 33.2912 15.4352 33.5524 15.5366L33.6675 15.581C33.4514 15.8181 33.219 16.0715 32.9722 16.3398C32.2208 17.1569 30.9361 17.1563 30.1854 16.3398C29.9461 16.0796 29.7209 15.8337 29.5116 15.6041L29.6861 15.5366C29.7065 15.5284 29.7262 15.5197 29.7456 15.5106C29.749 15.509 29.7525 15.5078 29.7556 15.5062C29.7715 15.4987 29.7866 15.4903 29.8016 15.4821C29.8085 15.4784 29.8157 15.4749 29.8222 15.4712C29.831 15.4662 29.8394 15.4602 29.8479 15.4549C30.3487 15.1443 30.3208 14.6582 30.3208 14.3961C31.1444 14.6713 32.086 14.6879 32.9174 14.408C32.9171 14.6285 32.9149 14.662 32.9277 14.7511ZM29.3887 12.3084C29.0483 11.8476 28.8582 11.2815 28.8553 10.7053C28.8553 10.7009 28.855 10.6962 28.855 10.6915V9.4453C30.3139 9.25262 31.035 8.33422 31.3506 7.75397C31.3609 7.7352 31.3706 7.71674 31.38 7.69891C32.304 7.79025 32.9662 7.45305 33.3726 7.13305C33.7079 7.5178 34.0926 7.7108 34.3882 7.80714V10.6662C34.3882 13.3325 30.9468 14.417 29.3887 12.3084ZM26.6942 10.5079C26.9951 10.1031 27.1246 9.62736 27.0942 9.18443C27.3442 9.03146 27.4996 8.75776 27.4996 8.45653V7.08738C27.4996 4.74416 29.3771 2.82353 31.6862 2.80445C33.995 2.82384 35.8728 4.74416 35.8728 7.08738V8.45653C35.8728 8.80124 36.0768 9.10998 36.3921 9.24292C36.5851 9.32425 36.7324 9.47627 36.8075 9.67115C36.8822 9.86665 36.8747 10.0778 36.7862 10.2658C36.6185 10.623 36.7124 11.0444 37.0145 11.2909C37.5973 11.7666 37.6267 12.4373 37.4597 12.9065C37.2939 13.3716 36.8488 13.8687 36.0971 13.8687H34.1186V13.7461C35.0645 12.9828 35.5894 11.837 35.5894 10.6662V7.48965C35.5894 7.12179 35.3442 6.81117 34.9954 6.71952C34.9907 6.71827 34.9863 6.71671 34.9813 6.71545C34.9785 6.71483 34.9754 6.7142 34.9722 6.71358C34.9516 6.70889 34.9303 6.70451 34.9087 6.70107C34.7229 6.67323 34.3742 6.56155 34.1264 6.12863C34.1105 6.10079 34.0929 6.07389 34.0739 6.04824C33.9403 5.869 33.7357 5.7517 33.5105 5.72949C33.2556 5.70447 33.0003 5.80488 32.8311 5.99882C32.5686 6.30036 32.0885 6.62724 31.2946 6.47334C30.913 6.39952 30.5348 6.60754 30.395 6.96789C30.2486 7.34388 29.7634 8.22411 28.4224 8.2776C27.9914 8.29481 27.6535 8.64546 27.6535 9.07619V10.6912C27.6535 10.7 27.6542 10.7087 27.6542 10.7178C27.6632 11.9434 28.2426 13.0557 29.1193 13.7451V13.8687H27.275C27.0661 13.8687 26.8715 13.8302 26.6942 13.7545V10.5079ZM27.2754 15.0702H27.5653L26.555 15.4618C26.5553 15.4618 26.5547 15.4621 26.555 15.4618L25.0723 16.0367L24.4263 15.7865L23.3853 15.3836V15.3495H25.3519C25.7464 15.3495 26.1005 15.1775 26.346 14.9059C26.6382 15.0129 26.951 15.0702 27.2754 15.0702ZM25.8515 9.5648C25.7442 9.86415 25.4655 10.0912 25.1574 10.1973V8.41743C25.6572 8.58853 26.0316 9.06181 25.8515 9.5648ZM15.507 6.118C15.507 3.36469 17.747 1.125 20.5 1.125C23.253 1.125 25.493 3.36469 25.493 6.118V7.26099C25.3967 7.23033 25.254 7.19498 25.137 7.17653C25.0657 6.83182 24.8092 6.55061 24.4682 6.44707C24.0259 6.31256 23.1573 5.9569 22.3115 5.08449C21.9095 4.67002 21.2517 4.70099 20.8838 5.12046C20.2557 5.83678 18.5684 7.58693 16.4776 8.35893C16.0979 8.49907 15.8426 8.86536 15.8426 9.27013V10.7497C15.8426 12.0141 16.3644 13.2612 17.345 14.148H15.6481C15.5705 14.148 15.5073 14.0848 15.5073 14.0073L15.507 6.118ZM15.6481 15.3492H17.6084V15.3836L17.2643 15.5169L15.9258 16.0358C14.2126 15.3717 15.1085 15.7189 12.0605 14.5375L11.8807 14.4677V14.2922H13.2116C13.6302 14.2922 14.0143 14.1364 14.3058 13.8749V14.0073C14.3058 14.747 14.908 15.3492 15.6481 15.3492ZM5.33958 13.091C5.13345 13.091 4.95859 12.9509 4.91386 12.7498L4.87726 12.5871C4.35581 10.253 3.90506 8.23725 4.86005 5.79362C6.34494 1.99397 8.9578 2.88046 9.06447 2.91894C9.20054 2.96992 9.35037 2.96992 9.48644 2.91894C9.49301 2.91644 10.1468 2.68558 10.9707 2.88609C12.1325 3.16918 13.0477 4.14764 13.6909 5.79393C14.6459 8.23694 14.1954 10.2527 13.6737 12.5865L13.6374 12.7498C13.5923 12.9506 13.4175 13.091 13.2116 13.091H12.526C13.0543 12.4104 13.3465 11.5611 13.3465 10.6915V8.4412C13.3465 8.41586 13.3449 8.39021 13.3424 8.36519C13.3239 8.18845 13.2423 8.02173 13.1119 7.89942C12.9667 7.76335 12.7703 7.69141 12.5716 7.69798C12.5648 7.69829 12.5579 7.69798 12.551 7.69829C12.5447 7.6986 12.5369 7.69798 12.53 7.69766C12.1359 7.6864 10.4618 7.00574 10.0423 5.56558C9.95659 5.27186 9.68382 5.06666 9.37852 5.06666C9.07323 5.06666 8.80015 5.27186 8.71444 5.5659C8.29184 7.01825 6.59393 7.6986 6.217 7.6986C5.68586 7.6986 5.41059 8.06896 5.41059 8.4412V10.6915C5.41059 11.5261 5.68273 12.3854 6.23045 13.091H5.33958ZM6.61176 10.6915V8.84534C7.40754 8.66517 8.63686 8.03268 9.37852 6.93598C10.1205 8.03268 11.3495 8.66517 12.1453 8.84534V10.6915C12.1453 12.2684 10.8769 13.4085 9.37133 13.4085C7.86955 13.4361 6.61176 12.2139 6.61176 10.6915ZM11.1406 15.4477C11.2453 15.5147 11.3042 15.5325 11.4887 15.6041C11.2791 15.8337 11.0539 16.0796 10.8146 16.3398C10.0629 17.1569 8.77856 17.156 8.02783 16.3398C7.78103 16.0715 7.54893 15.8181 7.33278 15.581L7.44758 15.5366C7.82607 15.3902 8.08289 15.0186 8.08289 14.6094V14.4076C8.91026 14.686 9.88214 14.6763 10.6795 14.4058C10.6792 14.5884 10.6272 15.1193 11.1406 15.4477ZM6.13161 16.0461C6.43284 16.3777 6.77161 16.7487 7.14353 17.1528C8.36816 18.4844 10.4743 18.4847 11.6986 17.1528C12.0633 16.7565 12.3952 16.3933 12.6893 16.0696C12.9004 16.1515 12.8006 16.1127 13.1441 16.246C11.9542 17.5495 11.9782 17.5179 11.8875 17.6036C11.576 17.744 11.1678 17.9983 10.8002 18.3218C9.3754 18.9305 7.7291 18.5805 6.67589 17.4353C6.29739 17.0236 5.93548 16.6286 5.59389 16.2544L6.13161 16.0461ZM1.20117 19.7063C1.20117 18.0656 2.57407 17.4297 2.68512 17.3809L4.39272 16.7196C4.82502 17.1944 5.29391 17.7068 5.79159 18.2483C6.7813 19.3243 8.203 19.9093 9.6954 19.8057C9.47143 20.3068 9.3241 20.904 9.3241 21.6106V28.1889H4.70959V22.0119C4.70959 21.6804 4.4409 21.4114 4.10901 21.4114C3.77712 21.4114 3.50842 21.6804 3.50842 22.0119V28.1889H1.63879C1.3973 28.1889 1.20117 27.9928 1.20117 27.7516V19.7063Z" fill="black"/>
</g>
<defs>
<clipPath id="clip0">
<rect width="41" height="33" fill="white"/>
</clipPath>
</defs>
</svg>
