<svg width="40" height="40" viewBox="0 0 40 40" fill="none" xmlns="http://www.w3.org/2000/svg">
<path d="M19.9936 22.715L19.984 22.7417V22.715C19.984 22.715 10.367 23.5135 3.76559 32.8669C3.27153 33.5669 2.78332 34.299 2.3377 35.0592C1.20754 36.9873 2.59559 39.4141 4.83035 39.4141H35.1627C37.3991 39.4141 38.8014 36.9756 37.6532 35.0564C37.2403 34.3664 36.7875 33.6974 36.2871 33.0529C30.2475 25.2741 19.9936 22.715 19.9936 22.715Z" fill="#FFE0D1"/>
<path d="M8.69961 34.8882L3.76562 32.867C3.76562 32.867 9.38422 23.605 19.9935 22.715L20.183 35.838L8.69961 34.8882Z" fill="#6C7FD8"/>
<path d="M31.3313 35.091L36.2652 33.0699C36.2652 33.0699 30.6467 23.8079 20.0374 22.9179L19.8479 36.0409L31.3313 35.091Z" fill="#6C7FD8"/>
<path d="M7.85054 19.2105C7.3996 19.2105 7.03406 18.8449 7.03406 18.394V3.80775C7.03406 2.06181 8.44945 0.646423 10.1954 0.646423C11.9413 0.646423 13.3567 2.06181 13.3567 3.80775V13.7043C13.3567 16.7453 10.8916 19.2105 7.85054 19.2105Z" fill="#BC7C63"/>
<path d="M10.9017 4.92358C10.2499 4.27178 10.2499 3.21498 10.9017 2.56319L12.3587 1.10616C13.0105 0.45436 14.0673 0.45436 14.7191 1.10616C15.3709 1.75795 15.3709 2.81475 14.7191 3.46655L13.2621 4.92358C12.6104 5.57545 11.5536 5.57545 10.9017 4.92358Z" fill="#FD8087"/>
<path d="M30.0967 13.9802V10.7028C30.0967 5.11547 25.5666 0.585938 19.9783 0.585938C14.39 0.585938 9.85986 5.11547 9.85986 10.7029V13.9803H30.0967V13.9802Z" fill="#BC7C63"/>
<path d="M13.3567 15.4783H11.3746C10.5473 15.4783 9.87659 14.8076 9.87659 13.9803C9.87659 13.1529 10.5473 12.4822 11.3746 12.4822H13.3567V15.4783Z" fill="#FFDFCF"/>
<path d="M26.6 15.4783H28.582C29.4094 15.4783 30.0801 14.8076 30.0801 13.9803C30.0801 13.1529 29.4094 12.4822 28.582 12.4822H26.6V15.4783Z" fill="#FFDFCF"/>
<path d="M20.5089 7.85025C20.2126 7.5583 19.7441 7.5583 19.4478 7.85025C18.5592 8.72588 17.3397 9.26658 15.9935 9.26658H13.8179C12.8836 9.26658 12.1262 10.024 12.1262 10.9583V16.1665C12.1262 20.5024 15.6412 24.0174 19.9772 24.0174H19.9796C24.3155 24.0174 27.8305 20.5024 27.8305 16.1665V10.9583C27.8305 10.024 27.0731 9.26658 26.1388 9.26658H23.9632C22.6169 9.2665 21.3975 8.72588 20.5089 7.85025Z" fill="#FFE0D1"/>
<path d="M23.963 9.26648C23.9609 9.43789 24.0357 9.59921 24.1616 9.71554C24.4959 10.0246 24.7054 10.4669 24.7054 10.9582V16.1664C24.7054 19.9677 22.0037 23.1378 18.4158 23.8619C18.9204 23.9637 19.4425 24.0173 19.9771 24.0173H19.9795C24.3155 24.0173 27.8305 20.5023 27.8305 16.1664V10.9583C27.8305 10.024 27.073 9.26656 26.1387 9.26656H23.963V9.26648Z" fill="#FFD1C2"/>
<path d="M31.031 36.9207H9.03798C8.3254 36.9207 7.71915 36.4014 7.6097 35.6973L5.89087 24.6395C5.7547 23.7633 6.43236 22.972 7.31915 22.972H32.7498C33.6366 22.972 34.3143 23.7632 34.1781 24.6395L32.4592 35.6972C32.3499 36.4013 31.7436 36.9207 31.031 36.9207Z" fill="#F9F7F8"/>
<path d="M32.7498 22.9721H29.6248C30.5116 22.9721 31.1893 23.7633 31.0531 24.6396L29.3342 35.6973C29.2248 36.4014 28.6185 36.9207 27.9059 36.9207H31.0309C31.7435 36.9207 32.3498 36.4014 32.4592 35.6973L34.1781 24.6396C34.3143 23.7633 33.6366 22.9721 32.7498 22.9721Z" fill="#E5EEF9"/>
<path d="M31.1877 39.4141H8.87181C8.1747 39.4141 7.60962 38.849 7.60962 38.1519C7.60962 37.4548 8.1747 36.8897 8.87181 36.8897H31.1876C31.8847 36.8897 32.4498 37.4548 32.4498 38.1519C32.4498 38.849 31.8847 39.4141 31.1877 39.4141Z" fill="#D5E3F4"/>
<path d="M31.1877 36.8897H28.0627C28.7598 36.8897 29.3249 37.4548 29.3249 38.1519C29.3249 38.849 28.7598 39.4141 28.0627 39.4141H31.1877C31.8848 39.4141 32.4499 38.849 32.4499 38.1519C32.4498 37.4549 31.8847 36.8897 31.1877 36.8897Z" fill="#B3CEEC"/>
<path d="M20.0345 32.8703C21.5808 32.8703 22.8344 31.941 22.8344 30.7946C22.8344 29.6483 21.5808 28.7189 20.0345 28.7189C18.4881 28.7189 17.2346 29.6483 17.2346 30.7946C17.2346 31.941 18.4881 32.8703 20.0345 32.8703Z" fill="#D5E3F4"/>
<path d="M38.156 34.7555C37.0108 32.8415 35.5746 30.9584 34.0341 29.3499L34.7571 24.6986C34.9439 23.4965 33.9703 22.3552 32.7498 22.3552H25.7089C27.4207 20.7628 28.47 18.4136 28.4165 16.0643C29.5818 16.0987 30.6828 15.199 30.6828 13.9802V10.7028C30.6828 7.47039 29.2439 4.44445 26.7347 2.40078C26.4838 2.19633 26.1147 2.23414 25.9104 2.48508C25.706 2.73594 25.7438 3.10508 25.9947 3.30938C28.2294 5.12953 29.511 7.82438 29.511 10.7028V12.1154C29.1736 11.9466 28.7917 11.8768 28.4165 11.8962V10.9581C28.4165 9.70219 27.3947 8.68047 26.1389 8.68047H23.9632C22.8174 8.68047 21.7367 8.23734 20.9202 7.43273C20.3921 6.91227 19.5647 6.91227 19.0366 7.43273C18.22 8.23734 17.1394 8.68047 15.9936 8.68047H13.818C12.5621 8.68047 11.5403 9.70219 11.5403 10.9581V11.8962C11.1651 11.8768 10.7832 11.9466 10.4459 12.1154V10.7028C10.4459 5.51445 14.7881 1.17188 19.9784 1.17188C21.4017 1.17188 22.7706 1.47773 24.0469 2.08094C24.3395 2.21914 24.6887 2.09414 24.827 1.80156C24.9653 1.50898 24.8402 1.15977 24.5476 1.02148C23.1135 0.343672 21.5763 0 19.9784 0C18.3445 0 16.7952 0.368516 15.4084 1.02586C14.6701 -0.0682813 13.0874 -0.289062 12.0796 0.568047C11.5104 0.235078 10.8682 0.0604687 10.1954 0.0604687C8.12917 0.0604687 6.44815 1.74148 6.44815 3.80773V18.3939C6.44815 19.1672 7.07729 19.7963 7.85057 19.7963C9.33018 19.7963 10.7261 19.2709 11.8211 18.3263C12.011 19.0453 12.2952 19.7383 12.6689 20.3845C13.0929 21.1176 13.6264 21.7817 14.2451 22.3552H7.31909C6.10253 22.3552 5.1244 23.4925 5.31182 24.6985L6.00245 29.1413C4.39299 30.8209 3.00792 32.7569 1.83214 34.7629C0.495651 37.043 2.19909 40 4.83034 40H11.8927C12.2163 40 12.4786 39.7377 12.4786 39.4141C12.4786 39.0905 12.2163 38.8281 11.8927 38.8281C10.8857 38.8281 9.8787 38.8281 8.87174 38.8281C8.49885 38.8281 8.19549 38.5248 8.19549 38.1519C8.19549 37.779 8.49885 37.4756 8.87174 37.4756H31.1875C31.5604 37.4756 31.8638 37.779 31.8638 38.1519C31.8638 38.5248 31.5605 38.8281 31.1876 38.8281H14.4867C14.1632 38.8281 13.9008 39.0905 13.9008 39.4141C13.9008 39.7377 14.1632 40 14.4867 40H35.1627C37.7893 40 39.5209 37.037 38.156 34.7555ZM35.3789 32.7998L33.3699 33.6227L33.8043 30.8284C34.5263 31.64 35.0541 32.3403 35.3789 32.7998ZM28.5821 13.0681C29.085 13.0681 29.4942 13.4773 29.4942 13.9802C29.4942 14.5608 28.9504 14.9186 28.4165 14.8924V13.0681H28.5821ZM11.3747 13.0681H11.5403V14.8924H11.3747C10.8717 14.8924 10.4626 14.4832 10.4626 13.9802C10.4626 13.4773 10.8717 13.0681 11.3747 13.0681ZM14.3049 1.52047C14.3275 1.5432 14.3476 1.56758 14.3679 1.59172C13.1587 2.33883 12.1085 3.31961 11.281 4.47078C10.897 4.04867 10.9113 3.38219 11.316 2.9775L12.773 1.52047C13.1953 1.0982 13.8824 1.0982 14.3049 1.52047ZM7.85057 18.6245C7.72346 18.6245 7.62003 18.5211 7.62003 18.394V3.80773C7.62003 2.38766 8.77534 1.23234 10.1954 1.23234C10.547 1.23234 10.8864 1.30187 11.2007 1.43555L10.4874 2.14891C9.56292 3.07328 9.64034 4.64258 10.6399 5.4768C9.77065 7.02336 9.27401 8.80609 9.27401 10.7029V13.9803C9.27401 15.2069 10.3753 16.0907 11.5403 16.0644C11.5388 16.3493 11.5503 16.6339 11.5747 16.9182C10.6377 18.0048 9.29362 18.6245 7.85057 18.6245ZM12.7646 17.0422C12.7339 16.7509 12.7122 16.4597 12.7122 16.1664C12.7122 14.4303 12.7122 12.6943 12.7122 10.9582C12.7122 10.3485 13.2083 9.85242 13.818 9.85242H15.9936C17.4492 9.85242 18.822 9.28953 19.8592 8.2675C19.9271 8.20062 20.0297 8.20055 20.0977 8.2675C21.1349 9.28953 22.5078 9.85242 23.9632 9.85242H26.1389C26.7486 9.85242 27.2446 10.3485 27.2446 10.9582V16.1664C27.2446 18.6777 25.9215 21.038 23.7849 22.3552H16.1717C14.2557 21.1755 13.0246 19.2359 12.7646 17.0422ZM6.23214 30.6195L6.66784 33.4226L4.65206 32.5968C4.97768 32.1362 5.50745 31.4336 6.23214 30.6195ZM4.83034 38.8281C3.07753 38.8281 1.95745 36.8666 2.84307 35.3555C3.16495 34.8064 3.53878 34.2242 3.97784 33.5871L6.87807 34.7752L7.03057 35.7563C7.09667 36.1813 7.28885 36.5557 7.56495 36.8463C7.23065 37.1809 7.02362 37.6427 7.02362 38.152C7.02362 38.3906 7.06956 38.6186 7.15229 38.8282H4.83034V38.8281ZM9.03792 36.3037C8.61135 36.3037 8.25409 35.9978 8.18862 35.5763L6.46979 24.5186C6.38995 24.0048 6.79917 23.5271 7.31909 23.5271H32.7498C33.2697 23.5271 33.6789 24.0048 33.5991 24.5186L31.8803 35.5763C31.8148 35.9979 31.4575 36.3038 31.031 36.3038H9.03792V36.3037ZM37.1739 37.6547C36.7572 38.3895 36.0053 38.8281 35.1627 38.8281H32.907C32.9897 38.6185 33.0357 38.3905 33.0357 38.1519C33.0357 37.6452 32.8306 37.1856 32.4992 36.8514C32.7779 36.5601 32.9718 36.1837 33.0382 35.7562L33.1596 34.9752L36.0961 33.7723C36.4664 34.2741 36.8202 34.8052 37.1503 35.3572C37.5767 36.0698 37.5855 36.9287 37.1739 37.6547Z" fill="#202B46"/>
<path d="M22.6458 18.2534C22.4172 18.0244 22.0462 18.024 21.8172 18.2526C20.8033 19.2643 19.1535 19.2643 18.1397 18.2526C17.9105 18.024 17.5396 18.0243 17.311 18.2534C17.0824 18.4825 17.0829 18.8535 17.3119 19.0821C18.047 19.8157 19.0127 20.1825 19.9784 20.1825C20.9441 20.1825 21.9098 19.8157 22.645 19.0821C22.874 18.8535 22.8744 18.4825 22.6458 18.2534Z" fill="#202B46"/>
<path d="M20.0344 28.133C18.1675 28.133 16.6486 29.327 16.6486 30.7946C16.6486 32.2623 18.1675 33.4563 20.0344 33.4563C21.9014 33.4563 23.4203 32.2623 23.4203 30.7946C23.4204 29.327 21.9015 28.133 20.0344 28.133ZM20.0344 32.2844C18.8343 32.2844 17.8204 31.6022 17.8204 30.7946C17.8204 29.9871 18.8343 29.3049 20.0344 29.3049C21.2345 29.3049 22.2484 29.9871 22.2484 30.7946C22.2484 31.6021 21.2346 32.2844 20.0344 32.2844Z" fill="#202B46"/>
</svg>
