<svg width="30" height="30" viewBox="0 0 30 30" fill="none" xmlns="http://www.w3.org/2000/svg">
<path d="M22.2076 27.4815C15.3152 31.4609 6.50199 29.0994 2.52266 22.207C-1.45668 15.3146 0.904766 6.50127 7.79721 2.52199C14.6896 -1.45728 23.5028 0.904221 27.4821 7.79654C31.4615 14.6889 29.1 23.5022 22.2076 27.4815Z" fill="#78D2FA"/>
<path d="M16.0194 10.6895C15.9157 10.7138 15.7148 10.7648 15.6279 10.8346C15.5193 10.9216 15.6889 11.0347 15.627 11.0843C15.52 11.1698 15.4425 11.325 15.2136 11.3104C14.7354 11.2798 14.0004 10.6612 13.5633 10.4274C14.2678 9.70231 13.1532 9.59368 12.7188 9.63001C12.1562 9.67706 11.1827 9.62631 10.6745 9.91243C10.3218 10.111 9.84782 10.9352 9.5637 11.2625C9.1682 11.7182 8.77023 12.1137 8.51253 12.6592C7.56712 14.6604 9.02224 16.9578 11.3091 16.6891C11.9441 16.6145 12.6101 16.2153 13.1728 16.7421C13.5875 17.1302 13.3681 17.4956 13.478 17.9483C13.5732 18.34 14.0069 18.581 14.157 18.9408C14.4449 19.6304 14.2626 20.0617 14.0571 20.6978C13.7875 21.5325 14.4848 22.5235 14.7562 23.329C14.8929 23.7346 15.2911 24.8704 15.6821 25.0481C16.2969 25.3276 17.2605 24.4894 17.6275 24.0386C17.9145 23.6861 17.8208 23.3281 18.0136 22.9981C18.2223 22.641 18.4863 22.5338 18.6325 22.0733C18.79 21.577 18.9537 21.4536 19.2865 21.0914C19.8222 20.5085 19.739 20.1677 19.5249 19.4765C19.0798 18.0406 20.6963 17.3694 21.4244 16.3153C22.1847 15.2146 20.715 15.5815 20.139 15.2051C19.5468 14.818 19.288 14.0824 19.0027 13.4725C18.7172 12.8626 18.481 11.9461 18.0083 11.4451C17.6442 11.0594 16.5365 10.8805 16.0194 10.6895Z" fill="#18B192"/>
<path d="M23.458 20.322C23.2283 21.0962 22.9986 21.8705 22.7689 22.6448C22.6082 23.1861 22.0404 24.9568 21.2438 23.8226C20.941 23.3915 21.1872 22.8268 21.3562 22.4301C21.5693 21.9297 21.2813 21.6778 21.4299 21.2041C21.6003 20.6611 22.3013 20.6425 22.633 20.2606C22.8643 19.9943 23.007 19.571 23.176 19.2593C23.2701 19.6136 23.3641 19.9677 23.458 20.322Z" fill="#18B192"/>
<path d="M27.4822 7.79661C25.0002 3.49765 20.6375 0.96165 16.0334 0.627197L14.1489 2.9911L10.11 4.40708L9.02649 7.03372L10.6979 9.37507L10.8755 8.88007C11.1722 8.0536 11.9556 7.50241 12.8337 7.50241H15.5883L18.7548 8.61511L19.8454 9.6562V10.3175L21.3616 13.2218L21.8031 13.059C22.7565 12.7074 23.6223 12.1532 24.3408 11.4347L23.9748 10.8856C23.8584 10.7109 23.9836 10.4771 24.1934 10.4771H25.077C25.3358 10.4771 25.5815 10.5904 25.7496 10.7872L26.4714 11.6323C26.5402 11.7128 26.5939 11.805 26.6301 11.9045L27.4266 14.0949L27.8058 13.7158C28.0449 13.4766 28.1659 13.1509 28.1715 12.8128C28.176 12.541 28.294 12.2831 28.4973 12.1018L28.7876 11.8429C28.8606 11.7778 28.9421 11.7249 29.0288 11.6848C28.7132 10.3527 28.2019 9.04319 27.4822 7.79661Z" fill="#18B192"/>
<path d="M5.92384 8.35943L6.61308 7.62086C7.11563 7.08232 7.25802 6.3001 6.97735 5.619C6.68063 4.89889 6.03007 4.43201 5.30995 4.33545C2.76464 6.64393 1.18208 9.74758 0.726807 13.0351C1.26493 13.5055 1.82808 14.009 1.82485 14.0534C1.81864 14.1383 3.84101 13.7992 3.84101 13.7992L2.79991 12.272L4.29505 11.2029L5.92384 8.35943Z" fill="#18B192"/>
<path d="M7.32535 22.7181C7.97503 22.507 8.33058 21.8092 8.11953 21.1596L7.93396 20.5884C7.85287 20.3388 7.85328 20.07 7.93507 19.8207C8.16693 19.1139 7.72701 18.3639 6.99705 18.2213L5.54082 17.9367L2.88072 15.9142L0.681519 16.6286C0.897495 18.5385 1.50025 20.4361 2.52259 22.207C3.46818 23.8447 4.68705 25.226 6.08779 26.3279L6.7431 22.9072L7.32535 22.7181Z" fill="#18B192"/>
<path d="M21.9135 26.9748L21.8909 26.9878C21.6111 27.1502 21.5159 27.5087 21.6782 27.7886C21.7869 27.9759 21.9834 28.0806 22.1855 28.0806C22.2852 28.0806 22.3864 28.055 22.479 28.0013L22.5015 27.9883C22.7814 27.8259 22.8766 27.4674 22.7143 27.1875C22.552 26.9078 22.1935 26.8125 21.9135 26.9748Z" fill="black"/>
<path d="M27.9899 7.50463C25.987 4.03559 22.7532 1.5542 18.884 0.517445C15.0149 -0.519313 10.9736 0.0127771 7.50455 2.01557C4.03551 4.01836 1.55412 7.25227 0.517419 11.1214C-0.51928 14.9905 0.012751 19.0319 2.01554 22.5009C3.81209 25.6126 6.66748 27.9775 10.0557 29.1598C11.6618 29.7202 13.3385 29.9999 15.0126 29.9999C16.8328 29.9999 18.6497 29.6691 20.3672 29.0089C20.6692 28.8929 20.8199 28.5539 20.7038 28.2519C20.5877 27.9498 20.2486 27.7989 19.9467 27.9152C15.3752 29.6723 10.4263 28.8739 6.72883 26.0986L7.25377 23.3585L7.50672 23.2763C8.46256 22.9658 8.98756 21.9355 8.67713 20.9796L8.4915 20.4083C8.44855 20.2761 8.44879 20.1364 8.49209 20.0043C8.65492 19.5079 8.59674 18.9648 8.33242 18.5141C8.0681 18.0634 7.6225 17.7475 7.10974 17.6472L5.78728 17.3888L3.23564 15.4488C3.08277 15.3325 2.88267 15.2986 2.69998 15.3579L1.20607 15.8432C1.17437 15.3089 1.1739 14.7747 1.20402 14.2434C1.26297 14.2983 1.30134 14.3356 1.32496 14.3601C1.3542 14.4088 1.39041 14.4534 1.43283 14.4921C1.55482 14.6032 1.66533 14.6536 1.89736 14.6536C2.11058 14.6535 2.42623 14.6111 2.94742 14.5341C3.44172 14.461 3.93343 14.3787 3.9383 14.3779C4.13535 14.3449 4.30193 14.2136 4.38033 14.0299C4.45873 13.8462 4.43804 13.6352 4.32549 13.4701L3.60707 12.4163L4.63609 11.6805C4.70465 11.6314 4.76183 11.5682 4.80373 11.4951L6.39883 8.71043L7.04177 8.02149C7.69879 7.31731 7.88629 6.28705 7.51937 5.39666C7.30293 4.87149 6.92488 4.43426 6.45203 4.13959C6.96414 3.737 7.51017 3.36528 8.09049 3.0303C10.2197 1.801 12.5433 1.20528 14.8424 1.18248L13.7962 2.49493L9.91638 3.85512C9.75883 3.91032 9.63226 4.0302 9.56863 4.18459L8.48512 6.81123C8.40818 6.99786 8.43261 7.21079 8.54986 7.37508L10.1324 9.5918C9.90572 9.79858 9.68512 10.0998 9.42162 10.4737C9.30607 10.6377 9.19697 10.7926 9.12156 10.8794C9.05599 10.955 8.99037 11.0288 8.92533 11.1019C8.58496 11.4848 8.23304 11.8809 7.98303 12.4099C7.4333 13.5735 7.54433 14.9259 8.27277 15.9395C8.97713 16.9195 10.1383 17.4176 11.3777 17.2719C11.5796 17.2482 11.7679 17.2016 11.9501 17.1565C12.4524 17.0322 12.6115 17.0198 12.7727 17.1706C12.8511 17.244 12.8583 17.2579 12.8567 17.5068C12.8556 17.6653 12.8543 17.8624 12.9089 18.0874C12.9964 18.4475 13.2226 18.6963 13.4042 18.8963C13.4945 18.9956 13.5879 19.0983 13.6166 19.1673C13.7994 19.6052 13.7198 19.8478 13.5454 20.3792C13.5305 20.4247 13.5153 20.4711 13.5 20.5187C13.2351 21.3387 13.6043 22.1521 13.9301 22.8697C14.0359 23.1027 14.1358 23.3227 14.2013 23.5171C14.7281 25.0803 15.123 25.4383 15.44 25.5824C15.606 25.6579 15.7778 25.691 15.9513 25.691C16.7959 25.6909 17.6773 24.9067 18.0822 24.4095C18.3365 24.0973 18.3991 23.7847 18.4448 23.5564C18.4676 23.4428 18.4855 23.3532 18.5198 23.2946C18.5721 23.2049 18.6338 23.1355 18.712 23.0474C18.869 22.8705 19.0645 22.6505 19.1912 22.2515C19.2874 21.9485 19.3573 21.8742 19.5888 21.6276C19.6291 21.5848 19.6721 21.5389 19.7182 21.4888C20.4986 20.6396 20.2976 19.9909 20.0847 19.3041C19.9056 18.7262 20.2189 18.3565 20.9764 17.6511C21.3048 17.3453 21.6443 17.0292 21.9067 16.6493C22.0216 16.483 22.371 15.9772 22.1547 15.4758C21.9428 14.9842 21.4042 14.9016 20.9714 14.8352C20.8005 14.809 20.5422 14.7694 20.46 14.7156C20.0975 14.4786 19.8757 13.984 19.6612 13.5056C19.6185 13.4104 19.5763 13.3164 19.5336 13.2251C19.4574 13.0624 19.3813 12.8654 19.3008 12.657C19.0876 12.1052 18.846 11.4799 18.4347 11.0439C18.0651 10.6522 17.3682 10.4636 16.7534 10.297C16.5466 10.2411 16.3514 10.1882 16.2227 10.1407C16.1148 10.1009 15.9978 10.0937 15.886 10.1199C15.5868 10.19 15.4001 10.2673 15.2615 10.3784C15.2249 10.4078 15.1164 10.5042 15.0529 10.6591C14.8384 10.5561 14.5434 10.3596 14.3619 10.2386C14.3581 10.236 14.3543 10.2335 14.3506 10.231C14.4118 9.9862 14.3564 9.78973 14.2984 9.66704C13.971 8.97469 12.8846 9.02889 12.6702 9.04711C12.5485 9.05731 12.3944 9.06276 12.2315 9.0685C11.9755 9.07758 11.6927 9.08778 11.4128 9.11918L11.4272 9.07899C11.6396 8.48702 12.2049 8.08922 12.8339 8.08922H13.1669C13.4905 8.08922 13.7528 7.82684 13.7528 7.50334C13.7528 7.17979 13.4904 6.91746 13.1669 6.91746H12.8339C11.9001 6.91746 11.0451 7.40889 10.5658 8.18239L9.69191 6.95819L10.5517 4.87407L14.343 3.54487C14.4469 3.50842 14.5386 3.44338 14.6073 3.35719L16.2926 1.24319C20.5988 1.65282 24.6524 4.06723 26.9751 8.09039C27.5938 9.16202 28.0515 10.2902 28.3558 11.4441L28.1074 11.6656C27.7832 11.9548 27.5932 12.3697 27.586 12.804C27.5859 12.8087 27.5858 12.8134 27.5856 12.8181L27.181 11.7053C27.1207 11.5392 27.0319 11.3869 26.9171 11.2527L26.1953 10.4076C25.9155 10.08 25.508 9.89221 25.0773 9.89221H24.1938C23.8801 9.89221 23.5935 10.064 23.4455 10.3404C23.2976 10.6168 23.3137 10.9507 23.4877 11.2116L23.5771 11.3458C23.0062 11.8368 22.3458 12.2296 21.6427 12.4946L20.4316 10.1747V9.65713C20.4316 9.49705 20.3661 9.34383 20.2503 9.23338L19.1597 8.19223C19.0995 8.13481 19.0278 8.09086 18.9493 8.06327L17.9675 7.71827C17.6621 7.6108 17.3277 7.77153 17.2205 8.07674C17.1132 8.38207 17.2737 8.71647 17.579 8.82375L18.4417 9.12698L19.2598 9.90786V10.3185C19.2598 10.4129 19.2827 10.5059 19.3264 10.5897L20.8426 13.494C20.9789 13.7553 21.2884 13.8747 21.5646 13.7725L22.0062 13.6098C23.0318 13.2315 23.9825 12.623 24.7555 11.8501C24.9529 11.6526 24.9837 11.3433 24.8287 11.1108L24.7975 11.064H25.0773C25.1648 11.064 25.2476 11.1022 25.3044 11.1687L26.0262 12.0138C26.0495 12.0411 26.0675 12.0719 26.0798 12.1057L26.8763 14.2961C26.9448 14.4843 27.1046 14.6245 27.3 14.6678C27.3422 14.6772 27.3846 14.6817 27.4269 14.6817C27.5806 14.6817 27.7302 14.6212 27.8412 14.5101L28.2203 14.1309C28.4604 13.8908 28.6257 13.5869 28.7047 13.25C29.2911 17.9496 27.4484 22.811 23.5534 25.868C23.2988 26.0678 23.2544 26.436 23.4543 26.6906C23.654 26.9452 24.0222 26.9896 24.2769 26.7898C27.0889 24.5827 29.0208 21.426 29.7166 17.901C30.4189 14.3421 29.8057 10.6498 27.9899 7.50463ZM2.77047 16.5672L5.18646 18.4041C5.25789 18.4584 5.34074 18.4956 5.42875 18.5128L6.88492 18.7973C7.07078 18.8336 7.22582 18.9435 7.32162 19.1069C7.41742 19.2702 7.43758 19.4592 7.37863 19.6391C7.25734 20.009 7.25676 20.4002 7.37705 20.7704L7.56267 21.3415C7.67359 21.6829 7.48597 22.0509 7.14467 22.1619L6.56242 22.3511C6.35927 22.417 6.20822 22.5884 6.16808 22.798L5.69945 25.2442C4.6692 24.3013 3.76463 23.1868 3.03039 21.9151C2.13455 20.3637 1.57486 18.7089 1.32818 17.0357L2.77047 16.5672ZM1.24058 14.0906C1.24222 14.116 1.24545 14.1413 1.25031 14.1662C1.24556 14.1427 1.24228 14.1173 1.24058 14.0906ZM6.43597 5.84309C6.62875 6.31084 6.53019 6.85213 6.18508 7.22209L5.49584 7.96055C5.46508 7.99354 5.43818 8.02998 5.41574 8.06913L3.85058 10.8017L2.45951 11.7964C2.20041 11.9817 2.13677 12.3398 2.31619 12.6031L2.83644 13.3662C2.53656 13.4108 2.26744 13.4476 2.08849 13.4671C2.0541 13.4341 2.01812 13.4007 1.98092 13.3661C1.84164 13.2367 1.6481 13.0639 1.35959 12.8115C1.83543 9.86637 3.25457 7.09184 5.48652 4.97397C5.91396 5.10844 6.26465 5.42731 6.43597 5.84309ZM12.273 10.2396C12.4504 10.2333 12.6181 10.2274 12.7679 10.2148C12.847 10.2082 12.9347 10.2094 13.0175 10.2159C12.9805 10.3108 12.9685 10.415 12.9846 10.5183C13.0128 10.7002 13.1249 10.8581 13.287 10.9448C13.397 11.0037 13.55 11.1057 13.7119 11.2137C14.1698 11.5189 14.689 11.8649 15.1765 11.896C15.62 11.9248 15.8667 11.6721 15.9724 11.5644C15.9808 11.5558 15.9888 11.5472 15.9972 11.5395C16.0568 11.4909 16.1126 11.4259 16.154 11.3474C16.2477 11.3742 16.3462 11.4009 16.4471 11.4282C16.794 11.5222 17.4397 11.697 17.5824 11.8482C17.8359 12.1168 18.0334 12.6282 18.2077 13.0793C18.2958 13.3073 18.379 13.5224 18.4723 13.722C18.5124 13.8076 18.5518 13.8957 18.5919 13.985C18.8622 14.5881 19.1687 15.2716 19.8188 15.6966C20.1136 15.8893 20.4749 15.9447 20.7938 15.9936C20.8323 15.9995 20.8765 16.0063 20.9214 16.0137C20.7321 16.2777 20.4627 16.5286 20.178 16.7937C19.4526 17.4692 18.5499 18.3099 18.9657 19.6511C19.1619 20.2843 19.171 20.3528 18.8555 20.696C18.8125 20.7428 18.7724 20.7855 18.7349 20.8255C18.4646 21.1131 18.2512 21.3404 18.0745 21.897C18.0231 22.0587 17.9566 22.1336 17.8359 22.2695C17.7393 22.3782 17.619 22.5137 17.508 22.7036C17.3751 22.931 17.3312 23.15 17.296 23.326C17.2612 23.4991 17.2415 23.586 17.1736 23.6695C17.0188 23.8595 16.7302 24.1354 16.4339 24.3236C16.1585 24.4985 15.9977 24.5224 15.9429 24.5191C15.8804 24.4521 15.6539 24.1586 15.3118 23.143C15.2274 22.8924 15.1103 22.6346 14.9971 22.3853C14.7476 21.8357 14.4896 21.2673 14.6151 20.8789C14.6299 20.8331 14.6445 20.7883 14.659 20.7445C14.8595 20.1334 15.0487 19.5563 14.6981 18.7161C14.5913 18.4602 14.4214 18.2732 14.2715 18.1082C14.1746 18.0015 14.0647 17.8806 14.0478 17.811C14.0271 17.7261 14.0278 17.628 14.0286 17.5146C14.0305 17.2084 14.0336 16.7458 13.5737 16.3151C12.9253 15.7082 12.1692 15.8952 11.6688 16.0189C11.5151 16.0569 11.3699 16.0929 11.2412 16.108C10.4181 16.2045 9.68324 15.8939 9.22445 15.2555C8.74451 14.5877 8.67484 13.689 9.04269 12.9103C9.22076 12.5335 9.48976 12.2307 9.80125 11.8804C9.86927 11.8038 9.93795 11.7265 10.0066 11.6474C10.1209 11.5157 10.2466 11.3374 10.3796 11.1485C10.5384 10.9231 10.834 10.5036 10.9623 10.4238C11.2236 10.2768 11.8301 10.2553 12.273 10.2396Z" fill="black"/>
<path d="M21.9165 24.768C22.5142 24.6703 22.9635 24.0487 23.3306 22.8114L24.0198 20.4886C24.0504 20.3854 24.052 20.2757 24.0244 20.1716L23.7425 19.1091C23.6809 18.8771 23.484 18.7061 23.2457 18.6776C23.0071 18.6497 22.7757 18.769 22.6612 18.98C22.597 19.0984 22.5391 19.2237 22.4832 19.345C22.3892 19.5489 22.2919 19.7599 22.1907 19.8763C22.1339 19.9417 21.9879 20.0122 21.8468 20.0803C21.5095 20.243 21.0475 20.466 20.871 21.0286C20.7614 21.3776 20.8023 21.6537 20.8322 21.8553C20.858 22.03 20.864 22.0906 20.8172 22.2005L20.8113 22.2142C20.6248 22.6518 20.2778 23.4666 20.7644 24.1592C21.1116 24.6535 21.4766 24.7806 21.7602 24.7806C21.8157 24.7808 21.8681 24.7759 21.9165 24.768ZM21.7232 23.4858C21.6112 23.3263 21.7786 22.9335 21.8893 22.6735L21.8952 22.6598C22.0738 22.2406 22.0261 21.9187 21.9913 21.6836C21.969 21.5331 21.961 21.4684 21.989 21.3795C22.012 21.3065 22.1492 21.2356 22.3561 21.1357C22.4478 21.0914 22.5487 21.0427 22.6506 20.9838L22.2073 22.478C22.0202 23.1089 21.8546 23.4034 21.759 23.5339C21.7479 23.52 21.736 23.504 21.7232 23.4858Z" fill="black"/>
<path d="M15.7822 6.9496C15.4771 6.84272 15.1425 7.00321 15.0354 7.30854C14.9283 7.61393 15.089 7.94821 15.3943 8.05532L15.4338 8.06915C15.498 8.09165 15.5634 8.10231 15.6278 8.10231C15.8696 8.10231 16.096 7.95132 16.1807 7.7102C16.2878 7.40481 16.127 7.07054 15.8217 6.96343L15.7822 6.9496Z" fill="black"/>
</svg>
