<svg width="32" height="20" viewBox="0 0 32 20" fill="none" xmlns="http://www.w3.org/2000/svg">
<path d="M26.141 9.33443L25.3282 2.73114L23.8049 2.91864L23.8056 2.91758L20.8524 1.25565C20.5374 1.0784 20.1759 1.00128 19.816 1.03453L15.1532 1.46577C14.58 1.51877 14.0678 1.84583 13.7786 2.34358L10.4921 8.00031C10.2494 8.418 10.4399 8.95368 10.8919 9.12437L11.0263 9.17512C11.2849 9.27281 11.5507 9.32937 11.8164 9.35149L11.4 9.71418L10.5669 10.44L8.19731 12.4613C7.7755 12.8287 7.73168 13.4681 8.09912 13.8899L8.33949 14.1652C8.81137 14.7063 9.63268 14.7625 10.1748 14.2905L11.0804 15.3293C11.3749 15.6674 11.8062 15.817 12.2207 15.766C12.4697 15.7353 12.7127 15.6321 12.9157 15.4546L13.8203 16.4934C14.1158 16.8324 14.5471 16.981 14.9615 16.93C15.2106 16.8993 15.4537 16.797 15.6567 16.6196L16.1483 17.0445C16.6203 17.5865 17.4425 17.6426 17.9846 17.1706L18.653 16.5875L24.2714 12.2118L24.2775 12.2062L26.4942 12.204L26.141 9.33443Z" fill="#FFCDBE"/>
<path d="M23.7331 10.505L23.7271 10.5105L18.1086 14.8863L17.4403 15.4693C16.8982 15.9413 16.0759 15.8853 15.6039 15.3432L15.1123 14.9183C14.9093 15.0958 14.6662 15.1981 14.4172 15.2287C14.0027 15.2797 13.5715 15.1311 13.2759 14.7921L12.3713 13.7533C12.1683 13.9308 11.9253 14.034 11.6763 14.0647C11.2619 14.1157 10.8305 13.9662 10.536 13.628L9.63042 12.5893C9.1663 12.9934 8.49805 13.0092 8.01912 12.666C7.77349 13.0363 7.79312 13.5383 8.0993 13.8898L8.33968 14.1652C8.81155 14.7063 9.63286 14.7625 10.175 14.2905L11.0806 15.3292C11.375 15.6673 11.8064 15.8169 12.2208 15.7659C12.4699 15.7353 12.7128 15.632 12.9158 15.4545L13.8205 16.4934C14.116 16.8324 14.5473 16.981 14.9617 16.93C15.2108 16.8993 15.4538 16.797 15.6568 16.6196L16.1485 17.0445C16.6205 17.5865 17.4427 17.6426 17.9848 17.1706L18.6531 16.5875L24.2716 12.2118L24.2777 12.2062L26.4944 12.204L26.2492 10.2118L23.7331 10.505Z" fill="#F7C1B3"/>
<path d="M24.7562 13.3612L21.7459 10.7656L20.9088 10.0444L20.3098 9.52851L17.7344 7.30852L18.0318 4.77665C18.1324 3.92034 17.5934 3.11866 16.7624 2.88872L11.1483 1.33529C10.5543 1.17092 9.92651 1.44654 9.64552 1.9951L8.93952 3.37322L5.90903 3.16754L5.13278 9.77526L4.79541 12.6468L7.74527 12.843L7.7514 12.8486L13.914 18.1606L14.5856 18.74C15.1302 19.209 15.9522 19.1483 16.4212 18.6037L17.3199 17.5608C17.5239 17.7371 17.7675 17.838 18.0168 17.8674C18.4315 17.9161 18.862 17.7651 19.1556 17.4245L20.0545 16.3807C20.2584 16.557 20.502 16.6589 20.7512 16.6882C21.1659 16.7369 21.5965 16.585 21.889 16.2452L22.7888 15.2014C23.3335 15.6704 24.1545 15.6097 24.6234 15.0659L24.8623 14.7892C25.2274 14.3654 25.18 13.7263 24.7562 13.3612Z" fill="#E5966E"/>
<path d="M24.7562 13.3612L23.8393 12.5706C24.1373 12.9657 24.1312 13.5279 23.7949 13.9183L23.5413 14.212C23.0436 14.7892 22.1721 14.8537 21.5938 14.3558L20.6386 15.4638C20.328 15.8245 19.8709 15.9857 19.4307 15.934C19.1661 15.903 18.9076 15.7948 18.6911 15.6076L17.7368 16.7157C17.4251 17.0773 16.9682 17.2375 16.5279 17.1859C16.2634 17.1548 16.0047 17.0476 15.7882 16.8604L14.8341 17.9675C14.6543 18.1764 14.4254 18.317 14.1794 18.3895L14.5856 18.74C15.1303 19.209 15.9523 19.1484 16.4213 18.6037L17.32 17.5608C17.5239 17.7371 17.7676 17.838 18.0169 17.8674C18.4316 17.916 18.8621 17.7651 19.1557 17.4245L20.0546 16.3807C20.2585 16.557 20.5021 16.6589 20.7513 16.6882C21.166 16.7369 21.5966 16.585 21.8891 16.2452L22.7889 15.2014C23.3336 15.6704 24.1546 15.6097 24.6235 15.0659L24.8624 14.7892C25.2274 14.3654 25.1801 13.7262 24.7562 13.3612Z" fill="#D88460"/>
<path d="M7.89904 12.8363L7.54198 13.3078C7.15317 13.8213 7.25417 14.5527 7.7676 14.9416C8.28104 15.3304 9.01248 15.2294 9.40135 14.716L9.75842 14.2445C10.1472 13.731 10.0462 12.9996 9.53279 12.6107C9.01935 12.2219 8.28785 12.3229 7.89904 12.8363Z" fill="#FFCDBE"/>
<path d="M10.0738 13.8279L9.40135 14.7158C9.01254 15.2293 9.11354 15.9607 9.62698 16.3496C10.1404 16.7384 10.8719 16.6374 11.2607 16.124L11.9332 15.236C12.322 14.7226 12.221 13.9912 11.7075 13.6023C11.194 13.2135 10.4626 13.3145 10.0738 13.8279Z" fill="#FFCDBE"/>
<path d="M12.177 14.9138L11.2606 16.124C10.8718 16.6374 10.9728 17.3688 11.4862 17.7577C11.9997 18.1465 12.7311 18.0455 13.12 17.5321L14.0364 16.322C14.4252 15.8085 14.3242 15.0771 13.8108 14.6882C13.2974 14.2994 12.5659 14.4004 12.177 14.9138Z" fill="#FFCDBE"/>
<path d="M14.0896 16.2519L13.12 17.5322C12.7312 18.0456 12.8322 18.777 13.3456 19.1659C13.859 19.5547 14.5905 19.4537 14.9794 18.9403L15.949 17.66C16.3378 17.1465 16.2368 16.4151 15.7234 16.0262C15.2099 15.6374 14.4784 15.7384 14.0896 16.2519Z" fill="#FFCDBE"/>
<path d="M23.8057 2.91759L20.8526 1.25565C20.5376 1.0784 20.1761 1.00128 19.8162 1.03453L15.1533 1.46578C14.5801 1.51878 14.0679 1.84584 13.7787 2.34359L10.4922 8.00034C10.2495 8.41809 10.44 8.95371 10.892 9.1244L11.0264 9.17515C12.2311 9.63015 13.5916 9.24296 14.3761 8.2219L15.6353 6.58315C15.6353 6.58315 18.6622 10.0877 21.9947 5.99502" fill="#FFCDBE"/>
<path d="M29.9868 0.59729L31.5313 13.1442L27.9196 13.5889C27.2369 13.6729 26.6155 13.1877 26.5314 12.505L25.2912 2.42998C25.2072 1.74735 25.6924 1.12591 26.375 1.04185L29.9868 0.59729Z" fill="#1E2B46"/>
<path d="M27.8591 12.1728C27.1567 12.2593 26.5133 11.7959 26.3608 11.1198L26.5313 12.5049C26.6153 13.1876 27.2368 13.6727 27.9195 13.5887L31.5312 13.1441L31.3586 11.742L27.8591 12.1728Z" fill="#43AADC"/>
<path d="M2.01343 0.597656L0.468872 13.1447L4.08062 13.5893C4.76325 13.6733 5.38469 13.1881 5.46875 12.5055L6.709 2.43041C6.793 1.74778 6.30781 1.12634 5.62519 1.04228L2.01343 0.597656Z" fill="#43AADC"/>
<path d="M4.16562 12.1417L0.645622 11.7084L0.468872 13.1442L4.08062 13.5889C4.76325 13.6729 5.38468 13.1877 5.46875 12.505L5.59975 11.4408C5.31143 11.922 4.75831 12.2147 4.16562 12.1417Z" fill="#1EDEB7"/>
<path d="M29.0001 11.984C29.5006 11.984 29.9062 11.5783 29.9062 11.0779C29.9062 10.5774 29.5006 10.1718 29.0001 10.1718C28.4997 10.1718 28.094 10.5774 28.094 11.0779C28.094 11.5783 28.4997 11.984 29.0001 11.984Z" fill="#EBEEF2"/>
<path d="M2.94946 11.984C3.4499 11.984 3.85558 11.5783 3.85558 11.0779C3.85558 10.5774 3.4499 10.1718 2.94946 10.1718C2.44902 10.1718 2.04333 10.5774 2.04333 11.0779C2.04333 11.5783 2.44902 11.984 2.94946 11.984Z" fill="#EBEEF2"/>
<path d="M16.0064 15.6525C15.6248 15.3635 15.1562 15.268 14.7191 15.3495C14.6504 14.9353 14.4299 14.5691 14.0939 14.3146C13.7457 14.0509 13.3158 13.9386 12.8831 13.9983C12.7759 14.0131 12.6718 14.0381 12.5717 14.0726C12.4768 13.7473 12.2808 13.4485 11.9904 13.2286C11.5123 12.8665 10.8975 12.8085 10.3793 13.0216C10.2761 12.7111 10.0823 12.4388 9.81577 12.237C9.46765 11.9733 9.03752 11.8611 8.60502 11.9207C8.25421 11.9692 7.93584 12.126 7.68734 12.3692L5.9716 12.2552L7.02322 3.7125L8.90759 3.84056C8.91827 3.84125 8.9289 3.84162 8.93946 3.84162C9.11434 3.84162 9.2759 3.74387 9.35646 3.58662L10.0626 2.20869C10.2416 1.85988 10.6455 1.68257 11.0232 1.78713L12.0719 2.07713C12.3213 2.14594 12.5796 1.99975 12.6487 1.75026C12.7177 1.50076 12.5713 1.24251 12.3218 1.17351L11.2733 0.883571C10.4695 0.661072 9.60952 1.03832 9.22859 1.78088L8.66315 2.88419L7.13803 2.78056L7.17416 2.48707C7.28966 1.54901 6.62047 0.691947 5.68241 0.576448L2.07068 0.132074C1.8133 0.100574 1.5798 0.283136 1.54818 0.54001C1.51655 0.796947 1.69924 1.03088 1.95611 1.06251L5.56785 1.50713C5.77372 1.53244 5.95741 1.63644 6.08504 1.79994C6.21266 1.96344 6.26903 2.16688 6.24366 2.37275L5.00341 12.4477C4.9511 12.8726 4.56273 13.1756 4.13779 13.1236L0.526056 12.679C0.268807 12.6476 0.0351833 12.83 0.00355846 13.0869C-0.0280664 13.3438 0.15462 13.5778 0.411494 13.6094L4.02323 14.054C4.09398 14.0627 4.16429 14.067 4.23385 14.067C4.86698 14.067 5.43816 13.7152 5.7341 13.179L7.01766 13.2643C6.86422 13.5613 6.80541 13.8975 6.85203 14.2355C6.91178 14.668 7.13641 15.0515 7.48453 15.3151C7.77159 15.5326 8.11421 15.647 8.46821 15.647C8.54353 15.647 8.61934 15.6418 8.69527 15.6314C8.70015 15.6307 8.7049 15.6298 8.70971 15.629C8.71034 15.6339 8.71071 15.6387 8.71134 15.6436C8.77109 16.0761 8.99571 16.4596 9.34383 16.7233C9.63852 16.9464 9.98502 17.0542 10.329 17.0542C10.4096 17.0542 10.49 17.0476 10.5696 17.0359C10.6236 17.4564 10.8393 17.8558 11.2032 18.1314C11.4979 18.3546 11.8444 18.4623 12.1883 18.4623C12.2687 18.4623 12.3489 18.4558 12.4283 18.4441C12.4289 18.4493 12.4293 18.4546 12.43 18.4597C12.4898 18.8923 12.7144 19.2758 13.0626 19.5394C13.3496 19.7568 13.6923 19.8713 14.0462 19.8713C14.1216 19.8713 14.1974 19.8661 14.2733 19.8557C14.7059 19.7959 15.0893 19.5713 15.3529 19.2232L16.3226 17.9429C16.8669 17.2243 16.7251 16.1968 16.0064 15.6525ZM8.56709 14.7028C8.38265 14.7283 8.19915 14.6803 8.05065 14.5678C7.90215 14.4554 7.80634 14.2918 7.78084 14.1073C7.75534 13.9227 7.80328 13.7393 7.91578 13.5908L8.27284 13.1193C8.38528 12.9708 8.5489 12.875 8.7334 12.8495C8.91796 12.8241 9.10134 12.8719 9.2499 12.9844C9.3984 13.0968 9.49421 13.2605 9.51971 13.445C9.54521 13.6295 9.49727 13.8128 9.38483 13.9614L9.02771 14.4329C8.91521 14.5814 8.75165 14.6773 8.56709 14.7028ZM9.90996 15.9759C9.76146 15.8635 9.66565 15.6999 9.64015 15.5154C9.61465 15.3308 9.66258 15.1475 9.77508 14.9989L10.1321 14.5275L10.4475 14.111C10.5845 13.9301 10.7932 13.8349 11.0043 13.8349C11.151 13.8349 11.2988 13.8809 11.4245 13.9761C11.7311 14.2083 11.7916 14.6465 11.5595 14.9531L10.887 15.8411C10.6548 16.1476 10.2165 16.2081 9.90996 15.9759ZM11.7693 17.3841C11.6208 17.2716 11.525 17.108 11.4995 16.9234C11.474 16.739 11.5219 16.5556 11.6343 16.4072L12.3068 15.519L12.5508 15.1968C12.6633 15.0483 12.8269 14.9525 13.0114 14.927C13.1961 14.9016 13.3794 14.9495 13.5279 15.062C13.8344 15.294 13.8949 15.7321 13.6631 16.0386L12.7464 17.2491C12.5141 17.5555 12.0759 17.6163 11.7693 17.3841ZM15.5753 17.3769L14.6057 18.6572C14.4933 18.8057 14.3296 18.9016 14.1451 18.9271C13.9604 18.9525 13.7771 18.9046 13.6286 18.7922C13.4801 18.6797 13.3843 18.5161 13.3588 18.3316C13.3333 18.1471 13.3813 17.9637 13.4938 17.8151L14.4103 16.605L14.4634 16.5348C14.5759 16.3863 14.7395 16.2905 14.9241 16.265C15.1086 16.2397 15.292 16.2874 15.4406 16.3999C15.7469 16.632 15.8075 17.0704 15.5753 17.3769Z" fill="black"/>
<path d="M31.9966 13.0869C31.965 12.83 31.7313 12.6476 31.4741 12.6789L27.8624 13.1236C27.4369 13.1759 27.0491 12.8726 26.9968 12.4477L26.9598 12.147L26.9512 12.0774L25.7566 2.37273C25.7312 2.16685 25.7876 1.96348 25.9152 1.79992C26.0429 1.63642 26.2265 1.53242 26.4324 1.50711L30.0442 1.06248C30.3011 1.03086 30.4837 0.796922 30.4521 0.539986C30.4205 0.283112 30.1868 0.100675 29.9296 0.13205L26.3179 0.576673C25.4352 0.68536 24.7908 1.45067 24.814 2.32223L23.9032 2.43435L21.0828 0.847172C20.6834 0.622173 20.2307 0.525549 19.7735 0.567548L19.7707 0.567923L18.9218 0.646423C18.664 0.670236 18.4743 0.898547 18.4982 1.15636C18.522 1.41411 18.75 1.60342 19.0081 1.57992L19.8594 1.50117C20.1258 1.47654 20.3898 1.53292 20.6228 1.66404L23.547 3.30966C23.6385 3.37004 23.7499 3.39766 23.8625 3.38385L24.9204 3.25366L25.6963 9.55632L25.9646 11.7359L24.2773 11.7373C24.1648 11.7374 24.0562 11.7779 23.9712 11.8514L23.8407 11.953L19.6046 8.30202C20.5726 8.02371 21.4954 7.35052 22.3582 6.29096C22.5217 6.09021 22.4915 5.79496 22.2907 5.63146C22.09 5.46803 21.7947 5.49822 21.6313 5.69896C20.6669 6.88333 19.6529 7.49296 18.6174 7.51083C17.1088 7.53921 16.0004 6.28834 15.9902 6.27665C15.898 6.17002 15.7629 6.11102 15.622 6.11446C15.4812 6.11846 15.3496 6.18571 15.2637 6.2974L14.0045 7.93614C13.3411 8.79964 12.2109 9.12139 11.1921 8.73652L11.0577 8.6857C10.9396 8.64108 10.8915 8.54883 10.8734 8.49777C10.8552 8.4467 10.8342 8.34477 10.8976 8.23564L14.1841 2.57898C14.3967 2.2131 14.7752 1.97142 15.1965 1.93242L17.1423 1.75248C17.4001 1.72861 17.5898 1.50029 17.5659 1.24255C17.542 0.984797 17.3137 0.795235 17.056 0.818985L15.1102 0.998922C14.3873 1.0658 13.7381 1.48042 13.3734 2.10804L10.0869 7.76471C9.90192 8.0832 9.86655 8.46489 9.98999 8.81195C10.1134 9.15901 10.3819 9.43264 10.7264 9.56276L10.8608 9.61357C11.2573 9.76332 11.6659 9.83564 12.069 9.83564C13.0973 9.83557 14.0892 9.3647 14.7479 8.50739L15.6873 7.28477C16.1908 7.71864 17.13 8.36127 18.3288 8.4402L24.4504 13.7162C24.5604 13.811 24.627 13.943 24.6377 14.0879C24.6485 14.2327 24.6022 14.3732 24.5076 14.4831L24.269 14.7598C23.9693 15.1069 23.4425 15.1455 23.0947 14.8459C23.0753 14.8292 23.0546 14.8148 23.0334 14.8018L21.4443 13.4316C21.2484 13.2626 20.9523 13.2844 20.7832 13.4805C20.6141 13.6766 20.6361 13.9726 20.8321 14.1416L22.1235 15.2551L21.5344 15.9387C21.3534 16.1487 21.0811 16.2547 20.8061 16.2224C20.6416 16.203 20.4875 16.135 20.3606 16.0255C20.3584 16.0236 20.3559 16.022 20.3537 16.0201L18.8771 14.747C18.6811 14.578 18.3851 14.5999 18.216 14.7959C18.047 14.992 18.0689 15.288 18.265 15.4571L19.3933 16.43L18.8008 17.1182C18.6197 17.3282 18.3467 17.4342 18.0717 17.4019C17.8145 17.3715 17.5816 17.5556 17.5515 17.8127C17.5213 18.0698 17.7051 18.3027 17.9623 18.3329C18.0317 18.341 18.101 18.3451 18.17 18.3451C18.6818 18.3451 19.1718 18.1234 19.511 17.7301L20.1445 16.9944C20.3176 17.0769 20.5036 17.1309 20.6966 17.1535C21.2816 17.2223 21.8599 16.997 22.2446 16.5509L22.8791 15.8144C23.5809 16.1473 24.4476 15.9876 24.9789 15.3722L25.2177 15.0951C25.476 14.7953 25.602 14.4129 25.5727 14.0183C25.5434 13.6237 25.3621 13.2641 25.0625 13.0061L24.6777 12.6745L26.084 12.6733C26.2377 13.4833 26.9505 14.067 27.7662 14.067C27.8357 14.067 27.9062 14.0627 27.9769 14.0541L31.5886 13.6094C31.8455 13.5777 32.0282 13.3439 31.9966 13.0869Z" fill="black"/>
<path d="M29.0002 9.703C28.2421 9.703 27.6252 10.3198 27.6252 11.0779C27.6252 11.836 28.2421 12.4528 29.0002 12.4528C29.7583 12.4528 30.3751 11.836 30.3751 11.0779C30.3751 10.3198 29.7583 9.703 29.0002 9.703ZM29.0002 11.5153C28.759 11.5153 28.5627 11.3191 28.5627 11.0779C28.5627 10.8367 28.759 10.6405 29.0002 10.6405C29.2414 10.6405 29.4376 10.8367 29.4376 11.0779C29.4376 11.3191 29.2414 11.5153 29.0002 11.5153Z" fill="black"/>
<path d="M4.32434 11.0779C4.32434 10.3198 3.70759 9.703 2.94946 9.703C2.19134 9.703 1.57458 10.3198 1.57458 11.0779C1.57458 11.836 2.19134 12.4528 2.94946 12.4528C3.70759 12.4528 4.32434 11.836 4.32434 11.0779ZM2.51208 11.0779C2.51208 10.8367 2.70827 10.6405 2.94946 10.6405C3.19065 10.6405 3.38683 10.8367 3.38683 11.0779C3.38683 11.3191 3.19065 11.5153 2.94946 11.5153C2.70827 11.5153 2.51208 11.3191 2.51208 11.0779Z" fill="black"/>
</svg>
