<svg width="30" height="30" viewBox="0 0 30 30" fill="none" xmlns="http://www.w3.org/2000/svg">
<path d="M13.26 17.4822C13.4 17.4828 13.5401 17.487 13.6808 17.4952L14.3137 17.5331L16.8368 15.0016C17.1787 14.6585 17.646 14.4823 18.1158 14.4823C18.4953 14.4823 18.8766 14.5976 19.1956 14.8318C19.8756 15.331 20.057 16.2194 19.6203 16.9156L16.1167 22.5062C15.6233 23.2929 15.014 24.0062 14.3105 24.6272C13.607 25.2483 12.8086 25.7771 11.9376 26.1947V28.9612C11.9376 29.29 11.6507 29.5566 11.2967 29.5566H2.3403C1.98631 29.5566 1.69936 29.29 1.69936 28.9612V26.1822C1.69936 26.0681 1.68026 25.9557 1.6427 25.8486C1.60577 25.7416 1.55038 25.6399 1.47844 25.547C0.827767 24.7089 0.4776 23.701 0.4776 22.6671V9.673C0.4776 9.26311 0.656504 8.89225 0.94555 8.62372C1.23523 8.35519 1.63442 8.18899 2.07563 8.18899C2.95806 8.18899 3.67303 8.85322 3.67303 9.673V8.18662C3.67303 7.77673 3.85194 7.40588 4.14098 7.13676C4.43003 6.86823 4.82986 6.70202 5.27107 6.70202C6.15349 6.70202 6.86847 7.36684 6.86847 8.18662V6.4122C6.86847 6.00231 7.04737 5.63145 7.33642 5.36233C7.63221 5.08813 8.04229 4.92062 8.49464 4.92784C9.37184 4.94185 10.0639 5.63009 10.0639 6.44515V7.32425C10.0639 6.91436 10.2428 6.54351 10.5318 6.27498C10.8276 6.00018 11.2394 5.83256 11.6929 5.84054C12.5694 5.85598 13.26 6.5441 13.26 7.3585V17.4822Z" fill="#FFE0D1"/>
<path d="M13.26 17.4822C13.4 17.4828 13.5401 17.487 13.6808 17.4952L14.3137 17.5331L16.8368 15.0016C17.1787 14.6585 17.646 14.4823 18.1158 14.4823C18.4953 14.4823 18.8766 14.5976 19.1956 14.8318C19.8756 15.331 20.057 16.2194 19.6203 16.9156L16.1167 22.5062C15.6233 23.2929 15.014 24.0062 14.3105 24.6272C13.607 25.2483 12.8086 25.7771 11.9376 26.1947V28.9612C11.9376 29.29 11.6507 29.5566 11.2967 29.5566H2.3403C1.98631 29.5566 1.69936 29.29 1.69936 28.9612V26.1822C1.69936 26.0681 1.68026 25.9557 1.6427 25.8486C1.60577 25.7416 1.55038 25.6399 1.47844 25.547C0.827767 24.7089 0.4776 23.701 0.4776 22.6671V9.673C0.4776 9.26311 0.656504 8.89225 0.94555 8.62372C1.23523 8.35519 1.63442 8.18899 2.07563 8.18899C2.95806 8.18899 3.67303 8.85322 3.67303 9.673V8.18662C3.67303 7.77673 3.85194 7.40588 4.14098 7.13676C4.43003 6.86823 4.82986 6.70202 5.27107 6.70202C6.15349 6.70202 6.86847 7.36684 6.86847 8.18662V6.4122C6.86847 6.00231 7.04737 5.63145 7.33642 5.36233C7.63221 5.08813 8.04229 4.92062 8.49464 4.92784C9.37184 4.94185 10.0639 5.63009 10.0639 6.44515V7.32425C10.0639 6.91436 10.2428 6.54351 10.5318 6.27498C10.8276 6.00018 11.2394 5.83256 11.6929 5.84054C12.5694 5.85598 13.26 6.5441 13.26 7.3585V17.4822Z" fill="#FFE0D1"/>
<path d="M4.00626 28.4364C3.65228 28.4364 3.36533 28.1778 3.36533 27.8588V25.1631C3.36533 25.0524 3.34623 24.9434 3.30867 24.8395C3.27174 24.7356 3.21635 24.637 3.14441 24.5469C2.49373 23.7339 2.14357 22.7562 2.14357 21.7533V9.14846C2.14357 8.80493 2.2772 8.48914 2.49997 8.24173C2.36481 8.20719 2.2227 8.18909 2.07563 8.18909C1.63442 8.18909 1.23523 8.35529 0.94555 8.62382C0.656504 8.89235 0.4776 9.26321 0.4776 9.6731V22.6672C0.4776 23.7011 0.827767 24.709 1.47844 25.5471C1.55038 25.6399 1.60577 25.7417 1.6427 25.8487C1.68026 25.9558 1.69936 26.0682 1.69936 26.1823V28.9613C1.69936 29.2901 1.98631 29.5567 2.3403 29.5567H11.2967C11.6507 29.5567 11.9376 29.2901 11.9376 28.9613V28.4364H4.00626Z" fill="#FFD1C2"/>
<path d="M13.6036 25.1751V25.1949C13.6298 25.1756 13.656 25.1565 13.6821 25.137C13.6558 25.1495 13.6301 25.1628 13.6036 25.1751V25.1751Z" fill="#FCF0B6"/>
<path d="M13.376 17.4843C13.3374 17.4836 13.2986 17.4824 13.2599 17.4823V16.2993H13.2439C11.342 16.2993 9.49335 16.9269 8.03844 18.0667L7.06981 18.8255L5.28772 20.3824C4.69976 20.8961 4.36633 21.6126 4.36633 22.3625V23.4312C4.36633 24.3554 5.17274 25.1045 6.1674 25.1045H13.3759V17.4843H13.376Z" fill="#FFD1C2"/>
<path d="M19.1956 14.8319C19.8756 15.3311 20.057 16.2195 19.6203 16.9156L16.1167 22.5062C15.6233 23.2929 15.014 24.0062 14.3105 24.6273C13.607 25.2483 12.8086 25.7771 11.9376 26.1947V26.4987H5.63971V23.4428C5.63971 22.3299 6.13453 21.2666 7.00714 20.5042L7.91707 19.7092L8.85933 18.971C10.0938 18.0039 11.6549 17.4787 13.26 17.4823C13.4 17.4828 13.5401 17.487 13.6808 17.4953L14.3137 17.5331L16.8368 15.0016C17.1787 14.6586 17.646 14.4823 18.1158 14.4823C18.4953 14.4823 18.8766 14.5976 19.1956 14.8319V14.8319Z" fill="#FFE0D1"/>
<path opacity="0.3" d="M27.2998 0.443604H17.3897C16.162 0.443604 15.1668 1.36814 15.1668 2.50868V7.93108C15.1668 9.07156 16.162 9.99615 17.3897 9.99615H17.9681V10.7947C17.9681 11.1092 18.3408 11.3008 18.6277 11.1336L20.579 9.99609H27.2998C28.5275 9.99609 29.5227 9.07156 29.5227 7.93102V2.50868C29.5226 1.3682 28.5274 0.443604 27.2998 0.443604Z" fill="#43AADC"/>
<path d="M19.553 8.44832C18.7913 8.44832 18.1738 7.87465 18.1738 7.16701V1.1096C18.1738 0.86568 18.2472 0.637666 18.3746 0.443604H17.3897C16.1621 0.443604 15.1669 1.36814 15.1669 2.50868V7.93108C15.1669 9.07156 16.162 9.99615 17.3897 9.99615H17.9682V10.7947C17.9682 11.1092 18.3409 11.3008 18.6277 11.1336L20.579 9.99609H27.2999C28.3352 9.99609 29.2052 9.33849 29.4524 8.44832H19.553Z" fill="#43AADC"/>
<path d="M11.3533 7.32434C11.3533 6.91445 11.5322 6.5436 11.8212 6.27507C11.96 6.14612 12.1141 6.03948 12.2962 5.96484C12.099 5.88392 11.8915 5.84033 11.662 5.84033C11.2208 5.84033 10.821 6.00654 10.5319 6.27507C10.2429 6.5436 10.064 6.91445 10.064 7.32434V14.8278C10.7761 14.8278 11.3533 14.2915 11.3533 13.6299V7.32434H11.3533Z" fill="#FFD1C2"/>
<path d="M4.95999 8.42322C4.95999 8.01333 5.1389 7.64247 5.42794 7.37335C5.63562 7.18041 5.9001 7.03988 6.19634 6.97623C5.93511 6.80323 5.61633 6.70203 5.27107 6.70203C4.82986 6.70203 4.43003 6.86823 4.14098 7.13676C3.85194 7.40588 3.67303 7.77674 3.67303 8.18663V9.673V14.8277C4.38375 14.8277 4.95993 14.2924 4.95993 13.6322V8.42322H4.95999Z" fill="#FFD1C2"/>
<path d="M8.18026 6.52655C8.18026 6.11665 8.35916 5.7458 8.64821 5.47668C8.81826 5.31905 9.01875 5.1978 9.25062 5.12363C9.01722 4.99959 8.75466 4.92761 8.4665 4.92761C8.02529 4.92761 7.6261 5.09382 7.33642 5.36235C7.04737 5.63147 6.86847 6.00232 6.86847 6.41221V8.18664V14.8277C7.59293 14.8277 8.18026 14.2821 8.18026 13.609V6.52655Z" fill="#FFD1C2"/>
<path d="M19.4921 14.4838C18.5891 13.8201 17.2689 13.9151 16.4865 14.7L14.1174 17.0767L13.7372 17.0541V7.32445C13.7372 6.26134 12.8062 5.39648 11.6619 5.39648C11.199 5.39648 10.771 5.53814 10.4254 5.7771C10.1422 5.02521 9.37123 4.48425 8.4664 4.48425C7.32212 4.48425 6.39112 5.34911 6.39112 6.41222V6.56506C6.06769 6.37153 5.68327 6.25873 5.27084 6.25873C4.17437 6.25873 3.27431 7.05303 3.20097 8.05469C2.87646 7.8592 2.49007 7.74517 2.07528 7.74517C0.930998 7.74517 0 8.61002 0 9.67314V16.1239C0 16.3689 0.213793 16.5675 0.4775 16.5675C0.741208 16.5675 0.955 16.3689 0.955 16.1239V9.67314C0.955 9.09929 1.45759 8.63238 2.07528 8.63238C2.69297 8.63238 3.19556 9.09929 3.19556 9.67314V15.0534C3.19556 15.2984 3.40935 15.497 3.67306 15.497C3.93677 15.497 4.15056 15.2984 4.15056 15.0534V8.1867C4.15056 7.61286 4.65314 7.14595 5.27084 7.14595C5.8886 7.14595 6.39112 7.61286 6.39112 8.1867V15.1235C6.39112 15.3685 6.60491 15.5671 6.86862 15.5671C7.13233 15.5671 7.34612 15.3685 7.34612 15.1235V6.41222C7.34612 5.83837 7.8487 5.37146 8.4664 5.37146C9.08409 5.37146 9.58668 5.83837 9.58668 6.41222V15.0643C9.58668 15.3094 9.80047 15.5079 10.0642 15.5079C10.3279 15.5079 10.5417 15.3094 10.5417 15.0643V7.32445C10.5417 6.7506 11.0443 6.28369 11.662 6.28369C12.2796 6.28369 12.7822 6.7506 12.7822 7.32445V17.0518C11.2315 17.1414 9.75628 17.688 8.55177 18.6318L7.60938 19.3701C7.40775 19.5281 7.38215 19.8079 7.55221 19.9952C7.7222 20.1825 8.02353 20.2063 8.22504 20.0483L9.16749 19.31C10.4214 18.3275 12.0133 17.8403 13.6504 17.9379L14.2829 17.9756C14.4264 17.9842 14.5662 17.9323 14.6638 17.8343L17.1873 15.3027C17.6331 14.8556 18.3853 14.8016 18.8996 15.1796C19.39 15.54 19.5225 16.1902 19.2079 16.6921L15.7039 22.2827C14.7614 23.7865 13.3834 25.0029 11.7189 25.8006C11.56 25.8766 11.4603 26.0288 11.4603 26.1948V29.5564C11.4603 29.8014 11.6741 30 11.9378 30C12.2015 30 12.4153 29.8014 12.4153 29.5564V26.461C14.1259 25.5861 15.5443 24.3006 16.5292 22.7292L20.0332 17.1386C20.5854 16.2576 20.3528 15.1163 19.4921 14.4838V14.4838Z" fill="black"/>
<path d="M0.955183 22.6671V18.0144C0.955183 17.7694 0.741391 17.5708 0.477683 17.5708C0.213976 17.5708 0.000183105 17.7694 0.000183105 18.0144V22.6671C0.000183105 23.8012 0.377536 24.8868 1.09156 25.8067C1.17693 25.9167 1.22207 26.0466 1.22207 26.1823V29.5564C1.22207 29.8014 1.43587 30 1.69957 30C1.96328 30 2.17707 29.8014 2.17707 29.5564V26.1823C2.17707 25.8592 2.06961 25.5499 1.86619 25.2878C1.27014 24.52 0.955183 23.6137 0.955183 22.6671Z" fill="black"/>
<path d="M27.2998 0H17.3897C15.9007 0 14.6894 1.1254 14.6894 2.50868V4.52028C14.6894 4.76533 14.9031 4.96389 15.1669 4.96389C15.4307 4.96389 15.6444 4.76533 15.6444 4.52028V2.50868C15.6444 1.61461 16.4274 0.887212 17.3897 0.887212H27.2998C28.2621 0.887212 29.0451 1.61461 29.0451 2.50868V7.93108C29.0451 8.82515 28.2621 9.55255 27.2998 9.55255H20.5789C20.4892 9.55255 20.4012 9.57603 20.3252 9.62039L18.4457 10.7159V9.9961C18.4457 9.75105 18.2319 9.55249 17.9682 9.55249H17.3897C16.4274 9.55249 15.6444 8.82509 15.6444 7.93102V6.41075C15.6444 6.16571 15.4307 5.96715 15.1669 5.96715C14.9031 5.96715 14.6894 6.16571 14.6894 6.41075V7.93102C14.6894 9.3143 15.9007 10.4397 17.3897 10.4397H17.4907V10.7946C17.4907 11.1015 17.6702 11.3844 17.9592 11.5329C18.0961 11.6032 18.2475 11.6383 18.3987 11.6382C18.5666 11.6382 18.7342 11.5951 18.8814 11.5092L20.7163 10.4396H27.2997C28.7887 10.4396 30 9.31424 30 7.93096V2.50868C30.0001 1.1254 28.7888 0 27.2998 0V0Z" fill="black"/>
<path d="M22.8222 5.68937C23.2792 5.59941 23.7029 5.38222 24.0283 5.06383C24.4711 4.63058 24.6966 4.06276 24.6632 3.46502C24.6005 2.34246 23.6031 1.44537 22.3924 1.42271C22.3765 1.42236 22.3607 1.42224 22.3449 1.42224C21.1896 1.42224 20.2055 2.21328 20.0453 3.27912C20.0305 3.37813 20.0229 3.47909 20.0229 3.57917C20.0229 3.82422 20.2367 4.02278 20.5004 4.02278C20.7642 4.02278 20.9779 3.82422 20.9779 3.57917C20.9779 3.51979 20.9824 3.45993 20.9911 3.40155C21.0853 2.77465 21.6648 2.30945 22.3452 2.30945C22.3545 2.30945 22.3638 2.30951 22.3731 2.30969C23.0856 2.32306 23.6726 2.85071 23.7094 3.51103C23.7292 3.86343 23.5964 4.19791 23.3357 4.45302C23.0749 4.70824 22.7229 4.84883 22.3447 4.84883C22.0809 4.84883 21.8672 5.04739 21.8672 5.29244V6.41068C21.8672 6.65573 22.0809 6.85428 22.3447 6.85428C22.6085 6.85428 22.8222 6.65573 22.8222 6.41068V5.68937Z" fill="black"/>
<path d="M22.3447 7.53223C22.0809 7.53223 21.8672 7.73078 21.8672 7.97583V8.32859C21.8672 8.57364 22.0809 8.7722 22.3447 8.7722C22.6085 8.7722 22.8222 8.57364 22.8222 8.32859V7.97583C22.8222 7.73078 22.6085 7.53223 22.3447 7.53223V7.53223Z" fill="black"/>
</svg>
