<svg width="30" height="30" viewBox="0 0 30 30" fill="none" xmlns="http://www.w3.org/2000/svg">
<path d="M14.0437 11.7188H14.0391C13.5844 12.7687 12.7547 13.6125 11.7188 14.0953L11.8078 14.5312H17.2453V17.2078L17.2406 17.2125C17.6062 17.4422 17.9344 17.7375 18.2109 18.0844C18.2859 18.1781 18.3563 18.2719 18.4219 18.3703C18.8766 19.05 19.1203 19.8469 19.1203 20.6719V21.0938V23.9062V26.7188H28.4953V18.2812V11.7188H14.0437Z" fill="#EAF5FA"/>
<path d="M17.3438 14.5312V17.2078L17.3391 17.2125C16.8844 16.9031 16.3688 16.6969 15.8203 16.5984L13.4906 16.1766L12.1875 15.9375L11.9062 14.5312H17.3438Z" fill="#1E2B46"/>
<path d="M19.2188 21.0938H22.0312V23.9062H19.2188V21.0938Z" fill="#E64C49"/>
<path d="M23.9062 21.0938H26.7188V23.9062H23.9062V21.0938Z" fill="#E64C49"/>
<path d="M4.21875 28.5937H0.46875V20.6718C0.46875 19.7296 0.7875 18.8203 1.37813 18.0843C2.00156 17.3062 2.88281 16.7765 3.86719 16.5984L6.19688 16.1765L7.5 19.2187L8.48906 18.4312L8.90625 20.1562L7.5 28.5937H4.21875Z" fill="#EAF5FA"/>
<path d="M15.4688 28.5937H12.1875L10.7812 20.1562L11.1984 18.4312L12.1875 19.2187L13.4906 16.1765L15.8203 16.5984C16.3688 16.6968 16.8844 16.9031 17.3391 17.2125C17.7047 17.4421 18.0328 17.7375 18.3094 18.0843C18.3844 18.1781 18.4547 18.2718 18.5203 18.3703C18.975 19.05 19.2188 19.8468 19.2188 20.6718V21.0937V23.9062V26.7187V28.5937H15.4688Z" fill="#EAF5FA"/>
<path d="M28.5938 5.15625V11.7188H14.1422H14.1375C14.2688 11.4234 14.3719 11.1094 14.4375 10.7812H15.0141C15.4031 10.7812 15.7547 10.6219 16.0078 10.3688C16.2656 10.1156 16.4203 9.76406 16.4203 9.375C16.4203 8.95781 16.2422 8.58281 15.9516 8.33438L15.9563 8.32969L16.0172 7.96875H20.1563C21.0141 9.10781 22.3734 9.84375 23.9063 9.84375C26.4938 9.84375 28.5938 7.74375 28.5938 5.15625Z" fill="#1EDEB7"/>
<path d="M23.9062 0.46875C26.4938 0.46875 28.5938 2.56875 28.5938 5.15625C28.5938 7.74375 26.4938 9.84375 23.9062 9.84375C22.3734 9.84375 21.0141 9.10781 20.1562 7.96875C19.5703 7.18594 19.2188 6.21094 19.2188 5.15625C19.2188 2.56875 21.3187 0.46875 23.9062 0.46875Z" fill="#43AADC"/>
<path d="M16.4062 5.23125C16.4062 5.49375 16.3828 5.75625 16.3406 6.01406L16.0172 7.96875L15.9563 8.32969L15.9516 8.33438C15.7031 8.10469 15.375 7.96875 15.0141 7.96875H14.4516H14.4469C14.2594 7.42031 13.7391 7.03125 13.125 7.03125H10.7672C10.0312 7.03125 9.31406 6.85781 8.67188 6.53437C8.02969 6.21562 7.4625 5.74687 7.01719 5.15625C6.09844 5.85 5.475 6.85313 5.25 7.96875H4.70156C4.32656 7.96875 3.98438 8.11875 3.73594 8.35312L3.34688 6.01406C3.30469 5.75625 3.28125 5.49375 3.28125 5.23125C3.28125 3.91875 3.81562 2.72813 4.67812 1.86563C5.54062 1.00313 6.73125 0.46875 8.04375 0.46875H11.6438C14.2734 0.46875 16.4062 2.60156 16.4062 5.23125Z" fill="#828282"/>
<path d="M15.9516 8.33438C16.2422 8.58281 16.4203 8.95781 16.4203 9.375C16.4203 9.76406 16.2656 10.1156 16.0078 10.3688C15.7547 10.6219 15.4031 10.7812 15.0141 10.7812H14.4375C14.4984 10.4813 14.5313 10.1672 14.5313 9.84375V8.4375C14.5313 8.27344 14.5031 8.11406 14.4469 7.96875H14.4516H15.0141C15.375 7.96875 15.7031 8.10469 15.9516 8.33438Z" fill="#E0E0E0"/>
<path d="M14.5312 8.4375V9.84375C14.5312 10.1672 14.4984 10.4812 14.4375 10.7812C14.3719 11.1094 14.2688 11.4234 14.1375 11.7188C13.6828 12.7688 12.8531 13.6125 11.8172 14.0953C11.2172 14.3766 10.5516 14.5312 9.84375 14.5312C9.13594 14.5312 8.47031 14.3766 7.87031 14.0953C7.36875 13.8609 6.91406 13.5422 6.52969 13.1578C5.89219 12.5203 5.4375 11.7 5.25 10.7812C5.18906 10.4812 5.15625 10.1672 5.15625 9.84375V8.89687C5.15625 8.58281 5.18906 8.26875 5.25 7.96875C5.475 6.85312 6.09844 5.85 7.01719 5.15625C7.4625 5.74687 8.02969 6.21562 8.67188 6.53437C9.31406 6.85781 10.0312 7.03125 10.7672 7.03125H13.125C13.7391 7.03125 14.2594 7.42031 14.4469 7.96875C14.5031 8.11406 14.5312 8.27344 14.5312 8.4375Z" fill="#E0E0E0"/>
<path d="M12.1875 15.9375L13.4906 16.1766L12.1875 19.2188L11.1984 18.4312L9.84375 17.3438L12.1875 15.9375Z" fill="#EAF5FA"/>
<path d="M11.9062 14.5312L12.1875 15.9374L9.84375 17.3437L7.5 15.9374L7.87031 14.0952C8.47031 14.3765 9.13594 14.5312 9.84375 14.5312C10.5516 14.5312 11.2172 14.3765 11.8172 14.0952L11.9062 14.5312Z" fill="#E0E0E0"/>
<path d="M10.7812 20.1562L12.1875 28.5938H7.5L8.90625 20.1562H10.7812Z" fill="#43AADC"/>
<path d="M9.84376 17.3438L11.1984 18.4312L10.7813 20.1562H8.90626L8.48907 18.4312L9.84376 17.3438Z" fill="#43AADC"/>
<path d="M9.84375 17.3438L8.48906 18.4312L7.5 19.2188L6.19687 16.1766L7.5 15.9375L9.84375 17.3438Z" fill="#EAF5FA"/>
<path d="M4.70157 7.96875H5.25001C5.18907 8.26875 5.15626 8.58281 5.15626 8.89687V9.84375C5.15626 10.1672 5.18907 10.4813 5.25001 10.7812H4.70157C4.31251 10.7812 3.96094 10.6219 3.70782 10.3688C3.45001 10.1156 3.29532 9.76406 3.29532 9.375C3.29532 8.97187 3.46407 8.61094 3.73594 8.35312C3.98438 8.11875 4.32657 7.96875 4.70157 7.96875Z" fill="#E0E0E0"/>
<path d="M26.6006 3.59304L25.8994 2.9696L22.4798 6.8171L21.4251 5.76241L20.7623 6.42522L22.5201 8.18303L26.6006 3.59304Z" fill="#1E2B46"/>
<path d="M29.0625 5.15625C29.0625 2.31328 26.7492 0 23.9062 0C21.0633 0 18.75 2.31328 18.75 5.15625C18.75 6.00047 18.9581 6.79594 19.3191 7.5H16.5689L16.8037 6.09094C16.8511 5.80688 16.875 5.51766 16.875 5.23078C16.875 2.34656 14.5284 0 11.6442 0H8.04328C5.15906 0 2.8125 2.34656 2.8125 5.23078C2.8125 5.51719 2.83641 5.80688 2.88375 6.09094L3.23813 8.21766C2.98453 8.53734 2.82703 8.93625 2.82703 9.375C2.82703 10.4091 3.66797 11.25 4.70203 11.25H4.88766C5.265 12.5775 6.15844 13.688 7.34016 14.3475L7.10297 15.5334L3.78422 16.1367C2.69016 16.3359 1.70484 16.9237 1.00969 17.7919C0.358594 18.6056 0 19.6284 0 20.6709V29.0625H19.6875V27.1875H29.0625V5.15625ZM23.9062 0.9375C26.2322 0.9375 28.125 2.83031 28.125 5.15625C28.125 7.48219 26.2322 9.375 23.9062 9.375C21.5803 9.375 19.6875 7.48219 19.6875 5.15625C19.6875 2.83031 21.5803 0.9375 23.9062 0.9375ZM23.9062 10.3125C25.65 10.3125 27.1912 9.44016 28.125 8.11172V11.25H15.0145C16.0486 11.25 16.8895 10.4091 16.8895 9.375C16.8895 9.03187 16.7902 8.71453 16.6289 8.4375H19.9322C20.8786 9.58172 22.3088 10.3125 23.9062 10.3125ZM15 9.84375V8.4375H15.0145C15.5316 8.4375 15.952 8.85797 15.952 9.375C15.952 9.89203 15.5316 10.3125 15.0145 10.3125H14.9766C14.9902 10.1578 15 10.0022 15 9.84375ZM8.04328 0.9375H11.6442C14.0114 0.9375 15.9375 2.86359 15.9375 5.23078C15.9375 5.46609 15.9178 5.70375 15.8789 5.93672L15.6009 7.60312C15.4158 7.54172 15.2208 7.5 15.0145 7.5H14.7394C14.4141 6.94219 13.8159 6.5625 13.125 6.5625H10.7667C9.44578 6.5625 8.18437 5.93156 7.39172 4.875L7.10953 4.49859L6.73406 4.78219C5.83219 5.46375 5.19375 6.42938 4.89 7.5H4.70156C4.48547 7.5 4.28063 7.54406 4.0875 7.61203L3.80812 5.93719C3.76969 5.70375 3.75 5.46609 3.75 5.23078C3.75 2.86359 5.67609 0.9375 8.04328 0.9375ZM4.70203 10.3125C4.185 10.3125 3.76453 9.89203 3.76453 9.375C3.76453 8.85797 4.185 8.4375 4.70203 8.4375H4.71469C4.70062 8.58937 4.6875 8.74125 4.6875 8.89453V9.84375C4.6875 10.0022 4.69734 10.1578 4.71141 10.3125H4.70203ZM5.625 9.84375V8.89453C5.625 7.73016 6.11625 6.60984 6.95766 5.81859C7.92797 6.87937 9.31828 7.5 10.7667 7.5H13.125C13.642 7.5 14.0625 7.92047 14.0625 8.4375V9.84375C14.0625 12.1697 12.1697 14.0625 9.84375 14.0625C7.51781 14.0625 5.625 12.1697 5.625 9.84375ZM16.875 16.432C16.5642 16.3003 16.2398 16.1981 15.9033 16.1372L12.5845 15.5334L12.4781 15H16.875V16.432ZM9.30328 20.625H10.3842L11.6344 28.125H8.05313L9.30328 20.625ZM10.4128 19.6875H9.27469L9.01266 18.6089L9.84375 17.9442L10.6744 18.6089L10.4128 19.6875ZM10.6631 17.3986L12.2775 16.4302L12.8297 16.5305L11.9995 18.4678L10.6631 17.3986ZM9.84375 15C10.4119 15 10.957 14.9039 11.4689 14.7337L11.6634 15.7055L9.84375 16.7972L8.02453 15.7055L8.21906 14.7337C8.73047 14.9039 9.27563 15 9.84375 15ZM7.41 16.4302L9.02437 17.3986L7.68797 18.4678L6.85781 16.5305L7.41 16.4302ZM0.9375 20.6709C0.9375 19.8408 1.22297 19.0261 1.74188 18.3778C2.29547 17.6855 3.08016 17.2172 3.95203 17.0592L5.91188 16.703L7.31203 19.9697L8.20547 19.2553L8.42859 20.1741L7.10297 28.125H4.6875V21.5625H3.75V28.125H0.9375V20.6709ZM18.75 28.125H15.9375V21.5625H15V28.125H12.5845L11.2594 20.1736L11.4825 19.2548L12.3759 19.9692L13.7761 16.7025L15.7359 17.0592C16.6073 17.2172 17.3925 17.6855 17.9461 18.3778C18.4645 19.0261 18.75 19.8403 18.75 20.6709V28.125ZM19.6875 21.5625H21.5625V23.4375H19.6875V21.5625ZM19.6875 26.25V24.375H22.5V20.625H19.6856C19.6753 19.5984 19.3195 18.5939 18.6778 17.7919C18.4252 17.4764 18.1331 17.1989 17.8125 16.9627V14.0625H12.7992C13.4845 13.5811 14.0461 12.9375 14.4309 12.1875H28.125V26.25H19.6875Z" fill="#1E2B46"/>
<path d="M23.4375 24.375H27.1875V20.625H23.4375V24.375ZM24.375 21.5625H26.25V23.4375H24.375V21.5625Z" fill="#1E2B46"/>
<path d="M19.6875 14.0625H27.1875V15H19.6875V14.0625Z" fill="#1E2B46"/>
<path d="M19.6875 15.9375H27.1875V16.875H19.6875V15.9375Z" fill="#1E2B46"/>
<path d="M19.6875 17.8125H23.4375V18.75H19.6875V17.8125Z" fill="#1E2B46"/>
<path d="M24.375 17.8125H25.3125V18.75H24.375V17.8125Z" fill="#1E2B46"/>
<path d="M26.25 17.8125H27.1875V18.75H26.25V17.8125Z" fill="#1E2B46"/>
</svg>
