<svg width="41" height="40" viewBox="0 0 41 40" fill="none" xmlns="http://www.w3.org/2000/svg">
<path d="M16.423 25.9299C13.1601 25.9299 10.8311 23.8579 9.13439 22.3447C8.06169 21.3862 7.13583 20.5623 6.38942 20.5583H5.5329L5.58184 19.7017C5.99501 12.3434 12.0792 6.58628 19.4494 6.58057C19.7378 6.58057 20.0233 6.58872 20.3059 6.60504H20.5955L20.8076 6.80082C23.0958 8.9095 23.1406 11.2466 20.9463 13.7346C20.0111 14.7429 19.0052 15.6834 17.9362 16.5489C16.5209 17.7725 15.1831 18.8901 14.7304 19.9098C14.4909 20.3127 14.4832 20.8128 14.71 21.2231C14.9873 21.7207 15.6521 22.2101 16.6881 22.667C17.4872 22.9802 18.2385 23.4048 18.9192 23.9273H19.0293L19.5228 24.5635L19.2618 25.571H18.7764C18.0998 25.8055 17.3876 25.9213 16.6718 25.9136L16.423 25.9299Z" fill="#2FDAB7"/>
<path d="M19.4618 34.3769C11.9753 34.3773 5.83323 28.4481 5.56975 20.9662L5.5412 20.0974L6.40996 20.1219C7.35214 20.1464 8.27393 20.9703 9.44043 22.0103C11.1739 23.5562 13.3274 25.4772 16.415 25.4772H16.6597C17.369 25.4903 18.0738 25.3655 18.7358 25.1101C18.8908 25.0286 18.9805 24.9429 19.0009 24.8573C19.0213 24.7716 19.0335 24.7267 18.8663 24.5228C18.6991 24.3189 18.1321 23.809 16.5088 23.0912C15.7416 22.8004 15.0637 22.3138 14.5429 21.68C14.1256 21.122 14.053 20.3784 14.3553 19.7507C14.8529 18.6332 16.1581 17.5197 17.6753 16.2308C18.7215 15.3816 19.7069 14.4602 20.6242 13.4736C22.4352 11.4098 22.6636 9.80278 21.44 8.17131L20.1593 6.45825L22.2557 6.86612C24.2942 7.27562 26.2141 8.14031 27.8721 9.39491L28.3248 9.73753L27.2643 13.2493L28.3901 14.375L30.0419 11.3772L30.7924 12.4335C31.8712 13.9447 32.6344 15.6578 33.0357 17.4707L33.1703 18.0866L32.6115 18.3681C30.4417 19.4693 30.3682 20.0933 30.2296 21.2231C30.0786 22.4467 29.8747 24.168 26.2365 27.2025C25.2323 27.9709 24.3758 28.9147 23.7077 29.9883C23.1763 30.9284 22.9927 32.026 23.1897 33.0881L23.3162 33.8671L22.5657 34.0384C21.5468 34.2668 20.5059 34.3806 19.4618 34.3769Z" fill="#47A4D6"/>
<path d="M33.9452 14.3423L34.6345 12.0623L31.7142 9.31326L28.492 15.1254L26.7504 13.3838L28.8183 6.57645L26.3385 4.23936C25.8131 3.76745 25.6414 3.01616 25.9102 2.36316C26.1219 1.86556 26.5179 1.46951 27.0155 1.25783H27.0563C27.2464 1.18523 27.4483 1.14771 27.6518 1.14771C28.1188 1.15627 28.5614 1.35694 28.8754 1.70241L31.2084 4.17818L38.0239 2.11844L39.7655 3.86004L33.9534 7.06997L36.7024 9.98624L38.9865 9.29695L40.4018 10.7123L37.6324 12.2499L37.1389 12.4946L36.9145 12.9515L35.3442 15.7576L33.9452 14.3423Z" fill="white"/>
<path d="M22.7001 33.0512C22.5252 31.9276 22.7352 30.7778 23.2956 29.7883C23.9992 28.6601 24.903 27.6706 25.9631 26.8679C29.4626 23.9476 29.6339 22.414 29.7971 21.1782C29.9317 20.0647 30.1723 19.2 32.073 18.1558L33.1294 17.5767L33.2599 18.7758C33.3284 19.3415 33.3623 19.9109 33.3618 20.4807C33.37 24.1707 31.9013 27.7102 29.2831 30.3104C27.7365 31.8546 25.8493 33.0141 23.7728 33.6957L22.847 33.9975L22.7001 33.0512Z" fill="#2FDAB7"/>
<path d="M6.19781 32.986C5.95921 33.225 5.95921 33.6117 6.19781 33.8507C6.60038 34.2586 7.02538 34.644 7.47037 35.005C7.70897 35.244 8.09645 35.2444 8.33546 35.0054C8.57447 34.7664 8.57488 34.3793 8.33587 34.1403C8.31996 34.1244 8.30324 34.1093 8.2857 34.0954L8.24491 34.0628C7.83704 33.7243 7.42917 33.3613 7.05393 32.986C6.81655 32.7527 6.4356 32.7527 6.19781 32.986Z" fill="#202B46"/>
<path d="M1.30743 18.8574H1.38492C1.6945 18.8574 1.95553 18.6265 1.99265 18.319C2.05791 17.7888 2.14764 17.2545 2.26184 16.7365C2.38788 16.4228 2.23615 16.0667 1.9225 15.9407C1.60884 15.8147 1.25277 15.9664 1.12674 16.2801C1.10105 16.3437 1.08636 16.4114 1.0831 16.4799C0.960739 17.0387 0.866929 17.6056 0.797591 18.1726C0.753541 18.5009 0.979909 18.8052 1.30743 18.8574Z" fill="#202B46"/>
<path d="M3.53032 29.303C3.23992 29.4755 3.14448 29.8511 3.31741 30.1415C3.31782 30.142 3.31823 30.1428 3.31823 30.1432C3.61189 30.6326 3.93003 31.1139 4.26856 31.5748C4.47739 31.8403 4.86202 31.8868 5.12754 31.678C5.38042 31.4794 5.4363 31.1188 5.25561 30.8529C4.94155 30.4205 4.64381 29.9719 4.37053 29.5151C4.198 29.2247 3.82236 29.1292 3.53195 29.3022C3.53154 29.3022 3.53073 29.3026 3.53032 29.303Z" fill="#202B46"/>
<path d="M1.81323 25.0652C1.49223 25.1635 1.30991 25.502 1.40536 25.8238C1.5685 26.3703 1.75612 26.9169 1.96822 27.4553C2.09547 27.7738 2.45725 27.9292 2.7758 27.802C3.09435 27.6747 3.24974 27.3129 3.12249 26.9944C2.92671 26.5009 2.74725 25.991 2.59634 25.4771C2.49804 25.1561 2.15951 24.9738 1.8377 25.0692L1.81323 25.0652Z" fill="#202B46"/>
<path d="M2.30673 14.3953C2.62038 14.5205 2.97645 14.3676 3.10167 14.0539C3.10167 14.0535 3.10208 14.0531 3.10208 14.0527C3.29418 13.553 3.51321 13.064 3.75875 12.5884C3.91088 12.2866 3.78934 11.9187 3.48751 11.7666C3.18569 11.6144 2.81779 11.736 2.66566 12.0378C2.4087 12.5477 2.17213 13.0738 1.96412 13.6081C1.84421 13.9201 1.99675 14.2705 2.30673 14.3953Z" fill="#202B46"/>
<path d="M1.38903 23.4215H1.49099C1.82626 23.379 2.06364 23.0731 2.02163 22.7379C2.02163 22.7375 2.02163 22.7366 2.02122 22.7362C1.95596 22.206 1.9111 21.6676 1.89071 21.1374C1.87847 20.7997 1.59418 20.5358 1.25647 20.548C0.918752 20.5603 0.65486 20.8445 0.667096 21.1823C0.676477 21.7557 0.722974 22.328 0.805772 22.8953C0.846967 23.189 1.09291 23.4104 1.38903 23.4215Z" fill="#202B46"/>
<path d="M15.9826 3.23192H16.1009C16.6271 3.12995 17.1614 3.05246 17.6916 2.99943C18.0314 2.98801 18.2981 2.70332 18.2867 2.36356C18.2753 2.02381 17.9906 1.75706 17.6508 1.76848C17.6247 1.7693 17.599 1.77174 17.5733 1.77582C17.0064 1.83292 16.4354 1.9145 15.8725 2.02462C15.5323 2.03319 15.2635 2.31584 15.2721 2.6556C15.2807 2.99576 15.5633 3.26455 15.9031 3.25598C15.9308 3.25517 15.959 3.25272 15.9863 3.24823L15.9826 3.23192Z" fill="#202B46"/>
<path d="M4.69278 10.439C4.88978 10.4398 5.07495 10.3456 5.19038 10.1861C5.50444 9.75374 5.83889 9.32955 6.18966 8.92984C6.42459 8.68389 6.41521 8.29397 6.16926 8.05904C5.92332 7.82411 5.53339 7.83349 5.29846 8.07943C5.28786 8.09044 5.27766 8.10227 5.26787 8.1141C4.89263 8.52197 4.53371 8.9951 4.19925 9.46007C4.00103 9.73375 4.06221 10.1163 4.33589 10.3146C4.4399 10.3896 4.5647 10.4304 4.69278 10.4308V10.439Z" fill="#202B46"/>
<path d="M22.0925 3.10141H22.1863C22.524 3.12629 22.8181 2.87219 22.843 2.53447C22.8679 2.19675 22.6138 1.90268 22.276 1.8778C21.7132 1.79215 21.1381 1.73097 20.5671 1.69834C20.2293 1.67794 19.9389 1.93572 19.9186 2.27343C19.8982 2.61115 20.1559 2.90155 20.4936 2.92195C21.032 2.96273 21.5663 3.01983 22.0925 3.10141Z" fill="#202B46"/>
<path d="M8.20047 6.97205C8.60834 6.62943 9.04068 6.30314 9.48118 6.00132C9.75323 5.80105 9.81156 5.41806 9.61129 5.14601C9.42 4.8862 9.05945 4.81972 8.7878 4.99388C8.31875 5.31609 7.85786 5.66686 7.41736 6.02987C7.15714 6.24604 7.12166 6.63229 7.33783 6.89251C7.554 7.15273 7.94025 7.18822 8.20047 6.97205Z" fill="#202B46"/>
<path d="M11.651 4.65129C11.7416 4.65048 11.8305 4.62967 11.912 4.59011C12.3933 4.3617 12.8909 4.15369 13.3926 3.97015C13.7136 3.86451 13.8878 3.51864 13.7821 3.19764C13.6838 2.8999 13.3767 2.72451 13.0704 2.79141L12.9847 2.81996C12.4451 3.01166 11.9169 3.23354 11.4022 3.48478C11.0959 3.62713 10.9629 3.99136 11.1057 4.29767C11.2064 4.51425 11.4242 4.65252 11.6632 4.65129H11.651Z" fill="#202B46"/>
<path d="M18.9601 38.0721C18.6223 38.0631 18.3409 38.3299 18.3319 38.6676C18.323 39.0053 18.5897 39.2868 18.9274 39.2957H19.4373C19.8451 39.2957 20.253 39.2957 20.6364 39.259C20.9741 39.2378 21.2307 38.9462 21.2095 38.6085C21.1883 38.2707 20.8966 38.0142 20.5589 38.0354C20.0271 38.0758 19.4932 38.088 18.9601 38.0721Z" fill="#202B46"/>
<path d="M36.3884 27.182C36.7065 27.2962 37.0569 27.1306 37.1706 26.8129C37.1711 26.8121 37.1711 26.8117 37.1715 26.8109C37.3632 26.2725 37.5304 25.7219 37.6731 25.1794C37.7743 24.8572 37.5952 24.5137 37.2726 24.4122C36.95 24.3106 36.607 24.4901 36.5054 24.8127C36.4973 24.8392 36.4907 24.8666 36.4858 24.8939C36.3553 25.4119 36.1962 25.9258 36.0168 26.4275C35.9209 26.7375 36.0841 27.0691 36.3884 27.182Z" fill="#202B46"/>
<path d="M37.3835 18.1314H37.4855C37.8187 18.0772 38.0451 17.7631 37.9912 17.4299C37.8974 16.867 37.7791 16.3001 37.6364 15.7494C37.5385 15.426 37.1971 15.2429 36.8737 15.3408C36.567 15.4333 36.3838 15.747 36.4536 16.0594C36.5882 16.5733 36.6983 17.1036 36.788 17.6297C36.8406 17.9181 37.0907 18.1286 37.3835 18.1314Z" fill="#202B46"/>
<path d="M37.8607 1.74318L31.3634 3.70911L29.1772 1.38833C28.62 0.7439 27.7129 0.528953 26.9257 0.854025H26.889C26.2956 1.09834 25.8241 1.56984 25.5798 2.16329C25.5182 2.31828 25.4745 2.47979 25.4492 2.64457L25.2004 2.55892C24.8782 2.45532 24.5332 2.63234 24.4296 2.95455C24.326 3.27677 24.503 3.62183 24.8252 3.72543C25.1393 3.8274 25.4533 3.9416 25.7674 4.05988C25.862 4.20794 25.9725 4.34458 26.0978 4.46775L28.4104 6.65393L27.7496 8.83604C21.2869 4.22629 12.3114 5.72807 7.7012 12.1908C3.09105 18.6535 4.59323 27.629 11.0559 32.2392C17.5186 36.8493 26.4942 35.3472 31.1044 28.8845C34.7805 23.731 34.652 16.7793 30.7883 11.7645L31.8324 9.88018L34.2552 12.1643L33.6719 14.0935C33.5997 14.3039 33.6515 14.5372 33.8065 14.6971C33.8065 14.6971 35.0016 15.8799 35.0301 15.9207C35.3111 16.0876 35.6737 15.9946 35.8405 15.7139C35.8422 15.7107 35.8442 15.7078 35.8458 15.7046L37.4406 12.7801L40.3202 11.2098C40.6187 11.0724 40.7497 10.7188 40.6118 10.4198C40.5828 10.3574 40.5437 10.3003 40.4956 10.2513L39.4229 9.11339C39.2679 8.95881 39.0407 8.90252 38.8315 8.96656L36.8818 9.55797L34.5978 7.13522L39.7247 4.28013C40.0233 4.14268 40.1542 3.78906 40.0163 3.49009C39.9874 3.42768 39.9482 3.37058 39.9001 3.32164L38.4603 1.88186C38.3016 1.72809 38.0708 1.67466 37.8607 1.74318ZM10.1582 11.2139C12.6193 8.75406 15.9577 7.37464 19.4372 7.37994C19.7093 7.37994 19.9809 7.3881 20.253 7.40441C22.5656 9.53757 21.8845 11.4831 20.3346 13.237C19.4201 14.2069 18.4388 15.1119 17.3979 15.9452C15.8929 17.2259 14.4898 18.421 13.9596 19.616C13.3314 21.0354 13.7923 22.3202 16.3293 23.4419C17.5978 24.0047 18.2871 24.4411 18.5562 24.7715C18.593 24.8164 18.6297 24.7715 18.6215 24.7715C18.5934 24.7736 18.5656 24.7805 18.5399 24.7919C17.9257 25.0256 17.2719 25.1382 16.6148 25.1223C13.5395 25.2528 11.3492 23.2869 9.64837 21.7655C8.42476 20.6765 7.40917 19.771 6.35278 19.7629C6.52531 16.5419 7.88026 13.4976 10.1582 11.2139ZM32.591 20.5052C32.587 26.1942 28.9251 31.2354 23.5159 32.9982C23.3642 32.0422 23.5412 31.0633 24.0176 30.2207C24.6641 29.1826 25.4929 28.2706 26.4648 27.5287C30.2295 24.3881 30.4416 22.6343 30.6047 21.2842C30.7067 20.4318 30.7842 19.7955 32.4687 18.8696C32.536 19.4109 32.5702 19.9558 32.5707 20.5011L32.591 20.5052ZM31.8283 16.092C32.0106 16.6055 32.1603 17.1301 32.277 17.6623C29.7115 18.9675 29.5973 19.8975 29.4423 21.1659C29.3036 22.308 29.1242 23.8008 25.7225 26.6396C24.6331 27.4732 23.7064 28.5003 22.9898 29.67C22.3649 30.7745 22.1484 32.0642 22.378 33.3123C15.3027 34.9295 8.2559 30.5053 6.63829 23.4296C6.45312 22.6204 6.34544 21.7957 6.31608 20.9661C6.96459 20.9661 7.8048 21.737 8.83671 22.6547C10.7048 24.3229 13.0949 26.4519 16.6556 26.3255C17.4946 26.3398 18.3274 26.1815 19.1028 25.8605C19.4295 25.7161 19.6771 25.4359 19.7799 25.0937C19.8667 24.712 19.7566 24.3123 19.4862 24.0292C19.1028 23.5601 18.2626 23.0054 16.8187 22.361C15.0934 21.5983 14.7182 20.856 15.0567 20.0973C15.4646 19.1429 16.7779 18.058 18.1729 16.8344C19.2598 15.9558 20.2836 15.0018 21.236 13.9793C22.9408 12.0378 23.8178 9.90058 22.0843 7.60427C24.0107 7.99827 25.8233 8.82217 27.3866 10.0148L26.4485 13.1105C26.3792 13.3226 26.4343 13.5555 26.5913 13.7142C26.5913 13.7142 28.1126 15.2233 28.1616 15.2518C28.4426 15.4186 28.8052 15.3257 28.972 15.045C28.9737 15.0418 28.9757 15.0389 28.9773 15.0357L30.1642 12.8903C30.8637 13.8757 31.4237 14.9533 31.8283 16.092ZM33.3456 6.46631C33.0568 6.61927 32.9471 6.97737 33.1001 7.26574C33.1029 7.27104 33.1058 7.27675 33.109 7.28205C33.1335 7.32692 36.2537 10.647 36.2537 10.647C36.4083 10.8105 36.6424 10.8721 36.8574 10.806L38.8274 10.2106L39.1333 10.5165L37.2979 11.5321L36.7717 11.7931C36.6538 11.8514 36.5592 11.9477 36.5025 12.0664L36.2415 12.5966L35.2259 14.432L34.9281 14.1057L35.5196 12.152C35.5885 11.9232 35.5126 11.6752 35.3279 11.5239L32.1098 8.49751C31.8789 8.26665 31.5045 8.26665 31.2736 8.49751C31.2328 8.54237 28.337 13.759 28.337 13.759L27.7048 13.1268L29.6789 6.6213C29.7494 6.39127 29.674 6.14124 29.4872 5.98911L26.9094 3.60307C26.626 3.36283 26.5317 2.96638 26.6769 2.62418C26.807 2.32766 27.0444 2.09191 27.3418 1.96343H27.3622C27.6999 1.83291 28.0833 1.93121 28.3166 2.20815L30.7638 4.79405C30.9176 4.95923 31.1517 5.02245 31.3674 4.9572L37.8934 2.98718L38.5256 3.61938L33.3456 6.46631Z" fill="#202B46"/>
<path d="M35.695 28.7197C35.4025 28.5668 35.042 28.6732 34.8792 28.9603C34.6223 29.4294 34.3408 29.8903 34.039 30.3308C33.844 30.6077 33.9109 30.9903 34.1879 31.1853C34.4648 31.3802 34.8474 31.3134 35.0424 31.0364C35.3605 30.5633 35.6623 30.0698 35.9397 29.5722C36.1102 29.2813 36.0135 28.9077 35.7235 28.736L35.695 28.7197Z" fill="#202B46"/>
<path d="M38.1993 22.206C38.2523 21.6391 38.2768 21.064 38.2768 20.493V20.4073C38.2747 20.0708 38.0015 19.7996 37.665 19.7996C37.3272 19.7906 37.0462 20.057 37.0373 20.3947C37.0373 20.3988 37.0373 20.4028 37.0368 20.4073C37.0368 20.4073 37.0368 20.4073 37.0368 20.4318V20.5011C37.0368 21.0354 37.0124 21.5738 36.9634 22.1081C36.9328 22.4446 37.1808 22.7424 37.5173 22.773C37.5177 22.773 37.5177 22.773 37.5181 22.773H37.5752C37.9011 22.7803 38.1756 22.5311 38.1993 22.206Z" fill="#202B46"/>
<path d="M14.6081 37.4073C14.2896 37.2947 13.9396 37.4619 13.827 37.7805C13.7145 38.099 13.8817 38.449 14.2002 38.5616H14.2736C14.8202 38.7165 15.383 38.8511 15.9459 38.9694H16.0601C16.3958 39.0241 16.7123 38.7961 16.767 38.4604C16.8216 38.1247 16.5936 37.8082 16.2579 37.7536C16.2302 37.7491 16.2025 37.7466 16.1747 37.7458C15.6457 37.6663 15.1224 37.5533 14.6081 37.4073Z" fill="#202B46"/>
<path d="M24.8986 37.2197C24.3929 37.3894 23.8765 37.5256 23.3528 37.6276C23.0229 37.7018 22.8157 38.0297 22.8899 38.3597C22.9641 38.6897 23.292 38.8969 23.622 38.8226C24.1767 38.6962 24.7355 38.5412 25.278 38.3658C25.5949 38.2492 25.7572 37.8972 25.6406 37.5802C25.53 37.2796 25.2066 37.1157 24.8986 37.2034V37.2197Z" fill="#202B46"/>
<path d="M10.5539 35.6698C10.2737 35.4809 9.89355 35.5548 9.7047 35.835C9.51586 36.1152 9.58968 36.4953 9.86989 36.6842C9.89028 36.698 9.9119 36.7107 9.93393 36.7217C10.4274 37.0113 10.9373 37.2805 11.4553 37.5374C11.7616 37.6814 12.127 37.5501 12.271 37.2438C12.415 36.9375 12.2837 36.572 11.9774 36.428C11.492 36.1919 11.0148 35.9308 10.5539 35.6698Z" fill="#202B46"/>
<path d="M32.2729 32.5251C31.9099 32.9195 31.5261 33.294 31.1227 33.6468C30.8702 33.8719 30.8486 34.259 31.0738 34.5115C31.2989 34.7639 31.686 34.7855 31.9384 34.5604C32.3463 34.1811 32.7787 33.7773 33.1621 33.3613C33.3901 33.1117 33.3725 32.7246 33.1229 32.497C32.8778 32.2731 32.4989 32.2857 32.2688 32.5251H32.2729Z" fill="#202B46"/>
<path d="M28.8794 35.3394C28.4308 35.6249 27.9617 35.8941 27.4886 36.1552C27.188 36.3093 27.0693 36.6785 27.2235 36.9791C27.3777 37.2797 27.7468 37.3984 28.0474 37.2442C28.5531 36.9831 29.0548 36.6935 29.5361 36.3876C29.8167 36.1992 29.8914 35.8195 29.7033 35.5389C29.5284 35.2782 29.1849 35.1922 28.908 35.3394H28.8794Z" fill="#202B46"/>
</svg>
