<svg width="39" height="39" viewBox="0 0 39 39" fill="none" xmlns="http://www.w3.org/2000/svg">
<g clip-path="url(#clip0)">
<path d="M26.9723 9.59385H22.2823V8.74522C22.2823 4.23089 25.9419 0.571289 30.4562 0.571289H34.8919C35.0323 0.571289 35.1461 0.68509 35.1461 0.825475V1.41992C35.1462 5.93425 31.4866 9.59385 26.9723 9.59385V9.59385Z" fill="#1EDEB7"/>
<path d="M11.7431 16.9085H16.2696V16.0894C16.2696 11.7324 12.7375 8.20032 8.38047 8.20032H4.10807C3.96768 8.20032 3.85388 8.31412 3.85388 8.4545V9.01939C3.85388 13.3764 7.38597 16.9085 11.7431 16.9085V16.9085Z" fill="#1EDEB7"/>
<path d="M34.8921 0.571289H32.0719C31.7288 4.76996 28.2126 8.07033 23.9255 8.07033H22.3098C22.2916 8.29283 22.2823 8.51792 22.2823 8.74514V9.59377H26.9723C31.4866 9.59377 35.1461 5.93425 35.1461 1.41992V0.825475C35.1463 0.68509 35.0325 0.571289 34.8921 0.571289V0.571289Z" fill="#18B192"/>
<path d="M10.299 8.4353C12.0827 9.88173 13.2227 12.0907 13.2227 14.5661C13.2227 15.0185 12.856 15.3851 12.4036 15.3851H8.6962C8.0345 15.3851 7.39176 15.3036 6.77759 15.1502C8.13352 16.2498 9.86133 16.9086 11.7431 16.9086H16.2696V16.0895C16.2696 12.3942 13.7289 9.29231 10.299 8.4353Z" fill="#18B192"/>
<path d="M23.571 20.5968H20.3354V20.0113C20.3354 16.8969 22.8602 14.3722 25.9746 14.3722H28.956C29.0964 14.3722 29.2102 14.486 29.2102 14.6264V14.9576C29.2102 18.0721 26.6854 20.5968 23.571 20.5968Z" fill="#1EDEB7"/>
<path d="M13.8279 26.3552H16.3287V25.9026C16.3287 23.4954 14.3773 21.5441 11.9702 21.5441H9.72355C9.58316 21.5441 9.46936 21.6579 9.46936 21.7983V21.9966C9.46936 24.4038 11.4207 26.3552 13.8279 26.3552V26.3552Z" fill="#1EDEB7"/>
<path d="M22.4733 36.1292C22.3716 36.1292 22.2713 36.1358 22.1731 36.1486C21.7531 36.2033 21.3345 36.0494 21.0394 35.7456C20.3397 35.0253 19.3606 34.5778 18.2771 34.5778C17.4947 34.5778 16.7668 34.8111 16.1591 35.212C15.8889 35.3904 15.5656 35.4613 15.2445 35.4198C15.116 35.4032 14.9848 35.3945 14.8516 35.3945C13.2033 35.3945 11.862 36.709 11.8186 38.3468C11.8174 38.3917 11.8544 38.4286 11.8992 38.4286H24.691C24.736 38.4286 24.773 38.3915 24.7714 38.3467C24.7283 37.1147 23.7159 36.1292 22.4733 36.1292V36.1292Z" fill="#43AADC"/>
<path d="M34.892 0H30.4563C28.2966 0 26.2228 0.793711 24.617 2.23504C24.3821 2.4458 24.3627 2.80701 24.5734 3.04177C24.7841 3.27653 25.1454 3.29611 25.3801 3.08534C26.776 1.83254 28.5787 1.14258 30.4562 1.14258H34.5748V1.41992C34.5748 5.61204 31.1643 9.02256 26.9723 9.02256H24.0917L29.3698 5.32053C29.6281 5.13939 29.6906 4.78306 29.5094 4.52476C29.3283 4.26639 28.9719 4.204 28.7136 4.38514L22.8578 8.4924C22.8983 7.27259 23.2316 6.07661 23.828 5.01843C23.9829 4.7436 23.8856 4.39512 23.6107 4.24026C23.3359 4.08525 22.9874 4.18267 22.8326 4.4575C22.0988 5.75951 21.7109 7.24219 21.7109 8.74522V9.30782C19.1954 11.2343 17.7058 14.235 17.7058 17.4191V17.5054C17.4541 17.1828 17.1645 16.8873 16.8409 16.6263V16.0895C16.8409 11.4244 13.0455 7.62907 8.38047 7.62907H7.53931C7.2238 7.62907 6.96802 7.88486 6.96802 8.20036C6.96802 8.51586 7.2238 8.77165 7.53931 8.77165H8.3804C12.3206 8.77165 15.5435 11.9019 15.6928 15.8063L10.0736 11.8651C9.81525 11.684 9.45914 11.7463 9.27785 12.0047C9.09672 12.263 9.15918 12.6192 9.41748 12.8005L14.4601 16.3373H11.7429C7.70787 16.3373 4.42509 13.0546 4.42509 9.01951V8.77172H4.87321C5.18872 8.77172 5.4445 8.51594 5.4445 8.20044C5.4445 7.88493 5.18872 7.62915 4.87321 7.62915H4.10807C3.65286 7.62915 3.28259 7.99942 3.28259 8.45462V9.01959C3.28259 13.6847 7.07793 17.48 11.743 17.48H16.0786C17.1015 18.2823 17.7057 19.5159 17.7057 20.8239V26.8382C17.4693 26.5528 17.1996 26.2924 16.8999 26.0634V25.9028C16.8999 23.1844 14.6884 20.9729 11.9701 20.9729H9.72346C9.26825 20.9729 8.89798 21.3432 8.89798 21.7984V21.9968C8.89798 24.7151 11.1095 26.9266 13.8278 26.9266H16.1467C17.1245 27.6444 17.7057 28.789 17.7057 30.0051V34.0433C17.042 34.1291 16.4072 34.364 15.8445 34.7354C15.6924 34.8357 15.5052 34.8776 15.3177 34.8534C15.164 34.8335 15.0072 34.8234 14.8516 34.8234C13.9054 34.8234 13.0114 35.1871 12.3342 35.8477C11.6583 36.507 11.2724 37.3892 11.2474 38.3319C11.2428 38.5062 11.31 38.6778 11.4318 38.8029C11.5539 38.9282 11.7243 39.0002 11.8992 39.0002H18.9274C19.2429 39.0002 19.4987 38.7444 19.4987 38.4289C19.4987 38.1134 19.2429 37.8576 18.9274 37.8576H12.4541C12.7091 36.7642 13.6804 35.966 14.8517 35.966C14.9585 35.966 15.066 35.9729 15.1712 35.9865C15.6303 36.0458 16.093 35.9403 16.4738 35.6891C17.0091 35.3359 17.6326 35.1493 18.2771 35.1493C19.1711 35.1493 20.0065 35.5025 20.6296 36.1439C21.052 36.5787 21.6567 36.7922 22.247 36.7153C22.3212 36.7056 22.3974 36.7007 22.4733 36.7007C23.2305 36.7007 23.8717 37.1798 24.1062 37.8576H21.5935C21.278 37.8576 21.0222 38.1134 21.0222 38.4289C21.0222 38.7444 21.278 39.0002 21.5935 39.0002H24.691C24.867 39.0002 25.038 38.9276 25.1602 38.801C25.2821 38.6747 25.3485 38.5021 25.3424 38.3269C25.288 36.7743 24.0278 35.558 22.4733 35.558C22.3481 35.558 22.2222 35.5662 22.0991 35.5822C21.8645 35.6128 21.6216 35.5252 21.4491 35.3477C20.7433 34.6212 19.8354 34.169 18.8484 34.0429V24.2308C18.8484 23.0454 19.4278 21.9313 20.3983 21.2506L20.5159 21.1681H23.571C26.9955 21.1681 29.7815 18.3821 29.7815 14.9576V14.6264C29.7815 14.1712 29.4112 13.8009 28.956 13.8009H25.9747C22.5502 13.8009 19.7643 16.5869 19.7643 20.0113V20.2997L19.7422 20.3152C19.4073 20.55 19.1079 20.8242 18.8484 21.1291V17.4192C18.8484 14.5636 20.1972 11.8741 22.4714 10.1652H26.9724C31.7944 10.1652 35.7175 6.24213 35.7175 1.42V0.825551C35.7175 0.370271 35.3471 0 34.892 0V0ZM10.0425 22.1154H11.9701C13.8227 22.1154 15.3689 23.4526 15.6943 25.2124L13.0524 23.3594C12.7941 23.1783 12.4378 23.2406 12.2566 23.499C12.0755 23.7573 12.138 24.1136 12.3963 24.2948L14.5193 25.7839H13.8278C11.7793 25.7839 10.1055 24.1489 10.0425 22.1154V22.1154ZM25.9747 14.9435H28.639V14.9576C28.639 17.7521 26.3656 20.0255 23.5711 20.0255H22.145L25.3269 17.7938C25.5852 17.6126 25.6477 17.2563 25.4665 16.998C25.2854 16.7396 24.929 16.6772 24.6707 16.8584L20.9346 19.4788C21.2016 16.9338 23.3601 14.9435 25.9747 14.9435V14.9435Z" fill="#1E2B46"/>
</g>
<defs>
<clipPath id="clip0">
<rect width="39" height="39" fill="white"/>
</clipPath>
</defs>
</svg>
