<svg width="30" height="30" viewBox="0 0 30 30" fill="none" xmlns="http://www.w3.org/2000/svg">
<path d="M4.74133 18.3237H18.1368V29.5604H4.74133V18.3237Z" fill="#CBE6F3"/>
<path d="M16.9117 18.3237H18.1368V29.5604H16.9117V18.3237Z" fill="#43AADC"/>
<path d="M4.74153 18.3241V29.5606H1.98938C1.13333 29.5606 0.439575 28.8669 0.439575 28.0108V22.5428C0.439575 20.2126 2.32805 18.3241 4.65833 18.3241H4.74153Z" fill="#EDF4FF"/>
<path d="M4.65835 18.3241C4.26244 18.3241 3.87976 18.3798 3.51648 18.4817V29.5606H4.74156V18.3241H4.65835Z" fill="#DBEAFF"/>
<path d="M22.4387 22.5428V28.0108C22.4387 28.8669 21.7449 29.5606 20.8889 29.5606H18.1367V18.3241H18.2199C20.5496 18.3241 22.4387 20.2126 22.4387 22.5428V22.5428Z" fill="#EDF4FF"/>
<path d="M18.2199 18.3241H18.1367V18.4818C19.9115 18.9799 21.2136 20.6085 21.2136 22.5428V28.0108C21.2136 28.8669 20.5198 29.5606 19.6638 29.5606H20.8889C21.7449 29.5606 22.4387 28.8669 22.4387 28.0108V22.5428C22.4387 20.2126 20.5496 18.3241 18.2199 18.3241Z" fill="#DBEAFF"/>
<path d="M14.9517 18.3237L12.6634 24.1223L11.8781 26.1134C11.7209 26.5119 11.157 26.5119 10.9997 26.1135L10.214 24.1229L7.92578 18.3237H14.9517Z" fill="#EDF4FF"/>
<path d="M13.7266 18.3237L11.4384 24.1223L10.8263 25.6741L10.9997 26.1135C11.157 26.5119 11.721 26.5119 11.8781 26.1134L12.6634 24.1223L14.9517 18.3237H13.7266Z" fill="#DBEAFF"/>
<path d="M13.3581 18.324L11.439 20.3466L9.51978 18.324V15.4276H13.3581V18.324Z" fill="#FFDFCF"/>
<path d="M12.1329 15.4276V18.3241L10.8264 19.701L11.439 20.3466L13.3581 18.3241V15.4276H12.1329Z" fill="#FFCEBF"/>
<path opacity="0.75" d="M12.6635 24.1224L11.8782 26.1134C11.721 26.5119 11.1571 26.512 10.9998 26.1135L10.2141 24.123L11.4391 20.3466L12.6635 24.1224Z" fill="#43AADC"/>
<path d="M11.439 20.3466L10.8264 22.2352L11.4384 24.1224L10.8263 25.6741L10.9997 26.1135C11.157 26.512 11.721 26.5119 11.8781 26.1134L12.6634 24.1224L11.439 20.3466Z" fill="#43AADC"/>
<path d="M0.439575 26.7855H4.74153V29.5605H1.98938C1.13333 29.5605 0.439575 28.8668 0.439575 28.0107V26.7855Z" fill="#FFDFCF"/>
<path d="M3.51648 26.7855H4.74156V29.5605H3.51648V26.7855Z" fill="#FFCEBF"/>
<path d="M22.6132 17.8548C24.6328 17.8548 26.2701 16.2176 26.2701 14.1979C26.2701 12.1783 24.6328 10.541 22.6132 10.541C20.5935 10.541 18.9563 12.1783 18.9563 14.1979C18.9563 16.2176 20.5935 17.8548 22.6132 17.8548Z" fill="#FFD15B"/>
<path d="M22.6132 10.541C22.3634 10.541 22.1197 10.5662 21.884 10.6139C23.5543 10.9519 24.9875 12.428 24.9875 14.1979C24.9875 15.9679 23.5542 17.4439 21.884 17.7819C22.1197 17.8296 22.3634 17.8548 22.6132 17.8548C24.6328 17.8548 26.2701 16.2176 26.2701 14.1979C26.2701 12.1782 24.6328 10.541 22.6132 10.541V10.541Z" fill="#FFC344"/>
<path d="M22.4387 26.7855V28.0107C22.4387 28.8668 21.7449 29.5605 20.8889 29.5605H18.1367V26.7855H22.4387Z" fill="#FFDFCF"/>
<path d="M21.2135 26.7855V28.0107C21.2135 28.8668 20.5198 29.5605 19.6637 29.5605H20.8888C21.7448 29.5605 22.4386 28.8668 22.4386 28.0107V26.7855H21.2135Z" fill="#FFCEBF"/>
<path d="M17.116 9.5107H5.76202V5.21865L5.06294 4.66904C3.82479 3.69568 3.86417 1.80732 5.14192 0.886406C5.54511 0.59584 6.0295 0.439453 6.52649 0.439453H13.8588C15.6577 0.439453 17.116 1.89773 17.116 3.69668V9.5107H17.116Z" fill="#FFD15B"/>
<path d="M13.8587 0.439453H12.6337C14.4326 0.439453 15.8909 1.89773 15.8909 3.69668V9.5107H17.116V3.69668C17.116 1.89773 15.6577 0.439453 13.8587 0.439453Z" fill="#FFC344"/>
<path d="M7.92611 8.69707C7.92611 9.89238 6.95696 10.8609 5.76165 10.8609C5.30696 10.8609 4.88509 10.7209 4.53704 10.4812C3.96985 10.0916 3.59778 9.43769 3.59778 8.69707C3.59778 7.95644 3.96985 7.30254 4.53704 6.91289C4.88509 6.67324 5.30696 6.5332 5.76165 6.5332C6.95696 6.5332 7.92611 7.50176 7.92611 8.69707V8.69707Z" fill="#FFDFCF"/>
<path d="M7.92618 8.69707C7.92618 9.89238 6.95704 10.8609 5.76172 10.8609C5.30703 10.8609 4.88516 10.7209 4.53711 10.4812V6.91289C4.88516 6.67324 5.30703 6.5332 5.76172 6.5332C6.95704 6.5332 7.92618 7.50176 7.92618 8.69707Z" fill="#FFCEBF"/>
<path d="M17.1159 10.8612C18.3111 10.8612 19.28 9.89229 19.28 8.69712C19.28 7.50196 18.3111 6.53308 17.1159 6.53308C15.9208 6.53308 14.9519 7.50196 14.9519 8.69712C14.9519 9.89229 15.9208 10.8612 17.1159 10.8612Z" fill="#FFDFCF"/>
<path d="M17.116 6.53308C16.9031 6.53308 16.6977 6.56431 16.5034 6.62156C17.4001 6.88581 18.0549 7.71474 18.0549 8.69706C18.0549 9.67938 17.4002 10.5083 16.5034 10.7726C16.6977 10.8298 16.9031 10.861 17.116 10.861C18.3111 10.861 19.28 9.8922 19.28 8.697C19.28 7.50193 18.3112 6.53308 17.116 6.53308V6.53308Z" fill="#FFCEBF"/>
<path d="M17.116 5.21866V11.1379C17.116 13.884 14.8898 16.1102 12.1431 16.1102H10.7342C7.98812 16.1102 5.76196 13.884 5.76196 11.1379V5.21866C5.76196 5.21866 7.39761 6.53309 10.9903 6.53309C13.7692 6.53309 15.1587 4.40344 15.1587 4.40344L17.116 5.21866Z" fill="#FFDFCF"/>
<path d="M15.1587 4.40344C15.1587 4.40344 15.0563 4.55959 14.8534 4.78659L15.8908 5.21872V11.138C15.8908 13.884 13.6646 16.1102 10.918 16.1102H12.143C14.8897 16.1102 17.1159 13.884 17.1159 11.138V5.21866L15.1587 4.40344Z" fill="#FFCEBF"/>
<path d="M22.5355 7.98723C22.7783 7.98723 22.975 7.79053 22.975 7.54777V6.15857C22.975 5.91582 22.7783 5.71912 22.5355 5.71912C22.2928 5.71912 22.0961 5.91582 22.0961 6.15857V7.54777C22.0961 7.79053 22.2928 7.98723 22.5355 7.98723Z" fill="black"/>
<path d="M25.2489 8.80423C25.457 8.92113 25.728 8.84794 25.8466 8.6339L26.5125 7.43712C26.6305 7.22507 26.5543 6.95742 26.3422 6.83947C26.1303 6.72146 25.8625 6.79769 25.7445 7.0098L25.0786 8.20658C24.9606 8.41863 25.0368 8.68622 25.2489 8.80423V8.80423Z" fill="black"/>
<path d="M29.0988 9.31937C28.9677 9.11517 28.6957 9.05587 28.4916 9.18706L27.3182 9.94063C27.114 10.0718 27.0548 10.3436 27.1859 10.5478C27.3179 10.7537 27.5919 10.8102 27.7931 10.6801L28.9665 9.92657C29.1707 9.79544 29.2299 9.52356 29.0988 9.31937Z" fill="black"/>
<path d="M18.2198 17.8845C17.3409 17.8845 14.6341 17.8845 13.7977 17.8845V16.2908C15.9374 15.6022 17.5002 13.6157 17.5537 11.2628C18.7813 11.0539 19.7192 9.98324 19.7192 8.697C19.7192 7.41133 18.7822 6.34106 17.5553 6.13153V3.69667C17.5553 1.65832 15.8969 8.7924e-07 13.8586 8.7924e-07H6.52619C5.93937 -0.00046787 5.36041 0.186504 4.88469 0.52998C4.16281 1.05023 3.73813 1.85894 3.71949 2.74869C3.65944 3.90204 4.40873 4.82255 5.32262 5.43245V6.13147C4.09549 6.34077 3.15823 7.41116 3.15823 8.69705C3.15823 9.18584 3.29457 9.66238 3.5525 10.0751C3.68194 10.2827 3.95539 10.3424 4.15807 10.2149C4.36391 10.0863 4.42648 9.8152 4.29787 9.60936C4.12731 9.33649 4.03719 9.02102 4.03719 8.69711C4.03719 7.89801 4.58363 7.22436 5.32267 7.0296V11.1381C5.32267 13.5454 6.90283 15.5904 9.08028 16.291V17.8846C8.25605 17.8846 5.52553 17.8846 4.65822 17.8846C2.08965 17.8846 2.82886e-05 19.9742 2.82886e-05 22.5428V23.5918C2.82886e-05 23.8346 0.196727 24.0313 0.439481 24.0313C0.682234 24.0313 0.878933 23.8346 0.878933 23.5918V22.5427C0.878933 20.5788 2.38438 18.9601 4.30197 18.7801V26.346H0.878933V25.6347C0.878933 25.392 0.682234 25.1953 0.439481 25.1953C0.196727 25.1953 2.82886e-05 25.392 2.82886e-05 25.6347V28.0107C-0.00588967 29.1134 0.917546 30.008 1.98928 29.9999H20.8887C21.9604 30.008 22.8838 29.1134 22.8779 28.0107V22.5427C22.878 19.9742 20.7883 17.8845 18.2198 17.8845ZM11.4389 21.7709L12.1968 24.1079L11.4693 25.9522C11.4645 25.9814 11.4108 25.9775 11.4087 25.9521L10.6808 24.108L11.4389 21.7709ZM12.7039 22.8229L11.9375 20.4595L13.547 18.7635H14.3055L12.7039 22.8229ZM18.8403 8.69705C18.8403 9.4961 18.294 10.17 17.5553 10.3648V7.02936C18.294 7.22419 18.8403 7.89801 18.8403 8.69705ZM4.59828 2.76709C4.61105 2.15584 4.90279 1.60037 5.39861 1.24306C5.72457 1.00746 6.124 0.878437 6.52625 0.878905H13.8587C15.4124 0.878905 16.6765 2.14295 16.6765 3.69667V4.55976L15.3279 3.99773C15.1334 3.91652 14.9078 3.9863 14.7916 4.16208C14.7394 4.24095 13.4851 6.09374 10.9905 6.09374C7.62353 6.09374 6.05117 4.88718 6.03746 4.87646C5.33849 4.37654 4.52246 3.72433 4.59828 2.76709V2.76709ZM6.20164 11.1381V5.99337C7.03162 6.40874 8.59888 6.97264 10.9905 6.97264C13.3542 6.97264 14.7819 5.56909 15.3032 4.93962L16.6765 5.51196V11.1381C16.6765 13.6375 14.6428 15.6709 12.1431 15.6709H10.7345C8.23507 15.6709 6.20164 13.6374 6.20164 11.1381V11.1381ZM10.7344 16.5498C11.2668 16.5405 12.4082 16.5836 12.9188 16.4939V18.1487L11.4387 19.7081L9.95919 18.1487V16.494C10.2125 16.5305 10.4712 16.5498 10.7344 16.5498V16.5498ZM9.33089 18.7634L10.9402 20.4597L10.1736 22.823L8.57134 18.7634H9.33089ZM0.878991 28.0107V27.225H4.30203V29.121H1.98934C1.3771 29.121 0.878991 28.6229 0.878991 28.0107V28.0107ZM5.18094 18.7634H7.62646L10.5908 26.2748C10.8582 27.0342 12.0227 27.0281 12.2869 26.2746L15.2504 18.7634H17.6971V29.121H5.18094V18.7634ZM20.8887 29.121H18.576V27.225H21.9991V28.0107C21.9991 28.6229 21.501 29.121 20.8887 29.121V29.121ZM21.9991 26.3461H18.576V18.7801C20.4936 18.9601 21.9991 20.5789 21.9991 22.5428V26.3461Z" fill="black"/>
<path d="M11.4187 11.6399C11.6615 11.6399 11.8582 11.4432 11.8582 11.2004V9.61279C11.8582 9.37004 11.6615 9.17334 11.4187 9.17334C11.1759 9.17334 10.9792 9.37004 10.9792 9.61279V11.2004C10.9792 11.4432 11.1759 11.6399 11.4187 11.6399Z" fill="black"/>
<path d="M12.248 13.7742C12.4459 13.6338 12.4925 13.3595 12.352 13.1616C12.2116 12.9637 11.9373 12.9171 11.7394 13.0575C11.3982 13.2994 11.0513 13.0802 11.013 13.0544L10.7723 12.9109C10.7723 12.9109 10.4084 12.8354 10.2752 13.2062C10.162 13.5212 10.5087 13.7743 10.5087 13.7743C10.6969 13.9078 11.0232 14.0511 11.3986 14.0511C11.6675 14.0511 11.9615 13.9776 12.248 13.7742V13.7742Z" fill="black"/>
<path d="M22.6132 10.1016C20.7388 10.1016 19.1064 11.3686 18.6437 13.1828C18.5838 13.418 18.7258 13.6572 18.961 13.7172C19.196 13.7771 19.4354 13.6352 19.4954 13.4C19.8587 11.9754 21.1408 10.9805 22.6132 10.9805C24.3873 10.9805 25.8306 12.4238 25.8306 14.1979C25.8306 15.972 24.3873 17.4153 22.6132 17.4153C21.2256 17.4153 19.9987 16.5316 19.5603 15.2164C19.4835 14.9861 19.2347 14.8619 19.0044 14.9385C18.7741 15.0153 18.6497 15.2641 18.7265 15.4944C19.2848 17.169 20.8468 18.2942 22.6133 18.2942C24.872 18.2942 26.7096 16.4566 26.7096 14.1979C26.7096 11.9391 24.8719 10.1016 22.6132 10.1016V10.1016Z" fill="black"/>
<path d="M21.5725 15.8247C21.8124 15.9816 22.0019 16.0585 22.2102 16.094V16.1445C22.2102 16.3873 22.4069 16.584 22.6497 16.584C22.8924 16.584 23.0891 16.3873 23.0891 16.1445V16.0454C23.5691 15.8759 23.8764 15.4453 23.9481 15.0191C24.0484 14.422 23.7252 13.8826 23.1436 13.6771C22.8572 13.5759 22.5415 13.4544 22.3712 13.3209C22.3565 13.3095 22.3355 13.2545 22.3506 13.1739C22.3579 13.1356 22.391 13.0076 22.5154 12.9701C22.8049 12.8831 22.9889 13.0266 23.009 13.0433L23.1737 13.1216C23.1737 13.1216 23.5878 13.3075 23.7314 12.9272C23.8463 12.623 23.5974 12.3906 23.5974 12.3906C23.4967 12.2977 23.3194 12.1852 23.0891 12.1194V12.075C23.0891 11.8322 22.8924 11.6355 22.6496 11.6355C22.4069 11.6355 22.2102 11.8322 22.2102 12.075V12.1463C21.8385 12.279 21.5634 12.6054 21.4869 13.0112C21.4126 13.4053 21.5437 13.7889 21.8288 14.0125C22.0984 14.2239 22.4793 14.3746 22.8507 14.5058C23.0788 14.5865 23.1019 14.7502 23.0812 14.8734C23.0515 15.0501 22.9029 15.2409 22.6466 15.2426C22.3465 15.2445 22.2743 15.2336 22.0535 15.0892C21.8504 14.9562 21.5781 15.0133 21.4452 15.2164C21.3125 15.4195 21.3693 15.6919 21.5725 15.8247V15.8247Z" fill="black"/>
</svg>
