<svg width="29" height="30" viewBox="0 0 29 30" fill="none" xmlns="http://www.w3.org/2000/svg">
<path d="M17.3438 12.6562H3.28125C2.24572 12.6562 1.40625 13.4957 1.40625 14.5312V26.7188C1.40625 27.7543 2.24572 28.5938 3.28125 28.5938H17.3438C18.3793 28.5938 19.2188 27.7543 19.2188 26.7188V14.5312C19.2188 13.4957 18.3793 12.6562 17.3438 12.6562Z" fill="#EAF5FA"/>
<path d="M28.125 17.8125L26.5734 17.4656C25.7308 17.2787 24.9351 16.9221 24.2347 16.4176C23.5344 15.9131 22.9442 15.2713 22.5 14.5312C22.0558 15.2713 21.4656 15.9131 20.7653 16.4176C20.0649 16.9221 19.2692 17.2787 18.4266 17.4656L16.875 17.8125C16.875 19.8501 17.3494 21.8597 18.2606 23.6822C19.1719 25.5047 20.4949 27.0899 22.125 28.3125L22.5 28.5938L22.875 28.3125C24.5051 27.0899 25.8281 25.5047 26.7394 23.6822C27.6506 21.8597 28.125 19.8501 28.125 17.8125Z" fill="#1EDEB7"/>
<path d="M20.0906 26.4141C23.8406 25.4016 26.7187 21.9797 27.4687 17.6672L26.5734 17.4656C25.7308 17.2787 24.9351 16.9221 24.2347 16.4176C23.5344 15.9131 22.9442 15.2713 22.5 14.5312C22.0558 15.2713 21.4656 15.9131 20.7653 16.4176C20.0649 16.9221 19.2692 17.2787 18.4266 17.4656L16.875 17.8125C16.8762 20.9734 18.018 24.0276 20.0906 26.4141Z" fill="#1EDEB7"/>
<path d="M3.28125 12.6562H5.625V7.96875C5.625 6.72555 6.11886 5.53326 6.99794 4.65419C7.87701 3.77511 9.0693 3.28125 10.3125 3.28125C11.5557 3.28125 12.748 3.77511 13.6271 4.65419C14.5061 5.53326 15 6.72555 15 7.96875V12.6562H17.3438C17.5021 12.6587 17.6596 12.6807 17.8125 12.7219V7.96875C17.8125 5.97963 17.0223 4.07197 15.6158 2.66545C14.2093 1.25893 12.3016 0.46875 10.3125 0.46875C8.32338 0.46875 6.41572 1.25893 5.0092 2.66545C3.60268 4.07197 2.8125 5.97963 2.8125 7.96875V12.7219C2.96544 12.6807 3.12289 12.6587 3.28125 12.6562Z" fill="#EAF5FA"/>
<path d="M0.46875 16.4062H6.09375V24.8438H0.46875V16.4062Z" fill="#43AADC"/>
<path d="M11.25 21.3516V17.3438C11.25 17.0951 11.1512 16.8567 10.9754 16.6808C10.7996 16.505 10.5611 16.4062 10.3125 16.4062C10.0639 16.4062 9.8254 16.505 9.64959 16.6808C9.47377 16.8567 9.375 17.0951 9.375 17.3438V21.3516C9.01755 21.5579 8.73818 21.8765 8.58023 22.2578C8.42227 22.6392 8.39456 23.062 8.50139 23.4606C8.60822 23.8593 8.84362 24.2116 9.17107 24.4629C9.49853 24.7142 9.89975 24.8504 10.3125 24.8504C10.7253 24.8504 11.1265 24.7142 11.4539 24.4629C11.7814 24.2116 12.0168 23.8593 12.1236 23.4606C12.2304 23.062 12.2027 22.6392 12.0448 22.2578C11.8868 21.8765 11.6075 21.5579 11.25 21.3516Z" fill="#EAF5FA"/>
<path d="M22.5 24.375C24.0533 24.375 25.3125 23.1158 25.3125 21.5625C25.3125 20.0092 24.0533 18.75 22.5 18.75C20.9467 18.75 19.6875 20.0092 19.6875 21.5625C19.6875 23.1158 20.9467 24.375 22.5 24.375Z" fill="#EAF5FA"/>
<path d="M11.7187 21.0938V17.3438C11.7187 16.9708 11.5706 16.6131 11.3068 16.3494C11.0431 16.0857 10.6854 15.9375 10.3125 15.9375C9.93952 15.9375 9.58183 16.0857 9.31811 16.3494C9.05439 16.6131 8.90623 16.9708 8.90623 17.3438V21.0938C8.55336 21.3607 8.28326 21.722 8.12714 22.136C7.97102 22.55 7.93527 22.9997 8.02402 23.4331C8.11276 23.8666 8.32239 24.266 8.62865 24.5853C8.93491 24.9047 9.3253 25.1308 9.75466 25.2375C9.93721 25.2833 10.1243 25.3084 10.3125 25.3125C10.8044 25.3125 11.2838 25.1577 11.6829 24.8701C12.082 24.5825 12.3804 24.1766 12.536 23.7099C12.6915 23.2432 12.6963 22.7395 12.5496 22.2699C12.4029 21.8004 12.1123 21.3889 11.7187 21.0938ZM11.1844 24.0609C11.0341 24.1887 10.8586 24.2834 10.6693 24.3389C10.48 24.3944 10.2811 24.4095 10.0856 24.3832C9.89015 24.3568 9.70239 24.2896 9.53456 24.186C9.36673 24.0823 9.22259 23.9445 9.11149 23.7815C9.0004 23.6185 8.92484 23.4339 8.88973 23.2398C8.85462 23.0457 8.86074 22.8464 8.90769 22.6548C8.95465 22.4632 9.04138 22.2836 9.16227 22.1278C9.28315 21.9719 9.43548 21.8432 9.60935 21.75C9.68089 21.7087 9.74024 21.6492 9.78139 21.5776C9.82255 21.506 9.84406 21.4248 9.84373 21.3422V17.3438C9.84373 17.2194 9.89311 17.1002 9.98102 17.0123C10.0689 16.9244 10.1882 16.875 10.3125 16.875C10.4368 16.875 10.556 16.9244 10.6439 17.0123C10.7318 17.1002 10.7812 17.2194 10.7812 17.3438V21.3516C10.7809 21.4342 10.8024 21.5154 10.8436 21.587C10.8847 21.6586 10.9441 21.7181 11.0156 21.7594C11.2124 21.8746 11.3782 22.0359 11.4987 22.2295C11.6193 22.4231 11.6909 22.6431 11.7075 22.8705C11.7242 23.0979 11.6852 23.326 11.5941 23.535C11.5029 23.744 11.3623 23.9277 11.1844 24.0703V24.0609Z" fill="#1E2B46"/>
<path d="M28.2281 17.3438L26.6766 17.0016C25.9009 16.8237 25.169 16.4913 24.5246 16.0241C23.8803 15.557 23.3368 14.9648 22.9266 14.2828C22.8851 14.2129 22.8261 14.1549 22.7554 14.1147C22.6847 14.0744 22.6048 14.0533 22.5234 14.0533C22.4421 14.0533 22.3622 14.0744 22.2915 14.1147C22.2208 14.1549 22.1618 14.2129 22.1203 14.2828C21.5389 15.2435 20.6948 16.0177 19.6875 16.5141V14.5312C19.6873 14.0754 19.5541 13.6295 19.3043 13.2482C19.0546 12.8669 18.699 12.5667 18.2812 12.3844V7.96875C18.2812 5.85531 17.4417 3.82842 15.9473 2.33399C14.4528 0.839562 12.4259 0 10.3125 0C8.19906 0 6.17217 0.839562 4.67774 2.33399C3.18331 3.82842 2.34375 5.85531 2.34375 7.96875V12.3844C1.92597 12.5667 1.57043 12.8669 1.32066 13.2482C1.07089 13.6295 0.937735 14.0754 0.9375 14.5312V15.9375H0.46875C0.34443 15.9375 0.225201 15.9869 0.137294 16.0748C0.049386 16.1627 0 16.2819 0 16.4062V24.8438C0 24.9681 0.049386 25.0873 0.137294 25.1752C0.225201 25.2631 0.34443 25.3125 0.46875 25.3125H0.9375V26.7188C0.9375 27.3404 1.18443 27.9365 1.62397 28.376C2.06351 28.8156 2.65965 29.0625 3.28125 29.0625H17.3438C17.9654 29.0625 18.5615 28.8156 19.001 28.376C19.4406 27.9365 19.6875 27.3404 19.6875 26.7188V26.6578C20.3304 27.4107 21.0534 28.0912 21.8438 28.6875L22.2188 28.9688C22.2999 29.0296 22.3986 29.0625 22.5 29.0625C22.6014 29.0625 22.7001 29.0296 22.7812 28.9688L23.1562 28.6875C24.8405 27.4175 26.2079 25.7748 27.1512 23.8881C28.0946 22.0014 28.5883 19.9219 28.5938 17.8125C28.5964 17.7041 28.5614 17.5982 28.4947 17.5128C28.4281 17.4273 28.3339 17.3676 28.2281 17.3438ZM3.28125 7.96875C3.28125 6.10395 4.02204 4.31552 5.34066 2.99691C6.65927 1.67829 8.4477 0.9375 10.3125 0.9375C12.1773 0.9375 13.9657 1.67829 15.2843 2.99691C16.603 4.31552 17.3438 6.10395 17.3438 7.96875V12.1875H15.4688V7.96875C15.4688 6.60123 14.9255 5.28972 13.9585 4.32273C12.9915 3.35575 11.68 2.8125 10.3125 2.8125C8.94498 2.8125 7.63347 3.35575 6.66648 4.32273C5.6995 5.28972 5.15625 6.60123 5.15625 7.96875V12.1875H3.28125V7.96875ZM14.5312 12.1875H6.09375V7.96875C6.09375 6.84987 6.53822 5.77681 7.32939 4.98564C8.12056 4.19447 9.19362 3.75 10.3125 3.75C11.4314 3.75 12.5044 4.19447 13.2956 4.98564C14.0868 5.77681 14.5312 6.84987 14.5312 7.96875V12.1875ZM5.625 16.875V18.75H0.9375V16.875H5.625ZM0.9375 24.375V22.5H5.625V24.375H0.9375ZM5.625 21.5625H0.9375V19.6875H5.625V21.5625ZM18.75 26.7188C18.75 27.0917 18.6018 27.4494 18.3381 27.7131C18.0744 27.9768 17.7167 28.125 17.3438 28.125H3.28125C2.90829 28.125 2.5506 27.9768 2.28688 27.7131C2.02316 27.4494 1.875 27.0917 1.875 26.7188V25.3125H6.09375C6.21807 25.3125 6.3373 25.2631 6.42521 25.1752C6.51311 25.0873 6.5625 24.9681 6.5625 24.8438V16.4062C6.5625 16.2819 6.51311 16.1627 6.42521 16.0748C6.3373 15.9869 6.21807 15.9375 6.09375 15.9375H1.875V14.5312C1.875 14.1583 2.02316 13.8006 2.28688 13.5369C2.5506 13.2732 2.90829 13.125 3.28125 13.125H17.3438C17.7167 13.125 18.0744 13.2732 18.3381 13.5369C18.6018 13.8006 18.75 14.1583 18.75 14.5312V16.875C18.6094 16.9172 18.4688 16.9594 18.3234 16.9922L16.7719 17.3438C16.6661 17.3676 16.5719 17.4273 16.5053 17.5128C16.4386 17.5982 16.4036 17.7041 16.4062 17.8125C16.4139 20.5265 17.2298 23.1767 18.75 25.425V26.7188ZM22.5938 27.9375L22.5 28.0078L22.4062 27.9375C20.8878 26.7936 19.6448 25.3241 18.7688 23.6369C17.8927 21.9497 17.4058 20.0876 17.3438 18.1875L18.5203 17.925C20.1078 17.5722 21.5183 16.6668 22.5 15.3703C23.4805 16.6659 24.8892 17.5712 26.475 17.925L27.6562 18.1875C27.5942 20.0876 27.1073 21.9497 26.2312 23.6369C25.3552 25.3241 24.1122 26.7936 22.5938 27.9375Z" fill="#1E2B46"/>
<path d="M25.261 18.4921L24.4266 18.0702L24.1078 18.703C23.3843 18.2753 22.5256 18.1377 21.7046 18.3178C20.8836 18.4978 20.1614 18.9823 19.6833 19.6736C19.2052 20.3648 19.0068 21.2116 19.128 22.0433C19.2492 22.875 19.6811 23.6299 20.3365 24.156C20.992 24.682 21.8225 24.9402 22.6607 24.8785C23.499 24.8168 24.2827 24.4397 24.854 23.8233C25.4254 23.2069 25.742 22.397 25.7401 21.5565C25.7382 20.716 25.4179 19.9074 24.8438 19.2936L25.261 18.4921ZM24.8438 21.5624C24.8491 22.0858 24.6808 22.5961 24.3652 23.0137C24.0497 23.4313 23.6046 23.7325 23.0996 23.8702C22.5947 24.0079 22.0583 23.9744 21.5744 23.7749C21.0905 23.5754 20.6864 23.2212 20.4252 22.7676C20.1641 22.314 20.0606 21.7866 20.131 21.268C20.2014 20.7494 20.4418 20.2687 20.8144 19.9011C21.187 19.5336 21.671 19.2999 22.1905 19.2366C22.7101 19.1734 23.236 19.2841 23.686 19.5514L22.4203 22.0827L21.4828 20.8124L20.7328 21.3749L22.1391 23.2499C22.1827 23.3081 22.2394 23.3553 22.3044 23.3879C22.3695 23.4204 22.4413 23.4374 22.5141 23.4374H22.5563C22.6355 23.4298 22.7115 23.4021 22.7772 23.357C22.8428 23.3119 22.8958 23.2509 22.9313 23.1796L24.4172 20.2077C24.6984 20.6031 24.8476 21.0772 24.8438 21.5624Z" fill="#1E2B46"/>
</svg>
