<svg width="30" height="30" viewBox="0 0 30 30" fill="none" xmlns="http://www.w3.org/2000/svg">
<path d="M29.4141 23.3794C24.6094 25.1865 19.8047 26.9935 15 28.8005C10.1953 26.9935 5.39062 25.1865 0.585938 23.3794C4.48008 21.9152 8.4743 20.4127 12.2678 18.9861L15 23.3794L17.7322 18.9861C21.6264 20.4503 25.5199 21.9152 29.4141 23.3794Z" fill="#1EDEB7"/>
<path d="M15 23.3796L8.49097 12.9112C5.31636 7.80555 8.9879 1.19934 15 1.19934C21.0122 1.19934 24.6836 7.80555 21.509 12.9112L15 23.3796Z" fill="#EAF5FA"/>
<path d="M15 12.7146C17.1199 12.7146 18.8384 10.996 18.8384 8.87614C18.8384 6.75624 17.1199 5.03772 15 5.03772C12.8801 5.03772 11.1616 6.75624 11.1616 8.87614C11.1616 10.996 12.8801 12.7146 15 12.7146Z" fill="#E64C49"/>
<path d="M29.6203 22.831C27.6386 22.0859 25.6569 21.3405 23.6752 20.5952L18.6066 18.6889L22.0067 13.2206C23.6116 10.6395 23.6882 7.51258 22.2118 4.856C20.7353 2.19948 18.0393 0.613403 15 0.613403C11.9607 0.613403 9.26473 2.19942 7.78828 4.856C6.31189 7.51258 6.38848 10.6395 7.99336 13.2206L11.3935 18.6889L7.64109 20.1002C5.22979 21.0071 2.78561 21.9264 0.379746 22.831C0.151289 22.917 0 23.1354 0 23.3795C0 23.6235 0.15123 23.842 0.379629 23.9279L14.7937 29.349C14.8602 29.374 14.9301 29.3865 14.9999 29.3865C15.0698 29.3865 15.1397 29.374 15.2062 29.349L21.7643 26.8826C22.0672 26.7687 22.2203 26.4307 22.1065 26.1279C21.9925 25.825 21.6547 25.6716 21.3517 25.7857L15 28.1746L2.25053 23.3796C4.18172 22.6533 6.12809 21.9213 8.05365 21.1971L12.0244 19.7037L14.5024 23.689C14.6094 23.861 14.7975 23.9656 15 23.9656C15.2025 23.9656 15.3906 23.861 15.4976 23.689L17.9756 19.7037L23.2626 21.6921C24.7581 22.2546 26.2538 22.8172 27.7494 23.3796L25.957 24.0537C25.6542 24.1676 25.501 24.5055 25.6148 24.8084C25.7033 25.0434 25.9263 25.1883 26.1634 25.1883C26.2319 25.1883 26.3016 25.1761 26.3695 25.1506L29.6203 23.928C29.8487 23.8421 29.9999 23.6236 29.9999 23.3795C30 23.1354 29.8487 22.917 29.6203 22.831ZM15 22.2699L8.98852 12.6018C7.61162 10.3874 7.54588 7.70454 8.81256 5.4253C10.0793 3.14606 12.3923 1.78528 15 1.78528C17.6077 1.78528 19.9206 3.14606 21.1874 5.4253C22.4541 7.70454 22.3884 10.3874 21.0115 12.6018L15 22.2699Z" fill="#1E2B46"/>
<path d="M23.8621 26.0535C24.1857 26.0535 24.4481 25.7911 24.4481 25.4675C24.4481 25.1439 24.1857 24.8816 23.8621 24.8816C23.5385 24.8816 23.2762 25.1439 23.2762 25.4675C23.2762 25.7911 23.5385 26.0535 23.8621 26.0535Z" fill="#1E2B46"/>
<path d="M15 4.45178C12.5604 4.45178 10.5756 6.43659 10.5756 8.87614C10.5756 11.3157 12.5604 13.3006 15 13.3006C17.4396 13.3006 19.4244 11.3157 19.4244 8.87614C19.4244 6.43653 17.4396 4.45178 15 4.45178ZM15 12.1287C13.2065 12.1287 11.7474 10.6696 11.7474 8.87614C11.7474 8.71512 11.7596 8.55692 11.7824 8.40206C12.8547 8.40311 13.9057 8.58926 14.9128 8.95764C15.9596 9.34067 16.9079 9.90188 17.738 10.6283C17.1592 11.5297 16.1485 12.1287 15 12.1287ZM18.1949 9.48258C17.3335 8.78807 16.3687 8.24245 15.3154 7.85713C14.3069 7.48817 13.2594 7.28169 12.1912 7.23903C12.756 6.27381 13.8031 5.62366 14.9999 5.62366C16.7934 5.62366 18.2525 7.0827 18.2525 8.87614C18.2525 9.08344 18.2322 9.286 18.1949 9.48258Z" fill="#1E2B46"/>
</svg>
