<svg width="32" height="40" viewBox="0 0 32 40" fill="none" xmlns="http://www.w3.org/2000/svg">
<path d="M25.6386 26.864L30.8894 34.292C31.2279 34.7709 30.8541 35.4272 30.2696 35.3806L26.3568 35.0686L25.3443 38.861C25.1931 39.4276 24.4497 39.5607 24.1112 39.0818L17.8678 30.2492L25.6386 26.864Z" fill="#E1A546"/>
<path d="M6.36139 26.864L1.11054 34.292C0.772108 34.7709 1.14586 35.4272 1.73039 35.3806L5.64319 35.0686L6.65561 38.861C6.80686 39.4276 7.5503 39.5607 7.88873 39.0818L14.1322 30.2492L6.36139 26.864Z" fill="#E1A546"/>
<path d="M25.6386 26.864L17.8677 30.2492L19.3339 32.3234C22.1837 31.7545 24.7755 30.4741 26.9193 28.6757L25.6386 26.864Z" fill="#CD8741"/>
<path d="M5.06714 28.6949C7.21432 30.49 9.80994 31.7653 12.662 32.3291L14.1323 30.2492L6.36143 26.864L5.06714 28.6949Z" fill="#CD8741"/>
<path d="M15.9817 30.6246C24.2659 30.6246 30.9816 23.909 30.9816 15.6248C30.9816 7.34065 24.2659 0.625 15.9817 0.625C7.69758 0.625 0.981934 7.34065 0.981934 15.6248C0.981934 23.909 7.69758 30.6246 15.9817 30.6246Z" fill="#FFC850"/>
<path d="M24.6633 21.9435C16.3791 21.9435 9.66349 15.2279 9.66349 6.94361C9.66349 5.06307 10.0127 3.26487 10.6447 1.6062C4.99647 3.75807 0.982178 9.22134 0.982178 15.6249C0.982178 23.9091 7.69779 30.6247 15.9821 30.6247C22.3857 30.6247 27.849 26.6104 30.0008 20.9623C28.342 21.5944 26.5438 21.9435 24.6633 21.9435Z" fill="#EAB049"/>
<path d="M15.9819 27.3441C22.4543 27.3441 27.7013 22.0972 27.7013 15.6247C27.7013 9.15224 22.4543 3.90527 15.9819 3.90527C9.50942 3.90527 4.26245 9.15224 4.26245 15.6247C4.26245 22.0972 9.50942 27.3441 15.9819 27.3441Z" fill="#FFD980"/>
<path d="M24.6633 21.9434C16.3791 21.9434 9.66346 15.2278 9.66346 6.94351C9.66346 6.53539 9.68439 6.13234 9.71635 5.73242C6.44198 7.81086 4.26245 11.4594 4.26245 15.6248C4.26245 22.0974 9.50947 27.3444 15.982 27.3444C20.1475 27.3444 23.7959 25.1649 25.8744 21.8905C25.4744 21.9225 25.0714 21.9434 24.6633 21.9434Z" fill="#FFC850"/>
<path d="M23.512 12.921L18.6373 12.2127L16.4572 7.79543C16.2628 7.40152 15.7011 7.40152 15.5067 7.79543L13.3266 12.2127L8.45191 12.921C8.01723 12.9842 7.84363 13.5184 8.15816 13.825L11.6856 17.2634L10.8528 22.1184C10.7786 22.5514 11.233 22.8816 11.6218 22.6771L15.9819 20.3849L20.342 22.6771C20.7309 22.8815 21.1852 22.5513 21.111 22.1184L20.2783 17.2634L23.8056 13.825C24.1203 13.5184 23.9467 12.9842 23.512 12.921Z" fill="#FFF8DC"/>
<path d="M10.7643 12.585L8.45191 12.921C8.01723 12.9842 7.84363 13.5184 8.15817 13.825L11.6856 17.2634L10.8528 22.1185C10.7786 22.5514 11.233 22.8816 11.6218 22.6771L15.9819 20.3849L20.342 22.6771C20.7309 22.8815 21.1852 22.5513 21.111 22.1185L21.0036 21.4919C16.3406 20.3224 12.5463 16.9707 10.7643 12.585Z" fill="#FFF082"/>
<path d="M10.283 22.0235C10.2105 22.4456 10.3808 22.8642 10.7273 23.116C11.0738 23.3677 11.5245 23.4003 11.9037 23.201L15.9999 21.0475L20.0961 23.201C20.261 23.2876 20.4394 23.3304 20.6169 23.3304C20.8475 23.3304 21.0767 23.2582 21.2725 23.1159C21.619 22.8641 21.7893 22.4455 21.7168 22.0234L20.9345 17.4622L24.2484 14.2319C24.555 13.9329 24.6634 13.4942 24.5311 13.0869C24.3987 12.6795 24.0532 12.3883 23.6293 12.3266L18.7448 11.6169C18.4245 11.5702 18.1272 11.7922 18.0808 12.1124C18.0343 12.4326 18.2561 12.73 18.5763 12.7765L23.3509 13.4702L19.896 16.8379C19.7579 16.9725 19.6949 17.1665 19.7275 17.3566L20.543 22.1118L16.2726 19.8667C16.1018 19.777 15.8979 19.777 15.7272 19.8667L11.4568 22.1118L12.2723 17.3566C12.3049 17.1665 12.2419 16.9725 12.1038 16.8379L8.6489 13.4702L13.4234 12.7765C13.6143 12.7487 13.7792 12.6289 13.8646 12.4559L15.9998 8.12944L17.0412 10.2396C17.1844 10.5297 17.5356 10.6489 17.826 10.5057C18.1161 10.3625 18.2353 10.0111 18.0921 9.72092L17.0015 7.51108C16.8119 7.12702 16.4281 6.88843 15.9998 6.88843C15.5715 6.88843 15.1877 7.12702 14.9982 7.51108L12.9501 11.661L8.37031 12.3265C7.94648 12.3881 7.60093 12.6794 7.46859 13.0867C7.33624 13.494 7.44453 13.9328 7.75124 14.2317L11.0651 17.462L10.283 22.0235Z" fill="#202B46"/>
<path d="M31.3799 33.9827L26.5376 27.1303C29.6568 24.2732 31.6159 20.1693 31.6159 15.6161C31.6159 7.0053 24.6106 0 16 0C7.38927 0 0.383893 7.0053 0.383893 15.616C0.383893 20.1693 2.34311 24.2732 5.46224 27.1302L0.619908 33.9826C0.330377 34.3924 0.304753 34.9177 0.553033 35.3536C0.801236 35.7895 1.26577 36.0358 1.76608 35.9956L5.20013 35.7219L6.08873 39.0502C6.2181 39.5349 6.60521 39.8909 7.09904 39.9794C7.17646 39.9932 7.25372 40 7.33013 40C7.7406 40 8.12482 39.8039 8.36896 39.4585L14.2518 31.1337C14.8259 31.198 15.409 31.2321 16.0001 31.2321C16.5911 31.2321 17.1743 31.198 17.7484 31.1337L23.6312 39.4585C23.8753 39.804 24.2595 40 24.67 40C24.7464 40 24.8237 39.9932 24.9011 39.9794C25.3949 39.8909 25.782 39.535 25.9114 39.0502L26.8 35.7219L30.234 35.9956C30.7338 36.0354 31.1989 35.7895 31.4471 35.3536C31.6951 34.9177 31.6695 34.3924 31.3799 33.9827ZM7.41185 38.7822C7.40208 38.7959 7.37255 38.8375 7.30552 38.8258C7.23849 38.8138 7.22521 38.7642 7.22091 38.748L6.20646 34.9478C6.13349 34.6745 5.87584 34.4925 5.59381 34.5149L1.67295 34.8274C1.65616 34.8287 1.60506 34.8327 1.57139 34.7737C1.53772 34.7145 1.56725 34.6726 1.57702 34.6588L6.35873 27.8923C7.14036 28.5075 7.98208 29.0496 8.87333 29.5087L6.76169 32.4969C6.5749 32.7612 6.63779 33.1268 6.90208 33.3135C7.00482 33.3861 7.12279 33.421 7.23974 33.421C7.42357 33.421 7.60458 33.3347 7.71872 33.1731L9.95192 30.0129C10.9093 30.4167 11.9154 30.7269 12.9582 30.9336L7.41185 38.7822ZM1.55577 15.616C1.55577 7.65147 8.03536 1.17187 16 1.17187C23.9646 1.17187 30.4441 7.65147 30.4441 15.6161C30.4441 23.5807 23.9645 30.0602 16 30.0602C8.03544 30.0602 1.55577 23.5806 1.55577 15.616ZM30.4284 34.7737C30.3948 34.8327 30.3435 34.8287 30.3269 34.8274L26.4061 34.5149C26.1241 34.492 25.8664 34.6745 25.7935 34.9478L24.779 38.748C24.7746 38.7642 24.7614 38.8138 24.6944 38.8258C24.6271 38.8375 24.5978 38.7959 24.5881 38.7822L19.0419 30.9337C20.0847 30.727 21.0907 30.4167 22.0481 30.013L24.2813 33.1732C24.3955 33.3348 24.5765 33.421 24.7603 33.421C24.8772 33.421 24.9953 33.3862 25.098 33.3136C25.3623 33.1268 25.4252 32.7612 25.2384 32.497L23.1267 29.5088C24.018 29.0497 24.8597 28.5076 25.6413 27.8924L30.4231 34.6589C30.4326 34.6727 30.4622 34.7146 30.4284 34.7737Z" fill="#202B46"/>
<path d="M4.70075 15.0569C4.8388 12.2487 6.01067 9.60633 8.00051 7.61649C9.99035 5.62665 12.6328 4.45477 15.4409 4.31673C18.2303 4.17978 20.9543 5.0679 23.1131 6.81789C23.3645 7.02172 23.7335 6.98313 23.9373 6.73165C24.141 6.48024 24.1024 6.11133 23.851 5.90751C21.4678 3.97563 18.4604 2.99532 15.3833 3.14626C12.284 3.29868 9.3677 4.59196 7.17184 6.78782C4.97599 8.98367 3.68263 11.9 3.53036 14.9994C3.37904 18.0767 4.35974 21.0838 6.29161 23.4671C6.40739 23.61 6.57653 23.684 6.74715 23.684C6.87676 23.684 7.00723 23.6412 7.11575 23.5533C7.36715 23.3495 7.40575 22.9805 7.202 22.7291C5.45192 20.5704 4.56372 17.8457 4.70075 15.0569Z" fill="#202B46"/>
<path d="M25.7084 7.76483C25.5046 7.51342 25.1356 7.47491 24.8843 7.67858C24.6329 7.88233 24.5943 8.25131 24.798 8.50272C26.548 10.6615 27.4362 13.3862 27.2992 16.175C27.1612 18.9832 25.9893 21.6255 23.9994 23.6153C22.0096 25.6052 19.3672 26.7771 16.5591 26.9151C16.3715 26.9243 16.1847 26.9289 15.9978 26.9289C13.4067 26.9289 10.9004 26.0463 8.88682 24.414C8.63549 24.2103 8.2665 24.2489 8.06268 24.5003C7.85885 24.7517 7.89752 25.1206 8.14893 25.3244C10.3722 27.1266 13.1381 28.101 15.9975 28.1009C16.2033 28.1009 16.41 28.0959 16.6166 28.0856C19.7159 27.9333 22.6321 26.64 24.828 24.4441C27.024 22.2482 28.3173 19.3319 28.4696 16.2326C28.6208 13.1553 27.6402 10.1479 25.7084 7.76483Z" fill="#202B46"/>
</svg>
