<svg width="30" height="30" viewBox="0 0 30 30" fill="none" xmlns="http://www.w3.org/2000/svg">
<path d="M17.9299 5.56151C17.9299 5.56151 20.8045 1.83061 19.978 0.760278C19.6962 0.395532 19.456 0.890884 18.8734 0.890884C18.1889 0.890884 18.1889 0.442993 17.5042 0.442993C16.8198 0.442993 16.8198 0.890884 16.1353 0.890884C15.4508 0.890884 15.4508 0.442993 14.7664 0.442993C14.082 0.442993 14.082 0.890884 13.3975 0.890884C12.8142 0.890884 12.5749 0.389087 12.2913 0.754009C11.4643 1.81842 14.2969 5.56145 14.2969 5.56145C1.78687 13.7856 5.82053 24.97 13.2067 24.97H19.0645C26.4729 24.97 30.4816 13.8129 17.9299 5.56151Z" fill="#43AADC"/>
<path d="M17.9299 5.56151C17.9299 5.56151 20.8045 1.83061 19.9779 0.760278C19.6962 0.395532 19.456 0.890884 18.8734 0.890884C18.1888 0.890884 18.1888 0.442993 17.5042 0.442993C16.8197 0.442993 16.8197 0.890884 16.1352 0.890884C16.1015 0.890884 16.0707 0.889009 16.0402 0.886899C15.7652 2.06581 14.5258 3.90249 13.8166 4.88586C14.0959 5.29573 14.2969 5.56145 14.2969 5.56145C14.13 5.67114 13.9667 5.78147 13.8057 5.89221C25.7583 14.1077 21.7589 24.9699 14.449 24.9699H19.0645C26.4729 24.97 30.4816 13.8129 17.9299 5.56151Z" fill="#43AADC"/>
<path d="M18.4645 6.8885C16.7941 7.31031 15.1439 7.31037 13.4733 6.8885C12.8918 6.74166 12.5622 6.08781 12.7714 5.49349C12.7738 5.48687 12.7761 5.48019 12.7784 5.47357C12.9539 4.97529 13.4515 4.69568 13.9391 4.81808C15.3069 5.1615 16.6305 5.16156 17.9986 4.81808C18.4863 4.69562 18.9838 4.97529 19.1593 5.47357C19.1617 5.48019 19.164 5.48687 19.1663 5.49349C19.3755 6.08787 19.0459 6.74166 18.4645 6.8885Z" fill="#1EDEB7"/>
<path d="M2.75891 26.8889L9.1202 29.2567C9.66049 29.4578 10.2323 29.5607 10.8088 29.5607H17.3646C18.282 29.5607 19.1806 29.3 19.9555 28.809L28.164 23.6075C28.7056 23.1267 28.806 22.3185 28.3985 21.7197C27.9528 21.0646 27.2153 20.9507 26.4038 21.3344L18.4121 24.8532L18.4215 23.5566C18.3157 22.4924 17.4962 21.6383 16.4373 21.4884L11.5705 20.928C10.4479 20.7692 9.88684 20.393 8.90815 19.8204C7.57198 19.0388 6.05182 18.6268 4.50383 18.6268H2.75891V26.8889Z" fill="white"/>
<path d="M28.3986 21.7198C27.9528 21.0647 27.2154 20.9507 26.4039 21.3345L24.2057 22.3024C24.3121 22.4709 24.3968 22.6054 24.3968 22.6054C24.8042 23.2041 24.7038 24.0123 24.1623 24.4932L19.3794 27.524C18.7494 27.8124 18.0626 27.9637 17.3646 27.9637H10.8088C10.2324 27.9637 9.66049 27.8607 9.12026 27.6596L2.75897 25.2918V26.889L9.12026 29.2568C9.66055 29.4579 10.2324 29.5608 10.8088 29.5608H16.165H17.3646C18.2821 29.5608 19.1806 29.3001 19.9556 28.809L28.1641 23.6077C28.7056 23.1267 28.8061 22.3186 28.3986 21.7198Z" fill="white"/>
<path d="M4.12775 28.1559C4.12775 28.6175 3.75357 28.9917 3.29203 28.9917H1.27505C0.813511 28.9917 0.439331 28.6175 0.439331 28.1559V17.9229C0.439331 17.4613 0.813511 17.0872 1.27505 17.0872H3.29203C3.75357 17.0872 4.12775 17.4613 4.12775 17.9229V28.1559Z" fill="#1EDEB7"/>
<path d="M28.7619 21.4726C28.2023 20.6501 27.253 20.4493 26.2218 20.9346L25.6752 21.1753C26.537 19.3383 26.6439 17.2907 26.2149 15.3565C25.7222 13.135 24.5321 10.983 22.6777 8.96016C22.5138 8.78127 22.2359 8.7692 22.0569 8.93321C21.878 9.09715 21.866 9.37506 22.03 9.55401C23.7787 11.4616 24.8981 13.4779 25.357 15.5467C25.8404 17.726 25.5592 19.9734 24.3257 21.7694L18.8565 24.1775L18.861 23.5598C18.8611 23.5443 18.8604 23.5287 18.8588 23.5131C18.7325 22.2436 17.7621 21.2321 16.4989 21.0534C16.4951 21.0528 16.4914 21.0523 16.4876 21.0519L11.6266 20.4922C9.75738 20.2262 9.27598 19.106 6.74449 18.4673C6.56959 16.9831 6.80273 15.4029 7.44176 13.8187C8.40416 11.4329 10.287 9.11491 12.8971 7.09735C13.8699 7.78711 18.2101 7.87295 19.1814 6.98315C19.6789 7.36102 20.1538 7.75043 20.5962 8.14459C20.68 8.21924 20.7844 8.25592 20.8884 8.25592C21.0093 8.25592 21.1298 8.20629 21.2166 8.10885C21.378 7.92768 21.3619 7.64995 21.1808 7.48852C20.6958 7.05651 20.1742 6.63024 19.6271 6.21827C19.7554 5.67463 19.5759 5.03836 19.1025 4.65961C20.4782 2.57297 20.8784 1.20721 20.3256 0.491664C19.946 0.00012137 19.4738 0.230805 19.2721 0.32936C18.9302 0.496235 18.7438 0.505024 18.4293 0.299242C17.8293 -0.0933943 17.1986 -0.10605 16.5792 0.299242C16.2606 0.50766 16.0098 0.50766 15.6914 0.299242C15.0913 -0.0933943 14.4608 -0.10605 13.8413 0.299242C13.5231 0.507485 13.3361 0.494594 12.9996 0.327367C12.7982 0.227231 12.3264 -0.00726147 11.9444 0.48434C11.4041 1.17973 11.7656 2.50243 13.0485 4.51811C12.9699 4.56059 12.895 4.61045 12.8251 4.66741C12.3149 4.12858 11.4789 3.56661 10.27 3.70161C9.26731 3.81381 8.52791 3.48247 8.08412 3.18481C7.88256 3.04981 7.60963 3.1036 7.47451 3.30504C7.33939 3.50661 7.39324 3.77954 7.59475 3.91465C8.16047 4.29393 9.10066 4.71616 10.3675 4.57489C11.3015 4.47012 11.9353 4.94743 12.3298 5.43317C12.3244 5.45192 12.3194 5.47079 12.3148 5.48965C11.9783 5.49493 11.4754 5.52633 10.9215 5.64153C9.58957 5.91862 8.60086 6.55161 8.06221 7.47223C7.93969 7.68164 8.01012 7.95082 8.21953 8.0734C8.429 8.19592 8.69812 8.12543 8.82064 7.91602C9.62186 6.54674 11.5775 6.37928 12.3543 6.36879C12.3577 6.37846 12.3616 6.38801 12.3651 6.39762C9.59315 8.53588 7.6633 10.9205 6.62689 13.4898C5.97182 15.1139 5.71014 16.7409 5.84297 18.2871C5.42162 18.2248 4.99541 18.1913 4.56715 18.1884V17.9227C4.56715 17.2196 3.99516 16.6477 3.29209 16.6477H1.27506C0.571992 16.6477 0 17.2197 0 17.9227V28.1557C0 28.8588 0.571992 29.4308 1.27506 29.4308H3.29203C3.9951 29.4308 4.56709 28.8588 4.56709 28.1557V28.0306L8.96695 29.6682C9.55822 29.8882 10.1779 29.9998 10.8088 29.9998H17.3646C18.3669 29.9998 19.3442 29.7162 20.1908 29.1798C28.9364 23.6357 28.4053 23.9806 28.4558 23.9358C29.1603 23.3105 29.2919 22.2515 28.7619 21.4726ZM18.3568 6.46248C16.7501 6.86819 15.1879 6.86819 13.5807 6.46248C12.8912 6.28817 13.091 5.05829 13.8321 5.24414C15.2698 5.60508 16.6676 5.60508 18.1055 5.24414C18.8337 5.06133 19.0575 6.28541 18.3568 6.46248ZM12.5983 1.1093C12.6018 1.111 12.6052 1.11276 12.6085 1.1144C13.2032 1.40995 13.7242 1.426 14.3224 1.03465C15.071 0.544633 15.1523 1.33032 16.1352 1.33032C16.6084 1.33032 16.8696 1.15946 17.0602 1.03465C17.3788 0.826176 17.6297 0.826293 17.9482 1.03465C18.549 1.42782 19.0575 1.40842 19.6695 1.11329C19.7599 1.43918 19.5553 2.41073 18.2524 4.35053C17.6054 4.33952 16.6665 4.97496 14.0085 4.38346C12.7085 2.41858 12.5074 1.4376 12.5983 1.1093ZM27.8962 23.2572L19.7204 28.4378C19.0148 28.885 18.2002 29.1214 17.3647 29.1214H10.8088C10.283 29.1214 9.76641 29.0283 9.27352 28.8449L4.56709 27.0931V22.3614C4.56709 22.1187 4.37039 21.922 4.12775 21.922C3.88512 21.922 3.68842 22.1187 3.68842 22.3614V28.1559C3.68842 28.3745 3.51059 28.5523 3.29209 28.5523H1.27506C1.0565 28.5523 0.878731 28.3744 0.878731 28.1559V17.9229C0.878731 17.7043 1.0565 17.5266 1.27506 17.5266H3.29203C3.51059 17.5266 3.68836 17.7044 3.68836 17.9229V20.3073C3.68836 20.55 3.88506 20.7467 4.1277 20.7467C4.37033 20.7467 4.56703 20.55 4.56703 20.3073V19.0673C8.20166 19.0952 9.01887 21.0109 11.509 21.3631C11.5127 21.3637 11.5165 21.3642 11.5202 21.3646L16.381 21.9242C17.2321 22.0471 17.8871 22.7248 17.982 23.5781L17.9759 24.4139H13.4428C13.2001 24.4139 13.0034 24.6106 13.0034 24.8533C13.0034 25.096 13.2001 25.2927 13.4428 25.2927H18.412C18.4675 25.2927 18.5316 25.2804 18.5874 25.2561C18.5964 25.2521 26.5716 21.7407 26.5809 21.7366C27.1557 21.4812 27.6799 21.4447 28.0353 21.967C28.3116 22.3729 28.2505 22.9216 27.8962 23.2572Z" fill="#1E2B46"/>
<path d="M16.0846 19.9348C16.3272 19.9348 16.524 19.7381 16.524 19.4954V18.7671C17.7574 18.567 18.4771 17.5686 18.6337 16.6372C18.8293 15.4737 18.2198 14.4618 17.0811 14.0594C16.8799 13.9882 16.6948 13.9202 16.5239 13.8545V11.053C17.0437 11.1392 17.3558 11.4082 17.3785 11.4283C17.557 11.5906 17.8332 11.5786 17.997 11.4011C18.1615 11.2227 18.1502 10.9447 17.9719 10.7802C17.9409 10.7516 17.4027 10.2671 16.5239 10.1658V9.54096C16.5239 9.29826 16.3272 9.10156 16.0845 9.10156C15.8419 9.10156 15.6452 9.29826 15.6452 9.54096V10.2013C15.5392 10.2216 15.4307 10.2474 15.3192 10.2809C14.5739 10.5054 14.0168 11.1445 13.8652 11.9487C13.7277 12.6785 13.9591 13.3803 14.469 13.7803C14.7618 14.0099 15.1304 14.2201 15.6452 14.4449V17.9196C15.137 17.8981 14.8243 17.8027 14.2786 17.4457C14.0756 17.3129 13.8033 17.3697 13.6704 17.5729C13.5376 17.7759 13.5945 18.0482 13.7976 18.1811C14.5148 18.6503 14.9943 18.7727 15.6452 18.798V19.4954C15.6452 19.7381 15.8419 19.9348 16.0846 19.9348ZM15.0114 13.0889C14.7605 12.8921 14.6522 12.5176 14.7288 12.1115C14.7998 11.7348 15.0587 11.2772 15.5727 11.1224C15.5971 11.115 15.6211 11.1087 15.6452 11.1022V13.4756C15.3821 13.3442 15.1758 13.2178 15.0114 13.0889ZM16.7883 14.8879C17.8816 15.2743 17.8139 16.2131 17.7671 16.4916C17.6702 17.0682 17.2469 17.6838 16.5239 17.8691V14.7927C16.6094 14.8239 16.6968 14.8555 16.7883 14.8879Z" fill="#1E2B46"/>
</svg>
