<svg width="41" height="40" viewBox="0 0 41 40" fill="none" xmlns="http://www.w3.org/2000/svg">
<g clip-path="url(#clip0_2004_2414)">
<path d="M27.9956 22.0303L24.6888 26.8872L33.1359 39.2942H39.7494L27.9956 22.0303Z" fill="#2FDAB7"/>
<path d="M27.9957 22.0303L26.9833 23.5173L37.7246 39.2942H39.7494L27.9957 22.0303Z" fill="#2FDAB7"/>
<path d="M17.0265 39.2943H0.917358L17.0265 15.6333L33.1356 39.2943H17.0265Z" fill="#2FDAB7"/>
<path d="M17.0265 15.6333L16.0531 17.0631L31.1887 39.2943H33.1357L17.0265 15.6333Z" fill="#2FDAB7"/>
<path d="M22.3808 23.4975L19.7298 25.8603L17.0265 23.4975L14.3233 25.8603L11.6722 23.4975L17.0265 15.6333L22.3808 23.4975Z" fill="white"/>
<path d="M21.169 24.5775L22.3808 23.4975L17.0265 15.6333L16.0531 17.0631L21.169 24.5775Z" fill="white"/>
<path d="M33.3386 5.40112H27.6016V9.59362H24.285V13.1878H33.3386L30.4701 9.29456L33.3386 5.40112Z" fill="#47A4D6"/>
<path d="M27.6019 1.80688H17.0267V9.59399H27.6019V1.80688Z" fill="#47A4D6"/>
<path d="M27.6016 9.59375L24.285 13.188V9.59375H27.6016Z" fill="#2FDAB7"/>
<path d="M40.2321 38.9656L37.855 35.4741C37.6734 35.2074 37.3101 35.1385 37.0435 35.3199C36.7768 35.5015 36.7079 35.8648 36.8893 36.1314L38.645 38.7101H33.4447L25.3954 26.8873L27.9955 23.0682L35.567 34.1892C35.7486 34.4559 36.1118 34.5249 36.3785 34.3434C36.6451 34.1618 36.7141 33.7985 36.5326 33.5319L28.4783 21.7016C28.3695 21.5417 28.1888 21.4462 27.9955 21.4462C27.8022 21.4462 27.6214 21.5418 27.5127 21.7016L24.6887 25.8493L22.8638 23.1689L17.6107 15.4531V10.1777H23.7012V13.1878C23.7012 13.2149 23.7037 13.2414 23.7073 13.2676C23.7081 13.2735 23.709 13.2795 23.71 13.2853C23.7189 13.338 23.7348 13.3882 23.7568 13.4351C23.7589 13.4398 23.7611 13.4443 23.7634 13.4488C23.7751 13.4722 23.7879 13.4949 23.8025 13.5163L23.8049 13.5196C23.8187 13.5397 23.8342 13.5585 23.8504 13.5767C23.8543 13.5812 23.8582 13.5856 23.8624 13.5899C23.8797 13.6082 23.8982 13.6256 23.9178 13.6415C23.9207 13.6438 23.9239 13.646 23.9269 13.6483C23.9454 13.6627 23.9647 13.6759 23.985 13.688C23.989 13.6904 23.9929 13.693 23.9972 13.6953C24.0202 13.7084 24.0442 13.72 24.069 13.7299L24.0729 13.7318C24.0779 13.7338 24.0832 13.7352 24.0882 13.7371C24.0989 13.7409 24.1093 13.7446 24.1202 13.7478C24.1282 13.7502 24.1361 13.752 24.1441 13.754C24.154 13.7565 24.1637 13.7591 24.1739 13.761C24.1847 13.7631 24.1955 13.7646 24.2064 13.766C24.2139 13.767 24.2211 13.7685 24.2288 13.7692C24.2477 13.771 24.2666 13.7721 24.2855 13.7721H33.3389C33.5592 13.7721 33.7608 13.6481 33.8602 13.4514C33.9596 13.2548 33.9398 13.0189 33.8091 12.8415L31.1958 9.29463L33.8091 5.74775C33.9398 5.57033 33.9596 5.33455 33.8602 5.13791C33.7608 4.94127 33.5592 4.81729 33.3389 4.81729H28.1859V1.80713C28.1859 1.48455 27.9244 1.22307 27.6018 1.22307H23.5491C23.2265 1.22307 22.965 1.48455 22.965 1.80713C22.965 2.12971 23.2265 2.39119 23.5491 2.39119H27.0178V9.00978H17.6107V2.39096H21.2127C21.5353 2.39096 21.7968 2.12947 21.7968 1.80689C21.7968 1.48432 21.5353 1.22283 21.2127 1.22283H17.6107V0.705644C17.6107 0.383066 17.3493 0.121582 17.0267 0.121582C16.7041 0.121582 16.4426 0.383066 16.4426 0.705644V15.4532L8.90363 26.5264C8.72207 26.7931 8.79113 27.1563 9.05777 27.3379C9.32434 27.5194 9.68762 27.4504 9.86926 27.1838L11.7807 24.3764L13.9348 26.2963C14.0455 26.3949 14.1845 26.4443 14.3234 26.4443C14.4604 26.4443 14.5977 26.3963 14.7078 26.3L17.0267 24.2733L19.3455 26.3C19.5673 26.4938 19.8986 26.4922 20.1186 26.2963L22.2727 24.3764L32.0315 38.7102H2.02184L8.53395 29.1452C8.71551 28.8785 8.64645 28.5153 8.37981 28.3336C8.11317 28.1521 7.74988 28.2211 7.56832 28.4878L0.43465 38.9656C0.312853 39.1445 0.299962 39.376 0.401134 39.5674C0.502384 39.7587 0.701056 39.8783 0.917462 39.8783H39.7493C39.9657 39.8783 40.1643 39.7586 40.2656 39.5674C40.3668 39.376 40.3539 39.1444 40.2321 38.9656ZM32.183 5.98525L30 8.94807C29.8482 9.15416 29.8482 9.43494 30 9.64096L32.183 12.6038H25.619L28.0311 9.98979C28.0332 9.98744 28.0349 9.98471 28.037 9.98229C28.0534 9.96393 28.069 9.94486 28.083 9.92439L28.085 9.92182C28.0993 9.9008 28.1118 9.87854 28.1232 9.85564C28.1257 9.85088 28.1279 9.84611 28.1302 9.84135C28.1406 9.81924 28.15 9.79658 28.1575 9.77307L28.1583 9.77096C28.166 9.74697 28.1717 9.72229 28.1762 9.69705C28.1772 9.69127 28.178 9.68557 28.1789 9.67986C28.1818 9.66002 28.1837 9.63986 28.1847 9.61932C28.1849 9.61346 28.1854 9.60768 28.1855 9.60189C28.1855 9.59916 28.1859 9.5965 28.1859 9.59377V5.98525H32.183ZM26.2681 10.1778L24.8694 11.6936V10.1778H26.2681ZM21.6096 23.4025L19.7261 25.0811L17.4111 23.0577C17.3009 22.9615 17.1639 22.9134 17.0267 22.9134C16.8896 22.9134 16.7524 22.9615 16.6423 23.0577L14.3272 25.0811L12.4436 23.4025L17.0266 16.671L21.6096 23.4025Z" fill="#202B46"/>
</g>
<defs>
<clipPath id="clip0_2004_2414">
<rect width="40" height="40" fill="white" transform="translate(0.333374)"/>
</clipPath>
</defs>
</svg>
