<svg width="22" height="22" viewBox="0 0 22 22" fill="none" xmlns="http://www.w3.org/2000/svg">
<g clip-path="url(#clip0_2253:9226)">
<path d="M1.32232 12.5442C1.41234 12.5588 1.50344 12.5656 1.59459 12.5644H17.1151L16.7767 12.7218C16.4459 12.8784 16.145 13.0915 15.8874 13.3514L11.535 17.7038C10.9618 18.251 10.8655 19.1312 11.3068 19.7895C11.8204 20.4909 12.8053 20.6431 13.5067 20.1296C13.5634 20.088 13.6173 20.0428 13.6679 19.9941L21.5383 12.1236C22.1534 11.5093 22.154 10.5126 21.5396 9.89754C21.5392 9.89714 21.5387 9.8967 21.5383 9.89631L13.6679 2.02587C13.0523 1.41202 12.0557 1.4134 11.4418 2.02896C11.3935 2.07742 11.3484 2.12897 11.3068 2.18327C10.8655 2.84149 10.9618 3.72175 11.535 4.26894L15.8795 8.62917C16.1104 8.86036 16.376 9.05422 16.6665 9.20371L17.1388 9.41621H1.68121C0.877098 9.38635 0.171611 9.94806 0.0205476 10.7384C-0.118612 11.5966 0.464196 12.405 1.32232 12.5442Z" fill="#C1C1C1"/>
</g>
<defs>
<clipPath id="clip0_2253:9226">
<rect width="22" height="22" fill="white" transform="translate(22 22) rotate(-180)"/>
</clipPath>
</defs>
</svg>
