<svg width="30" height="28" viewBox="0 0 30 28" fill="none" xmlns="http://www.w3.org/2000/svg">
<path d="M10.9803 2.20679H2.96655V9.01022H10.9803V2.20679Z" fill="#164FCE"/>
<path d="M10.9803 12.5247H2.96655V19.3281H10.9803V12.5247Z" fill="#164FCE"/>
<path d="M29.0988 2.20679H14.4941V9.01022H29.0988V2.20679Z" fill="#164FCE"/>
<path d="M25.945 12.5245C25.6962 12.5245 25.4945 12.3228 25.4945 12.074H24.5933C24.5933 12.3228 24.3916 12.5245 24.1428 12.5245H14.4944V19.3279H29.0989V12.5245H25.945Z" fill="#164FCE"/>
<path d="M25.945 11.6234H29.0989V9.91134H14.0438C13.7949 9.91134 13.5932 9.70966 13.5932 9.46081V2.20679H11.8812V9.46075C11.8812 9.7096 11.6795 9.91128 11.4307 9.91128H2.96655V11.6234H11.4306C11.6794 11.6234 11.8811 11.8251 11.8811 12.0739V19.3278H13.5932V12.0739C13.5932 11.8251 13.7949 11.6234 14.0437 11.6234H24.1426C24.3915 11.6234 24.5932 11.8251 24.5932 12.0739H25.4943C25.4944 11.8252 25.6961 11.6234 25.945 11.6234Z" fill="#FFE000"/>
<path d="M29.5495 1.30566H2.51608C2.26723 1.30566 2.06555 1.5074 2.06555 1.75619V19.7785C2.06555 20.0273 2.26723 20.229 2.51608 20.229H29.5495C29.7983 20.229 30 20.0272 30 19.7785V1.75619C30 1.5074 29.7983 1.30566 29.5495 1.30566ZM10.9801 9.01021H2.96661V2.20678H10.9801V9.01021ZM2.96661 12.5245H10.9801V19.3279H2.96661V12.5245ZM14.4944 19.3279V12.5245H24.1428C24.3916 12.5245 24.5933 12.3228 24.5933 12.074C24.5933 11.8251 24.3916 11.6234 24.1428 11.6234H14.0438C13.795 11.6234 13.5933 11.8252 13.5933 12.074V19.3279H11.8812V12.074C11.8812 11.8251 11.6796 11.6234 11.4307 11.6234H2.96661V9.91133H11.4306C11.6795 9.91133 11.8812 9.70965 11.8812 9.4608V2.20678H13.5932V9.46074C13.5932 9.70959 13.7949 9.91127 14.0438 9.91127H29.0988V11.6234H25.9449C25.6961 11.6234 25.4944 11.8251 25.4944 12.0739C25.4944 12.3227 25.6961 12.5244 25.9449 12.5244H29.0988V19.3278H14.4944V19.3279ZM29.0989 9.01021H14.4944V2.20678H29.0989V9.01021H29.0989Z" fill="black"/>
<path d="M1.23118 27.0851C0.853716 27.0851 0.546509 26.778 0.546509 26.4005V1.22497C0.546509 0.850967 0.850845 0.546631 1.22485 0.546631H1.31432C1.6919 0.546631 1.99899 0.853779 1.99899 1.2313V26.4004C1.99899 26.7779 1.69184 27.085 1.31432 27.085L1.23118 27.0851Z" fill="white"/>
<path d="M1.31438 0H1.2249C0.549492 0 0 0.549434 0 1.22484V26.4003C0 27.0792 0.552305 27.6315 1.23123 27.6315H1.31432C1.99324 27.6315 2.54555 27.0792 2.54555 26.4003V1.23117C2.54555 0.552305 1.99324 0 1.31438 0ZM1.63465 26.4004C1.63465 26.577 1.49098 26.7206 1.31438 26.7206H1.23129C1.05469 26.7206 0.911016 26.577 0.911016 26.4004V1.22484C0.911016 1.0517 1.05182 0.910898 1.22496 0.910898H1.31443C1.49104 0.910898 1.63471 1.05457 1.63471 1.23117V26.4003H1.63465V26.4004Z" fill="black"/>
</svg>
