<svg width="25" height="30" viewBox="0 0 25 30" fill="none" xmlns="http://www.w3.org/2000/svg">
<path fill-rule="evenodd" clip-rule="evenodd" d="M3.88387 6.30363C4.62596 4.99289 5.63424 3.91746 6.90415 3.14232C5.94942 2.52961 5.09389 1.75066 4.37999 0.82611C4.08262 0.417301 3.42795 0.554586 3.33292 1.06236C3.22833 1.61677 3.17249 2.19966 3.17249 2.76386C3.17243 4.019 3.42567 5.21502 3.88387 6.30363V6.30363Z" fill="#FFC144"/>
<path fill-rule="evenodd" clip-rule="evenodd" d="M6.90398 3.14226C5.63408 3.9174 4.62579 4.99283 3.8837 6.30357C3.6045 6.79669 3.36298 7.3231 3.15942 7.87933H10.5469V1.87781C9.1589 2.07421 7.94378 2.50757 6.90398 3.14226V3.14226Z" fill="#FFDA8F"/>
<path fill-rule="evenodd" clip-rule="evenodd" d="M10.5471 1.87781V7.87934H14.0627V1.87781V1.17188C14.0627 0.849609 13.7991 0.585938 13.4768 0.585938H11.1331C10.8108 0.585938 10.5471 0.849609 10.5471 1.17188V1.87781Z" fill="#FFC144"/>
<path fill-rule="evenodd" clip-rule="evenodd" d="M14.0626 1.87781V7.87933H21.4501C21.2465 7.3231 21.005 6.79664 20.7258 6.30351C19.9838 4.99277 18.9755 3.91734 17.7056 3.1422C16.6658 2.50757 15.4507 2.07421 14.0626 1.87781V1.87781Z" fill="#FFDA8F"/>
<path fill-rule="evenodd" clip-rule="evenodd" d="M17.7057 3.14261C18.9756 3.91774 19.9838 4.99317 20.726 6.30392C21.1841 5.2153 21.4374 4.01934 21.4374 2.76421C21.4374 2.58749 21.3437 1.04935 21.2766 1.06276C21.1855 0.575204 20.5514 0.410205 20.2401 0.813212C19.5242 1.74345 18.665 2.52696 17.7057 3.14261V3.14261Z" fill="#FFC144"/>
<path fill-rule="evenodd" clip-rule="evenodd" d="M21.4501 7.87939H14.0626H10.547H3.15956H2.92993C2.60766 7.87939 2.34399 8.14307 2.34399 8.46533V11.4696V11.9809C2.34399 12.3032 2.60778 12.5669 2.92993 12.5669H2.93233H5.70791H18.9035H21.6775H21.6798C22.002 12.5669 22.2657 12.3031 22.2657 11.9809V11.4696V8.46533C22.2657 8.14318 22.0021 7.87939 21.6798 7.87939H21.4501Z" fill="#FFC144"/>
<path fill-rule="evenodd" clip-rule="evenodd" d="M22.2657 11.981C22.2657 12.3031 22.0019 12.5669 21.6797 12.5669H21.6774C21.679 12.6743 21.6798 12.7823 21.6798 12.8908V13.8287C21.7122 14.5723 21.6971 15.3354 21.6411 16.0824H21.6798C22.9688 16.0824 24.0235 15.0278 24.0235 13.7387C24.0235 12.6517 23.2737 11.7315 22.2657 11.4696V11.981Z" fill="#FFDCD5"/>
<path fill-rule="evenodd" clip-rule="evenodd" d="M21.6799 13.8287V12.8908C21.6799 12.7823 21.6791 12.6744 21.6775 12.5669H18.9035C19.0673 12.8768 19.1744 13.143 19.1998 13.3177C19.2632 13.7541 18.4621 15.5903 18.2997 16.151C17.8578 17.5548 16.5391 18.4526 14.0037 16.9887C14.0037 16.9887 13.3028 16.5337 12.3057 16.5337C11.3087 16.5337 10.6078 16.9887 10.6078 16.9887C9.02696 17.9014 6.99324 18.3159 6.31174 16.151C5.98725 15.0305 5.34184 13.7983 5.41169 13.3177C5.43706 13.143 5.54422 12.8768 5.70793 12.5669H2.93236C2.93078 12.6744 2.92996 12.7823 2.92996 12.8908V13.8287C2.8975 14.5723 2.91267 15.3354 2.96863 16.0824C3.27666 20.1961 4.82083 23.8226 6.45319 21.0025C6.40449 21.3694 6.53363 21.9108 6.77457 22.4706C7.15777 23.3612 7.82375 24.2984 8.50583 24.6542C9.1898 25.0108 9.88993 24.7828 10.3377 23.337C10.3377 24.0251 10.717 25.8759 12.3049 25.8759C13.8929 25.8759 14.2721 24.0252 14.2721 23.337C15.1665 26.225 17.0681 24.2538 17.8354 22.4702C18.0762 21.9105 18.2053 21.3693 18.1567 21.0025C19.789 23.8226 21.3332 20.1961 21.6412 16.0824C21.6972 15.3354 21.7123 14.5723 21.6799 13.8287Z" fill="#CBE6F3"/>
<path fill-rule="evenodd" clip-rule="evenodd" d="M18.2997 16.151C18.4621 15.5903 19.2632 13.7541 19.1998 13.3177C19.1744 13.143 19.0672 12.8768 18.9035 12.5669H5.70786C5.54415 12.8768 5.43692 13.143 5.41161 13.3177C5.34182 13.7983 5.98717 15.0305 6.31166 16.151C6.99317 18.3159 9.0269 17.9014 10.6078 16.9887C10.6078 16.9887 11.3087 16.5337 12.3057 16.5337C13.3027 16.5337 14.0036 16.9887 14.0036 16.9887C16.539 18.4525 17.8578 17.5548 18.2997 16.151Z" fill="#FFDCD5"/>
<path fill-rule="evenodd" clip-rule="evenodd" d="M2.96854 16.0824C2.91259 15.3354 2.89741 14.5722 2.92987 13.8287V12.8908C2.92987 12.7823 2.93069 12.6743 2.93227 12.5669H2.92987C2.60772 12.5669 2.34393 12.3032 2.34393 11.981V11.4696C1.33594 11.7315 0.58606 12.6517 0.58606 13.7387C0.58606 15.0278 1.64075 16.0824 2.92981 16.0824H2.96854Z" fill="#FFDCD5"/>
<path fill-rule="evenodd" clip-rule="evenodd" d="M4.89196 23.517C3.22491 24.6272 1.80091 26.1145 0.755071 27.9004C0.32347 28.5327 0.77013 29.4141 1.55528 29.4141L4.65383 29.4138C6.20627 27.4946 5.82536 25.093 4.89196 23.517V23.517Z" fill="#FFDCD5"/>
<path fill-rule="evenodd" clip-rule="evenodd" d="M4.89126 23.5169C5.82466 25.0929 6.20552 27.4945 4.65308 29.4137L15.3463 29.4126C12.1236 28.9861 9.25913 26.9315 8.50579 24.654C7.8237 24.2983 7.15772 23.3611 6.77452 22.4705C6.11962 22.7682 5.48979 23.1183 4.89126 23.5169V23.5169Z" fill="#FFC144"/>
<path fill-rule="evenodd" clip-rule="evenodd" d="M8.50574 24.6542C9.25907 26.9316 12.1235 28.9863 15.3462 29.4127L23.0561 29.4119C23.7892 29.4127 24.2684 28.6113 23.8921 27.9617C22.471 25.5052 20.3361 23.607 17.8354 22.4702C17.0681 24.2539 15.1665 26.2251 14.2721 23.337C14.2721 24.0252 13.8928 25.8759 12.3049 25.8759C10.7169 25.8759 10.3377 24.0252 10.3377 23.337C9.88983 24.7828 9.18964 25.0108 8.50574 24.6542V24.6542Z" fill="#FFDCD5"/>
<path d="M24.3992 27.6682C23.1705 25.5441 21.4377 23.8094 19.3403 22.5891C19.469 22.5876 19.5892 22.5669 19.6979 22.5352C21.0986 22.1261 21.9077 19.3696 22.1784 16.625C23.5569 16.3875 24.6093 15.1841 24.6093 13.7387C24.6093 12.5615 23.9056 11.5152 22.8515 11.0546V8.4653C22.8515 7.87966 22.4192 7.39444 21.8573 7.30837C21.7108 6.94591 21.5486 6.59827 21.3718 6.26494C22.0237 4.57844 22.191 2.74833 21.8526 0.954488C21.7653 0.488318 21.4238 0.133945 20.9613 0.0296483C20.507 -0.0727146 20.0372 0.10125 19.7616 0.473436C19.1692 1.23943 18.4709 1.90353 17.6829 2.45202C16.7704 1.94566 15.7556 1.58759 14.6484 1.38134V1.17187C14.6484 0.525701 14.1227 0 13.4765 0H11.1328C10.4866 0 9.9609 0.525701 9.9609 1.17187V1.38134C8.85366 1.58765 7.83882 1.9456 6.92628 2.45196C6.13832 1.90353 5.44006 1.23937 4.84774 0.473436C4.57223 0.10125 4.10248 -0.0728903 3.64803 0.0296483C3.1855 0.133945 2.84401 0.488377 2.75683 0.953727C2.41833 2.74827 2.58556 4.57838 3.23747 6.26488C3.06069 6.59827 2.89845 6.94591 2.75196 7.30837C2.19005 7.39444 1.75786 7.87966 1.75786 8.4653V11.0546C0.703708 11.5152 0 12.5615 0 13.7387C0 15.1841 1.0524 16.3876 2.43099 16.625C2.70163 19.3695 3.51075 22.1261 4.91143 22.5352C5.02059 22.5671 5.14129 22.5877 5.27049 22.5891C3.20026 23.7939 1.48371 25.5011 0.257636 27.5887C-0.0556053 28.062 -0.0848436 28.6669 0.182519 29.1732C0.451873 29.6832 0.977515 30 1.55437 30L23.0554 29.9978H23.057C23.6165 29.9978 24.1185 29.7067 24.4 29.219C24.6806 28.7331 24.6802 28.1532 24.3992 27.6682V27.6682ZM23.4375 13.7387C23.4375 14.5031 22.9469 15.1547 22.2641 15.3962C22.2865 14.8475 22.287 14.314 22.2657 13.8159V12.9942C22.5043 12.8557 22.6892 12.6356 22.783 12.3721C23.1869 12.6984 23.4375 13.1951 23.4375 13.7387V13.7387ZM20.6935 1.18417C20.6957 1.18125 20.6987 1.17732 20.7015 1.17369C20.9417 2.4495 20.8912 3.74512 20.5609 4.97764C20.1289 4.39715 19.6396 3.87625 19.0939 3.41928C18.9766 3.32108 18.8562 3.22721 18.7343 3.1354C19.4672 2.57513 20.1241 1.92152 20.6935 1.18417V1.18417ZM20.5745 7.29343H14.6485V2.57489C17.3793 3.14501 19.407 4.76113 20.5745 7.29343ZM13.4766 1.17187V7.29343H11.1329V1.17187H13.4766ZM9.96102 7.29343H9.66764C9.34408 7.29343 9.0817 7.55575 9.0817 7.87936C9.0817 8.20298 9.34408 8.4653 9.66764 8.4653H21.6797V11.9809H21.6775H2.92985V8.4653H4.39422C4.71777 8.4653 4.98016 8.20298 4.98016 7.87936C4.98016 7.55575 4.71777 7.29343 4.39422 7.29343H4.03498C5.20252 4.76107 7.23021 3.14507 9.96102 2.57495V7.29343ZM18.6169 13.3855C18.6013 13.6552 18.2313 14.6336 18.0519 15.1078C17.9157 15.468 17.7978 15.7797 17.7389 15.9807C17.6181 16.3614 17.3664 16.8544 16.8518 17.0546C16.2431 17.2917 15.3622 17.095 14.3047 16.486C14.1745 16.4057 13.3843 15.9477 12.3056 15.9477C11.2269 15.9477 10.4367 16.4057 10.3064 16.486C9.2753 17.0795 8.33546 17.2842 7.72655 17.0471C7.33028 16.8929 7.05085 16.5442 6.87238 15.981C6.73691 15.515 6.55064 15.0343 6.38611 14.6099C6.2173 14.1744 5.9865 13.579 5.99212 13.397C5.99869 13.3583 6.02277 13.2772 6.07568 13.1528H18.5355C18.5835 13.2659 18.6078 13.3433 18.6169 13.3855ZM3.90801 1.17357C3.91065 1.17714 3.91334 1.18066 3.91604 1.18417C4.48539 1.92152 5.14234 2.57513 5.87517 3.13534C5.75418 3.22651 5.63465 3.31967 5.51816 3.41712C4.97137 3.87456 4.48123 4.39615 4.04852 4.97752C3.71835 3.745 3.66778 2.44933 3.90801 1.17357V1.17357ZM1.17199 13.7387C1.17199 13.1951 1.42265 12.6984 1.82654 12.3721C1.92029 12.6356 2.10521 12.8556 2.34386 12.9942V13.8159C2.32247 14.3139 2.323 14.8475 2.34544 15.3961C1.66265 15.1547 1.17199 14.5031 1.17199 13.7387V13.7387ZM5.24008 21.4102C5.01473 21.3444 4.46893 20.7512 4.01582 18.9774C3.78538 18.0752 3.62794 17.06 3.55171 16.0287C3.55147 16.0261 3.55141 16.0235 3.55112 16.0208C3.49774 15.2953 3.48426 14.562 3.51514 13.8541C3.51555 13.8456 3.51573 13.8371 3.51573 13.8286V13.1527H4.84639C4.84064 13.1803 4.83543 13.2075 4.83168 13.2333C4.77033 13.6556 4.95742 14.1666 5.29346 15.0334C5.45769 15.4571 5.6275 15.8952 5.74879 16.3139C5.75002 16.3182 5.75136 16.3225 5.75265 16.3268C6.04064 17.2415 6.56177 17.8513 7.30163 18.1392C8.59344 18.6419 10.111 17.952 10.9007 17.496C10.9095 17.4909 10.915 17.4876 10.9235 17.4821C10.9293 17.4785 11.5081 17.1196 12.3057 17.1196C13.1033 17.1196 13.682 17.4785 13.6846 17.48C13.6931 17.4856 13.7018 17.4909 13.7106 17.496C14.667 18.0482 15.5302 18.3252 16.2895 18.3252C16.6413 18.3252 16.9709 18.2657 17.277 18.1466C18.0291 17.8539 18.576 17.2246 18.8586 16.3267C18.8599 16.3225 18.8613 16.3181 18.8625 16.3138C18.9077 16.158 19.0244 15.8492 19.1481 15.5223C19.6393 14.2237 19.8355 13.6186 19.7795 13.2332C19.7758 13.2073 19.7706 13.1803 19.7648 13.1527H21.0938V13.8285C21.0938 13.8371 21.094 13.8456 21.0944 13.8541C21.1252 14.562 21.1118 15.2953 21.0584 16.0208C21.0581 16.0234 21.058 16.026 21.0578 16.0287C20.9815 17.06 20.8241 18.0751 20.5937 18.9773C20.1406 20.7512 19.5948 21.3443 19.3694 21.4102C19.2421 21.4477 18.974 21.2451 18.6636 20.7088C18.5235 20.4668 18.2321 20.3577 17.9675 20.4477C17.7029 20.5379 17.5389 20.8024 17.5757 21.0795C17.656 21.6844 17.2447 22.4252 16.9452 22.9223C16.6671 23.3837 16.2182 24.0806 15.6444 24.2066C15.2454 24.294 14.964 23.5907 14.8317 23.1635C14.746 22.8868 14.4712 22.7142 14.1843 22.7575C13.8978 22.8008 13.686 23.0471 13.686 23.3369C13.686 23.5633 13.6194 24.1162 13.3671 24.5882C13.1147 25.0603 12.7672 25.2898 12.3048 25.2898C11.8423 25.2898 11.4948 25.0603 11.2424 24.5882C10.9901 24.1162 10.9235 23.5633 10.9235 23.3369C10.9235 23.0471 10.7117 22.8008 10.4252 22.7575C10.138 22.7144 9.86358 22.8868 9.77779 23.1635C9.64549 23.5906 9.36424 24.2943 8.9651 24.2066C8.37887 24.0779 7.92073 23.3567 7.6413 22.8841C7.35161 22.394 6.95517 21.672 7.03386 21.0795C7.07066 20.8024 6.90654 20.5379 6.64199 20.4477C6.37744 20.3576 6.08599 20.4669 5.94595 20.7088C5.63552 21.2452 5.36775 21.4477 5.24008 21.4102V21.4102ZM6.50359 23.2516C6.5463 23.3307 6.58954 23.4077 6.6329 23.481C6.90202 23.9357 7.38946 24.6392 8.02684 25.0532C8.60118 26.5504 9.94936 27.9032 11.6681 28.8271L5.72857 28.8277C6.62206 27.0619 6.3288 25.1262 5.6616 23.7199C5.93529 23.5539 6.21613 23.3977 6.50359 23.2516ZM1.55443 28.8281C1.348 28.8281 1.25097 28.6867 1.21886 28.6259C1.1932 28.5774 1.11884 28.4055 1.23808 28.2308C1.24576 28.2196 1.25296 28.2081 1.25976 28.1965C2.14095 26.6918 3.29969 25.4021 4.67547 24.3819C5.22672 25.6461 5.39629 27.3679 4.36082 28.8278L1.55443 28.8281ZM23.3852 28.6333C23.3517 28.6913 23.2529 28.826 23.0566 28.826C23.0564 28.826 23.0563 28.826 23.0561 28.826L15.389 28.8267C12.8781 28.4844 10.5187 27.0543 9.46742 25.3306C9.67725 25.2686 9.8968 25.1512 10.1087 24.9458C10.4855 25.7644 11.1829 26.4618 12.3048 26.4618C13.4266 26.4618 14.1241 25.7644 14.5009 24.9458C14.9994 25.4286 15.5406 25.4293 15.8958 25.3512C16.8698 25.1374 17.6177 24.0876 17.9767 23.4809C18.0202 23.4075 18.0635 23.3303 18.1063 23.251C20.3182 24.3754 22.1358 26.0956 23.385 28.2552C23.4837 28.4256 23.418 28.5764 23.3852 28.6333V28.6333Z" fill="black"/>
<path d="M15.2345 16.0824C15.7199 16.0824 16.1134 15.5577 16.1134 14.9105C16.1134 14.2633 15.7199 13.7386 15.2345 13.7386C14.7491 13.7386 14.3556 14.2633 14.3556 14.9105C14.3556 15.5577 14.7491 16.0824 15.2345 16.0824Z" fill="black"/>
<path d="M9.375 16.0825C9.86041 16.0825 10.2539 15.5579 10.2539 14.9106C10.2539 14.2634 9.86041 13.7388 9.375 13.7388C8.88959 13.7388 8.49609 14.2634 8.49609 14.9106C8.49609 15.5579 8.88959 16.0825 9.375 16.0825Z" fill="black"/>
<path d="M12.3048 20.6237C13.3637 20.6237 14.2946 19.9094 14.5686 18.8865C14.6524 18.5739 14.4669 18.2527 14.1543 18.1689C13.8416 18.0851 13.5205 18.2707 13.4367 18.5833C13.2997 19.0947 12.8343 19.4518 12.3048 19.4518C11.7754 19.4518 11.31 19.0946 11.1729 18.5833C11.0891 18.2707 10.7681 18.0851 10.4553 18.1689C10.1427 18.2527 9.95721 18.5739 10.041 18.8865C10.3149 19.9093 11.2459 20.6237 12.3048 20.6237V20.6237Z" fill="black"/>
<path d="M12.3046 10.8091H12.305C12.6286 10.8091 12.8908 10.5468 12.8908 10.2231C12.8908 9.89953 12.6282 9.63721 12.3046 9.63721C11.981 9.63721 11.7186 9.89953 11.7186 10.2231C11.7186 10.5468 11.981 10.8091 12.3046 10.8091V10.8091Z" fill="black"/>
<path d="M9.66785 10.8091H9.66832C9.99187 10.8091 10.254 10.5468 10.254 10.2231C10.254 9.89953 9.99146 9.63721 9.66785 9.63721C9.34423 9.63721 9.08191 9.89953 9.08191 10.2231C9.08191 10.5468 9.34429 10.8091 9.66785 10.8091V10.8091Z" fill="black"/>
<path d="M7.03113 9.63721C6.70757 9.63721 6.44519 9.89953 6.44519 10.2231C6.44519 10.5468 6.70757 10.8091 7.03113 10.8091H7.03154C7.35509 10.8091 7.6173 10.5468 7.6173 10.2231C7.6173 9.89953 7.35474 9.63721 7.03113 9.63721Z" fill="black"/>
<path d="M4.39441 9.63721C4.07085 9.63721 3.80847 9.89953 3.80847 10.2231C3.80847 10.5468 4.07085 10.8091 4.39441 10.8091H4.39488C4.71843 10.8091 4.98058 10.5468 4.98058 10.2231C4.98058 9.89953 4.71802 9.63721 4.39441 9.63721Z" fill="black"/>
<path d="M14.9413 10.8091H14.9417C15.2653 10.8091 15.5275 10.5468 15.5275 10.2231C15.5275 9.89953 15.2649 9.63721 14.9413 9.63721C14.6177 9.63721 14.3553 9.89953 14.3553 10.2231C14.3553 10.5468 14.6177 10.8091 14.9413 10.8091Z" fill="black"/>
<path d="M17.578 10.8091H17.5784C17.902 10.8091 18.1642 10.5468 18.1642 10.2231C18.1642 9.89953 17.9016 9.63721 17.578 9.63721C17.2544 9.63721 16.9921 9.89953 16.9921 10.2231C16.9921 10.5468 17.2544 10.8091 17.578 10.8091Z" fill="black"/>
<path d="M20.2145 10.8091H20.2149C20.5385 10.8091 20.8006 10.5468 20.8006 10.2231C20.8006 9.89953 20.5381 9.63721 20.2145 9.63721C19.8909 9.63721 19.6285 9.89953 19.6285 10.2231C19.6285 10.5468 19.8909 10.8091 20.2145 10.8091V10.8091Z" fill="black"/>
<path d="M12.3046 6.13684H12.305C12.6286 6.13684 12.8908 5.87452 12.8908 5.5509C12.8908 5.22729 12.6282 4.96497 12.3046 4.96497C11.981 4.96497 11.7186 5.22729 11.7186 5.5509C11.7186 5.87452 11.981 6.13684 12.3046 6.13684V6.13684Z" fill="black"/>
<path d="M12.3046 3.50024H12.305C12.6286 3.50024 12.8908 3.23792 12.8908 2.91431C12.8908 2.59069 12.6282 2.32837 12.3046 2.32837C11.981 2.32837 11.7186 2.59069 11.7186 2.91431C11.7186 3.23792 11.981 3.50024 12.3046 3.50024V3.50024Z" fill="black"/>
<path d="M7.03124 8.46534C7.35479 8.46534 7.61718 8.20301 7.61718 7.8794C7.61718 7.55578 7.35479 7.29346 7.03124 7.29346H7.03077C6.70722 7.29346 6.44507 7.55578 6.44507 7.8794C6.44507 8.20301 6.70769 8.46534 7.03124 8.46534V8.46534Z" fill="black"/>
</svg>
