<svg width="29" height="30" viewBox="0 0 29 30" fill="none" xmlns="http://www.w3.org/2000/svg">
<path d="M20.2005 3.53223H7.88986C6.91855 3.53223 6.1312 4.31958 6.1312 5.29089V11.1531C6.1312 12.1244 6.91855 12.9118 7.88986 12.9118H20.2005C21.1718 12.9118 21.9591 12.1244 21.9591 11.1531V5.29089C21.9591 4.31964 21.1718 3.53223 20.2005 3.53223Z" fill="#43AADC"/>
<path d="M10.6844 8.18387C11.3319 8.18387 11.8568 7.65895 11.8568 7.01143C11.8568 6.36391 11.3319 5.83899 10.6844 5.83899C10.0369 5.83899 9.51196 6.36391 9.51196 7.01143C9.51196 7.65895 10.0369 8.18387 10.6844 8.18387Z" fill="#EAF5FA"/>
<path d="M17.1815 8.18387C17.829 8.18387 18.3539 7.65895 18.3539 7.01143C18.3539 6.36391 17.829 5.83899 17.1815 5.83899C16.534 5.83899 16.009 6.36391 16.009 7.01143C16.009 7.65895 16.534 8.18387 17.1815 8.18387Z" fill="#EAF5FA"/>
<path d="M6.1312 15.2563H21.9591V24.8897H6.1312V15.2563Z" fill="#43AADC"/>
<path d="M13.0662 24.2843V24.8898H6.13126V21.3531H10.1351C11.7513 21.3531 13.0662 22.668 13.0662 24.2843Z" fill="#1EDEB7"/>
<path d="M21.9592 21.3531V24.8898H15.0242V24.2843C15.0242 22.668 16.3391 21.3531 17.9553 21.3531H21.9592Z" fill="#1EDEB7"/>
<path d="M11.8941 12.9116H16.1965V15.2565H11.8941V12.9116Z" fill="#1EDEB7"/>
<path d="M5.54498 10.1859H6.1312V6.25818H5.54498C4.57367 6.25818 3.78632 7.04553 3.78632 8.01684V8.42719C3.78632 9.3985 4.57373 10.1859 5.54498 10.1859Z" fill="#43AADC"/>
<path d="M22.5454 10.1859H21.9591V6.25818H22.5454C23.5167 6.25818 24.304 7.04553 24.304 8.01684V8.42719C24.304 9.3985 23.5167 10.1859 22.5454 10.1859Z" fill="#43AADC"/>
<path d="M5.54498 19.1841H6.1312V15.2565H5.54498C4.57367 15.2565 3.78632 16.0438 3.78632 17.0151V17.4255C3.78632 18.3968 4.57373 19.1841 5.54498 19.1841Z" fill="#43AADC"/>
<path d="M22.5454 19.1841H21.9591V15.2565H22.5454C23.5167 15.2565 24.304 16.0438 24.304 17.0151V17.4255C24.304 18.3968 23.5167 19.1841 22.5454 19.1841Z" fill="#43AADC"/>
<path d="M16.009 2.94616V3.53238H12.0813V2.94616C12.0813 1.97485 12.8687 1.1875 13.84 1.1875H14.2503C15.2217 1.1875 16.009 1.97485 16.009 2.94616Z" fill="#E64C49"/>
<path d="M6.1312 15.2563H9.0623V24.8897H6.1312V15.2563Z" fill="#1EDEB7"/>
<path d="M10.1354 29.5603H5.54504C4.57373 29.5603 3.78638 28.7729 3.78638 27.8016V24.2843C3.78638 23.313 4.57373 22.5256 5.54504 22.5256H10.1354C11.1067 22.5256 11.894 23.313 11.894 24.2843V27.8016C11.894 28.7729 11.1066 29.5603 10.1354 29.5603Z" fill="#43AADC"/>
<path d="M22.5454 29.5603H17.955C16.9837 29.5603 16.1964 28.7729 16.1964 27.8016V24.2843C16.1964 23.313 16.9837 22.5256 17.955 22.5256H22.5454C23.5167 22.5256 24.304 23.313 24.304 24.2843V27.8016C24.304 28.7729 23.5167 29.5603 22.5454 29.5603Z" fill="#BDBDBD"/>
<path d="M22.5454 29.5603H17.955C16.9837 29.5603 16.1964 28.7729 16.1964 27.8016V24.2843C16.1964 23.313 16.9837 22.5256 17.955 22.5256H22.5454C23.5167 22.5256 24.304 23.313 24.304 24.2843V27.8016C24.304 28.7729 23.5167 29.5603 22.5454 29.5603Z" fill="#43AADC"/>
<path d="M8.47608 29.56H5.54498C4.57361 29.56 3.78632 28.7727 3.78632 27.8014V24.2841C3.78632 23.3127 4.57361 22.5254 5.54498 22.5254H8.47608C7.50471 22.5254 6.71742 23.3127 6.71742 24.2841V27.8014C6.71742 28.7727 7.50471 29.56 8.47608 29.56Z" fill="#1EDEB7"/>
<path d="M20.8864 29.56H17.9553C16.9839 29.56 16.1966 28.7727 16.1966 27.8014V24.2841C16.1966 23.3127 16.9839 22.5254 17.9553 22.5254H20.8864C19.915 22.5254 19.1277 23.3127 19.1277 24.2841V27.8014C19.1277 28.7727 19.915 29.56 20.8864 29.56Z" fill="#1EDEB7"/>
<path d="M10.821 12.9115H7.88986C6.91849 12.9115 6.1312 12.1242 6.1312 11.1528V5.29064C6.1312 4.31928 6.91849 3.53198 7.88986 3.53198H10.821C9.84959 3.53198 9.0623 4.31928 9.0623 5.29064V11.1528C9.0623 12.1242 9.84959 12.9115 10.821 12.9115Z" fill="#1EDEB7"/>
<path d="M0.850204 21.0091H3.37605C3.60268 21.0091 3.78641 20.8254 3.78641 20.5988V13.7548C3.78641 13.5282 3.60268 13.3445 3.37605 13.3445H0.850204C0.623571 13.3445 0.43985 13.5282 0.43985 13.7548V20.5988C0.43985 20.8254 0.623571 21.0091 0.850204 21.0091Z" fill="#EAF5FA"/>
<path d="M2.60862 21.009H0.84996C0.623679 21.009 0.439606 20.8255 0.439606 20.5986V13.7551C0.439606 13.5282 0.623679 13.3447 0.84996 13.3447H2.60862C2.38234 13.3447 2.19827 13.5282 2.19827 13.7551V20.5986C2.19827 20.8255 2.3824 21.009 2.60862 21.009Z" fill="#EAF5FA"/>
<path d="M24.7144 21.0091H27.2402C27.4669 21.0091 27.6506 20.8254 27.6506 20.5988V13.7548C27.6506 13.5282 27.4669 13.3445 27.2402 13.3445H24.7144C24.4878 13.3445 24.304 13.5282 24.304 13.7548V20.5988C24.304 20.8254 24.4878 21.0091 24.7144 21.0091Z" fill="#EAF5FA"/>
<path d="M26.4731 21.009H24.7144C24.4875 21.009 24.304 20.8255 24.304 20.5986V13.7551C24.304 13.5282 24.4875 13.3447 24.7144 13.3447H26.4731C26.2462 13.3447 26.0627 13.5282 26.0627 13.7551V20.5986C26.0627 20.8255 26.2462 21.009 26.4731 21.009Z" fill="#EAF5FA"/>
<path d="M18.4419 18.8681C18.4419 18.2206 17.917 17.6957 17.2694 17.6957H10.821C10.1735 17.6957 9.64856 18.2206 9.64856 18.8681C9.64856 19.5157 10.1735 20.0406 10.821 20.0406H17.2694C17.917 20.0406 18.4419 19.5157 18.4419 18.8681Z" fill="#EAF5FA"/>
<path d="M27.6508 16.702C27.8937 16.702 28.0904 16.5052 28.0904 16.2623V13.7551C28.0904 13.2864 27.7091 12.9051 27.2404 12.9051H24.7144C24.2457 12.9051 23.8644 13.2864 23.8644 13.7551V15.2576C23.4967 14.981 23.0399 14.8167 22.5454 14.8167H16.6361V13.3513H20.2006C21.4128 13.3513 22.3989 12.3652 22.3989 11.153V10.6254C23.623 10.645 24.7438 9.69954 24.7438 8.42709V8.01674C24.7731 6.60477 23.6206 5.83629 22.3989 5.81841V5.29081C22.3989 4.07863 21.4128 3.09249 20.2006 3.09249H16.4488C16.4807 1.94139 15.6934 0.9087 14.5192 0.764842V0.439665C14.5192 0.196794 14.3224 0 14.0795 0C13.8367 0 13.6399 0.196794 13.6399 0.439665V0.757338C12.4331 0.866844 11.611 1.91589 11.6417 3.09249H7.88994C6.67775 3.09249 5.69161 4.07863 5.69161 5.29081V5.81841C4.46753 5.79883 3.34673 6.74429 3.34673 8.01674V8.42709C3.34673 9.73061 4.46993 10.6075 5.69161 10.6254V11.153C5.69161 12.3652 6.67775 13.3513 7.88994 13.3513H11.4544V14.8167H6.13128C5.4073 14.8167 4.7563 14.8586 4.22606 15.2576V13.7551C4.22606 13.2864 3.84473 12.9051 3.37604 12.9051H0.850019C0.381336 12.9051 0 13.2864 0 13.7551V16.2624C0 16.5053 0.196794 16.7021 0.439665 16.7021C0.682536 16.7021 0.879331 16.5053 0.879331 16.2624V13.7844H3.34673V20.5693H0.879331V18.1781C0.879331 17.9352 0.682536 17.7384 0.439665 17.7384C0.196794 17.7384 0 17.9352 0 18.1781V20.5986C0 21.0673 0.381336 21.4486 0.850019 21.4486H3.37604C3.84473 21.4486 4.22606 21.0673 4.22606 20.5986V19.1829C4.63782 19.4927 5.18084 19.6304 5.69161 19.6238V22.0861C4.46753 22.0664 3.34673 23.012 3.34673 24.2844V27.8017C3.34673 29.0139 4.33287 30.0001 5.54506 30.0001H10.1354C11.3476 30.0001 12.3337 29.0139 12.3337 27.8017V25.3294H15.7568V27.8017C15.7568 29.0139 16.743 30 17.9552 30H22.5455C23.7577 30 24.7438 29.0139 24.7438 27.8017V24.2844C24.7438 22.8138 23.6206 22.1039 22.399 22.086V19.6237C22.9097 19.6304 23.4527 19.4927 23.8645 19.1828V20.5986C23.8645 21.0672 24.2458 21.4486 24.7145 21.4486H27.2405C27.7092 21.4486 28.0906 21.0672 28.0906 20.5986V18.178C28.0906 17.9352 27.8938 17.7384 27.6509 17.7384C27.408 17.7384 27.2112 17.9352 27.2112 18.178V20.5692H24.7438V13.7844H27.2112V16.2624C27.2111 16.5052 27.408 16.702 27.6508 16.702ZM23.8644 8.01674V8.42709C23.8644 9.26621 23.3075 9.74609 22.3988 9.74609V6.69774C23.2391 6.67048 23.8707 7.30823 23.8644 8.01674ZM13.84 1.62717H14.2504C15.0894 1.62717 15.5694 2.1397 15.5694 3.09249H12.521C12.5052 2.26674 12.9314 1.61984 13.84 1.62717ZM4.226 8.42709V8.01674C4.226 7.17762 4.82201 6.69774 5.69155 6.69774V9.74609C4.85132 9.74627 4.226 9.11573 4.226 8.42709ZM6.57089 11.153V5.29081C6.57089 4.56355 7.16262 3.97182 7.88988 3.97182H20.2005C20.9278 3.97182 21.5195 4.56355 21.5195 5.29081V11.153C21.5195 11.8803 20.9278 12.472 20.2005 12.472H7.88988C7.16262 12.472 6.57089 11.8803 6.57089 11.153ZM12.3337 13.3513H15.7568V14.8167H12.3337V13.3513ZM4.226 17.4254V17.015C4.226 16.1759 4.87085 15.6961 5.69155 15.6961V18.7444C4.80249 18.7444 4.22372 18.2021 4.226 17.4254ZM5.545 22.9654H10.1353C10.8015 22.9654 11.4543 23.4781 11.4543 24.4503H4.226C4.226 23.5758 4.69809 22.9654 5.545 22.9654ZM4.226 25.3296H11.4543V26.7903H4.226V25.3296ZM10.1353 29.1207H5.545C4.61684 29.1207 4.226 28.3952 4.226 27.6696H11.4543C11.4543 28.5098 10.9687 29.1207 10.1353 29.1207ZM23.8644 26.7903H16.6361V25.3296H23.8644V26.7903H23.8644ZM22.5454 29.1207H17.955C17.1217 29.1207 16.6361 28.4512 16.6361 27.6696H23.8644C23.8644 28.5489 23.3787 29.1207 22.5454 29.1207ZM23.8644 24.4503H16.6361C16.6361 23.5465 17.1081 22.9654 17.9551 22.9654H22.5454C23.4443 22.9654 23.865 23.7078 23.8644 24.4503ZM17.9551 22.086C16.6429 22.086 15.755 23.0483 15.7568 24.4501H12.3337C12.3612 23.2192 11.4164 22.086 10.1353 22.086H6.57089V15.6961H21.5195V22.086H17.9551ZM22.3988 18.7444V15.6961C23.2977 15.6961 23.8644 16.1759 23.8644 17.015V17.4254C23.8644 18.2021 23.3075 18.6711 22.3988 18.7444Z" fill="#1E2B46"/>
<path d="M17.2694 17.2561H10.821C9.93211 17.2561 9.20889 17.9793 9.20889 18.8682C9.20889 19.8534 9.81463 20.4803 10.821 20.4803H13.0867C13.3296 20.4803 13.5264 20.2835 13.5264 20.0407C13.5264 19.7978 13.3296 19.601 13.0867 19.601H10.821C10.3746 19.5588 10.1304 19.3146 10.0882 18.8682C10.0882 18.4641 10.4169 18.1354 10.821 18.1354H17.2694C17.6735 18.1354 18.0022 18.4641 18.0022 18.8682C18.0022 19.2723 17.6735 19.601 17.2694 19.601H15.0031C14.7602 19.601 14.5634 19.7978 14.5634 20.0407C14.5634 20.2835 14.7602 20.4803 15.0031 20.4803H17.2694C18.1583 20.4803 18.8815 19.7571 18.8815 18.8682C18.8815 17.9793 18.1584 17.2561 17.2694 17.2561Z" fill="#1E2B46"/>
<path d="M12.2965 7.0114C12.2965 6.12251 11.5733 5.39929 10.6844 5.39929C9.79552 5.39929 9.0723 6.12251 9.0723 7.0114C9.0723 7.90029 9.79552 8.62351 10.6844 8.62351C11.5733 8.62351 12.2965 7.90034 12.2965 7.0114ZM10.6844 7.74418C10.2803 7.74418 9.95163 7.41548 9.95163 7.0114C9.95163 6.60732 10.2803 6.27862 10.6844 6.27862C11.0885 6.27862 11.4172 6.60732 11.4172 7.0114C11.4172 7.41548 11.0885 7.74418 10.6844 7.74418Z" fill="#1E2B46"/>
<path d="M17.1815 8.62351C18.0704 8.62351 18.7936 7.90029 18.7936 7.0114C18.7936 6.12251 18.0704 5.39929 17.1815 5.39929C16.2926 5.39929 15.5694 6.12251 15.5694 7.0114C15.5694 7.90029 16.2926 8.62351 17.1815 8.62351ZM17.1815 6.27862C17.5856 6.27862 17.9142 6.60732 17.9142 7.0114C17.9142 7.41548 17.5856 7.74418 17.1815 7.74418C16.7774 7.74418 16.4487 7.41548 16.4487 7.0114C16.4487 6.60732 16.7774 6.27862 17.1815 6.27862Z" fill="#1E2B46"/>
<path d="M16.009 10.9184C16.2519 10.9184 16.4487 10.7216 16.4487 10.4787C16.4487 10.2359 16.2519 10.0391 16.009 10.0391H12.1499C11.9071 10.0391 11.7103 10.2359 11.7103 10.4787C11.7103 10.7216 11.9071 10.9184 12.1499 10.9184H16.009Z" fill="#1E2B46"/>
</svg>
