<svg width="30" height="30" viewBox="0 0 30 30" fill="none" xmlns="http://www.w3.org/2000/svg">
<path d="M29.3994 0.585938C29.3994 0.585938 29.2863 3.74003 27.9756 7.44842L22.5369 2.00976C26.2453 0.699023 29.3994 0.585938 29.3994 0.585938Z" fill="#1EDEB7"/>
<path d="M22.5369 2.00977L27.9756 7.44843C27.1236 9.86131 25.7637 12.5086 23.5992 14.673C21.6046 16.6676 19.2051 18.2642 16.6963 19.3711L10.6143 13.289C11.3549 11.6103 12.3885 9.81912 13.7543 8.12284C14.2324 7.52929 14.751 6.94745 15.3123 6.38612C17.4768 4.22168 20.124 2.86172 22.5369 2.00977Z" fill="white"/>
<path d="M22.7701 7.21523C23.6853 8.13047 23.6853 9.61464 22.7701 10.5299C21.8549 11.4451 20.3713 11.4451 19.4555 10.5299C18.5402 9.61406 18.5402 8.13047 19.4555 7.21523C20.3707 6.3 21.8549 6.3 22.7701 7.21523Z" fill="#43AADC"/>
<path d="M21.9416 16.33C24.9615 20.8599 19.3084 23.7878 16.1414 23.7878C17.7984 22.1307 17.3145 19.9892 17.3145 19.9892L16.6963 19.371C18.375 18.6304 20.1662 17.5968 21.8625 16.231L21.9416 16.33Z" fill="#1EDEB7"/>
<path d="M9.93343 17.5805L9.83851 17.4855C9.55843 17.2049 9.42073 16.7982 9.51917 16.4139C9.76351 15.4623 10.1244 14.4006 10.6143 13.2891L16.6963 19.3711C15.5848 19.8609 14.5231 20.2219 13.5715 20.4662C13.1871 20.5646 12.7805 20.4269 12.4998 20.1469L12.4049 20.0519L9.93343 17.5805Z" fill="#1EDEB7"/>
<path d="M13.6553 8.04381L13.7543 8.12291C12.3885 9.81919 11.3549 11.6104 10.6143 13.2891L9.99611 12.6709C9.99611 12.6709 7.85451 12.187 6.19748 13.844C6.19748 10.677 9.1254 5.0239 13.6553 8.04381Z" fill="#1EDEB7"/>
<path d="M9.93341 17.5806L12.4049 20.052C12.2274 20.7546 11.8061 21.494 11.1691 22.1309C9.7963 23.5038 6.19748 23.788 6.19748 23.788C6.19748 23.788 6.48166 20.1892 7.85451 18.8163C8.49142 18.1794 9.23087 17.7581 9.93341 17.5806Z" fill="#E64C49"/>
<path d="M15.7418 15.0875C15.9703 14.8584 15.9703 14.4875 15.7418 14.259C15.5127 14.0299 15.1418 14.0299 14.9127 14.259C14.6842 14.4875 14.6842 14.8584 14.9127 15.0875C15.1418 15.316 15.5127 15.316 15.7418 15.0875Z" fill="#1E2B46"/>
<path d="M23.1991 10.9443C24.3439 9.79952 24.3441 7.94603 23.1991 6.80105C22.0541 5.65619 20.2007 5.65613 19.0557 6.80105C17.9138 7.94298 17.9137 9.80157 19.0559 10.9444C20.1982 12.0861 22.0568 12.0865 23.1991 10.9443ZM19.8844 7.62968C20.5713 6.94279 21.6834 6.94267 22.3704 7.62968C23.0573 8.31652 23.0574 9.42868 22.3704 10.1156C21.6853 10.8008 20.57 10.8008 19.8845 10.1158C19.1993 9.43009 19.1992 8.31482 19.8844 7.62968Z" fill="#1E2B46"/>
<path d="M5.98785 14.3853C6.06033 14.4153 6.1365 14.4299 6.21197 14.4299C6.36449 14.4299 6.51431 14.3703 6.6264 14.2583C7.80314 13.0816 9.25456 13.1552 9.7287 13.2175L9.9339 13.4227C9.53007 14.3836 9.20476 15.3392 8.96616 16.2685C8.88003 16.6049 8.90909 16.9608 9.03712 17.2863C8.47298 17.5463 7.92871 17.928 7.4548 18.4019C5.94654 19.9102 5.64027 23.5861 5.62797 23.7418C5.61449 23.9127 5.67648 24.081 5.79771 24.2022C5.90805 24.3125 6.05728 24.3738 6.21197 24.3738C6.22732 24.3738 6.24273 24.3733 6.25814 24.372C6.41389 24.3598 10.0898 24.0535 11.5981 22.5453C12.0718 22.0715 12.4535 21.5273 12.7135 20.9633C13.0581 21.0988 13.4128 21.1155 13.7318 21.0338C14.6608 20.7952 15.6162 20.47 16.5772 20.0662L16.7824 20.2714C16.8447 20.7456 16.9183 22.197 15.7416 23.3736C15.5741 23.5412 15.524 23.7932 15.6147 24.0121C15.7053 24.2311 15.9189 24.3738 16.156 24.3738C18.4751 24.3738 21.7174 22.9927 22.9115 20.7614C23.4301 19.7924 23.7832 18.2595 22.6572 16.3465C23.1345 15.943 23.5943 15.5211 24.028 15.0874C25.9628 13.1526 27.4816 10.6482 28.5425 7.64372C29.8679 3.89385 29.9947 0.739399 29.9994 0.606977C30.0053 0.44438 29.9432 0.286704 29.8282 0.171627C29.7131 0.0566072 29.5561 -0.00573643 29.3928 0.000415898C29.2604 0.00516198 26.106 0.131959 22.3563 1.45729C19.3516 2.51818 16.8471 4.03711 14.9124 5.97187C14.4789 6.4054 14.057 6.86513 13.6534 7.34273C11.7404 6.21667 10.2075 6.56976 9.23839 7.08837C7.00709 8.28251 5.62598 11.5248 5.62598 13.844C5.62615 14.0809 5.76895 14.2946 5.98785 14.3853ZM10.7694 21.7166C9.96378 22.5222 8.07384 22.9471 6.87929 23.1206C7.05285 21.926 7.47783 20.0362 8.28343 19.2306C8.7346 18.7794 9.25773 18.4373 9.78355 18.2447L11.7553 20.2165C11.5627 20.7423 11.2207 21.2654 10.7694 21.7166ZM13.4407 19.8986C13.2712 19.942 13.0747 19.8782 12.9287 19.7325C10.0845 16.8883 13.7356 20.5394 10.2679 17.0716C10.1217 16.9252 10.058 16.7288 10.1013 16.5596C10.289 15.8287 10.5344 15.0788 10.8329 14.3217L15.6783 19.1671C14.9211 19.4656 14.1713 19.711 13.4407 19.8986ZM21.8784 20.2084C21.1107 21.6427 19.1779 22.7 17.4164 23.0639C17.978 22.0071 18.1018 20.6617 17.8967 19.8459C17.849 19.6564 17.7254 19.5611 17.7185 19.5499C19.1384 18.8622 20.483 18.0372 21.7313 17.0881C22.3411 18.2022 22.3913 19.2501 21.8784 20.2084ZM27.7329 6.36251L23.6375 2.26705C25.8688 1.57401 27.8099 1.3145 28.7788 1.22121C28.6855 2.19029 28.4259 4.13144 27.7329 6.36251ZM15.7413 6.8005C17.4771 5.06461 19.7174 3.68308 22.4017 2.68863L27.3114 7.59831C26.317 10.2825 24.9355 12.5228 23.1995 14.2588C22.6715 14.7867 22.103 15.2968 21.5097 15.7747C20.0834 16.9231 18.5135 17.8959 16.8387 18.6703L11.3297 13.1614C12.1041 11.4865 13.0769 9.91663 14.2252 8.49052C14.7035 7.89679 15.2135 7.32819 15.7413 6.8005ZM9.79157 8.12155C10.7501 7.60862 11.7978 7.6589 12.9118 8.26868C11.9628 9.51684 11.1377 10.8616 10.45 12.2816C10.4413 12.2762 10.3358 12.1436 10.1399 12.0994C10.0593 12.0812 8.50896 11.7477 6.93601 12.5837C7.3 10.8222 8.3572 8.88925 9.79157 8.12155Z" fill="#1E2B46"/>
<path d="M12.4272 26.6883L14.0842 25.0307C14.313 24.8018 14.3129 24.4308 14.0841 24.2021C13.8552 23.9733 13.4842 23.9734 13.2554 24.2022L11.5984 25.8598C11.3697 26.0887 11.3697 26.4597 11.5985 26.6884C11.8274 26.9172 12.1985 26.9172 12.4272 26.6883Z" fill="#1E2B46"/>
<path d="M4.1402 18.4017L5.79781 16.7447C6.02668 16.5159 6.02674 16.1449 5.79799 15.916C5.56924 15.6872 5.19828 15.6872 4.96936 15.9159L3.31174 17.573C3.08287 17.8017 3.08281 18.1727 3.31156 18.4016C3.54025 18.6303 3.91121 18.6306 4.1402 18.4017Z" fill="#1E2B46"/>
<path d="M9.11246 25.0312L5.14334 28.9997C4.91447 29.2285 4.91447 29.5995 5.14328 29.8284C5.37197 30.0572 5.74304 30.0573 5.97191 29.8284L9.94104 25.8599C10.1699 25.6311 10.1699 25.26 9.94109 25.0312C9.7124 24.8024 9.34133 24.8024 9.11246 25.0312Z" fill="#1E2B46"/>
<path d="M4.42497 25.0312L0.455837 28.9997C0.22697 29.2285 0.22697 29.5995 0.455779 29.8284C0.68447 30.0572 1.05554 30.0573 1.28441 29.8284L5.25355 25.8599C5.48241 25.6311 5.48241 25.26 5.25361 25.0312C5.02486 24.8024 4.65378 24.8024 4.42497 25.0312Z" fill="#1E2B46"/>
<path d="M1.00029 24.8566L4.96884 20.8874C5.19765 20.6586 5.19765 20.2876 4.96878 20.0588C4.74003 19.83 4.36896 19.83 4.14015 20.0588L0.171599 24.0279C-0.0572094 24.2568 -0.0572094 24.6278 0.171657 24.8566C0.400466 25.0854 0.771481 25.0854 1.00029 24.8566Z" fill="#1E2B46"/>
<path d="M17.3989 13.4299L18.2274 12.6014C18.4562 12.3726 18.4562 12.0015 18.2274 11.7727C17.9985 11.5439 17.6276 11.5439 17.3987 11.7727L16.5702 12.6012C16.3414 12.83 16.3414 13.201 16.5702 13.4299C16.7991 13.6587 17.17 13.6587 17.3989 13.4299Z" fill="#1E2B46"/>
</svg>
