<svg width="36" height="38" viewBox="0 0 36 38" fill="none" xmlns="http://www.w3.org/2000/svg">
<path d="M19.7865 6.875H15.4115V36.875H19.7865C28.0708 36.875 34.7865 30.1593 34.7865 21.875C34.7865 13.5907 28.0708 6.875 19.7865 6.875Z" fill="#FFD980"/>
<path d="M16.0365 36.875C24.3208 36.875 31.0365 30.1593 31.0365 21.875C31.0365 13.5907 24.3208 6.875 16.0365 6.875C7.75223 6.875 1.0365 13.5907 1.0365 21.875C1.0365 30.1593 7.75223 36.875 16.0365 36.875Z" fill="#FFD980"/>
<path d="M0.958374 4.375C2.44353 3.45391 2.75103 2.0825 2.83337 0.625C2.82056 2.00297 3.32916 3.58086 4.70837 4.375C3.42041 5.26102 2.95228 6.96453 2.83337 8.125C2.71447 6.96453 2.24634 5.26102 0.958374 4.375Z" fill="#2FDAB7"/>
<path d="M20.4115 6.875C21.8967 5.95391 22.2042 4.5825 22.2865 3.125C22.2737 4.50297 22.7823 6.08086 24.1615 6.875C22.8735 7.76102 22.4054 9.46453 22.2865 10.625C22.1676 9.46453 21.6995 7.76102 20.4115 6.875Z" fill="#2FDAB7"/>
<path d="M4.7865 33.125C6.27166 32.2039 6.57916 30.8325 6.6615 29.375C6.64869 30.753 7.15728 32.3309 8.5365 33.125C7.24853 34.011 6.78041 35.7145 6.6615 36.875C6.54259 35.7145 6.07447 34.011 4.7865 33.125Z" fill="#2FDAB7"/>
<path d="M24.7581 7.05792C24.8004 6.92281 24.7952 6.77728 24.7434 6.6455C24.6917 6.51372 24.5964 6.40362 24.4734 6.33347C24.102 6.11964 22.8917 5.25675 22.9116 3.13089C22.9131 2.96767 22.8507 2.81032 22.7378 2.69249C22.6248 2.57466 22.4703 2.50569 22.3071 2.50034C22.144 2.49498 21.9852 2.55366 21.8648 2.66382C21.7443 2.77399 21.6718 2.9269 21.6626 3.08987C21.5859 4.44636 21.307 5.50855 20.2251 6.25042L16.0366 6.25011C7.42095 6.25011 0.411573 13.2595 0.411573 21.8751C0.399357 25.822 1.8932 29.6249 4.58845 32.5083C4.54579 32.5373 4.50251 32.566 4.4572 32.5942C4.36893 32.649 4.29569 32.7249 4.24411 32.815C4.19252 32.9052 4.16422 33.0067 4.16175 33.1106C4.15929 33.2144 4.18274 33.3172 4.22998 33.4097C4.27723 33.5022 4.34678 33.5815 4.43235 33.6403C5.6997 34.5121 5.98314 36.3857 6.03986 36.9391C6.05569 37.093 6.12801 37.2355 6.24286 37.3391C6.3577 37.4428 6.50689 37.5001 6.66157 37.5001C6.81626 37.5001 6.96545 37.4428 7.08029 37.3391C7.19513 37.2355 7.26746 37.093 7.28329 36.9391C7.3486 36.3141 7.5051 35.7021 7.74782 35.1225C10.231 36.6814 13.1046 37.5057 16.0366 37.5001H19.7866C28.4022 37.5001 35.4116 30.4907 35.4116 21.8751C35.4116 18.6007 34.3833 15.4089 32.4718 12.7503C30.5603 10.0917 27.8621 8.10057 24.7581 7.05792ZM30.8413 26.8751H33.2642C32.7621 28.2222 32.0607 29.4862 31.1834 30.6251H28.9756C29.7634 29.4648 30.391 28.2034 30.8413 26.8751ZM30.8427 16.8751H33.2653C33.7128 18.0817 33.9959 19.343 34.1069 20.6251H31.6113C31.5099 19.3483 31.2518 18.0888 30.8427 16.8751ZM30.4116 15.6251V15.7444C29.8152 14.3457 29.0169 13.0421 28.0421 11.8751H30.1162C31.1821 12.9781 32.0654 14.244 32.7326 15.6251H30.4116ZM28.742 10.6251H26.8777C25.9228 9.70386 24.8547 8.90767 23.6992 8.25566C23.7382 8.19448 23.7793 8.13402 23.8226 8.07487C25.613 8.59612 27.2842 9.46246 28.742 10.6251ZM22.2859 5.78683C22.5129 6.20919 22.8092 6.59041 23.1625 6.91456C22.8018 7.30437 22.506 7.7496 22.2866 8.23323C22.0663 7.74758 21.769 7.30068 21.4062 6.9098C21.7633 6.59019 22.0611 6.21003 22.2859 5.78683ZM6.66157 34.4832C6.44124 33.9976 6.14396 33.5507 5.78118 33.1599C6.13827 32.8402 6.43609 32.46 6.66095 32.0368C6.88789 32.4592 7.18421 32.8404 7.53751 33.1646C7.17679 33.5544 6.88104 33.9996 6.66157 34.4832ZM8.41157 34.0626C8.55439 33.9036 8.71521 33.7616 8.89079 33.6397C8.97779 33.5799 9.04821 33.499 9.09547 33.4045C9.14273 33.3101 9.16531 33.2053 9.16108 33.0998C9.15685 32.9942 9.12596 32.8915 9.07129 32.8012C9.01662 32.7109 8.93995 32.6358 8.84845 32.5832C8.47704 32.3693 7.26681 31.5064 7.28657 29.3806C7.28811 29.2174 7.22574 29.06 7.11278 28.9422C6.99982 28.8243 6.84525 28.7554 6.68211 28.75C6.51898 28.7447 6.36021 28.8033 6.23977 28.9135C6.11933 29.0237 6.04676 29.1766 6.03759 29.3396C5.98759 30.225 5.8515 30.9851 5.46212 31.613C3.00837 28.9651 1.65019 25.4851 1.66157 21.8751C1.66157 13.9487 8.11017 7.50011 16.0366 7.50011C17.7078 7.498 19.3665 7.78834 20.9376 8.358C21.471 9.24808 21.6251 10.2978 21.6649 10.6888C21.6807 10.8427 21.753 10.9852 21.8679 11.0888C21.9827 11.1925 22.1319 11.2498 22.2866 11.2498C22.4413 11.2498 22.5905 11.1925 22.7053 11.0888C22.8201 10.9852 22.8925 10.8427 22.9083 10.6888C22.9549 10.2505 23.0448 9.81791 23.1768 9.39737C25.3783 10.6518 27.2078 12.4675 28.4788 14.6595C29.7497 16.8515 30.4166 19.3413 30.4116 21.8751C30.4116 29.8015 23.963 36.2501 16.0366 36.2501C13.3394 36.2552 10.6959 35.4968 8.41157 34.0626ZM22.8999 35.9092C24.8743 34.9385 26.6229 33.5641 28.0327 31.8751H30.103C28.1483 33.8955 25.6439 35.2979 22.8999 35.9092ZM33.6644 25.6251H31.2056C31.5089 24.3982 31.662 23.139 31.6616 21.8751H34.1616C34.1621 23.1416 33.9949 24.4025 33.6644 25.6251Z" fill="#202B46"/>
<path d="M0.604153 4.89003C1.8715 5.76183 2.15493 7.63534 2.21165 8.18878C2.22748 8.34265 2.29981 8.48519 2.41465 8.58882C2.52949 8.69246 2.67868 8.74982 2.83337 8.74982C2.98806 8.74982 3.13725 8.69246 3.25209 8.58882C3.36693 8.48519 3.43926 8.34265 3.45509 8.18878C3.51181 7.63534 3.79525 5.7619 5.06259 4.89003C5.14959 4.83019 5.22 4.74928 5.26727 4.65485C5.31453 4.56043 5.3371 4.45557 5.33287 4.35007C5.32865 4.24456 5.29776 4.14185 5.24309 4.05151C5.18842 3.96117 5.11175 3.88616 5.02025 3.83347C4.64884 3.61964 3.43861 2.75675 3.45837 0.630889C3.45991 0.467669 3.39753 0.310324 3.28458 0.192493C3.17162 0.0746612 3.01705 0.00569445 2.85391 0.000337087C2.69077 -0.00502028 2.53201 0.0536568 2.41157 0.163824C2.29113 0.273991 2.21856 0.426904 2.20939 0.589874C2.12947 2.00433 1.83017 3.09901 0.628997 3.84386C0.540726 3.89859 0.467489 3.97447 0.415905 4.06462C0.364321 4.15476 0.336016 4.25635 0.33355 4.36018C0.331084 4.46402 0.354534 4.56683 0.401781 4.65933C0.449027 4.75182 0.51858 4.83109 0.604153 4.88995V4.89003ZM2.83337 5.73323C2.61304 5.24761 2.31575 4.80074 1.95298 4.40987C2.31006 4.09024 2.60789 3.71005 2.83275 3.28683C3.05969 3.70919 3.356 4.09041 3.70931 4.41456C3.34859 4.80437 3.05284 5.2496 2.83337 5.73323Z" fill="#202B46"/>
<path d="M16.0365 17.5C16.5336 17.5006 17.0102 17.6983 17.3617 18.0498C17.7132 18.4013 17.9109 18.8779 17.9115 19.375C17.9115 19.5408 17.9773 19.6997 18.0946 19.8169C18.2118 19.9342 18.3707 20 18.5365 20C18.7023 20 18.8612 19.9342 18.9784 19.8169C19.0957 19.6997 19.1615 19.5408 19.1615 19.375C19.1606 18.6549 18.9114 17.9572 18.456 17.3994C18.0006 16.8416 17.3668 16.4579 16.6615 16.3129V15C16.6615 14.8342 16.5957 14.6753 16.4784 14.5581C16.3612 14.4408 16.2023 14.375 16.0365 14.375C15.8707 14.375 15.7118 14.4408 15.5946 14.5581C15.4773 14.6753 15.4115 14.8342 15.4115 15V16.3129C14.6525 16.4675 13.9779 16.8985 13.5187 17.5224C13.0594 18.1462 12.8483 18.9184 12.9261 19.6891C13.004 20.4598 13.3653 21.1741 13.94 21.6935C14.5147 22.2129 15.2619 22.5003 16.0365 22.5C16.4073 22.5 16.7699 22.61 17.0782 22.816C17.3865 23.022 17.6269 23.3149 17.7688 23.6575C17.9107 24.0001 17.9478 24.3771 17.8755 24.7408C17.8031 25.1045 17.6245 25.4386 17.3623 25.7008C17.1001 25.963 16.766 26.1416 16.4023 26.214C16.0386 26.2863 15.6616 26.2492 15.319 26.1073C14.9764 25.9654 14.6835 25.725 14.4775 25.4167C14.2715 25.1084 14.1615 24.7458 14.1615 24.375C14.1615 24.2092 14.0957 24.0503 13.9784 23.9331C13.8612 23.8158 13.7023 23.75 13.5365 23.75C13.3707 23.75 13.2118 23.8158 13.0946 23.9331C12.9773 24.0503 12.9115 24.2092 12.9115 24.375C12.9123 25.0951 13.1615 25.793 13.6169 26.3509C14.0723 26.9087 14.7061 27.2925 15.4115 27.4375V28.75C15.4115 28.9158 15.4773 29.0747 15.5946 29.1919C15.7118 29.3092 15.8707 29.375 16.0365 29.375C16.2023 29.375 16.3612 29.3092 16.4784 29.1919C16.5957 29.0747 16.6615 28.9158 16.6615 28.75V27.4375C17.421 27.2833 18.096 26.8524 18.5557 26.2284C19.0153 25.6045 19.2267 24.832 19.1488 24.0609C19.0709 23.2899 18.7093 22.5753 18.1342 22.0559C17.5591 21.5364 16.8115 21.2492 16.0365 21.25C15.5392 21.25 15.0623 21.0525 14.7107 20.7008C14.359 20.3492 14.1615 19.8723 14.1615 19.375C14.1615 18.8777 14.359 18.4008 14.7107 18.0492C15.0623 17.6975 15.5392 17.5 16.0365 17.5Z" fill="#202B46"/>
<path d="M25.9115 15.2772C25.8193 15.1394 25.6761 15.0439 25.5135 15.0117C25.3509 14.9795 25.1821 15.0131 25.0443 15.1053C24.9065 15.1976 24.811 15.3407 24.7788 15.5033C24.7465 15.666 24.7802 15.8347 24.8724 15.9725C26.0421 17.7185 26.6649 19.7734 26.6615 21.875C26.6615 27.7336 21.8951 32.5 16.0365 32.5C14.6172 32.5028 13.212 32.2194 11.9047 31.6668C11.752 31.6023 11.5799 31.6011 11.4264 31.6635C11.2728 31.7259 11.1503 31.8467 11.0858 31.9994C11.0213 32.1521 11.0201 32.3241 11.0824 32.4777C11.1448 32.6313 11.2656 32.7538 11.4183 32.8183C12.8794 33.4361 14.4501 33.753 16.0365 33.75C22.5844 33.75 27.9115 28.4229 27.9115 21.875C27.9152 19.5258 27.219 17.2289 25.9115 15.2772Z" fill="#202B46"/>
<path d="M17.8081 11.397C17.8893 11.4111 17.9725 11.4091 18.0529 11.391C18.1333 11.3729 18.2093 11.3391 18.2766 11.2915C18.3439 11.2439 18.4011 11.1834 18.4449 11.1136C18.4887 11.0438 18.5183 10.966 18.532 10.8847C18.5456 10.8034 18.543 10.7202 18.5244 10.64C18.5058 10.5597 18.4714 10.4838 18.4234 10.4169C18.3753 10.3499 18.3145 10.2931 18.2444 10.2498C18.1743 10.2064 18.0963 10.1773 18.0149 10.1642C17.3611 10.0549 16.6994 9.99994 16.0365 10C9.48861 10 4.1615 15.3271 4.1615 21.875C4.16074 22.9908 4.31702 24.1011 4.62572 25.1733C4.64848 25.2521 4.68654 25.3257 4.73774 25.3899C4.78895 25.454 4.85228 25.5075 4.92413 25.5472C4.99599 25.5868 5.07495 25.612 5.15651 25.6211C5.23808 25.6303 5.32065 25.6233 5.39951 25.6005C5.47837 25.5778 5.55198 25.5397 5.61612 25.4885C5.68027 25.4373 5.73371 25.3739 5.77338 25.3021C5.81305 25.2302 5.83818 25.1513 5.84734 25.0697C5.85649 24.9881 5.84949 24.9056 5.82674 24.8267C5.55053 23.8672 5.41075 22.8735 5.4115 21.875C5.4115 16.0163 10.1778 11.25 16.0365 11.25C16.6301 11.2499 17.2226 11.2991 17.8081 11.397Z" fill="#202B46"/>
</svg>
