<svg width="19" height="30" viewBox="0 0 19 30" fill="none" xmlns="http://www.w3.org/2000/svg">
<path d="M0.439453 2.63672C0.439453 1.42318 1.42318 0.439453 2.63672 0.439453H16.2891C17.5026 0.439453 18.4863 1.42318 18.4863 2.63672V27.3633C18.4863 28.5768 17.5026 29.5605 16.2891 29.5605H2.63672C1.42318 29.5605 0.439453 28.5768 0.439453 27.3633V2.63672Z" fill="#F9F8F9"/>
<path d="M18.1289 28.5645C17.7369 29.1645 17.059 29.5605 16.2891 29.5605H2.63672C1.42324 29.5605 0.439453 28.5768 0.439453 27.3633V2.63672C0.439453 1.8668 0.835547 1.18887 1.43555 0.796875V27.3633C1.43555 28.0254 1.97461 28.5645 2.63672 28.5645H18.1289Z" fill="#EFEDEF"/>
<path d="M4.43876 6.62859C4.43876 6.00961 3.93696 5.50781 3.31798 5.50781C3.22552 5.50781 3.13569 5.519 3.0498 5.5401C2.5603 5.66027 2.2644 6.10201 2.2644 6.62854C2.2644 7.24752 2.73257 7.66283 3.35155 7.66283C3.87802 7.66283 4.28612 7.38627 4.40636 6.89695C4.42757 6.811 4.43876 6.72111 4.43876 6.62859V6.62859Z" fill="#FDDF80"/>
<path d="M4.40684 6.89707C4.28613 7.38633 3.84434 7.74961 3.31816 7.74961C2.69883 7.74961 2.19727 7.24746 2.19727 6.62871C2.19727 6.10195 2.56055 5.66016 3.0498 5.54004C3.02871 5.62617 3.01758 5.71582 3.01758 5.8084C3.01758 6.42715 3.51914 6.9293 4.13848 6.9293C4.23106 6.9293 4.3207 6.91816 4.40684 6.89707Z" fill="#F9D070"/>
<path opacity="0.4" d="M11.2664 27.6923L3.58366 27.6826C2.85557 27.6826 2.3161 27.2125 2.3161 26.4844C2.3161 25.8662 2.62272 25.3474 3.19683 25.2049C3.29895 25.1795 3.40571 25.166 3.51569 25.166H11.4159C12.144 25.166 12.7343 25.7563 12.7343 26.4844C12.7343 26.6385 12.7078 26.7865 12.6592 26.924C12.4781 27.4359 11.8404 27.6923 11.2664 27.6923Z" fill="#43AADC"/>
<path d="M12.6586 26.9238C12.593 27.1113 12.4857 27.2788 12.348 27.4165C12.1096 27.655 11.7797 27.8027 11.4158 27.8027H3.51562C2.7873 27.8027 2.19727 27.2126 2.19727 26.4843C2.19727 26.1198 2.34492 25.7906 2.5834 25.5521C2.7498 25.3857 2.96074 25.2632 3.19687 25.2052C3.15645 25.3312 3.13477 25.4659 3.13477 25.6054C3.13477 26.3337 3.7248 26.9238 4.45312 26.9238H12.6586Z" fill="#43AADC"/>
<path opacity="0.4" d="M16.7089 25.5622L16.4692 26.8483L16.3294 27.1668C16.2878 27.3899 16.0204 27.4843 15.848 27.3368L14.6932 26.3152C14.5208 26.1676 14.5727 25.8888 14.7867 25.8133L15.0878 25.6657L16.321 25.2304C16.535 25.1548 16.7504 25.3392 16.7089 25.5622Z" fill="#43AADC"/>
<path d="M16.4689 26.8482L16.3881 27.2841C16.3465 27.5068 16.0787 27.6011 15.9064 27.4541L14.5758 26.315C14.4035 26.1673 14.4556 25.8884 14.6695 25.8134L15.0879 25.6658L16.4689 26.8482Z" fill="#43AADC"/>
<path d="M10.7034 17.9758C11.6818 18.3111 13.2881 18.9068 13.751 19.0825C13.9064 19.1414 14.0791 19.0593 14.1323 18.9019C14.5671 17.6138 16.1405 12.3464 13.5822 10.2489C12.8461 9.64542 12.006 9.54693 10.5356 9.7738C10.5199 9.7762 10.504 9.77245 10.4914 9.76284C10.3822 9.67976 9.81129 9.27148 8.98307 9.14902C8.41436 9.06488 7.78325 9.27945 7.03805 9.66265C2.82411 11.8296 4.62733 17.394 5.11577 18.7486C5.17167 18.9037 5.34411 18.982 5.49768 18.922C5.61411 18.8766 5.77044 18.9632 6.00651 18.8702C6.59872 18.637 7.48846 18.2841 8.27983 17.9609L10.7034 17.9758Z" fill="#617881"/>
<path d="M8.98304 9.14879C8.64671 9.19918 8.2887 9.30699 7.91663 9.49859C3.74125 11.6455 5.49906 17.4462 6.00648 18.8701C5.77035 18.9632 5.58168 19.0365 5.46508 19.0822C5.31156 19.1425 5.1393 19.064 5.08305 18.9087C4.59496 17.5546 2.76508 11.6654 6.97914 9.49859C7.72445 9.11539 8.41468 9.065 8.98304 9.14879Z" fill="#495959"/>
<path d="M14.1152 22.935C14.2537 22.935 14.3588 22.8103 14.3353 22.6738L14.165 21.6839C14.0647 21.1073 13.653 20.6336 13.0958 20.4543L11.2288 19.853C11.0311 19.7893 10.8894 19.615 10.8676 19.4083L10.8625 19.3566L10.6375 18.0139L8.2497 18.0158L8.09326 19.4857C8.0714 19.6924 7.92978 19.8667 7.73203 19.9304L5.92629 20.4744C5.36912 20.6538 4.94783 21.1467 4.84752 21.7234L4.69998 22.5185C4.67965 22.6536 4.78424 22.7751 4.92082 22.7751L5.14957 22.935H6.42187L9.3747 22.7333L12.4965 22.935H14.1152V22.935Z" fill="#F1D0A5"/>
<path d="M10.7307 18.0166L8.75136 17.9552V17.9551L8.20755 17.9384L8.05122 19.4085C8.02943 19.6151 7.88763 19.7893 7.68999 19.8529L5.8229 20.4543C5.26568 20.6335 4.85417 21.1069 4.75369 21.6837L4.6041 22.6784C4.58376 22.8135 4.68835 22.9349 4.82494 22.9349H5.14955L5.30476 21.7736C5.37173 21.4029 5.63529 21.1014 5.99429 20.9858L7.86085 20.3845C8.16484 20.2863 8.40431 20.0613 8.52524 19.7769C8.57101 19.6692 8.69317 19.617 8.8038 19.6552C9.05077 19.7404 9.27495 19.787 9.45437 19.7881H9.46497C9.95745 19.7881 10.4404 19.6011 10.8625 19.3565L10.7307 18.0166Z" fill="#F2BB88"/>
<path d="M11.3987 17.8965C10.7217 18.5418 9.99177 18.945 9.45881 18.9421C9.03172 18.9398 7.59113 18.2629 7.03091 17.2474C6.6865 16.6233 6.45347 15.8721 6.36394 15.0738C6.34338 14.8906 6.43004 14.7777 6.425 14.5904C6.42418 14.5603 6.44685 14.5344 6.47679 14.5306C8.84703 14.2234 9.93195 12.5635 10.3195 11.916C10.3712 11.8297 10.4998 11.844 10.531 11.9397C10.6919 12.4639 11.2166 13.6728 12.5173 14.5345C12.5346 14.546 12.5447 14.5658 12.5436 14.5865C12.5323 14.7962 12.6177 14.9315 12.5936 15.1336C12.4695 16.1733 12.1519 17.1083 11.3987 17.8965Z" fill="#F1D0A5"/>
<path d="M12.6458 14.5155C12.6346 14.7252 12.6176 14.9315 12.5936 15.1336C12.2954 14.9344 12.0411 14.7727 12.0411 14.7727C11.2334 14.17 10.7228 13.4457 10.4153 12.8788C10.3954 12.8421 10.3454 12.8372 10.3188 12.8693C9.67343 13.6489 8.58189 14.6054 6.9405 14.9555C6.9405 14.9555 6.68152 15.0047 6.36394 15.0739C6.34343 14.8911 6.33054 14.7053 6.32527 14.5178C6.32468 14.4874 6.34753 14.4616 6.37742 14.4581C8.74753 14.1504 9.98737 12.4289 10.3747 11.7815C10.4262 11.6953 10.5551 11.71 10.5862 11.8055C10.7473 12.3293 11.3186 13.602 12.6194 14.4639C12.637 14.475 12.6469 14.495 12.6458 14.5155V14.5155Z" fill="#F2BB88"/>
<path d="M6.42181 22.935L6.99105 21.993C7.12043 21.779 7.37636 21.677 7.61747 21.7436L9.41477 22.2396C9.44395 22.2476 9.47472 22.2476 9.5039 22.2396L11.3011 21.7436C11.5423 21.6771 11.7982 21.7791 11.9276 21.9932L12.4963 22.9351L6.42181 22.935Z" fill="#E64C49"/>
<path d="M4.43877 4.39453C4.68152 4.39453 4.87822 4.19777 4.87822 3.95508C4.87822 3.71238 4.68152 3.51562 4.43877 3.51562H2.19727C1.95451 3.51562 1.75781 3.71238 1.75781 3.95508C1.75781 4.19777 1.95451 4.39453 2.19727 4.39453H4.43877Z" fill="black"/>
<path d="M5.75714 3.95508C5.75714 4.19777 5.95384 4.39453 6.19659 4.39453H8.584C8.82675 4.39453 9.02345 4.19777 9.02345 3.95508C9.02345 3.71238 8.82675 3.51562 8.584 3.51562H6.19659C5.95384 3.51562 5.75714 3.71238 5.75714 3.95508Z" fill="black"/>
<path d="M9.90234 3.95508C9.90234 4.19777 10.099 4.39453 10.3418 4.39453H12.7342C12.9769 4.39453 13.1736 4.19777 13.1736 3.95508C13.1736 3.71238 12.9769 3.51562 12.7342 3.51562H10.3418C10.099 3.51562 9.90234 3.71238 9.90234 3.95508Z" fill="black"/>
<path d="M16.7285 3.51562H14.492C14.2493 3.51562 14.0526 3.71238 14.0526 3.95508C14.0526 4.19777 14.2493 4.39453 14.492 4.39453H16.7285C16.9713 4.39453 17.168 4.19777 17.168 3.95508C17.168 3.71238 16.9713 3.51562 16.7285 3.51562Z" fill="black"/>
<path d="M18.4863 18.5873C18.2436 18.5873 18.0469 18.7841 18.0469 19.0268V27.3633C18.0469 28.3325 17.2583 29.1211 16.2891 29.1211H2.63672C1.66746 29.1211 0.878906 28.3325 0.878906 27.3633V2.63672C0.878906 1.66746 1.66746 0.878906 2.63672 0.878906H11.6683C11.9111 0.878906 12.1078 0.682148 12.1078 0.439453C12.1078 0.196758 11.9111 0 11.6683 0H2.63672C1.18283 0 0 1.18283 0 2.63672V27.3633C0 28.8172 1.18283 30 2.63672 30H16.2891C17.7429 30 18.9258 28.8172 18.9258 27.3633V19.0268C18.9258 18.7841 18.7291 18.5873 18.4863 18.5873Z" fill="black"/>
<path d="M16.289 0H13.7178C13.475 0 13.2783 0.196758 13.2783 0.439453C13.2783 0.682148 13.475 0.878906 13.7178 0.878906H16.289C17.2583 0.878906 18.0469 1.66746 18.0469 2.63672V16.9735C18.0469 17.2162 18.2436 17.4129 18.4863 17.4129C18.7291 17.4129 18.9258 17.2162 18.9258 16.9735V2.63672C18.9258 1.18283 17.7429 0 16.289 0V0Z" fill="black"/>
<path d="M10.2246 2.63672C10.4674 2.63672 10.6641 2.43996 10.6641 2.19727C10.6641 1.95457 10.4674 1.75781 10.2246 1.75781H7.29492C7.05217 1.75781 6.85547 1.95457 6.85547 2.19727C6.85547 2.43996 7.05217 2.63672 7.29492 2.63672H10.2246Z" fill="black"/>
<path d="M3.31805 8.18877C4.17838 8.18877 4.87822 7.48887 4.87822 6.62854C4.87822 5.7682 4.17838 5.06836 3.31805 5.06836C2.45772 5.06836 1.75781 5.76826 1.75781 6.62854C1.75781 7.48881 2.45772 8.18877 3.31805 8.18877ZM3.31805 5.94727C3.69369 5.94727 3.99932 6.25289 3.99932 6.62854C3.99932 7.00418 3.69369 7.30986 3.31805 7.30986C2.94234 7.30986 2.63672 7.00424 2.63672 6.62854C2.63672 6.25283 2.94234 5.94727 3.31805 5.94727Z" fill="black"/>
<path d="M6.19659 7.06799H8.584C8.82675 7.06799 9.02345 6.87124 9.02345 6.62854C9.02345 6.38584 8.82675 6.18909 8.584 6.18909H6.19659C5.95384 6.18909 5.75714 6.38584 5.75714 6.62854C5.75714 6.87124 5.95384 7.06799 6.19659 7.06799Z" fill="black"/>
<path d="M11.1222 7.06799C11.365 7.06799 11.5617 6.87124 11.5617 6.62854C11.5617 6.38584 11.365 6.18909 11.1222 6.18909H10.3418C10.099 6.18909 9.90234 6.38584 9.90234 6.62854C9.90234 6.87124 10.099 7.06799 10.3418 7.06799H11.1222Z" fill="black"/>
<path d="M11.4158 27.3633H7.38967C7.14691 27.3633 6.95022 27.56 6.95022 27.8027C6.95022 28.0454 7.14691 28.2422 7.38967 28.2422H11.4158C12.3851 28.2422 13.1736 27.4536 13.1736 26.4844C13.1736 25.5151 12.3851 24.7266 11.4158 24.7266H3.51562C2.54637 24.7266 1.75781 25.5151 1.75781 26.4844C1.75781 27.4536 2.54637 28.2422 3.51562 28.2422H5.34387C5.58662 28.2422 5.78332 28.0454 5.78332 27.8027C5.78332 27.56 5.58662 27.3633 5.34387 27.3633H3.51562C3.031 27.3633 2.63672 26.969 2.63672 26.4844C2.63672 25.9997 3.031 25.6055 3.51562 25.6055H11.4158C11.9004 25.6055 12.2947 25.9997 12.2947 26.4844C12.2947 26.969 11.9005 27.3633 11.4158 27.3633Z" fill="black"/>
<path d="M16.8964 24.9504C16.6948 24.7778 16.4249 24.7275 16.1747 24.8159L14.5231 25.3988C14.2728 25.4872 14.0944 25.6957 14.0458 25.9566C13.9972 26.2176 14.0885 26.4764 14.2901 26.649L15.6207 27.7878C15.7569 27.9043 15.9241 27.9651 16.0955 27.9651C16.1779 27.9651 16.2613 27.951 16.3426 27.9223C16.5929 27.8339 16.7713 27.6254 16.8199 27.3645L17.1409 25.6428V25.6428C17.1894 25.3817 17.0981 25.1229 16.8964 24.9504V24.9504ZM16.0018 26.957L15.0521 26.1441L16.2309 25.7281L16.0018 26.957Z" fill="black"/>
<path d="M10.6201 9.31687C10.1401 9.00135 8.59743 8.17224 6.77809 9.10799C6.50481 9.24849 6.2463 9.40857 6.00969 9.58371C5.81464 9.72809 5.77356 10.0033 5.91794 10.1984C6.06225 10.3934 6.33741 10.4346 6.53258 10.2901C6.73116 10.1432 6.94895 10.0084 7.18004 9.88957C8.77637 9.06861 10.0816 10.0033 10.2252 10.1126C10.332 10.194 10.4697 10.2286 10.6025 10.2081C11.9925 9.99375 12.6991 10.0934 13.3036 10.5888C15.5723 12.4489 14.1847 17.3223 13.7635 18.6176C13.3404 18.4589 12.6388 18.2026 11.9385 17.9559C12.0611 17.81 12.2251 17.5918 12.3733 17.3323C12.8142 16.5005 13.068 15.4847 13.0879 14.472C13.0904 14.3466 13.0391 14.226 12.947 14.1408C12.9012 14.0984 12.8474 14.0667 12.7895 14.0472C11.6159 13.2389 11.1509 12.1195 11.0039 11.669C10.9365 11.4622 10.7534 11.3129 10.5374 11.2886C10.3214 11.2646 10.1094 11.3692 9.99758 11.556C9.60477 12.2121 8.45545 13.7665 6.27178 14.0281C6.04778 14.0549 5.88044 14.2471 5.88471 14.4727C5.90499 15.546 6.1754 16.6069 6.64614 17.4598C6.74891 17.646 6.87823 17.823 7.02471 17.9891C6.33272 18.2688 5.78768 18.4842 5.44637 18.6179C5.03475 17.4295 4.06368 14.0503 5.33856 11.6718C5.45323 11.4579 5.37278 11.1916 5.15886 11.0769C4.94481 10.9622 4.67862 11.0428 4.56395 11.2566C3.0622 14.0583 4.26524 17.9363 4.66983 19.0582C4.73745 19.2456 4.87456 19.3942 5.05591 19.4765C5.15264 19.5205 5.2553 19.5425 5.35819 19.5425C5.44813 19.5425 5.53831 19.5256 5.62491 19.4919C5.98339 19.3519 6.69067 19.0735 7.62823 18.6929L7.54391 19.4349C7.53928 19.4787 7.50917 19.5158 7.46715 19.5294L5.50802 20.1604C4.76563 20.3993 4.22142 21.0251 4.0877 21.7937L3.9353 22.6694C3.8937 22.9085 4.05378 23.136 4.2929 23.1777C4.47899 23.2107 4.72561 23.0973 4.8012 22.8201L4.9536 21.9444C5.03118 21.4985 5.34682 21.1355 5.77743 20.9969L6.65862 20.7131V21.8389L6.16491 22.4754C6.01614 22.6672 6.051 22.9432 6.24278 23.092C6.36231 23.1891 6.65516 23.2452 6.8593 23.0141L7.25686 22.5015L9.32481 23.1632C9.3684 23.1772 9.41358 23.1842 9.45875 23.1842C9.50393 23.1842 9.5491 23.1772 9.5927 23.1632L11.6606 22.5015L12.0582 23.0141C12.2006 23.1402 12.3631 23.2778 12.6747 23.092C12.8665 22.9432 12.9014 22.6672 12.7526 22.4754L12.2589 21.8389V20.7131L13.1401 20.9969C13.5707 21.1355 13.8863 21.4985 13.9639 21.9444L14.1164 22.8201C14.1444 22.9865 14.3562 23.2229 14.6247 23.1776C14.8638 23.136 15.0239 22.9085 14.9823 22.6693L14.8298 21.7937C14.6962 21.0251 14.1519 20.3992 13.4095 20.1604L11.4504 19.5294C11.4084 19.5158 11.3783 19.4787 11.3739 19.4387L11.2989 18.6633C12.1839 18.9707 13.1476 19.3235 13.595 19.4933C13.6783 19.525 13.7664 19.5407 13.8544 19.5407C13.9617 19.5407 14.069 19.5173 14.1672 19.4709C14.3462 19.3864 14.4853 19.2302 14.5487 19.0425C15.0801 17.468 16.6013 12.1561 13.8608 9.9092C12.9605 9.17109 11.9469 9.12562 10.6201 9.31687ZM10.4019 12.5272C10.6941 13.1507 11.2384 14.0149 12.1987 14.706C12.149 15.4955 11.9397 16.271 11.6002 16.9141C11.2852 17.5869 10.0034 18.5419 9.46127 18.5027C9.21108 18.4976 7.90297 17.9187 7.41559 17.0353C7.06778 16.4051 6.8477 15.6366 6.78254 14.8381C8.63651 14.4854 9.79356 13.34 10.4019 12.5272ZM11.38 20.4301V21.6686L9.45875 22.2834L7.53747 21.6686V20.4301L7.73657 20.366C8.10934 20.2458 8.37682 19.9166 8.41754 19.5307L8.46957 19.0732C8.86537 19.2695 9.22707 19.3804 9.45635 19.3816H9.46432C9.76561 19.3816 10.1046 19.2875 10.4595 19.1125L10.4996 19.5273C10.5408 19.9167 10.8083 20.2458 11.181 20.3659L11.38 20.4301Z" fill="black"/>
<path d="M11.6895 2.63684C11.9322 2.63684 12.1289 2.44009 12.1289 2.19739C12.1289 1.95468 11.9322 1.75793 11.6895 1.75793C11.4467 1.75793 11.25 1.95468 11.25 2.19739C11.25 2.44009 11.4467 2.63684 11.6895 2.63684Z" fill="black"/>
</svg>
