<svg width="30" height="30" viewBox="0 0 30 30" fill="none" xmlns="http://www.w3.org/2000/svg">
<g clip-path="url(#clip0_2255:9203)">
<path d="M27.5 19.5C26.8 19.5 26.1799 19.1399 25.825 18.5901C25.6201 18.2749 25.5 17.8999 25.5 17.5C25.5 16.395 26.395 15.5 27.5 15.5C28.605 15.5 29.5 16.395 29.5 17.5C29.5 18.605 28.605 19.5 27.5 19.5Z" fill="#EAF5FA"/>
<path d="M27.49 10.2549C26.54 11.03 25.325 11.5 24 11.5C23.3401 11.5 22.71 11.385 22.1299 11.175V11.1699C21.5349 10.96 20.99 10.645 20.51 10.2549C20.635 8.71509 21.9299 7.5 23.5 7.5H24.5C26.0701 7.5 27.365 8.71509 27.49 10.2549Z" fill="#43AADC"/>
<path d="M26 5.5C26 6.60449 25.1045 7.5 24 7.5C22.8955 7.5 22 6.60449 22 5.5C22 4.39551 22.8955 3.5 24 3.5C25.1045 3.5 26 4.39551 26 5.5Z" fill="#43AADC"/>
<path d="M24 0.5C27.04 0.5 29.5 2.95996 29.5 6C29.5 7.71509 28.72 9.24512 27.49 10.2549C27.365 8.71509 26.0701 7.5 24.5 7.5H24C25.105 7.5 26 6.60498 26 5.5C26 4.39502 25.105 3.5 24 3.5C22.895 3.5 22 4.39502 22 5.5C22 6.60498 22.895 7.5 24 7.5H23.5C21.9299 7.5 20.635 8.71509 20.51 10.2549C19.8301 9.69507 19.2849 8.9751 18.9351 8.1499C18.655 7.48999 18.5 6.76489 18.5 6C18.5 5.33008 18.6201 4.68994 18.8401 4.1001C19.6101 1.99512 21.6299 0.5 24 0.5Z" fill="#EAF5FA"/>
<path d="M17.5 29.5C16.1699 29.5 14.95 29.03 14 28.2451C14.1299 26.71 15.425 25.5 16.99 25.5H17.99C19.5601 25.5 20.855 26.7151 20.98 28.2549L20.9851 28.26C20.0349 29.0349 18.825 29.5 17.5 29.5Z" fill="#E64C49"/>
<path d="M16.99 25.5C15.425 25.5 14.1299 26.71 14 28.2451C13.0901 27.4951 12.4299 26.46 12.1499 25.2749C12.05 24.865 12 24.4399 12 24C12 22.385 12.6951 20.9351 13.8 19.9299C14.7749 19.04 16.075 18.5 17.5 18.5C18.1599 18.5 18.79 18.615 19.3701 18.825V18.8301C20.5049 19.2351 21.4651 20.01 22.1101 21.0049C22.675 21.865 23 22.895 23 24C23 25.7151 22.2151 27.25 20.9851 28.26L20.98 28.2549C20.855 26.7151 19.5601 25.5 17.99 25.5H17.49C18.595 25.5 19.49 24.605 19.49 23.5C19.49 22.395 18.595 21.5 17.49 21.5C16.385 21.5 15.49 22.395 15.49 23.5C15.49 24.605 16.385 25.5 17.49 25.5H16.99Z" fill="#EAF5FA"/>
<path d="M19.49 23.5C19.49 24.6045 18.5945 25.5 17.49 25.5C16.3855 25.5 15.49 24.6045 15.49 23.5C15.49 22.3955 16.3855 21.5 17.49 21.5C18.5945 21.5 19.49 22.3955 19.49 23.5Z" fill="#E64C49"/>
<path d="M14.5 0.5C15.605 0.5 16.5 1.39502 16.5 2.5C16.5 2.74512 16.4551 2.9751 16.375 3.18994C16.095 3.95508 15.3601 4.5 14.5 4.5C13.395 4.5 12.5 3.60498 12.5 2.5C12.5 1.39502 13.395 0.5 14.5 0.5Z" fill="#EAF5FA"/>
<path d="M7.5 18.5C6.53003 18.5 5.62012 18.25 4.83008 17.8101C4.53491 17.6499 4.26001 17.46 4 17.2451C4.12988 15.71 5.42505 14.5 6.98999 14.5H7.98999C9.56006 14.5 10.855 15.7151 10.98 17.2549L10.9851 17.26C10.0349 18.0349 8.82495 18.5 7.5 18.5Z" fill="#1EDEB7"/>
<path d="M9.48999 12.5C9.48999 13.6045 8.59448 14.5 7.48999 14.5C6.3855 14.5 5.48999 13.6045 5.48999 12.5C5.48999 11.3955 6.3855 10.5 7.48999 10.5C8.59448 10.5 9.48999 11.3955 9.48999 12.5Z" fill="#1EDEB7"/>
<path d="M7 28.5C5.89502 28.5 5 27.605 5 26.5C5 25.395 5.89502 24.5 7 24.5C7.94507 24.5 8.73511 25.155 8.94507 26.0349C8.97998 26.1851 9 26.3401 9 26.5C9 27.605 8.10498 28.5 7 28.5Z" fill="#EAF5FA"/>
<path d="M6.98999 14.5C5.42505 14.5 4.12988 15.71 4 17.2451C2.78003 16.2351 2 14.71 2 13C2 10.8049 3.28003 8.91504 5.13501 8.03003C5.8501 7.68994 6.65503 7.5 7.5 7.5C9.7749 7.5 11.7251 8.87988 12.5649 10.8501C12.845 11.51 13 12.2351 13 13C13 14.615 12.3049 16.0649 11.2 17.0701C11.1299 17.135 11.0601 17.1951 10.9851 17.26L10.98 17.2549C10.855 15.7151 9.56006 14.5 7.98999 14.5H7.48999C8.59497 14.5 9.48999 13.605 9.48999 12.5C9.48999 11.395 8.59497 10.5 7.48999 10.5C6.38501 10.5 5.48999 11.395 5.48999 12.5C5.48999 13.605 6.38501 14.5 7.48999 14.5H6.98999Z" fill="#EAF5FA"/>
<path d="M2.5 20C2.8501 20 3.18506 20.0901 3.46997 20.2549C4.08496 20.595 4.5 21.25 4.5 22C4.5 23.105 3.60498 24 2.5 24C1.39502 24 0.5 23.105 0.5 22C0.5 20.895 1.39502 20 2.5 20Z" fill="#EAF5FA"/>
<path d="M2.5 0.5C3.60498 0.5 4.5 1.39502 4.5 2.5C4.5 3.29492 4.03491 3.98511 3.36011 4.30005C3.1001 4.42993 2.80493 4.5 2.5 4.5C1.39502 4.5 0.5 3.60498 0.5 2.5C0.5 1.39502 1.39502 0.5 2.5 0.5Z" fill="#EAF5FA"/>
<path d="M24 12C27.3086 12 30 9.30859 30 6C30 2.69141 27.3086 0 24 0C21.5974 0 19.5259 1.42261 18.5686 3.46704L16.9619 2.87402C16.981 2.75098 17 2.62793 17 2.5C17 1.12158 15.8784 0 14.5 0C13.1216 0 12 1.12158 12 2.5C12 3.87842 13.1216 5 14.5 5C15.3955 5 16.1765 4.52246 16.6179 3.81299L18.2219 4.40503C18.0811 4.91406 18 5.44702 18 6C18 6.65503 18.1089 7.28394 18.304 7.87451L12.8049 10.2051C11.7981 8.30151 9.79956 7 7.5 7C6.75488 7 6.04395 7.14307 5.38501 7.39209L4.00195 4.4856C4.60449 4.02856 5 3.3125 5 2.5C5 1.12158 3.87842 0 2.5 0C1.12158 0 0 1.12158 0 2.5C0 3.87842 1.12158 5 2.5 5C2.70801 5 2.90747 4.96704 3.10107 4.91846L4.48242 7.82202C2.7019 8.86401 1.5 10.792 1.5 13C1.5 15.074 2.55811 16.9045 4.16211 17.9824L3.24756 19.6265C3.00952 19.5515 2.76196 19.5 2.5 19.5C1.12158 19.5 0 20.6216 0 22C0 23.3784 1.12158 24.5 2.5 24.5C3.87842 24.5 5 23.3784 5 22C5 21.2429 4.65454 20.5715 4.12158 20.113L5.03809 18.4656C5.79004 18.8059 6.62207 19 7.5 19C8.87207 19 10.134 18.532 11.146 17.7539L13.114 19.9189C12.116 20.991 11.5 22.4231 11.5 24C11.5 24.3059 11.5305 24.604 11.5745 24.8975L9.25903 25.447C8.8606 24.595 8.00098 24 7 24C5.62158 24 4.5 25.1216 4.5 26.5C4.5 27.8784 5.62158 29 7 29C8.37842 29 9.5 27.8784 9.5 26.5C9.5 26.4724 9.49243 26.4465 9.49194 26.4189L11.803 25.8711C12.5911 28.2654 14.845 30 17.5 30C20.8086 30 23.5 27.3086 23.5 24C23.5 22.9741 23.2405 22.0081 22.7844 21.1631L25.7214 19.2534C26.1755 19.7134 26.8044 20 27.5 20C28.8784 20 30 18.8784 30 17.5C30 16.1216 28.8784 15 27.5 15C26.1216 15 25 16.1216 25 17.5C25 17.823 25.0664 18.1299 25.1785 18.4136L22.2346 20.3274C21.6455 19.5701 20.8806 18.9585 20 18.5525L22.4404 11.7871C22.9385 11.9214 23.46 12 24 12ZM14.5 4C13.6731 4 13 3.3269 13 2.5C13 1.6731 13.6731 1 14.5 1C15.3269 1 16 1.6731 16 2.5C16 3.3269 15.3269 4 14.5 4ZM1 2.5C1 1.6731 1.6731 1 2.5 1C3.3269 1 4 1.6731 4 2.5C4 3.3269 3.3269 4 2.5 4C1.6731 4 1 3.3269 1 2.5ZM2.5 23.5C1.6731 23.5 1 22.8269 1 22C1 21.1731 1.6731 20.5 2.5 20.5C3.3269 20.5 4 21.1731 4 22C4 22.8269 3.3269 23.5 2.5 23.5ZM7 28C6.1731 28 5.5 27.3269 5.5 26.5C5.5 25.6731 6.1731 25 7 25C7.8269 25 8.5 25.6731 8.5 26.5C8.5 27.3269 7.8269 28 7 28ZM27.5 16C28.3269 16 29 16.6731 29 17.5C29 18.3269 28.3269 19 27.5 19C26.6731 19 26 18.3269 26 17.5C26 16.6731 26.6731 16 27.5 16ZM21.0554 10.032C21.2786 8.87549 22.2981 8 23.5 8H24.5C25.7019 8 26.7214 8.87549 26.9446 10.032C26.1174 10.6375 25.1016 11 24 11C22.8984 11 21.8826 10.6375 21.0554 10.032ZM24 7C23.1731 7 22.5 6.3269 22.5 5.5C22.5 4.6731 23.1731 4 24 4C24.8269 4 25.5 4.6731 25.5 5.5C25.5 6.3269 24.8269 7 24 7ZM24 1C26.7571 1 29 3.24292 29 6C29 7.25 28.5354 8.39209 27.7739 9.26953C27.4236 8.34692 26.6931 7.6106 25.783 7.24707C26.2256 6.7959 26.5 6.17993 26.5 5.5C26.5 4.12158 25.3784 3 24 3C22.6216 3 21.5 4.12158 21.5 5.5C21.5 6.17993 21.7744 6.7959 22.217 7.24707C21.3069 7.6106 20.5764 8.34692 20.2261 9.26953C19.4646 8.39209 19 7.25 19 6C19 3.24292 21.2429 1 24 1ZM2.5 13C2.5 10.2429 4.74292 8 7.5 8C10.2571 8 12.5 10.2429 12.5 13C12.5 14.2539 12.0325 15.3989 11.2671 16.2776C10.918 15.3516 10.186 14.6116 9.27344 14.2471C9.71558 13.7959 9.98999 13.1799 9.98999 12.5C9.98999 11.1216 8.86841 10 7.48999 10C6.11157 10 4.98999 11.1216 4.98999 12.5C4.98999 13.1799 5.2644 13.7959 5.70703 14.2471C4.79956 14.6089 4.07007 15.3425 3.71851 16.2615C2.96143 15.385 2.5 14.2466 2.5 13ZM5.98999 12.5C5.98999 11.6731 6.66309 11 7.48999 11C8.31689 11 8.98999 11.6731 8.98999 12.5C8.98999 13.3269 8.31689 14 7.48999 14C6.66309 14 5.98999 13.3269 5.98999 12.5ZM4.54712 17.0254C4.77246 15.8721 5.79053 15 6.98999 15H7.98999C9.19409 15 10.2156 15.8784 10.4355 17.0386C9.61011 17.6404 8.59741 18 7.5 18C6.39453 18 5.37549 17.635 4.54712 17.0254ZM14.5471 28.0254C14.7725 26.8721 15.7905 26 16.99 26H17.99C19.1941 26 20.2156 26.8784 20.4355 28.0386C19.6101 28.6404 18.5974 29 17.5 29C16.3945 29 15.3755 28.635 14.5471 28.0254ZM17.49 25C16.6631 25 15.99 24.3269 15.99 23.5C15.99 22.6731 16.6631 22 17.49 22C18.3169 22 18.99 22.6731 18.99 23.5C18.99 24.3269 18.3169 25 17.49 25ZM22.5 24C22.5 25.2539 22.0325 26.3989 21.2671 27.2776C20.918 26.3516 20.186 25.6116 19.2734 25.2471C19.7156 24.7959 19.99 24.1799 19.99 23.5C19.99 22.1216 18.8684 21 17.49 21C16.1116 21 14.99 22.1216 14.99 23.5C14.99 24.1799 15.2644 24.7959 15.707 25.2471C14.7996 25.6089 14.0701 26.3425 13.7185 27.2615C12.9614 26.385 12.5 25.2466 12.5 24C12.5 21.2429 14.7429 19 17.5 19C20.2571 19 22.5 21.2429 22.5 24ZM19.0596 18.2129C18.5615 18.0786 18.04 18 17.5 18C16.1279 18 14.866 18.468 13.854 19.2461L11.886 17.0811C12.884 16.009 13.5 14.5769 13.5 13C13.5 12.345 13.3911 11.7161 13.196 11.1255L18.6951 8.79492C19.311 9.95947 20.2996 10.894 21.5005 11.4475L19.0596 18.2129Z" fill="black"/>
</g>
<defs>
<clipPath id="clip0_2255:9203">
<rect width="30" height="30" fill="white"/>
</clipPath>
</defs>
</svg>
