<svg width="31" height="31" viewBox="0 0 31 31" fill="none" xmlns="http://www.w3.org/2000/svg">
<path d="M26.5124 28.0132C26.5124 28.8422 25.8406 29.514 25.0118 29.514H5.00237C4.17343 29.514 3.50159 28.8422 3.50159 28.0132V2.00103C3.50159 1.17208 4.17343 0.500244 5.00237 0.500244H25.0118C25.8408 0.500244 26.5126 1.17208 26.5126 2.00103L26.5124 28.0132Z" fill="white"/>
<path d="M25.0118 29.514H2.00097C1.17202 29.514 0.500183 28.8422 0.500183 28.0132V26.5125H23.511V28.0132C23.511 28.8422 24.1829 29.514 25.0118 29.514Z" fill="#CBE6F3"/>
<path d="M0.500183 8.50391H10.5049V14.5069H0.500183V8.50391Z" fill="#CBE6F3"/>
<path d="M3.14807 12.5175L2.14748 11.5169C1.95247 11.3218 1.95247 11.0047 2.14748 10.8095L3.14807 9.80908L3.85526 10.5165L3.20856 11.1632L3.85526 11.8099L3.14807 12.5175Z" fill="#1E2B46"/>
<path d="M7.85723 12.5175L7.14984 11.8101L7.79674 11.1632L7.14984 10.5165L7.85723 9.80908L8.85762 10.8095C9.05283 11.0047 9.05283 11.3218 8.85762 11.5169L7.85723 12.5175Z" fill="#1E2B46"/>
<path d="M4.52692 12.5059L5.5281 9.50476L6.47704 9.82134L5.47605 12.8225L4.52692 12.5059Z" fill="#1E2B46"/>
<path d="M12.5059 3.50159H29.514V13.5063H12.5059V3.50159Z" fill="#EAF5FA"/>
<path d="M29.514 11.5055L26.0122 9.5045L22.1495 11.5055L17.5083 8.50391L12.5059 11.5055V13.5063H29.514V11.5055Z" fill="#1E2B46"/>
<path d="M25.0118 6.75315C25.0118 7.44385 24.4519 8.00374 23.7612 8.00374C23.0705 8.00374 22.5106 7.44385 22.5106 6.75315C22.5106 6.06246 23.0705 5.50256 23.7612 5.50256C24.4519 5.50256 25.0118 6.06246 25.0118 6.75315Z" fill="#FFE600"/>
<path d="M5.50256 16.5079H18.0085V22.5107H5.50256V16.5079Z" fill="#CBE6F3"/>
<path d="M7.00336 18.0084H9.00415V19.009H7.00336V18.0084Z" fill="#BF3D75"/>
<path d="M10.0048 18.0084H14.5069V19.009H10.0048V18.0084Z" fill="#BF3D75"/>
<path d="M15.5073 18.0084H16.5079V19.009H15.5073V18.0084Z" fill="#BF3D75"/>
<path d="M7.00336 20.0094H13.0061V21.01H7.00336V20.0094Z" fill="#BF3D75"/>
<path d="M14.0065 20.0094H16.5077V21.01H14.0065V20.0094Z" fill="#BF3D75"/>
<path d="M5.00238 2.00098H6.00297V3.00137H5.00238V2.00098Z" fill="#5EB3D1"/>
<path d="M7.00336 2.00098H8.00375V3.00137H7.00336V2.00098Z" fill="#5EB3D1"/>
<path d="M9.00415 2.00098H10.0048V3.00137H9.00415V2.00098Z" fill="#5EB3D1"/>
<path d="M5.00238 4.00183H11.0053V5.00242H5.00238V4.00183Z" fill="#5EB3D1"/>
<path d="M20.0095 18.5087H29.514V24.5116H20.0095V18.5087Z" fill="#CBE6F3"/>
<path d="M21.5103 20.0094H22.5106V21.01H21.5103V20.0094Z" fill="#BF3D75"/>
<path d="M21.5103 22.0105H22.5106V23.0109H21.5103V22.0105Z" fill="#BF3D75"/>
<path d="M23.511 20.0094H28.0132V21.01H23.511V20.0094Z" fill="#BF3D75"/>
<path d="M23.511 22.0105H28.0132V23.0109H23.511V22.0105Z" fill="#BF3D75"/>
<path d="M13.5063 13.5063H26.5126V14.5069H13.5063V13.5063Z" fill="#EAF5FA"/>
<path d="M21.0098 24.5116H26.5124V25.512H21.0098V24.5116Z" fill="#EAF5FA"/>
<path d="M10.5049 9.50452V14.5069H3.50159V15.5073H11.5055V9.50452H10.5049Z" fill="#EAF5FA"/>
<path d="M18.0085 17.5083V22.5107H6.50317V23.5111H19.0089V17.5083H18.0085Z" fill="#EAF5FA"/>
<path d="M3.0014 2.00098V7.00335H4.00199V2.00098C4.00199 1.44816 4.44956 1.00039 5.00239 1.00039H25.0118C25.5647 1.00039 26.0124 1.44816 26.0124 2.00098H27.0128C27.0128 0.895916 26.1169 0 25.0118 0H5.00239C3.89732 0 3.0014 0.895916 3.0014 2.00098Z" fill="black"/>
<path d="M2.00098 30.0141H25.0118C26.1167 30.0141 27.0126 29.1182 27.0126 28.0132V26.0124H26.0122V28.0132C26.0122 28.566 25.5644 29.0137 25.0116 29.0137C24.459 29.0137 24.0112 28.566 24.0112 28.0132V26.5124C24.0112 26.2362 23.7871 26.0122 23.511 26.0122H4.00177V16.0074H3.00138V26.0122H0.500197C0.224077 26.0122 0 26.2364 0 26.5124V28.0132C0 29.1182 0.895916 30.0141 2.00098 30.0141ZM1.00059 27.0128H23.0108V28.0132C23.0104 28.3643 23.1029 28.7101 23.2795 29.0137H2.00098C1.44816 29.0137 1.00039 28.566 1.00039 28.0132V27.0128H1.00059Z" fill="black"/>
<path d="M0.500197 15.0071H10.5049C10.781 15.0071 11.0051 14.7831 11.0051 14.5069V8.50398C11.0051 8.22786 10.781 8.00378 10.5049 8.00378H0.500197C0.224077 8.00378 0 8.22786 0 8.50398V14.5069C0 14.7831 0.224077 15.0071 0.500197 15.0071ZM1.00059 9.00418H10.0047V14.0065H1.00059V9.00418Z" fill="black"/>
<path d="M3.14807 10.1512L2.14748 11.1518C1.95247 11.3468 1.95247 11.664 2.14748 11.859L3.14807 12.8596L3.85526 12.1522L3.20856 11.5055L3.85526 10.8586L3.14807 10.1512Z" fill="black"/>
<path d="M7.85723 10.1512L7.14984 10.8586L7.79674 11.5055L7.14984 12.1522L7.85723 12.8596L8.85762 11.859C9.05283 11.664 9.05283 11.3468 8.85762 11.1518L7.85723 10.1512Z" fill="black"/>
<path d="M4.52692 12.8484L5.5281 9.84705L6.47704 10.1636L5.47605 13.165L4.52692 12.8484Z" fill="black"/>
<path d="M29.514 3.00134H12.5059C12.2298 3.00134 12.0057 3.22542 12.0057 3.50154V13.5063C12.0057 13.7824 12.2298 14.0065 12.5059 14.0065H29.514C29.7901 14.0065 30.0142 13.7824 30.0142 13.5063V3.50154C30.0142 3.22542 29.7901 3.00134 29.514 3.00134ZM29.0136 13.0061H13.0061V11.7885L17.4983 9.09326L21.8779 11.9255C22.0283 12.0226 22.219 12.0316 22.3781 11.9495L25.9993 10.0736L29.0136 11.7955V13.0061ZM29.0136 10.6435L26.2624 9.07028C26.1147 8.98623 25.9349 8.9823 25.7842 9.06027L22.179 10.9277L17.7819 8.08383C17.6214 7.98014 17.4162 7.9768 17.2526 8.07519L13.0061 10.6219V4.00174H29.0136V10.6435Z" fill="black"/>
<path d="M23.7612 8.50389C24.728 8.50389 25.512 7.72012 25.512 6.75311C25.512 5.7861 24.7282 5.00232 23.7612 5.00232C22.7942 5.00232 22.0103 5.7861 22.0103 6.75311C22.0103 7.72012 22.7942 8.50389 23.7612 8.50389ZM23.7612 6.00291C24.1754 6.00291 24.5116 6.33893 24.5116 6.75311C24.5116 7.16729 24.1754 7.5035 23.7612 7.5035C23.3471 7.5035 23.0108 7.16729 23.0108 6.75311C23.0108 6.33893 23.3471 6.00291 23.7612 6.00291Z" fill="black"/>
<path d="M5.00238 16.5079V22.5106C5.00238 22.7868 5.22646 23.0108 5.50258 23.0108H18.0085C18.2846 23.0108 18.5087 22.7868 18.5087 22.5106V16.5079C18.5087 16.2318 18.2846 16.0077 18.0085 16.0077H5.50258C5.22646 16.0075 5.00238 16.2318 5.00238 16.5079ZM6.00297 17.0081H17.5083V22.0104H6.00297V17.0081Z" fill="black"/>
<path d="M7.00336 18.0084H9.00415V19.009H7.00336V18.0084Z" fill="black"/>
<path d="M10.0048 18.0084H14.5069V19.009H10.0048V18.0084Z" fill="black"/>
<path d="M15.5073 18.0084H16.5079V19.009H15.5073V18.0084Z" fill="black"/>
<path d="M7.00336 20.0094H13.0061V21.01H7.00336V20.0094Z" fill="black"/>
<path d="M14.0065 20.0094H16.5077V21.01H14.0065V20.0094Z" fill="black"/>
<path d="M5.00238 2.00098H6.00297V3.00137H5.00238V2.00098Z" fill="black"/>
<path d="M7.00336 2.00098H8.00375V3.00137H7.00336V2.00098Z" fill="black"/>
<path d="M9.00415 2.00098H10.0048V3.00137H9.00415V2.00098Z" fill="black"/>
<path d="M5.00238 4.00183H11.0053V5.00242H5.00238V4.00183Z" fill="black"/>
<path d="M29.514 18.0084H20.0095C19.7334 18.0084 19.5093 18.2327 19.5093 18.5086V24.5116C19.5093 24.7877 19.7334 25.0118 20.0095 25.0118H29.514C29.7901 25.0118 30.0142 24.7877 30.0142 24.5116V18.5086C30.0142 18.2325 29.7901 18.0084 29.514 18.0084ZM29.0136 24.0112H20.5097V19.0088H29.0136V24.0112Z" fill="black"/>
<path d="M21.5103 20.0094H22.5106V21.01H21.5103V20.0094Z" fill="black"/>
<path d="M21.5103 22.0105H22.5106V23.0109H21.5103V22.0105Z" fill="black"/>
<path d="M23.511 20.0094H28.0132V21.01H23.511V20.0094Z" fill="black"/>
<path d="M23.511 22.0105H28.0132V23.0109H23.511V22.0105Z" fill="black"/>
<path d="M26.0122 15.0071H27.0128V17.0081H26.0122V15.0071Z" fill="black"/>
</svg>
