<svg width="30" height="26" viewBox="0 0 30 26" fill="none" xmlns="http://www.w3.org/2000/svg">
<path d="M23.504 24.803H6.49609V0.295166C6.49609 1.11922 7.02487 0.590442 7.6772 0.590442H22.3229C22.9752 0.590442 23.504 1.11922 23.504 1.77154V24.803Z" fill="#E2E9EE"/>
<path d="M0.590576 8.20862H12.4016V20.0196H0.590576V8.20862Z" fill="#CBE6F3"/>
<path d="M25.63 22.441H18.5433C17.891 22.441 17.3622 21.9122 17.3622 21.2599V19.7244C17.3622 19.0721 17.891 18.5433 18.5433 18.5433H25.63C26.2823 18.5433 26.8111 19.0721 26.8111 19.7244V21.2599C26.8111 21.9122 26.2823 22.441 25.63 22.441Z" fill="#FFEE80"/>
<path d="M14.7638 3.89771H29.4095V14.8819H14.7638V3.89771Z" fill="#43AADC"/>
<path d="M25.1575 10.0393C26.2012 10.0393 27.0473 9.19322 27.0473 8.14953C27.0473 7.10584 26.2012 6.25977 25.1575 6.25977C24.1138 6.25977 23.2678 7.10584 23.2678 8.14953C23.2678 9.19322 24.1138 10.0393 25.1575 10.0393Z" fill="#FFEE80"/>
<path d="M25.9984 14.8819H14.7638V10.1315L16.2272 8.76378C17.1349 7.91516 18.5451 7.91516 19.4534 8.76378L25.9984 14.8819Z" fill="#1EDEB7"/>
<path d="M15.5906 24.8032C15.5906 25.1291 15.3254 25.3937 15 25.3937C14.6746 25.3937 14.4094 25.1291 14.4094 24.8032C14.4094 24.4778 14.6746 24.2126 15 24.2126C15.3254 24.2126 15.5906 24.4778 15.5906 24.8032ZM4.70232 10.2756C4.37616 10.2756 4.11177 10.54 4.11177 10.8661C4.11177 11.1923 4.37616 11.4567 4.70232 11.4567H5.90551V17.3622C5.90551 17.6884 6.1699 17.9528 6.49606 17.9528C6.82222 17.9528 7.08661 17.6884 7.08661 17.3622V11.4567H8.2898C8.61596 11.4567 8.88035 11.1923 8.88035 10.8661C8.88035 10.54 8.61596 10.2756 8.2898 10.2756H4.70232ZM25.1575 5.66929C26.5251 5.66929 27.6378 6.78195 27.6378 8.14961C27.6378 9.51726 26.5251 10.6299 25.1575 10.6299C23.7898 10.6299 22.6772 9.51726 22.6772 8.14961C22.6772 6.78195 23.7898 5.66929 25.1575 5.66929ZM23.8583 8.14961C23.8583 8.866 24.4411 9.44882 25.1575 9.44882C25.8739 9.44882 26.4567 8.866 26.4567 8.14961C26.4567 7.43321 25.8739 6.85039 25.1575 6.85039C24.4411 6.85039 23.8583 7.43321 23.8583 8.14961ZM23.5039 25.3937H17.6575C17.319 25.3937 17.0457 25.1075 17.0682 24.7636C17.0888 24.4498 17.3637 24.2126 17.6782 24.2126H22.9134V23.0315H18.5433C17.5648 23.0315 16.7717 22.2383 16.7717 21.2598V19.7244C16.7717 18.7459 17.5648 17.9528 18.5433 17.9528H22.9134V15.4724H14.7638C14.4376 15.4724 14.1732 15.2081 14.1732 14.8819V3.89764C14.1732 3.57148 14.4376 3.30709 14.7638 3.30709H22.9134V1.77165C22.9134 1.44549 22.649 1.1811 22.3228 1.1811H7.67717C7.351 1.1811 7.08661 1.44549 7.08661 1.77165V7.61811H12.4016C12.7277 7.61811 12.9921 7.8825 12.9921 8.20866V20.0197C12.9921 20.3458 12.7277 20.6102 12.4016 20.6102H7.08661V24.2126H12.3218C12.6363 24.2126 12.9112 24.4498 12.9318 24.7636C12.9543 25.1075 12.681 25.3937 12.3425 25.3937H6.49606C6.1699 25.3937 5.90551 25.1293 5.90551 24.8032V20.6102H0.590551C0.26439 20.6102 0 20.3458 0 20.0197V8.20866C0 7.8825 0.26439 7.61811 0.590551 7.61811H5.90551V1.77165C5.90551 0.793169 6.69868 0 7.67717 0H22.3228C23.3013 0 24.0945 0.793169 24.0945 1.77165V3.30709H29.4094C29.7356 3.30709 30 3.57148 30 3.89764V14.8819C30 15.2081 29.7356 15.4724 29.4094 15.4724H24.0945V17.9528H25.6299C26.6084 17.9528 27.4016 18.7459 27.4016 19.7244V21.2598C27.4016 22.2383 26.6084 23.0315 25.6299 23.0315H24.0945V24.8032C24.0945 25.1293 23.8301 25.3937 23.5039 25.3937ZM11.811 8.79921H1.1811V19.4291H11.811V8.79921ZM25.6299 19.1339H18.5433C18.2177 19.1339 17.9528 19.3988 17.9528 19.7244V21.2598C17.9528 21.5855 18.2177 21.8504 18.5433 21.8504H25.6299C25.9556 21.8504 26.2205 21.5855 26.2205 21.2598V19.7244C26.2205 19.3988 25.9556 19.1339 25.6299 19.1339ZM15.3543 14.2913H24.5017L19.0498 9.19506C18.3714 8.56093 17.3085 8.56081 16.6302 9.19506L15.3543 10.3877V14.2913ZM28.8189 4.48819H15.3543V8.77093L15.8236 8.33226C16.9543 7.2753 18.7258 7.27535 19.8564 8.33226L26.2313 14.2913H28.8189V4.48819Z" fill="black"/>
</svg>
