<svg width="30" height="28" viewBox="0 0 30 28" fill="none" xmlns="http://www.w3.org/2000/svg">
<path d="M2.96606 5.16492V8.51865H7.99663L2.96606 5.16492Z" fill="#103B9B"/>
<path d="M13.5996 2.39099H7.57764L13.5996 6.40548V2.39099Z" fill="#103B9B"/>
<path d="M2.96606 13.3849V16.7386L7.99663 13.3849H2.96606Z" fill="#103B9B"/>
<path d="M24.4875 2.39099H18.4656V6.40548L24.4875 2.39099Z" fill="#103B9B"/>
<path d="M29.0989 8.51865V5.16492L24.0684 8.51865H29.0989Z" fill="#103B9B"/>
<path d="M7.57764 19.5125H13.5996V15.4979L7.57764 19.5125Z" fill="#103B9B"/>
<path d="M29.0989 16.7386V13.3849H24.0684L29.0989 16.7386Z" fill="#103B9B"/>
<path d="M18.4656 19.5125H24.4875L18.4656 15.4979V19.5125Z" fill="#103B9B"/>
<path d="M24.4875 2.39099L18.4656 6.40548V2.39099H17.7898V9.19454H29.099V8.51866H24.0684L29.099 5.16493V2.78228L20.4944 8.51866H18.8699H18.4656V7.92229V6.83931L25.1375 2.39099H24.4875Z" fill="white"/>
<path d="M7.57751 19.5125L13.5995 15.4979V19.5125H14.2752V12.7089H2.96606V13.3847H7.99663L2.96606 16.7385V19.1212L11.5706 13.3847H13.1952H13.5995V13.9816V15.0647L6.92776 19.5125H7.57751Z" fill="white"/>
<path d="M13.1951 13.3849L4.00354 19.5126H5.30315L13.5994 13.9818V13.3849H13.1951Z" fill="#E64C49"/>
<path d="M2.96606 2.78235V3.65047L10.2509 8.51874H11.5706L2.96606 2.78235Z" fill="#E64C49"/>
<path d="M29.0988 19.1213V18.2962L21.7495 13.3849H20.4943L29.0988 19.1213Z" fill="#E64C49"/>
<path d="M18.8699 8.51866L28.0615 2.39099H26.7619L18.4656 7.92229V8.51866H18.8699Z" fill="#E64C49"/>
<path d="M29.9999 19.9603V18.0548V18.0526V1.9435V1.94209V1.94051C29.9999 1.93788 29.9996 1.9353 29.9995 1.93266C29.9993 1.92059 29.9988 1.9084 29.9977 1.89633C29.9972 1.89124 29.9963 1.8862 29.9956 1.88116C29.9943 1.87161 29.9932 1.86217 29.9912 1.85262C29.9899 1.846 29.9881 1.83956 29.9865 1.83305C29.9846 1.82532 29.9829 1.8177 29.9806 1.81002C29.9782 1.80211 29.9752 1.7945 29.9724 1.78676C29.9703 1.78067 29.9683 1.77469 29.9658 1.76872C29.962 1.75928 29.9574 1.75026 29.9529 1.74112C29.9509 1.73702 29.9491 1.7328 29.9469 1.72875C29.9407 1.71721 29.934 1.70602 29.9269 1.69512L29.9241 1.69055V1.69055C29.9157 1.67795 29.9065 1.66542 29.8969 1.65375C29.8925 1.64842 29.8876 1.64362 29.883 1.63858C29.8779 1.6329 29.873 1.62704 29.8676 1.62165C29.86 1.61403 29.852 1.60706 29.8439 1.60014C29.8409 1.59756 29.8382 1.59487 29.8352 1.59235C29.8275 1.58602 29.8196 1.58034 29.8115 1.57459C29.8077 1.57178 29.8038 1.56879 29.7999 1.5661C29.793 1.56141 29.7857 1.55731 29.7785 1.55309C29.7729 1.54981 29.7675 1.54635 29.7619 1.54325C29.7562 1.5402 29.7502 1.53762 29.7443 1.53481C29.7369 1.53118 29.7295 1.52749 29.7217 1.52432C29.7173 1.5225 29.7129 1.5211 29.7083 1.5194C29.6991 1.51588 29.6898 1.51237 29.6802 1.50944C29.6768 1.50833 29.6732 1.50768 29.6697 1.50668C29.6592 1.50375 29.6486 1.50088 29.6379 1.49872C29.6331 1.49772 29.6282 1.49731 29.6234 1.49655C29.613 1.49479 29.6026 1.49309 29.592 1.49204C29.5781 1.49069 29.564 1.48999 29.55 1.48993V1.48993L26.628 1.48987H26.6265H2.51516V1.48987C2.50109 1.48987 2.48627 1.49063 2.47238 1.49198C2.46014 1.49315 2.44812 1.49502 2.43617 1.49713C2.43295 1.49766 2.42979 1.49801 2.42662 1.4986C2.4149 1.50094 2.40342 1.50399 2.39199 1.50727C2.38941 1.50797 2.38684 1.5085 2.38432 1.50926C2.374 1.51237 2.36398 1.51618 2.35396 1.51999C2.35027 1.52139 2.34652 1.52256 2.34283 1.52403C2.33439 1.52749 2.32637 1.53159 2.31822 1.53551C2.31307 1.53797 2.30779 1.54026 2.30275 1.5429C2.29631 1.54635 2.29021 1.55022 2.28395 1.55403C2.27756 1.55784 2.271 1.56159 2.26473 1.56575C2.25998 1.56891 2.25564 1.57249 2.25096 1.57583C2.24369 1.5811 2.23625 1.58625 2.22928 1.59206C2.22553 1.59516 2.22213 1.59862 2.21838 1.60184C2.21111 1.60823 2.20373 1.6145 2.19687 1.62141C2.19031 1.62797 2.18428 1.63506 2.17807 1.64198C2.17461 1.6459 2.17092 1.64959 2.16752 1.65364C2.15791 1.6653 2.14895 1.67743 2.14057 1.69002V1.69002C2.13934 1.69172 2.13822 1.69401 2.13699 1.69577C2.13014 1.70643 2.12346 1.71727 2.11748 1.72858C2.11525 1.73286 2.11344 1.73719 2.11121 1.74147C2.10682 1.75032 2.10242 1.75928 2.09855 1.76854C2.09609 1.77463 2.0941 1.78079 2.09187 1.78688C2.08906 1.79456 2.08619 1.80206 2.08379 1.80985C2.0815 1.81752 2.0798 1.8252 2.07781 1.83299C2.07629 1.83944 2.07441 1.84588 2.07312 1.85245C2.07125 1.86194 2.06996 1.87143 2.06873 1.88104C2.06809 1.88608 2.06715 1.89106 2.06668 1.89616C2.06545 1.90829 2.06504 1.92042 2.0648 1.93254C2.0648 1.93524 2.06445 1.93776 2.06445 1.9404V1.94198V1.94338V3.89227V3.89379V19.9602V19.9616V19.9631C2.06445 19.9658 2.0648 19.9683 2.0648 19.971C2.06504 19.9831 2.06551 19.9952 2.06668 20.0074C2.06715 20.0125 2.06809 20.0175 2.06873 20.0225C2.07002 20.0321 2.07119 20.0416 2.07312 20.0511C2.07441 20.0577 2.07629 20.0641 2.07787 20.0707C2.07969 20.0784 2.08145 20.0861 2.08379 20.0937C2.08613 20.1016 2.08912 20.1091 2.09193 20.1169C2.0941 20.123 2.09604 20.1291 2.09855 20.1351C2.10236 20.1445 2.10693 20.1535 2.11139 20.1625C2.11344 20.1666 2.1152 20.1708 2.11742 20.175C2.12363 20.1865 2.13037 20.1977 2.13746 20.2086L2.14021 20.2132V20.2132C2.14994 20.2277 2.16084 20.2418 2.17215 20.2551C2.17566 20.2592 2.1793 20.2631 2.18305 20.267C2.1909 20.2756 2.19904 20.2838 2.20748 20.2918C2.21211 20.2962 2.2168 20.3005 2.22154 20.3047C2.23051 20.3123 2.23982 20.3196 2.24943 20.3266C2.25336 20.3295 2.25723 20.3327 2.26127 20.3354C2.2748 20.3448 2.28893 20.3532 2.30346 20.3609C2.30697 20.3627 2.31055 20.3643 2.31412 20.366C2.32572 20.3719 2.33773 20.3773 2.34992 20.3821C2.35455 20.384 2.35918 20.3855 2.36381 20.3872C2.37535 20.3913 2.38713 20.395 2.39914 20.3982C2.40389 20.3995 2.40857 20.4008 2.41344 20.4019C2.42574 20.4048 2.43834 20.4069 2.45105 20.4087C2.45545 20.4093 2.45979 20.4103 2.46418 20.4107C2.48029 20.4125 2.49646 20.4137 2.51299 20.4137L2.51533 20.4138V20.4138L5.43611 20.4138H5.43793H29.5481V20.4138L29.551 20.4137C29.5675 20.4137 29.5838 20.4125 29.5999 20.4107C29.6042 20.4103 29.6085 20.4094 29.6128 20.4088C29.6257 20.407 29.6383 20.4048 29.6507 20.4019C29.6555 20.4008 29.6601 20.3995 29.6647 20.3982C29.6768 20.395 29.6888 20.3913 29.7004 20.3872C29.705 20.3856 29.7095 20.384 29.714 20.3822C29.7263 20.3773 29.7385 20.3719 29.7504 20.3659C29.7538 20.3642 29.7572 20.3627 29.7605 20.361C29.7752 20.3532 29.7894 20.3446 29.803 20.3354C29.8068 20.3327 29.8106 20.3296 29.8145 20.3268C29.8241 20.3197 29.8335 20.3123 29.8426 20.3046C29.8474 20.3006 29.852 20.2962 29.8566 20.2918C29.8651 20.2839 29.8732 20.2756 29.8811 20.2669C29.8848 20.263 29.8884 20.2592 29.8919 20.2551C29.9033 20.2419 29.9139 20.228 29.9236 20.2135V20.2135L29.9266 20.2086C29.9337 20.1977 29.9405 20.1865 29.9466 20.175C29.9488 20.171 29.9505 20.1667 29.9526 20.1626C29.9571 20.1536 29.9616 20.1445 29.9655 20.135C29.968 20.1291 29.97 20.123 29.9721 20.117C29.9749 20.1093 29.9778 20.1016 29.9803 20.0937C29.9825 20.0861 29.9842 20.0784 29.9862 20.0707C29.9878 20.0642 29.9897 20.0578 29.9909 20.0511C29.9928 20.0416 29.994 20.0322 29.9953 20.0226C29.996 20.0175 29.9969 20.0125 29.9974 20.0074C29.9986 19.9953 29.999 19.9832 29.9992 19.971C29.9993 19.9684 29.9996 19.9658 29.9996 19.9631V19.9615L29.9999 19.9603ZM18.4653 7.92247L26.7615 2.3911H28.0612L18.8696 8.51883H20.4942L29.0987 2.78245V5.1651V8.51883V9.19471H17.7896V2.39116H18.4654H24.4872H25.1372L18.4654 6.83948L18.4653 7.92247ZM14.275 9.19471H2.96586V8.51883V5.1651V4.73444L8.62889 8.51889H10.2508L2.96586 3.65057V2.78245L11.5704 8.51883H13.195L4.00338 2.39116H7.57736H13.5992H14.2751L14.275 9.19471ZM13.5993 13.9819L5.30299 19.5127H4.00338L13.195 13.3849H11.5704L2.96586 19.1214V16.7387V13.385V12.7091H14.2751V19.5127H13.5992H7.57736H6.92756L13.5992 15.0648L13.5993 13.9819ZM17.7896 12.7091H25.9448C26.1937 12.7091 26.3953 12.5074 26.3953 12.2586C26.3953 12.0097 26.1937 11.8081 25.9448 11.8081H17.3389C17.0901 11.8081 16.8884 12.0098 16.8884 12.2586V19.5127H15.1763V12.2586C15.1763 12.0097 14.9746 11.8081 14.7257 11.8081H2.96586V10.0959H14.7257C14.9745 10.0959 15.1762 9.89415 15.1762 9.6453V2.39116H16.8883V9.64524C16.8883 9.89409 17.09 10.0958 17.3388 10.0958H29.0987V11.8079H27.747C27.4981 11.8079 27.2965 12.0097 27.2965 12.2585C27.2965 12.5073 27.4981 12.709 27.747 12.709H29.0987V13.3849V16.7386V17.2123L23.3712 13.3849H21.7493L25.4241 15.8406L29.0988 18.2962V19.1213L20.4942 13.3849H18.8696L28.0612 19.5127H24.4872H18.4654H17.7896V12.7091Z" fill="black"/>
<path d="M13.5995 6.40548L7.57751 2.39099H4.00358L13.1951 8.51866H11.5706H10.2509H8.62903L2.96606 4.73427V5.16493L7.99663 8.51866H2.96606V9.19454H14.2752V2.39099H13.5995V6.40548Z" fill="white"/>
<path d="M18.4655 15.498L24.4873 19.5126H28.0613L18.8697 13.3849H20.4943H21.7495H23.3714L29.0989 17.2122V16.7386L24.0683 13.3848H29.0989V12.709H27.7472C27.4982 12.709 27.2966 12.5072 27.2966 12.2584H26.3954C26.3954 12.5072 26.1938 12.709 25.9449 12.709H17.7897V19.5125H18.4655V15.498Z" fill="white"/>
<path d="M27.2967 12.2584C27.2967 12.0096 27.4983 11.8079 27.7472 11.8079H29.0989V10.0957H17.3391C17.0903 10.0957 16.8886 9.89398 16.8886 9.64513V2.39099H15.1765V9.64507C15.1765 9.89392 14.9748 10.0957 14.7259 10.0957H2.96606V11.8078H14.7259C14.9747 11.8078 15.1764 12.0095 15.1764 12.2583V19.5124H16.8885V12.2584C16.8885 12.0096 17.0902 11.8079 17.3391 11.8079H25.945C26.1939 11.8079 26.3955 12.0096 26.3955 12.2584H27.2967Z" fill="#E64C49"/>
<path d="M1.2313 27.2694C0.853838 27.2694 0.546631 26.9622 0.546631 26.5847V1.40917C0.546631 1.03517 0.850967 0.730835 1.22497 0.730835H1.31444C1.69202 0.730835 1.99911 1.03798 1.99911 1.4155V26.5846C1.99911 26.9621 1.69196 27.2692 1.31444 27.2692L1.2313 27.2694Z" fill="white"/>
<path d="M1.31438 0.184204H1.2249C0.549492 0.184204 0 0.733638 0 1.40905V26.5845C0 27.2634 0.552305 27.8157 1.23123 27.8157H1.31432C1.99324 27.8157 2.54555 27.2634 2.54555 26.5845V1.41538C2.54555 0.736509 1.99324 0.184204 1.31438 0.184204ZM1.63465 26.5846C1.63465 26.7612 1.49098 26.9048 1.31438 26.9048H1.23129C1.05469 26.9048 0.911016 26.7612 0.911016 26.5846V1.40905C0.911016 1.2359 1.05182 1.0951 1.22496 1.0951H1.31443C1.49104 1.0951 1.63471 1.23877 1.63471 1.41538L1.63465 26.5846Z" fill="black"/>
</svg>
