<svg width="30" height="30" viewBox="0 0 30 30" fill="none" xmlns="http://www.w3.org/2000/svg">
<path d="M28.2927 9.21485L29.5605 8.44205H29.5607V6.41839L26.1374 2.95231L23.7523 1.43555H19.0931V1.43561L18.6821 2.41835H13.4917L12.7877 1.43561V1.43555H8.12875L6.63654 2.94528C6.63654 2.94528 2.72708 5.72868 2.66333 5.74989C2.63052 5.76085 1.93412 5.36123 1.26562 4.97059V18.2201L2.70938 17.4716L7.26244 19.5203L8.12875 21.7542H12.7877V21.754L13.7466 20.9662H18.6648L19.0931 21.754V21.7542H23.7523L26.3307 17.4716L29.5607 16.7708V14.7475H29.5605L28.2927 13.7984V10.068V9.21485Z" fill="#43AADC"/>
<path d="M29.5607 18.9323V21.5843C29.5607 21.678 29.4845 21.7542 29.3907 21.7542H26.7728H23.7522L19.0928 18.4202L16.7122 16.4508L18.269 12.4665L23.1241 12.054L26.7323 14.7475L29.5607 16.7708V18.9323Z" fill="#F9F7F8"/>
<path d="M7.81498 1.75305L6.63654 2.94527C6.63654 2.94527 2.72708 5.72866 2.66333 5.74987C2.63052 5.76083 1.93413 5.36122 1.26562 4.97057V18.2201L2.70938 17.4716L7.26244 19.5203L8.12875 21.7543H12.7877L13.7466 20.9662H18.6648L19.0931 21.754L23.7523 21.7543L26.3307 17.4716H7.81492L7.81498 1.75305Z" fill="#43AADC"/>
<path d="M19.0929 18.4201L23.7523 21.7541H26.7728H29.3908C29.3921 21.7541 29.3933 21.7538 29.3946 21.7537C29.4846 21.7517 29.5571 21.6797 29.5602 21.5899C29.5602 21.588 29.5607 21.5861 29.5607 21.5842V18.9322V17.4714H17.9462L19.0929 18.4201Z" fill="#EFEDEF"/>
<path d="M29.5606 18.9323V21.5842C29.5606 21.678 29.4844 21.7542 29.3907 21.7542H26.7727L19.0928 16.2586L17.335 14.8928L19.766 12.2936L23.7118 14.7475L29.5606 18.9323Z" fill="#E64C49"/>
<path d="M20.788 17.4715L26.7728 21.7541H29.3908C29.3921 21.7541 29.3933 21.7538 29.3946 21.7537C29.4846 21.7517 29.5571 21.6796 29.5602 21.5899C29.5602 21.5879 29.5607 21.5861 29.5607 21.5841V18.9322L27.5191 17.4714L20.788 17.4715Z" fill="#E64C49"/>
<path d="M14.8097 14.2993L15.3493 16.0811L12.7876 18.4202L8.12875 21.7542H5.10764H2.32031V18.9323V16.7708L5.14807 14.7475L9.82212 11.8278L14.8097 14.2993Z" fill="#F3F0F3"/>
<path d="M13.8464 17.4535C11.1386 17.2532 8.89099 15.399 8.11005 12.8973L5.14806 14.7476L2.32031 16.7709V18.9324V21.7543H5.10763H8.12874L12.7876 18.4203L13.8464 17.4535Z" fill="#EFEDEF"/>
<path d="M15.5222 13.1016L15.63 14.4832L12.7876 16.2586L5.10764 21.7542H2.32031V18.9323L8.1686 14.7475L11.679 12.4541L15.5222 13.1016Z" fill="#E64C49"/>
<path d="M8.77242 14.3531L8.16855 14.7477L2.32031 18.9324V21.7543H5.10762L11.8053 16.9616C10.5419 16.4293 9.48176 15.5107 8.77242 14.3531Z" fill="#E64C49"/>
<path d="M29.5607 4.25685V6.41839L26.7324 8.44223L20.8425 13.3911L13.8469 8.98598L19.0929 4.76955L23.7523 1.43555H26.7728H29.3908C29.4845 1.43555 29.5607 1.51172 29.5607 1.60547V4.25685Z" fill="#F9F7F8"/>
<path d="M29.5608 1.60547V4.25685L23.7119 8.44223L21.4227 10.3665L15.2211 9.96626L19.093 6.9305L26.7729 1.43555H29.3909C29.4846 1.43555 29.5608 1.51172 29.5608 1.60547V1.60547Z" fill="#E64C49"/>
<path d="M16.568 7.41332L11.8108 13.1889L5.14806 8.44223L2.32031 6.41839V4.25685V1.43555H5.10763H8.12874L12.7876 4.76955L16.568 7.41332Z" fill="#F9F7F8"/>
<path d="M2.32031 6.41836L5.14805 8.44219L7.81495 10.3421V1.43555H5.10762H2.32031V4.25684V6.41836Z" fill="#EFEDEF"/>
<path d="M15.9405 9.402L12.7876 12.2936L8.16917 8.44223L2.32031 4.25685V1.43555H5.10763L12.7876 6.9305L15.9405 9.402Z" fill="#E64C49"/>
<path opacity="0.9" d="M7.81495 8.18865V3.3726L5.10762 1.43555H2.32031V4.25684L7.81495 8.18865Z" fill="#E64C49"/>
<path d="M29.5606 8.44205H19.0932V1.43555H12.7877V8.44205H2.32031V14.7475H12.7877V21.754H19.0932V14.7475H29.5606V8.44205Z" fill="#F9F7F8"/>
<path d="M7.815 10.9522V8.44202H2.32031V14.7474H9.03322C8.26658 13.6784 7.815 12.3681 7.815 10.9522V10.9522Z" fill="#EFEDEF"/>
<path d="M14.3342 17.4715C13.8013 17.4715 13.2835 17.4071 12.7877 17.2865V21.7539H19.0931V17.4715H14.3342Z" fill="#EFEDEF"/>
<path d="M29.5606 10.1999H17.3353V1.43555H14.5456V10.1999H2.32031V12.9897H14.5456V21.754H17.3353V12.9897H29.5606V10.1999Z" fill="#E64C49"/>
<path d="M7.81524 10.9524V10.2H2.32056V12.9897H8.14021C7.92944 12.3487 7.81524 11.6639 7.81524 10.9524V10.9524Z" fill="#E64C49"/>
<path d="M14.5457 17.4716H17.3355V21.7539H14.5457V17.4716Z" fill="#E64C49"/>
<path d="M2.05852 29.5285C2.20314 29.5285 2.32038 29.4112 2.32038 29.2666V16.7708V0.989066C2.32038 0.685548 2.07429 0.439453 1.77077 0.439453H0.989066C0.685548 0.439453 0.439453 0.685548 0.439453 0.989066V29.2667C0.439453 29.4113 0.5567 29.5285 0.70131 29.5285H2.05852V29.5285Z" fill="#E5E1E5"/>
<path d="M29.3909 0.996158H2.75978V0.989303C2.75978 0.443792 2.31599 0 1.77048 0H0.989244C0.443733 0 0 0.443792 0 0.989303V29.5282C0 29.7709 0.1967 29.9677 0.439456 29.9677C0.682211 29.9677 0.878911 29.7709 0.878911 29.5282V0.989303C0.878911 0.928423 0.928423 0.878911 0.989244 0.878911H1.77048C1.83136 0.878911 1.88087 0.928423 1.88087 0.989303V23.9365C1.88087 24.1792 2.07757 24.376 2.32033 24.376C2.56308 24.376 2.75978 24.1792 2.75978 23.9365V22.1934H29.3909C29.7267 22.1934 30 21.9201 30 21.5842V1.60524C30 1.26938 29.7267 0.996158 29.3909 0.996158V0.996158ZM23.8931 21.3145L19.5326 18.1943V17.1136L25.4035 21.3145H23.8931V21.3145ZM19.5326 19.2751L22.3828 21.3145H19.5326V19.2751ZM19.0931 14.308C18.8504 14.308 18.6537 14.5048 18.6537 14.7475V21.3145H17.7748V13.4291H29.1211V14.308H19.0931ZM6.47728 21.3145L12.3482 17.1136V18.1943L7.98772 21.3145H6.47728ZM12.3482 19.275V21.3145H9.49799L12.3482 19.275ZM12.7877 14.308H2.75978V13.4291H4.30819C4.55094 13.4291 4.74765 13.2324 4.74765 12.9897C4.74765 12.747 4.55094 12.5502 4.30819 12.5502H2.75978V10.6393H14.5456C14.7883 10.6393 14.985 10.4426 14.985 10.1999V1.87507H16.8959V10.1999C16.8959 10.4426 17.0926 10.6393 17.3354 10.6393H25.3806C25.6233 10.6393 25.82 10.4426 25.82 10.1999C25.82 9.95719 25.6233 9.76043 25.3806 9.76043H17.7748V1.87507H18.6537V8.44206C18.6537 8.68476 18.8504 8.88152 19.0931 8.88152H29.1211V9.76043H27.2533C27.0106 9.76043 26.8139 9.95719 26.8139 10.1999C26.8139 10.4426 27.0106 10.6393 27.2533 10.6393H29.1211V12.5502H17.3353C17.0925 12.5502 16.8958 12.747 16.8958 12.9897V21.3145H14.985V12.9897C14.985 12.747 14.7883 12.5502 14.5455 12.5502H6.18097C5.93822 12.5502 5.74152 12.747 5.74152 12.9897C5.74152 13.2324 5.93822 13.4291 6.18097 13.4291H14.1061V21.3145H13.2271V14.7475C13.2271 14.5048 13.0304 14.308 12.7877 14.308V14.308ZM12.7877 8.88152C13.0304 8.88152 13.2271 8.68476 13.2271 8.44206V1.87507H14.1061V9.76043H2.75978V8.88152H12.7877ZM7.98772 1.87507L12.3482 4.99526V6.07597L6.47728 1.87507H7.98772ZM12.3482 3.91455L9.49799 1.87507H12.3482V3.91455ZM25.4035 1.87507L19.5326 6.07597V4.9952L23.8931 1.87507H25.4035ZM19.5326 3.9145V1.87507H22.3828L19.5326 3.9145ZM2.75978 8.0026V7.2734L3.77885 8.0026H2.75978ZM5.28917 8.0026L2.75978 6.19269V5.11187L6.79961 8.00255H5.28917V8.0026ZM2.75978 15.1869H3.77885L2.75978 15.9161V15.1869ZM2.75978 16.9969L5.28917 15.1869H6.79955L2.75978 18.0776V16.9969ZM29.1211 6.19263L26.5916 8.0026H25.0813L29.1211 5.11192V6.19263ZM29.1211 7.2734V8.0026H28.102L29.1211 7.2734ZM29.1211 15.1869V15.9161L28.102 15.1869H29.1211ZM26.5916 15.1869L29.1211 16.9969V18.0776L25.0813 15.187H26.5916V15.1869ZM29.1211 4.03116L23.5709 8.0026H19.5326V7.15668L26.9139 1.87501H29.1211V4.03116ZM4.9669 1.87507L12.3482 7.15674V8.0026H8.30993L2.75978 4.03116V1.87507H4.9669ZM2.75978 19.1583L8.30999 15.1869H12.3483V16.0328L4.96702 21.3145H2.75978V19.1583ZM26.9139 21.3145L19.5326 16.0328V15.1869H23.5709L29.1211 19.1583V21.3144H26.9139V21.3145Z" fill="black"/>
<path d="M2.32031 25.3699C2.07756 25.3699 1.88086 25.5666 1.88086 25.8093V29.5282C1.88086 29.7709 2.07756 29.9677 2.32031 29.9677C2.56307 29.9677 2.75977 29.7709 2.75977 29.5282V25.8093C2.75977 25.5666 2.56301 25.3699 2.32031 25.3699Z" fill="black"/>
</svg>
