<svg width="30" height="27" viewBox="0 0 30 27" fill="none" xmlns="http://www.w3.org/2000/svg">
<path d="M22.8832 18.7473H1.02599C0.702197 18.7473 0.439697 18.4816 0.439697 18.1539V6.31912L0.732842 5.46802H23.1763L23.4694 6.31912V18.1539C23.4694 18.4817 23.2069 18.7473 22.8832 18.7473Z" fill="#D3EFFB"/>
<path d="M23.1763 5.46814H21.2649V15.9229C21.2649 16.2506 21.0024 16.5163 20.6786 16.5163H0.439697V18.1541C0.439697 18.4818 0.702197 18.7474 1.02599 18.7474H22.8832C23.207 18.7474 23.4695 18.4818 23.4695 18.1541V6.31918L23.1763 5.46814Z" fill="#B1E4F9"/>
<path d="M23.4694 6.31921H0.439697V1.03809C0.439697 0.710563 0.702021 0.445068 1.02563 0.445068H22.8835C23.2071 0.445068 23.4694 0.710563 23.4694 1.03809V6.31921Z" fill="#43AADC"/>
<path d="M22.8832 0.445068H21.265V6.31921H23.4695V1.03838C23.4695 0.710741 23.207 0.445068 22.8832 0.445068V0.445068Z" fill="#43AADC"/>
<path d="M24.5895 10.386L24.7187 10.0803C24.7974 9.89406 24.6244 9.70009 24.4333 9.76034L21.7962 10.5922C21.6585 10.6356 21.5918 10.7934 21.6558 10.9242L22.8824 13.4291C22.9712 13.6106 23.2294 13.6033 23.3081 13.4171L23.4519 13.077C23.4766 13.0186 23.5428 12.9894 23.6014 13.0124C25.0181 13.5688 26.1813 14.7482 26.6676 16.3272C27.4801 18.9653 26.113 21.7732 23.6018 22.7544C23.4199 22.8255 23.3245 23.0281 23.3825 23.2165L23.9528 25.0683C24.0164 25.2749 24.2381 25.3838 24.4388 25.3092C28.3202 23.8669 30.4484 19.5655 29.2046 15.5268C28.4787 13.17 26.7574 11.4003 24.654 10.5425C24.593 10.5176 24.5636 10.4473 24.5895 10.386V10.386Z" fill="#1EDEB7"/>
<path d="M19.0403 10.4544C15.1589 11.8967 13.0307 16.1982 14.2745 20.2368C14.9826 22.5364 16.6387 24.2765 18.6724 25.1565C18.7321 25.1824 18.7603 25.2517 18.7347 25.3122L18.6525 25.5067C18.5738 25.6929 18.7468 25.8869 18.9379 25.8267L21.575 24.9948C21.7127 24.9514 21.7794 24.7936 21.7153 24.6628L20.4888 22.1579C20.3999 21.9764 20.1418 21.9837 20.0631 22.1699L19.8717 22.6226C19.8464 22.6825 19.7779 22.7113 19.7187 22.6858C18.3744 22.1054 17.2796 20.956 16.8116 19.4365C15.9991 16.7984 17.3662 13.9904 19.8774 13.0093C20.0593 12.9382 20.1547 12.7356 20.0967 12.5471L19.5264 10.6953C19.4627 10.4888 19.241 10.3798 19.0403 10.4544V10.4544Z" fill="#1EDEB7"/>
<path d="M24.6541 10.5425C24.593 10.5176 24.5636 10.4473 24.5895 10.386L24.7187 10.0803C24.7974 9.89406 24.6244 9.70009 24.4333 9.76034L23.2999 10.1179C23.4909 10.0576 23.664 10.2516 23.5853 10.4378L23.4561 10.7435C23.4302 10.8049 23.4596 10.8752 23.5208 10.9001C25.6241 11.7579 27.3455 13.5275 28.0714 15.8844C29.222 19.6204 27.4867 23.5811 24.1475 25.2955C24.2354 25.338 24.3397 25.3461 24.439 25.3092C28.3204 23.8669 30.4485 19.5654 29.2048 15.5268C28.4789 13.17 26.7575 11.4003 24.6541 10.5425V10.5425Z" fill="#18B192"/>
<path d="M20.4887 22.1578C20.3998 21.9764 20.1417 21.9837 20.063 22.1699L19.8716 22.6226C19.8463 22.6824 19.7778 22.7112 19.7186 22.6857C18.3743 22.1053 17.2795 20.956 16.8115 19.4364C16.2559 17.6324 16.72 15.7493 17.8717 14.4249C16.0361 15.6833 15.1429 18.0559 15.8358 20.306C16.3038 21.8255 17.3986 22.9749 18.7429 23.5553C18.802 23.5808 18.8706 23.552 18.8959 23.4921L19.0873 23.0394C19.166 22.8532 19.4241 22.8459 19.513 23.0274L20.6234 25.2949L21.575 24.9947C21.7127 24.9512 21.7794 24.7935 21.7153 24.6627L20.4887 22.1578Z" fill="#18B192"/>
<path d="M7.4174 14.2276H3.23311C2.76893 14.2276 2.39264 13.8468 2.39264 13.377V9.14213C2.39264 8.67234 2.76893 8.2915 3.23311 8.2915H7.37897C7.86436 8.2915 8.25787 8.68978 8.25787 9.18103V13.377C8.25787 13.8468 7.88158 14.2276 7.4174 14.2276V14.2276Z" fill="#90D8F9"/>
<path d="M23.9092 18.1539V16.0403C23.9092 15.7946 23.7123 15.5953 23.4695 15.5953C23.2267 15.5953 23.0298 15.7946 23.0298 16.0403V18.1539C23.0298 18.2357 22.9641 18.3023 22.8833 18.3023H17.0372C16.8576 16.2257 18.0461 14.2017 20.0358 13.4243C20.4322 13.2695 20.6433 12.826 20.5165 12.4146L19.9463 10.5627C19.8804 10.3492 19.729 10.17 19.5308 10.0709C19.3317 9.97153 19.0978 9.95896 18.8889 10.0366C16.9011 10.7752 15.2862 12.2447 14.3416 14.1744C13.3938 16.1107 13.2209 18.3107 13.8548 20.3692C14.5434 22.6048 16.1229 24.4353 18.2136 25.4353C18.1588 25.6543 18.214 25.8848 18.3677 26.0572C18.5464 26.2587 18.8194 26.331 19.0688 26.2514L21.7059 25.4195C21.8946 25.3601 22.0474 25.2204 22.1251 25.0365C22.2029 24.8526 22.1971 24.6444 22.1094 24.4651L20.8828 21.9602C20.7646 21.7188 20.526 21.574 20.2598 21.5811C19.9938 21.5886 19.7635 21.7472 19.6588 21.9948L19.5983 22.1378C18.4651 21.5541 17.6111 20.5368 17.2314 19.3039C17.2199 19.2668 17.2104 19.2295 17.1999 19.1923H22.8831C23.4489 19.1923 23.9092 18.7265 23.9092 18.1539V18.1539ZM19.5463 23.095C19.8279 23.2167 20.1553 23.0832 20.276 22.7976L20.2924 22.7588L21.2146 24.6422L19.1839 25.2828C19.1863 25.2053 19.1726 25.1275 19.1429 25.0535C19.0871 24.9149 18.9814 24.8061 18.8453 24.7472C16.8501 23.8839 15.3371 22.1916 14.6943 20.1043C13.5295 16.3219 15.4754 12.2917 19.1278 10.8962L19.658 12.6182C16.9569 13.7103 15.5235 16.7495 16.3918 19.5688C16.8804 21.1553 18.0301 22.4405 19.5463 23.095V23.095Z" fill="black"/>
<path d="M3.25004 4.23321C3.72357 4.23321 4.10744 3.8447 4.10744 3.36544C4.10744 2.88619 3.72357 2.49768 3.25004 2.49768C2.77651 2.49768 2.39264 2.88619 2.39264 3.36544C2.39264 3.8447 2.77651 4.23321 3.25004 4.23321Z" fill="black"/>
<path d="M5.85752 4.23321C6.33105 4.23321 6.71493 3.8447 6.71493 3.36544C6.71493 2.88619 6.33105 2.49768 5.85752 2.49768C5.38399 2.49768 5.00012 2.88619 5.00012 3.36544C5.00012 3.8447 5.38399 4.23321 5.85752 4.23321Z" fill="black"/>
<path d="M8.46495 4.23321C8.93848 4.23321 9.32235 3.8447 9.32235 3.36544C9.32235 2.88619 8.93848 2.49768 8.46495 2.49768C7.99142 2.49768 7.60754 2.88619 7.60754 3.36544C7.60754 3.8447 7.99142 4.23321 8.46495 4.23321Z" fill="black"/>
<path d="M29.6245 15.3945C28.9174 13.0984 27.2855 11.2437 25.1209 10.2602L25.123 10.2554C25.2277 10.0077 25.1819 9.72966 25.0036 9.52975C24.8252 9.32978 24.5565 9.25536 24.3025 9.33554L23.9091 9.45966V1.03838C23.9091 0.465816 23.4489 0 22.8831 0H5.50049C5.25767 0 5.0608 0.199254 5.0608 0.445001C5.0608 0.690748 5.25767 0.890002 5.50049 0.890002H22.8831C22.9639 0.890002 23.0297 0.956539 23.0297 1.03832V5.87409H0.879375V1.03838C0.879375 0.956598 0.945117 0.890062 1.02592 0.890062H3.26584C3.50865 0.890062 3.70553 0.690808 3.70553 0.445061C3.70553 0.199314 3.50865 5.92693e-05 3.26584 5.92693e-05H1.02598C0.460254 -3.25783e-08 0 0.465816 0 1.03838V18.154C0 18.7265 0.460254 19.1923 1.02598 19.1923H11.6017C11.8445 19.1923 12.0414 18.9931 12.0414 18.7473C12.0414 18.5016 11.8445 18.3023 11.6017 18.3023H1.02598C0.945176 18.3023 0.879433 18.2358 0.879433 18.154V6.76421H23.0297V9.73707L21.6654 10.1675C21.4767 10.227 21.3239 10.3666 21.2461 10.5505C21.1684 10.7344 21.1741 10.9427 21.2619 11.1219L22.4885 13.6269C22.6067 13.8682 22.8461 14.013 23.1114 14.0059C23.3775 13.9984 23.6078 13.8399 23.7124 13.5922L23.7298 13.5512C24.9399 14.1198 25.849 15.1647 26.2479 16.4598C26.9853 18.8543 25.7535 21.4369 23.4435 22.3394C23.0472 22.4942 22.836 22.9378 22.9628 23.3491L23.5331 25.2009C23.6587 25.6406 24.1699 25.8934 24.5904 25.7271C26.5782 24.9884 28.1931 23.5189 29.1377 21.5893C30.0855 19.6529 30.2584 17.4529 29.6245 15.3945V15.3945ZM24.3515 24.8674L23.8212 23.1453C26.5223 22.0532 27.9557 19.014 27.0874 16.1947C26.5774 14.5388 25.3648 13.2277 23.7604 12.5975C23.5032 12.4964 23.2191 12.6 23.0817 12.834L22.1566 10.9446L24.1523 10.3151C24.1288 10.4255 24.1388 10.5404 24.1824 10.6472C24.2392 10.7865 24.3513 10.8989 24.4897 10.9553C26.5585 11.799 28.1241 13.5135 28.7849 15.6593C29.9497 19.4417 28.0038 23.472 24.3515 24.8674Z" fill="black"/>
<path d="M3.23363 7.84631C2.52746 7.84631 1.953 8.42777 1.953 9.14242V13.3763C1.953 14.091 2.52746 14.6724 3.23363 14.6724H7.41699C8.12316 14.6724 8.69761 14.091 8.69761 13.3763V9.18138C8.69761 8.4452 8.10587 7.84631 7.37849 7.84631H3.23363ZM7.81824 9.18138V13.3763C7.81824 13.6003 7.63824 13.7824 7.41699 13.7824H3.23363C3.01238 13.7824 2.83238 13.6003 2.83238 13.3763V9.14242C2.83238 8.91849 3.01238 8.73632 3.23363 8.73632H7.37855C7.62101 8.73638 7.81824 8.93599 7.81824 9.18138Z" fill="black"/>
<path d="M10.3375 9.03685H13.5715C13.8143 9.03685 14.0112 8.8376 14.0112 8.59185C14.0112 8.3461 13.8143 8.14685 13.5715 8.14685H10.3375C10.0947 8.14685 9.89783 8.3461 9.89783 8.59185C9.89783 8.8376 10.0947 9.03685 10.3375 9.03685Z" fill="black"/>
<path d="M10.3375 11.0951H13.5715C13.8143 11.0951 14.0112 10.8958 14.0112 10.6501C14.0112 10.4043 13.8143 10.2051 13.5715 10.2051H10.3375C10.0947 10.2051 9.89783 10.4043 9.89783 10.6501C9.89783 10.8958 10.0947 11.0951 10.3375 11.0951Z" fill="black"/>
</svg>
