<svg width="30" height="22" viewBox="0 0 30 22" fill="none" xmlns="http://www.w3.org/2000/svg">
<path fill-rule="evenodd" clip-rule="evenodd" d="M15.8951 8.44415L12.2689 6.20386V10.6844L12.2691 15.165L15.8951 12.9247L19.5215 10.6844L15.8951 8.44415Z" fill="white"/>
<path fill-rule="evenodd" clip-rule="evenodd" d="M12.269 6.20385L15.8952 8.44415L19.5216 10.6844L15.8952 12.9247L12.2692 15.165L12.269 10.6844V6.20385ZM0.80957 15.7766C1.11673 18.7134 2.29593 19.885 4.68225 20.2572C9.17818 20.958 20.8219 20.958 25.318 20.2572C27.7041 19.885 28.8833 18.7136 29.1905 15.7766C29.491 12.9057 29.491 8.46314 29.1905 5.59228C28.8833 2.65549 27.7041 1.48385 25.318 1.11169C20.8219 0.410851 9.17818 0.410851 4.68225 1.11169C2.29593 1.48385 1.11673 2.65549 0.80957 5.59228C0.509277 8.46314 0.509277 12.9057 0.80957 15.7766Z" fill="#E64C49"/>
<path d="M19.327 20.1265C17.9505 20.1732 16.4948 20.1968 15 20.1968C10.6789 20.1968 6.8557 20.0029 4.77242 19.6781C2.54654 19.3311 1.66214 18.2941 1.39229 15.7155C1.09726 12.8943 1.09726 8.47435 1.39229 5.65315C1.66214 3.07457 2.54654 2.03773 4.77242 1.69075C5.13382 1.63421 5.5584 1.58066 6.0347 1.53122C6.35674 1.4978 6.59065 1.20987 6.55724 0.88783C6.52382 0.566022 6.23543 0.331876 5.91385 0.365521C5.41763 0.41702 4.97292 0.473325 4.59183 0.532605C3.20343 0.749127 2.23022 1.21536 1.52939 1.99974C0.808182 2.80632 0.394363 3.92852 0.226593 5.53138C-0.075531 8.42102 -0.075531 12.9478 0.226593 15.8375C0.394363 17.4403 0.808182 18.5623 1.52939 19.3691C2.23022 20.1535 3.20343 20.6197 4.59183 20.836C6.73119 21.1697 10.6222 21.3689 15 21.3689C16.5079 21.3689 17.9771 21.3451 19.3666 21.2979C19.69 21.2869 19.9434 21.0159 19.9324 20.6925C19.9214 20.3691 19.6518 20.1157 19.327 20.1265V20.1265Z" fill="black"/>
<path d="M29.7734 5.53139C29.6056 3.92876 29.1918 2.80655 28.4708 1.99974C27.7698 1.21536 26.7966 0.74913 25.4082 0.532837C23.2686 0.199127 19.3776 0 15 0C13.4921 0 12.0232 0.0240326 10.6336 0.0709534C10.31 0.0819397 10.0566 0.352936 10.0676 0.676346C10.0786 0.999985 10.3484 1.25381 10.6732 1.24237C12.0495 1.19568 13.5054 1.1721 15.0002 1.1721C19.3208 1.1721 23.1443 1.36597 25.2278 1.69075C27.4535 2.03796 28.3381 3.0748 28.6077 5.65338C28.903 8.47458 28.903 12.8945 28.6077 15.7157C28.3381 18.2943 27.4535 19.3311 25.2278 19.6783C24.8664 19.7346 24.4416 19.7882 23.9653 19.8376C23.6435 19.8711 23.4096 20.159 23.443 20.481C23.4744 20.7825 23.7286 21.0065 24.025 21.0065C24.0454 21.0065 24.0658 21.0054 24.0864 21.0033C24.5824 20.9518 25.0271 20.8958 25.4082 20.8363C26.7966 20.6197 27.7698 20.1537 28.4708 19.3694C29.1918 18.5625 29.6056 17.4403 29.7734 15.8377C30.0755 12.9481 30.0755 8.42102 29.7734 5.53139V5.53139Z" fill="black"/>
<path d="M19.8294 10.186L12.5771 5.70514C12.3962 5.59345 12.1692 5.58841 11.9836 5.69187C11.7982 5.79532 11.683 5.99124 11.683 6.20364V15.1651C11.683 15.3775 11.7982 15.5734 11.9836 15.6768C12.0726 15.7263 12.1708 15.751 12.269 15.751C12.3761 15.751 12.4828 15.7217 12.5771 15.6636L19.8294 11.183C20.0022 11.0761 20.1075 10.8875 20.1075 10.6845C20.1075 10.4812 20.0022 10.2926 19.8294 10.186V10.186ZM12.8551 14.1143V7.25467L18.4064 10.6845L12.8551 14.1143Z" fill="black"/>
<path d="M8.31112 1.34981C8.32417 1.34981 8.33744 1.34935 8.35072 1.34867C8.67367 1.32715 8.91789 1.04791 8.89637 0.724962C8.87486 0.40201 8.59516 0.157335 8.27267 0.179078H8.27221C7.94926 0.200593 7.70527 0.47983 7.72678 0.802782C7.74738 1.11246 8.0051 1.34981 8.31112 1.34981Z" fill="black"/>
<path d="M21.6494 20.0205C21.3265 20.0417 21.082 20.321 21.1036 20.6439C21.1242 20.9536 21.3819 21.191 21.6877 21.191C21.7009 21.191 21.714 21.1905 21.7273 21.1898H21.7277C22.0507 21.1683 22.2947 20.8891 22.2731 20.5661C22.2516 20.2432 21.9728 19.9992 21.6494 20.0205V20.0205Z" fill="black"/>
</svg>
