<svg width="41" height="40" viewBox="0 0 41 40" fill="none" xmlns="http://www.w3.org/2000/svg">
<path fill-rule="evenodd" clip-rule="evenodd" d="M15.4342 17.9659C13.0958 17.9659 11.3198 19.9834 10.6909 22.1957C10.1483 24.1024 10.0553 25.8253 8.22836 27.8184L11.2046 30.5489L13.8309 27.6877V33.4942L20.2551 35.1396L21.5173 34.8163L26.6793 33.4942V27.6877L29.3056 30.5489L32.2819 27.8184C30.4549 25.8253 30.362 24.1024 29.8194 22.1957C29.1905 19.9834 27.4145 17.9659 25.076 17.9659H22.7574C22.4496 19.0577 21.442 19.866 20.2551 19.866C19.0681 19.866 18.0606 19.0577 17.7527 17.9659H15.4342Z" fill="#78D2FA"/>
<path fill-rule="evenodd" clip-rule="evenodd" d="M5.47577 28.7972C3.16608 28.0885 2.17178 31.3284 4.22014 32.4645L6.50327 33.7312C7.12553 32.7745 8.1796 32.4268 9.42194 32.4933L11.2046 30.5489L8.22835 27.8184L7.36694 28.7573C6.88413 29.2822 6.55858 29.1294 5.47577 28.7972V28.7972Z" fill="#FFD1C2"/>
<path fill-rule="evenodd" clip-rule="evenodd" d="M32.2819 27.8184L29.3056 30.5489L31.0883 32.4933C32.3306 32.4269 33.3847 32.7745 34.0069 33.7312L36.2901 32.4645C38.3384 31.3284 37.3441 28.0885 35.0344 28.7972C33.9515 29.1294 33.6261 29.2822 33.1433 28.7573L32.2819 27.8184Z" fill="#FFD1C2"/>
<path fill-rule="evenodd" clip-rule="evenodd" d="M26.6792 33.4942L21.5173 34.8163L22.2148 39.2187H30.7738C32.8775 39.2187 34.6003 38.3086 34.6003 36.2026C34.6003 35.1241 34.3833 34.3136 34.0069 33.7311C33.3846 32.7745 32.3306 32.4268 31.0882 32.4933C30.5036 32.5243 29.8769 32.6461 29.2347 32.8387L26.6792 33.4942Z" fill="#C1B0B5"/>
<path fill-rule="evenodd" clip-rule="evenodd" d="M6.50329 33.7311C6.1268 34.3136 5.90985 35.1241 5.90985 36.2026C5.90985 38.3086 7.63274 39.2187 9.73641 39.2187H18.3617C16.3753 39.2187 15.6579 36.3155 18.3617 35.6246L20.2551 35.1396L13.8309 33.4942L11.2755 32.8387C10.6333 32.6461 10.0066 32.5243 9.42196 32.4933C8.17962 32.4268 7.12555 32.7744 6.50329 33.7311Z" fill="#C1B0B5"/>
<path fill-rule="evenodd" clip-rule="evenodd" d="M18.3617 35.6246C15.6579 36.3155 16.3753 39.2187 18.3617 39.2187H22.2149L21.5173 34.8162L20.2551 35.1396L18.3617 35.6246Z" fill="#FFD1C2"/>
<path fill-rule="evenodd" clip-rule="evenodd" d="M17.6575 15.3971V17.2662C17.6575 17.5098 17.6907 17.7423 17.7527 17.9659C18.0605 19.0577 19.0681 19.866 20.2551 19.866C21.442 19.866 22.4496 19.0577 22.7574 17.9659C22.8195 17.7423 22.8527 17.5098 22.8527 17.2662V15.3971C22.0621 15.7625 21.1807 15.9662 20.2551 15.9662C19.3295 15.9662 18.448 15.7625 17.6575 15.3971V15.3971Z" fill="#FFD1C2"/>
<path fill-rule="evenodd" clip-rule="evenodd" d="M14.0103 8.04049V9.72135C14.0103 12.2304 15.5095 14.4073 17.6575 15.3972C18.448 15.7626 19.3295 15.9664 20.2551 15.9664C21.1807 15.9664 22.0621 15.7626 22.8527 15.3972C25.0007 14.4073 26.4998 12.2304 26.4998 9.72135V8.04049C24.5091 8.4812 19.3648 6.85791 18.6319 5.52698C17.8966 6.85791 16.0011 8.4812 14.0103 8.04049Z" fill="#FFDCD5"/>
<path fill-rule="evenodd" clip-rule="evenodd" d="M20.2551 0.78125C16.8205 0.78125 14.0103 3.59148 14.0103 7.02617V8.04039C16.0011 8.48109 17.8967 6.85781 18.6319 5.52688C19.3648 6.85781 24.5091 8.48102 26.4998 8.04039V7.02617C26.4998 3.59148 23.6897 0.78125 20.2551 0.78125Z" fill="#FFD980"/>
<path d="M37.9522 29.4645C37.5067 28.4166 36.3607 27.5731 34.8053 28.0502C34.8053 28.0502 33.9379 28.3192 33.8182 28.3192C33.8169 28.3192 33.8158 28.3191 33.8146 28.3191C33.8002 28.3088 32.8577 27.2904 32.8577 27.2904C31.5233 25.8346 31.2164 24.5722 30.8611 23.1104C30.7724 22.7458 30.6808 22.3687 30.5708 21.982C30.2094 20.7106 29.5198 19.5405 28.6291 18.687C27.6034 17.7041 26.3748 17.1846 25.0759 17.1846H23.6338V15.88C25.8059 14.6835 27.2811 12.3716 27.2811 9.72125V7.02625C27.2812 3.15195 24.1293 0 20.2551 0C16.3809 0 13.229 3.15195 13.229 7.02625V9.72133C13.229 12.3716 14.7041 14.6836 16.8762 15.8801V17.1847H15.4342C14.1353 17.1847 12.9066 17.7042 11.8809 18.6871C10.9903 19.5405 10.3007 20.7106 9.93937 21.9819C9.82929 22.3688 9.73765 22.7459 9.64898 23.1105C9.29367 24.5723 8.98679 25.8347 7.65257 27.2902C7.65257 27.2902 6.69312 28.3193 6.69187 28.3193C6.57218 28.3193 6.23054 28.2132 5.92734 28.1191L5.70484 28.0502C4.14906 27.573 3.00335 28.4166 2.55788 29.4645C2.06226 30.6302 2.34359 32.3171 3.84109 33.1476L5.47429 34.0537C5.24523 34.6615 5.12851 35.378 5.12851 36.2025C5.12851 38.5448 6.89413 39.9999 9.73632 39.9999H18.3616H23.7561C24.1875 39.9999 24.5373 39.6501 24.5373 39.2187C24.5373 38.7873 24.1875 38.4374 23.7561 38.4374H22.8821L22.4002 35.3962L29.4286 33.5955C29.4391 33.5927 29.4495 33.5898 29.4598 33.5867C30.983 33.1282 32.2109 33.1644 32.9165 33.6891C33.5154 34.1342 33.8191 34.9798 33.8191 36.2026C33.8191 38.1472 31.911 38.4375 30.7737 38.4375C30.3423 38.4375 29.9925 38.7873 29.9925 39.2188C29.9925 39.6502 30.3423 40 30.7737 40C33.616 40 35.3816 38.5449 35.3816 36.2026C35.3816 35.3781 35.2648 34.6616 35.0358 34.0538L36.6688 33.1477C38.1666 32.3171 38.4478 30.6302 37.9522 29.4645V29.4645ZM20.2551 1.5625C23.2677 1.5625 25.7187 4.01352 25.7187 7.02625V7.33352C24.8601 7.33547 23.5994 7.10664 22.3318 6.70359C20.4252 6.09734 19.4699 5.42844 19.3157 5.14922C19.1782 4.90031 18.9162 4.74578 18.6319 4.74578C18.3474 4.74578 18.0855 4.90039 17.948 5.1493C17.4362 6.07586 16.1544 7.26508 14.7916 7.32852V7.02633C14.7915 4.01352 17.2425 1.5625 20.2551 1.5625V1.5625ZM14.7915 9.72133V8.89609C16.4416 8.85688 17.8705 7.79484 18.7379 6.74289C19.6435 7.41695 20.9886 7.91609 21.8583 8.19266C22.45 8.38078 24.2101 8.8968 25.6974 8.8968C25.7044 8.8968 25.7116 8.8968 25.7186 8.89672V9.72141C25.7186 12.7341 23.2676 15.1852 20.255 15.1852C17.2423 15.1852 14.7915 12.734 14.7915 9.72133V9.72133ZM22.0714 16.509V17.2662C22.0714 18.269 21.2566 19.0848 20.2551 19.0848C19.2536 19.0848 18.4387 18.269 18.4387 17.2662V16.509C19.0184 16.6642 19.6271 16.7475 20.2551 16.7475C20.883 16.7475 21.4918 16.6642 22.0714 16.509ZM6.31406 32.7327L4.59906 31.7812C3.89343 31.3899 3.76148 30.6272 3.99585 30.076C4.12445 29.7735 4.45788 29.302 5.24663 29.5441L5.46421 29.6113C6.41109 29.9053 7.15898 30.1372 7.94265 29.2855L8.27593 28.9222L10.1015 30.597L9.08437 31.7056C8.12265 31.7145 7.30359 31.9578 6.66156 32.435C6.5382 32.5266 6.42257 32.6262 6.31406 32.7327V32.7327ZM15.8307 37.8037C15.8587 38.0268 15.9152 38.2389 15.9953 38.4375H9.73632C8.59898 38.4375 6.69101 38.1471 6.69101 36.2026C6.69101 34.9799 6.99468 34.1342 7.59359 33.6891C8.29929 33.1645 9.52702 33.1282 11.0502 33.5867C11.0568 33.5887 14.6632 34.513 17.3109 35.1916C16.1459 35.8015 15.7141 36.8759 15.8307 37.8037V37.8037ZM10.9809 31.9497L13.0496 29.6948V32.4868C13.0497 32.4868 11.1466 31.9905 10.9809 31.9497ZM18.3617 38.4375C17.7595 38.4375 17.4312 38.0079 17.381 37.6087C17.3103 37.0462 17.7492 36.5875 18.5556 36.3814L20.8799 35.7859L21.3001 38.4375H18.3617ZM26.6793 24.0387C26.2479 24.0387 25.898 24.3885 25.898 24.8199V32.8871L20.2548 34.333L14.6122 32.8872V24.82C14.6122 24.3886 14.2623 24.0388 13.8309 24.0388C13.3995 24.0388 13.0497 24.3886 13.0497 24.82V27.3837L11.1578 29.4457L9.30968 27.7502C10.4976 26.2319 10.8378 24.8352 11.1673 23.4796C11.2524 23.1294 11.3405 22.7673 11.4423 22.4093C11.9437 20.6455 13.4068 18.7472 15.4343 18.7472H17.2184C17.7681 19.8712 18.9226 20.6473 20.2552 20.6473C21.5877 20.6473 22.7422 19.8712 23.2919 18.7472H25.076C27.1035 18.7472 28.5666 20.6455 29.068 22.4095C29.1698 22.7673 29.2579 23.1294 29.343 23.4796C29.6725 24.8352 30.0126 26.2318 31.2006 27.7502L29.3525 29.4457L27.4606 27.3837V24.82C27.4605 24.3885 27.1107 24.0387 26.6793 24.0387V24.0387ZM29.0254 32.0858L27.4605 32.4867V29.6948L29.5293 31.9497C29.3636 31.9905 29.1963 32.0346 29.0254 32.0858V32.0858ZM35.911 31.7813L34.1962 32.7327C34.0877 32.6261 33.972 32.5266 33.8487 32.435C33.2067 31.9578 32.3877 31.7145 31.4259 31.7056L30.4088 30.5971L32.2344 28.9223L32.5684 29.2863C33.3512 30.1373 34.0991 29.9054 35.046 29.6113L35.2637 29.5441C36.0523 29.302 36.3858 29.7735 36.5144 30.076C36.7487 30.6271 36.6168 31.3899 35.911 31.7813V31.7813Z" fill="#202B46"/>
<path d="M27.2661 38.4375C26.8347 38.4375 26.4848 38.7873 26.4848 39.2188C26.4848 39.6502 26.8347 40 27.2661 40H27.2683C27.6997 40 28.0483 39.6502 28.0483 39.2188C28.0483 38.7873 27.6976 38.4375 27.2661 38.4375V38.4375Z" fill="#202B46"/>
</svg>
