<svg width="13" height="16" viewBox="0 0 13 16" fill="none" xmlns="http://www.w3.org/2000/svg">
<path d="M5.92188 15.0234C4.39844 13.1191 1 8.57812 1 6C1 2.89453 3.49023 0.375 6.625 0.375C9.73047 0.375 12.25 2.89453 12.25 6C12.25 8.57812 8.82227 13.1191 7.29883 15.0234C6.94727 15.4629 6.27344 15.4629 5.92188 15.0234ZM6.625 7.875C7.65039 7.875 8.5 7.05469 8.5 6C8.5 4.97461 7.65039 4.125 6.625 4.125C5.57031 4.125 4.75 4.97461 4.75 6C4.75 7.05469 5.57031 7.875 6.625 7.875Z" fill="#73818F"/>
</svg>
