<svg width="29" height="28" viewBox="0 0 29 28" fill="none" xmlns="http://www.w3.org/2000/svg">
<path d="M26.5 0H2.4375C1.375 0 0.5 0.9375 0.5 2.0625V26C0.5 27.125 1.375 28 2.4375 28H26.5C27.5625 28 28.5 27.125 28.5 26V2.0625C28.5 0.9375 27.5625 0 26.5 0ZM8.9375 24H4.8125V10.6875H8.9375V24ZM6.875 8.8125C5.5 8.8125 4.4375 7.75 4.4375 6.4375C4.4375 5.125 5.5 4 6.875 4C8.1875 4 9.25 5.125 9.25 6.4375C9.25 7.75 8.1875 8.8125 6.875 8.8125ZM24.5 24H20.3125V17.5C20.3125 16 20.3125 14 18.1875 14C16 14 15.6875 15.6875 15.6875 17.4375V24H11.5625V10.6875H15.5V12.5H15.5625C16.125 11.4375 17.5 10.3125 19.5 10.3125C23.6875 10.3125 24.5 13.125 24.5 16.6875V24Z" fill="#73818F"/>
</svg>
